<svg width="24" height="24" viewBox="0 0 24 24" fill="none" xmlns="http://www.w3.org/2000/svg">
<path d="M7 16C7 15.4477 7.44772 15 8 15C8.55228 15 9 15.4477 9 16V19C9 19.5523 8.55228 20 8 20C7.44772 20 7 19.5523 7 19V16Z" fill="#007bff"/>
<path fill-rule="evenodd" clip-rule="evenodd" d="M3 13H21V16H12H11C11 15.4477 10.5523 15 10 15C9.44772 15 9 15.4477 9 16H7V15C7 14.4477 6.55228 14 6 14C5.44772 14 5 14.4477 5 15V16H3V13Z" fill="#007bff"/>
<path d="M17 15H20V18H17V15Z" fill="#007bff"/>
<path d="M5 7C5 6.44772 5.44772 6 6 6H11.4615V12H5V7Z" fill="#007bff"/>
<path d="M12.5385 6H18C18.5523 6 19 6.44772 19 7V12H12.5385V6Z" fill="#007bff"/>
<path d="M20 9H23V14C23 15.1046 22.1046 16 21 16H20V9Z" fill="#007bff"/>
<path d="M1 9H4V16H3C1.89543 16 1 15.1046 1 14V9Z" fill="#007bff"/>
</svg>
