<svg width="24" height="24" viewBox="0 0 24 24" fill="none" xmlns="http://www.w3.org/2000/svg">
<path d="M3 9H4.33333C6.35838 9 8 10.6416 8 12.6667V16C8 18.2091 9.79086 20 12 20V20C14.2091 20 16 18.2091 16 16V14M23 5H20C17.7909 5 16 6.79086 16 9V11.5" stroke="#007bff" stroke-width="5"/>
<path d="M2 6V12C2 12.5523 1.55228 13 1 13C0.447715 13 0 12.5523 0 12V6C0 5.44772 0.447715 5 1 5C1.55228 5 2 5.44772 2 6Z" fill="#007bff"/>
<path d="M19 13L13 13C12.4477 13 12 12.5523 12 12C12 11.4477 12.4477 11 13 11L19 11C19.5523 11 20 11.4477 20 12C20 12.5523 19.5523 13 19 13Z" fill="#007bff"/>
<path d="M22 8V2C22 1.44772 22.4477 1 23 1C23.5523 1 24 1.44772 24 2V8C24 8.55228 23.5523 9 23 9C22.4477 9 22 8.55228 22 8Z" fill="#007bff"/>
</svg>
