<svg width="24" height="24" viewBox="0 0 24 24" fill="none" xmlns="http://www.w3.org/2000/svg">
<path d="M2 22C2 21.4477 2.44772 21 3 21H21C21.5523 21 22 21.4477 22 22C22 22.5523 21.5523 23 21 23H3C2.44772 23 2 22.5523 2 22Z" fill="#007bff"/>
<path d="M2 7C2 6.44772 2.44772 6 3 6H21C21.5523 6 22 6.44772 22 7C22 7.55228 21.5523 8 21 8H3C2.44772 8 2 7.55228 2 7Z" fill="#007bff"/>
<path d="M5 4.88462C5 3.29149 6.29149 2 7.88462 2H16.1154C17.7085 2 19 3.29149 19 4.88462C19 4.94834 18.9483 5 18.8846 5H5.11538C5.05166 5 5 4.94834 5 4.88462Z" fill="#007bff"/>
<path d="M15 17.2778C15 18.4444 13.6569 20 12 20C10.3431 20 9 18.4444 9 17.2778C9 15.3333 9.75 14.5556 9.75 14.5556C9.75 14.5556 10.0179 14.5952 10.4327 14.697C11.2044 13.6188 12 13 12 13C12 13 12.7956 13.6188 13.5673 14.697C13.9821 14.5952 14.25 14.5556 14.25 14.5556C14.25 14.5556 15 15.3333 15 17.2778Z" fill="#007bff"/>
<path fill-rule="evenodd" clip-rule="evenodd" d="M4 8C4 7.44772 4.44772 7 5 7H19C19.5523 7 20 7.44772 20 8V21C20 21.5523 19.5523 22 19 22H16.5769C16.8106 22 17 21.8106 17 21.5769V16C17 13.2386 14.7614 11 12 11C9.23858 11 7 13.2386 7 16V21.5769C7 21.8106 7.18942 22 7.42308 22H5C4.44772 22 4 21.5523 4 21V8ZM18 10C18 9.44772 17.5523 9 17 9C16.4477 9 16 9.44772 16 10C16 10.5523 16.4477 11 17 11C17.5523 11 18 10.5523 18 10Z" fill="#007bff"/>
</svg>
