<svg width="24" height="24" viewBox="0 0 24 24" fill="none" xmlns="http://www.w3.org/2000/svg">
<path d="M17 10V11.5858C17 11.851 16.8946 12.1054 16.7071 12.2929L14.2929 14.7071C14.1054 14.8946 14 15.149 14 15.4142L14 23" stroke="#007bff" stroke-width="4"/>
<path d="M4 2H23V6C23 8.20914 21.2091 10 19 10H4V2Z" fill="#007bff"/>
<path d="M3 2H10V7.5C10 9.433 8.433 11 6.5 11C4.567 11 3 9.433 3 7.5V2Z" fill="#E5E5E5"/>
<path d="M1 2H8V6.5C8 8.433 6.433 10 4.5 10C2.567 10 1 8.433 1 6.5V2Z" fill="#007bff"/>
</svg>
