<svg width="24" height="24" viewBox="0 0 24 24" fill="none" xmlns="http://www.w3.org/2000/svg">
<path d="M22.7857 6.72781C22.9245 6.90413 23 7.12203 23 7.34644V20C23 20.5523 22.5523 21 22 21H18C17.4477 21 17 20.5523 17 20L17 7.31985C17 7.11181 17.0649 6.90895 17.1856 6.73952L19.0759 4.08681C19.463 3.5436 20.2634 3.52444 20.676 4.04851L22.7857 6.72781Z" fill="#007bff"/>
<path d="M6.78568 6.72781C6.92451 6.90413 7 7.12203 7 7.34644V20C7 20.5523 6.55228 21 6 21H2C1.44772 21 1 20.5523 1 20L1 7.31985C1 7.11181 1.06489 6.90895 1.18562 6.73952L3.07595 4.08681C3.46304 3.5436 4.26336 3.52444 4.67601 4.04851L6.78568 6.72781Z" fill="#007bff"/>
<path d="M14.7857 6.72781C14.9245 6.90413 15 7.12203 15 7.34644V20C15 20.5523 14.5523 21 14 21H10C9.44772 21 9 20.5523 9 20L9 7.31985C9 7.11181 9.06489 6.90895 9.18562 6.73952L11.0759 4.08681C11.463 3.5436 12.2634 3.52444 12.676 4.04851L14.7857 6.72781Z" fill="#007bff"/>
<path d="M12 9H18V13H12V9Z" fill="#007bff"/>
<path d="M15 15H24V19H15V15Z" fill="#007bff"/>
<path d="M15 9H24V13H15V9Z" fill="#007bff"/>
<path d="M0 15H8V19H0V15Z" fill="#007bff"/>
<path d="M0 9H8V13H0V9Z" fill="#007bff"/>
<path d="M2 9H8V13H2V9Z" fill="#007bff"/>
<path d="M6 15H12V19H6V15Z" fill="#007bff"/>
<circle cx="12" cy="10" r="1" fill="#D9D9D9"/>
<circle cx="20" cy="10" r="1" fill="#D9D9D9"/>
<circle cx="4" cy="10" r="1" fill="#D9D9D9"/>
<circle cx="12" cy="17" r="1" fill="#D9D9D9"/>
<circle cx="20" cy="17" r="1" fill="#D9D9D9"/>
<circle cx="4" cy="17" r="1" fill="#D9D9D9"/>
</svg>
