<svg width="24" height="24" viewBox="0 0 24 24" fill="none" xmlns="http://www.w3.org/2000/svg">
<path fill-rule="evenodd" clip-rule="evenodd" d="M12 23C18.0751 23 23 18.0751 23 12C23 5.92487 18.0751 1 12 1C5.92487 1 1 5.92487 1 12C1 14.9001 2.1223 17.5381 3.95629 19.5033L5.55169 17.9079C5.43765 17.4809 5.54814 17.0064 5.88315 16.6713L6.94275 15.6117C6.26089 14.1844 6.51109 12.423 7.69334 11.2408L8.59843 10.3357C8.09857 9.83582 8.09857 9.02537 8.59843 8.5255L9.50353 7.6204L16.7443 14.8612L15.8392 15.7662C15.3393 16.2661 14.5289 16.2661 14.029 15.7662L13.1239 16.6713C11.9417 17.8536 10.1803 18.1038 8.75294 17.4219L7.69334 18.4815C7.35833 18.8165 6.88381 18.927 6.45679 18.813L4.88251 20.3873C6.80094 22.0169 9.28566 23 12 23ZM14.4815 6.26279L12.2188 8.52553L13.1239 9.43062L15.3866 7.16788C15.6365 6.91795 15.6365 6.51273 15.3866 6.26279C15.1367 6.01286 14.7315 6.01286 14.4815 6.26279ZM14.9341 11.2407L17.1968 8.97798C17.4467 8.72805 17.852 8.72805 18.1019 8.97798C18.3518 9.22792 18.3518 9.63314 18.1019 9.88308L15.8392 12.1458L14.9341 11.2407Z" fill="#007bff"/>
</svg>
