<svg width="24" height="24" viewBox="0 0 24 24" fill="none" xmlns="http://www.w3.org/2000/svg">
<path fill-rule="evenodd" clip-rule="evenodd" d="M8.72724 6.26665C8.72724 5.01482 9.70408 4 10.9091 4H21.8181C23.0231 4 24 5.01482 24 6.26666L24 19.3C24 20.2389 23.2673 21 22.3636 21H0V16.0889C0 14.8371 0.976834 13.8223 2.18182 13.8223H4.36367V11.1776C4.36367 9.92581 5.34051 8.91099 6.54549 8.91099H8.72724V6.26665ZM8.72724 16.0889V18.7333H2.18182V16.0889H8.72724ZM13.0909 11.1777V13.8221H6.54549V11.1776L13.0909 11.1777ZM17.4546 8.91099V6.26666L10.9091 6.26665V8.91099H17.4546Z" fill="#007bff"/>
</svg>
