<svg width="24" height="24" viewBox="0 0 24 24" fill="none" xmlns="http://www.w3.org/2000/svg">
<path d="M2 11L12 2L22 11" stroke="#007bff" stroke-width="2" stroke-miterlimit="10" stroke-linecap="round" stroke-linejoin="round"/>
<path fill-rule="evenodd" clip-rule="evenodd" d="M20.8721 9.91587C20.8721 9.54188 20.7112 9.18647 20.4315 8.94251L12.8268 2.31086C12.3515 1.89638 11.6485 1.89638 11.1732 2.31086L3.56859 8.94251C3.28883 9.18647 3.12793 9.54188 3.12793 9.91587V19.3225C3.12793 19.8458 3.57674 20.2699 4.13038 20.2699H4.7324L4.7324 18.5826C4.7324 17.8733 5.29985 17.2983 5.99984 17.2983C6.69983 17.2983 7.26728 17.8733 7.26728 18.5826L7.26728 21.7158C7.26728 22.425 7.83474 23 8.53473 23C9.23472 23 9.80217 22.425 9.80217 21.7158V17.0169C9.80217 16.3076 10.3696 15.7327 11.0696 15.7327C11.7696 15.7327 12.3371 16.3076 12.3371 17.0169V18.5826H19.8697C20.4233 18.5826 20.8721 18.1584 20.8721 17.6352V9.91587ZM11.4455 7H9.22751V9.21803H11.4455V7ZM12.5545 7H14.7726V9.21803H12.5545V7ZM11.4455 9.91864H9.22751V12.1367H11.4455V9.91864ZM12.5545 9.91864H14.7726V12.1367H12.5545V9.91864Z" fill="#007bff"/>
</svg>
