<svg width="24" height="24" viewBox="0 0 24 24" fill="none" xmlns="http://www.w3.org/2000/svg">
<path d="M22 12L19 14.5V18C19 18.5523 18.5523 19 18 19H3C2.44772 19 2 18.5523 2 18V14.5L5 12" stroke="#007bff" stroke-width="3"/>
<path d="M2 8L0.939341 6.93934C0.510344 7.36834 0.38201 8.01351 0.614182 8.57403C0.846352 9.13454 1.39331 9.5 2 9.5V8ZM18.5858 6.5L2 6.5V9.5H18.5858V6.5ZM3.06066 9.06066L7.06066 5.06066L4.93934 2.93934L0.939341 6.93934L3.06066 9.06066ZM20.3536 8.76777L23.0607 6.06066L20.9393 3.93934L18.2322 6.64645L20.3536 8.76777ZM18.5858 9.5C19.2488 9.5 19.8847 9.23661 20.3536 8.76777L18.2322 6.64645C18.326 6.55268 18.4532 6.5 18.5858 6.5V9.5Z" fill="#007bff"/>
</svg>
