<svg width="97" height="96" viewBox="0 0 97 96" fill="none" xmlns="http://www.w3.org/2000/svg">
<g opacity="0.5">
<g clip-path="url(#clip0_13960_5215)">
<rect x="0.399902" width="96" height="96" rx="48" fill="#E4EBF0"/>
<path d="M13.8431 30.4429C13.8431 28.786 15.1863 27.4429 16.8431 27.4429H47.5434L62.5214 42.4208V86.6012C62.5214 88.2581 61.1782 89.6012 59.5214 89.6012H16.8431C15.1863 89.6012 13.8431 88.2581 13.8431 86.6012V30.4429Z" fill="#F84747"/>
<mask id="mask0_13960_5215" style="mask-type:alpha" maskUnits="userSpaceOnUse" x="13" y="27" width="50" height="63">
<path d="M13.8431 30.4429C13.8431 28.786 15.1863 27.4429 16.8431 27.4429H47.5434L62.5214 42.4208V86.6012C62.5214 88.2581 61.1782 89.6012 59.5214 89.6012H16.8431C15.1863 89.6012 13.8431 88.2581 13.8431 86.6012V30.4429Z" fill="#0085FF"/>
</mask>
<g mask="url(#mask0_13960_5215)">
<path fill-rule="evenodd" clip-rule="evenodd" d="M34.7393 59.8882C34.7393 59.0598 35.4108 58.3882 36.2393 58.3882H49.2393C50.0677 58.3882 50.7393 59.0598 50.7393 59.8882C50.7393 60.7166 50.0677 61.3882 49.2393 61.3882H36.2393C35.4108 61.3882 34.7393 60.7166 34.7393 59.8882Z" fill="#B92929"/>
<path fill-rule="evenodd" clip-rule="evenodd" d="M40.7393 67.8882C40.7393 67.0598 41.4108 66.3882 42.2393 66.3882H49.2393C50.0677 66.3882 50.7393 67.0598 50.7393 67.8882C50.7393 68.7166 50.0677 69.3882 49.2393 69.3882H42.2393C41.4108 69.3882 40.7393 68.7166 40.7393 67.8882Z" fill="#B92929"/>
<path fill-rule="evenodd" clip-rule="evenodd" d="M22.7393 75.8887C22.7393 75.0602 23.4108 74.3887 24.2393 74.3887H30.2393C31.0677 74.3887 31.7393 75.0602 31.7393 75.8887C31.7393 76.7171 31.0677 77.3887 30.2393 77.3887H24.2393C23.4108 77.3887 22.7393 76.7171 22.7393 75.8887Z" fill="#B92929"/>
<path fill-rule="evenodd" clip-rule="evenodd" d="M33.7393 75.8887C33.7393 75.0602 34.4108 74.3887 35.2393 74.3887L49.2393 74.3887C50.0677 74.3887 50.7393 75.0602 50.7393 75.8887C50.7393 76.7171 50.0677 77.3887 49.2393 77.3887L35.2393 77.3887C34.4108 77.3887 33.7393 76.7171 33.7393 75.8887Z" fill="#B92929"/>
<path fill-rule="evenodd" clip-rule="evenodd" d="M22.7393 59.8882C22.7393 59.0598 23.4108 58.3882 24.2393 58.3882H30.2393C31.0677 58.3882 31.7393 59.0598 31.7393 59.8882C31.7393 60.7166 31.0677 61.3882 30.2393 61.3882H24.2393C23.4108 61.3882 22.7393 60.7166 22.7393 59.8882Z" fill="white"/>
<path fill-rule="evenodd" clip-rule="evenodd" d="M22.7393 67.8882C22.7393 67.0598 23.4108 66.3882 24.2393 66.3882H37.2393C38.0677 66.3882 38.7393 67.0598 38.7393 67.8882C38.7393 68.7166 38.0677 69.3882 37.2393 69.3882H24.2393C23.4108 69.3882 22.7393 68.7166 22.7393 67.8882Z" fill="white"/>
</g>
<path d="M47.5433 27.4429L62.5213 42.4208H50.5433C48.8865 42.4208 47.5433 41.0776 47.5433 39.4208V27.4429Z" fill="#B92929"/>
<path fill-rule="evenodd" clip-rule="evenodd" d="M14.8397 28.44C14.1785 29.1012 14.1785 30.1732 14.8397 30.8344L21.6132 37.6079C22.2744 38.2691 23.3464 38.2691 24.0076 37.6079C24.6688 36.9467 24.6688 35.8747 24.0076 35.2135L17.2341 28.44C16.5729 27.7788 15.5009 27.7788 14.8397 28.44ZM12.7184 32.9557C10.8856 31.1229 10.8856 28.1515 12.7184 26.3187C14.5512 24.486 17.5226 24.486 19.3554 26.3187L26.1289 33.0922C27.9617 34.925 27.9617 37.8965 26.1289 39.7292C24.2962 41.562 21.3247 41.562 19.4919 39.7292L12.7184 32.9557Z" fill="#B92929"/>
<path d="M71.3999 5C72.5045 5 73.3999 4.10457 73.3999 3C73.3999 1.89543 72.5045 1 71.3999 1C70.2953 1 69.3999 1.89543 69.3999 3C69.3999 4.10457 70.2953 5 71.3999 5Z" fill="#B3BEC9"/>
<path d="M71.3999 13C72.5045 13 73.3999 12.1046 73.3999 11C73.3999 9.89543 72.5045 9 71.3999 9C70.2953 9 69.3999 9.89543 69.3999 11C69.3999 12.1046 70.2953 13 71.3999 13Z" fill="#B3BEC9"/>
<path d="M71.3999 21C72.5045 21 73.3999 20.1046 73.3999 19C73.3999 17.8954 72.5045 17 71.3999 17C70.2953 17 69.3999 17.8954 69.3999 19C69.3999 20.1046 70.2953 21 71.3999 21Z" fill="#9C1EFF"/>
<path d="M71.3999 29C72.5045 29 73.3999 28.1046 73.3999 27C73.3999 25.8954 72.5045 25 71.3999 25C70.2953 25 69.3999 25.8954 69.3999 27C69.3999 28.1046 70.2953 29 71.3999 29Z" fill="#B3BEC9"/>
<path d="M71.3999 37C72.5045 37 73.3999 36.1046 73.3999 35C73.3999 33.8954 72.5045 33 71.3999 33C70.2953 33 69.3999 33.8954 69.3999 35C69.3999 36.1046 70.2953 37 71.3999 37Z" fill="#B3BEC9"/>
<path d="M71.3999 45C72.5045 45 73.3999 44.1046 73.3999 43C73.3999 41.8954 72.5045 41 71.3999 41C70.2953 41 69.3999 41.8954 69.3999 43C69.3999 44.1046 70.2953 45 71.3999 45Z" fill="#B3BEC9"/>
<path d="M79.3999 5C80.5045 5 81.3999 4.10457 81.3999 3C81.3999 1.89543 80.5045 1 79.3999 1C78.2953 1 77.3999 1.89543 77.3999 3C77.3999 4.10457 78.2953 5 79.3999 5Z" fill="#B3BEC9"/>
<path d="M79.3999 13C80.5045 13 81.3999 12.1046 81.3999 11C81.3999 9.89543 80.5045 9 79.3999 9C78.2953 9 77.3999 9.89543 77.3999 11C77.3999 12.1046 78.2953 13 79.3999 13Z" fill="#B3BEC9"/>
<path d="M79.3999 21C80.5045 21 81.3999 20.1046 81.3999 19C81.3999 17.8954 80.5045 17 79.3999 17C78.2953 17 77.3999 17.8954 77.3999 19C77.3999 20.1046 78.2953 21 79.3999 21Z" fill="#B3BEC9"/>
<path d="M79.3999 29C80.5045 29 81.3999 28.1046 81.3999 27C81.3999 25.8954 80.5045 25 79.3999 25C78.2953 25 77.3999 25.8954 77.3999 27C77.3999 28.1046 78.2953 29 79.3999 29Z" fill="#B3BEC9"/>
<path d="M79.3999 37C80.5045 37 81.3999 36.1046 81.3999 35C81.3999 33.8954 80.5045 33 79.3999 33C78.2953 33 77.3999 33.8954 77.3999 35C77.3999 36.1046 78.2953 37 79.3999 37Z" fill="#B3BEC9"/>
<path d="M79.3999 45C80.5045 45 81.3999 44.1046 81.3999 43C81.3999 41.8954 80.5045 41 79.3999 41C78.2953 41 77.3999 41.8954 77.3999 43C77.3999 44.1046 78.2953 45 79.3999 45Z" fill="#0085FF"/>
<path d="M87.3999 5C88.5045 5 89.3999 4.10457 89.3999 3C89.3999 1.89543 88.5045 1 87.3999 1C86.2953 1 85.3999 1.89543 85.3999 3C85.3999 4.10457 86.2953 5 87.3999 5Z" fill="#B3BEC9"/>
<path d="M95.3999 5C96.5045 5 97.3999 4.10457 97.3999 3C97.3999 1.89543 96.5045 1 95.3999 1C94.2953 1 93.3999 1.89543 93.3999 3C93.3999 4.10457 94.2953 5 95.3999 5Z" fill="#B3BEC9"/>
<path d="M87.3999 13C88.5045 13 89.3999 12.1046 89.3999 11C89.3999 9.89543 88.5045 9 87.3999 9C86.2953 9 85.3999 9.89543 85.3999 11C85.3999 12.1046 86.2953 13 87.3999 13Z" fill="#B3BEC9"/>
<path d="M95.3999 13C96.5045 13 97.3999 12.1046 97.3999 11C97.3999 9.89543 96.5045 9 95.3999 9C94.2953 9 93.3999 9.89543 93.3999 11C93.3999 12.1046 94.2953 13 95.3999 13Z" fill="#B3BEC9"/>
<path d="M87.3999 21C88.5045 21 89.3999 20.1046 89.3999 19C89.3999 17.8954 88.5045 17 87.3999 17C86.2953 17 85.3999 17.8954 85.3999 19C85.3999 20.1046 86.2953 21 87.3999 21Z" fill="#B3BEC9"/>
<path d="M95.3999 21C96.5045 21 97.3999 20.1046 97.3999 19C97.3999 17.8954 96.5045 17 95.3999 17C94.2953 17 93.3999 17.8954 93.3999 19C93.3999 20.1046 94.2953 21 95.3999 21Z" fill="#B3BEC9"/>
<path d="M87.3999 29C88.5045 29 89.3999 28.1046 89.3999 27C89.3999 25.8954 88.5045 25 87.3999 25C86.2953 25 85.3999 25.8954 85.3999 27C85.3999 28.1046 86.2953 29 87.3999 29Z" fill="#B3BEC9"/>
<path d="M95.3999 29C96.5045 29 97.3999 28.1046 97.3999 27C97.3999 25.8954 96.5045 25 95.3999 25C94.2953 25 93.3999 25.8954 93.3999 27C93.3999 28.1046 94.2953 29 95.3999 29Z" fill="#B3BEC9"/>
<path d="M87.3999 37C88.5045 37 89.3999 36.1046 89.3999 35C89.3999 33.8954 88.5045 33 87.3999 33C86.2953 33 85.3999 33.8954 85.3999 35C85.3999 36.1046 86.2953 37 87.3999 37Z" fill="#B3BEC9"/>
<path d="M95.3999 37C96.5045 37 97.3999 36.1046 97.3999 35C97.3999 33.8954 96.5045 33 95.3999 33C94.2953 33 93.3999 33.8954 93.3999 35C93.3999 36.1046 94.2953 37 95.3999 37Z" fill="#B3BEC9"/>
<path d="M87.3999 45C88.5045 45 89.3999 44.1046 89.3999 43C89.3999 41.8954 88.5045 41 87.3999 41C86.2953 41 85.3999 41.8954 85.3999 43C85.3999 44.1046 86.2953 45 87.3999 45Z" fill="#B3BEC9"/>
<path d="M95.3999 45C96.5045 45 97.3999 44.1046 97.3999 43C97.3999 41.8954 96.5045 41 95.3999 41C94.2953 41 93.3999 41.8954 93.3999 43C93.3999 44.1046 94.2953 45 95.3999 45Z" fill="#B3BEC9"/>
<path d="M68.1854 53.7297C68.5776 53.3292 69.2222 53.3292 69.6144 53.7297L71.791 55.9525C72.0231 56.1895 72.3578 56.296 72.6842 56.2367L75.8036 55.6701C76.3652 55.5681 76.8981 55.9561 76.9736 56.5218L77.3676 59.4761C77.4131 59.8174 77.6309 60.1112 77.9442 60.254L80.7441 61.5295C81.2787 61.773 81.4892 62.4227 81.1991 62.9335L79.7375 65.506C79.5635 65.8124 79.5635 66.1876 79.7375 66.494L81.1991 69.0665C81.4892 69.5773 81.2787 70.227 80.7441 70.4705L77.9442 71.746C77.6309 71.8888 77.4131 72.1826 77.3676 72.5239L76.9736 75.4782C76.8981 76.0439 76.3652 76.4319 75.8036 76.3299L72.6842 75.7633C72.3578 75.704 72.0231 75.8105 71.791 76.0475L69.6144 78.2703C69.2222 78.6708 68.5776 78.6708 68.1854 78.2703L66.0088 76.0475C65.7767 75.8105 65.4421 75.704 65.1156 75.7633L61.9962 76.3299C61.4346 76.4319 60.9017 76.0439 60.8262 75.4782L60.4323 72.5239C60.3867 72.1826 60.1689 71.8888 59.8556 71.746L57.0557 70.4705C56.5211 70.227 56.3106 69.5773 56.6007 69.0665L58.0623 66.494C58.2363 66.1876 58.2363 65.8124 58.0623 65.506L56.6007 62.9335C56.3106 62.4227 56.5211 61.773 57.0557 61.5295L59.8556 60.254C60.1689 60.1112 60.3867 59.8174 60.4323 59.4761L60.8262 56.5218C60.9017 55.9561 61.4346 55.5681 61.9962 55.6701L65.1156 56.2367C65.4421 56.296 65.7767 56.1895 66.0088 55.9525L68.1854 53.7297Z" fill="#FFAE41"/>
</g>
</g>
<defs>
<clipPath id="clip0_13960_5215">
<rect x="0.399902" width="96" height="96" rx="48" fill="white"/>
</clipPath>
</defs>
</svg>
