<svg width="102" height="104" viewBox="0 0 102 104" fill="none" xmlns="http://www.w3.org/2000/svg">
<rect width="102" height="104" rx="5" fill="white"/>
<rect width="102" height="104" rx="5" stroke="#E4EBF0"/>
<g style="mix-blend-mode:luminosity" opacity="0.5">
<g clip-path="url(#clip0_13885_12250)">
<rect x="3" y="4" width="96" height="96" rx="48" fill="#E4EBF0"/>
<path d="M16.4432 34.4431C16.4432 32.7863 17.7864 31.4431 19.4432 31.4431H50.1435L65.1215 46.421V90.6015C65.1215 92.2583 63.7783 93.6015 62.1215 93.6015H19.4432C17.7864 93.6015 16.4432 92.2583 16.4432 90.6015V34.4431Z" fill="#F84747"/>
<mask id="mask0_13885_12250" style="mask-type:alpha" maskUnits="userSpaceOnUse" x="16" y="31" width="50" height="63">
<path d="M16.4432 34.4431C16.4432 32.7863 17.7864 31.4431 19.4432 31.4431H50.1435L65.1215 46.421V90.6015C65.1215 92.2583 63.7783 93.6015 62.1215 93.6015H19.4432C17.7864 93.6015 16.4432 92.2583 16.4432 90.6015V34.4431Z" fill="#0085FF"/>
</mask>
<g mask="url(#mask0_13885_12250)">
<path fill-rule="evenodd" clip-rule="evenodd" d="M37.3394 63.8887C37.3394 63.0602 38.0109 62.3887 38.8394 62.3887H51.8394C52.6678 62.3887 53.3394 63.0602 53.3394 63.8887C53.3394 64.7171 52.6678 65.3887 51.8394 65.3887H38.8394C38.0109 65.3887 37.3394 64.7171 37.3394 63.8887Z" fill="#B92929"/>
<path fill-rule="evenodd" clip-rule="evenodd" d="M43.3394 71.8887C43.3394 71.0602 44.0109 70.3887 44.8394 70.3887H51.8394C52.6678 70.3887 53.3394 71.0602 53.3394 71.8887C53.3394 72.7171 52.6678 73.3887 51.8394 73.3887H44.8394C44.0109 73.3887 43.3394 72.7171 43.3394 71.8887Z" fill="#B92929"/>
<path fill-rule="evenodd" clip-rule="evenodd" d="M25.3394 79.8887C25.3394 79.0602 26.0109 78.3887 26.8394 78.3887H32.8394C33.6678 78.3887 34.3394 79.0602 34.3394 79.8887C34.3394 80.7171 33.6678 81.3887 32.8394 81.3887H26.8394C26.0109 81.3887 25.3394 80.7171 25.3394 79.8887Z" fill="#B92929"/>
<path fill-rule="evenodd" clip-rule="evenodd" d="M36.3394 79.8887C36.3394 79.0602 37.0109 78.3887 37.8394 78.3887L51.8394 78.3887C52.6678 78.3887 53.3394 79.0602 53.3394 79.8887C53.3394 80.7171 52.6678 81.3887 51.8394 81.3887L37.8394 81.3887C37.0109 81.3887 36.3394 80.7171 36.3394 79.8887Z" fill="#B92929"/>
<path fill-rule="evenodd" clip-rule="evenodd" d="M25.3394 63.8887C25.3394 63.0602 26.0109 62.3887 26.8394 62.3887H32.8394C33.6678 62.3887 34.3394 63.0602 34.3394 63.8887C34.3394 64.7171 33.6678 65.3887 32.8394 65.3887H26.8394C26.0109 65.3887 25.3394 64.7171 25.3394 63.8887Z" fill="white"/>
<path fill-rule="evenodd" clip-rule="evenodd" d="M25.3394 71.8887C25.3394 71.0602 26.0109 70.3887 26.8394 70.3887H39.8394C40.6678 70.3887 41.3394 71.0602 41.3394 71.8887C41.3394 72.7171 40.6678 73.3887 39.8394 73.3887H26.8394C26.0109 73.3887 25.3394 72.7171 25.3394 71.8887Z" fill="white"/>
</g>
<path d="M50.1434 31.4431L65.1213 46.421H53.1434C51.4866 46.421 50.1434 45.0779 50.1434 43.421V31.4431Z" fill="#B92929"/>
<path fill-rule="evenodd" clip-rule="evenodd" d="M17.4398 32.4398C16.7786 33.101 16.7786 34.173 17.4398 34.8341L24.2133 41.6077C24.8745 42.2688 25.9465 42.2688 26.6077 41.6077C27.2689 40.9465 27.2689 39.8745 26.6077 39.2133L19.8342 32.4398C19.173 31.7786 18.101 31.7786 17.4398 32.4398ZM15.3185 36.9555C13.4857 35.1227 13.4857 32.1512 15.3185 30.3185C17.1513 28.4857 20.1227 28.4857 21.9555 30.3185L28.729 37.092C30.5618 38.9247 30.5618 41.8962 28.729 43.729C26.8963 45.5617 23.9248 45.5617 22.092 43.729L15.3185 36.9555Z" fill="#B92929"/>
<path d="M74 9C75.1046 9 76 8.10457 76 7C76 5.89543 75.1046 5 74 5C72.8954 5 72 5.89543 72 7C72 8.10457 72.8954 9 74 9Z" fill="#B3BEC9"/>
<path d="M74 17C75.1046 17 76 16.1046 76 15C76 13.8954 75.1046 13 74 13C72.8954 13 72 13.8954 72 15C72 16.1046 72.8954 17 74 17Z" fill="#B3BEC9"/>
<path d="M74 25C75.1046 25 76 24.1046 76 23C76 21.8954 75.1046 21 74 21C72.8954 21 72 21.8954 72 23C72 24.1046 72.8954 25 74 25Z" fill="#9C1EFF"/>
<path d="M74 33C75.1046 33 76 32.1046 76 31C76 29.8954 75.1046 29 74 29C72.8954 29 72 29.8954 72 31C72 32.1046 72.8954 33 74 33Z" fill="#B3BEC9"/>
<path d="M74 41C75.1046 41 76 40.1046 76 39C76 37.8954 75.1046 37 74 37C72.8954 37 72 37.8954 72 39C72 40.1046 72.8954 41 74 41Z" fill="#B3BEC9"/>
<path d="M74 49C75.1046 49 76 48.1046 76 47C76 45.8954 75.1046 45 74 45C72.8954 45 72 45.8954 72 47C72 48.1046 72.8954 49 74 49Z" fill="#B3BEC9"/>
<path d="M82 9C83.1046 9 84 8.10457 84 7C84 5.89543 83.1046 5 82 5C80.8954 5 80 5.89543 80 7C80 8.10457 80.8954 9 82 9Z" fill="#B3BEC9"/>
<path d="M82 17C83.1046 17 84 16.1046 84 15C84 13.8954 83.1046 13 82 13C80.8954 13 80 13.8954 80 15C80 16.1046 80.8954 17 82 17Z" fill="#B3BEC9"/>
<path d="M82 25C83.1046 25 84 24.1046 84 23C84 21.8954 83.1046 21 82 21C80.8954 21 80 21.8954 80 23C80 24.1046 80.8954 25 82 25Z" fill="#B3BEC9"/>
<path d="M82 33C83.1046 33 84 32.1046 84 31C84 29.8954 83.1046 29 82 29C80.8954 29 80 29.8954 80 31C80 32.1046 80.8954 33 82 33Z" fill="#B3BEC9"/>
<path d="M82 41C83.1046 41 84 40.1046 84 39C84 37.8954 83.1046 37 82 37C80.8954 37 80 37.8954 80 39C80 40.1046 80.8954 41 82 41Z" fill="#B3BEC9"/>
<path d="M82 49C83.1046 49 84 48.1046 84 47C84 45.8954 83.1046 45 82 45C80.8954 45 80 45.8954 80 47C80 48.1046 80.8954 49 82 49Z" fill="#0085FF"/>
<path d="M90 9C91.1046 9 92 8.10457 92 7C92 5.89543 91.1046 5 90 5C88.8954 5 88 5.89543 88 7C88 8.10457 88.8954 9 90 9Z" fill="#B3BEC9"/>
<path d="M98 9C99.1046 9 100 8.10457 100 7C100 5.89543 99.1046 5 98 5C96.8954 5 96 5.89543 96 7C96 8.10457 96.8954 9 98 9Z" fill="#B3BEC9"/>
<path d="M90 17C91.1046 17 92 16.1046 92 15C92 13.8954 91.1046 13 90 13C88.8954 13 88 13.8954 88 15C88 16.1046 88.8954 17 90 17Z" fill="#B3BEC9"/>
<path d="M98 17C99.1046 17 100 16.1046 100 15C100 13.8954 99.1046 13 98 13C96.8954 13 96 13.8954 96 15C96 16.1046 96.8954 17 98 17Z" fill="#B3BEC9"/>
<path d="M90 25C91.1046 25 92 24.1046 92 23C92 21.8954 91.1046 21 90 21C88.8954 21 88 21.8954 88 23C88 24.1046 88.8954 25 90 25Z" fill="#B3BEC9"/>
<path d="M98 25C99.1046 25 100 24.1046 100 23C100 21.8954 99.1046 21 98 21C96.8954 21 96 21.8954 96 23C96 24.1046 96.8954 25 98 25Z" fill="#B3BEC9"/>
<path d="M90 33C91.1046 33 92 32.1046 92 31C92 29.8954 91.1046 29 90 29C88.8954 29 88 29.8954 88 31C88 32.1046 88.8954 33 90 33Z" fill="#B3BEC9"/>
<path d="M98 33C99.1046 33 100 32.1046 100 31C100 29.8954 99.1046 29 98 29C96.8954 29 96 29.8954 96 31C96 32.1046 96.8954 33 98 33Z" fill="#B3BEC9"/>
<path d="M90 41C91.1046 41 92 40.1046 92 39C92 37.8954 91.1046 37 90 37C88.8954 37 88 37.8954 88 39C88 40.1046 88.8954 41 90 41Z" fill="#B3BEC9"/>
<path d="M98 41C99.1046 41 100 40.1046 100 39C100 37.8954 99.1046 37 98 37C96.8954 37 96 37.8954 96 39C96 40.1046 96.8954 41 98 41Z" fill="#B3BEC9"/>
<path d="M90 49C91.1046 49 92 48.1046 92 47C92 45.8954 91.1046 45 90 45C88.8954 45 88 45.8954 88 47C88 48.1046 88.8954 49 90 49Z" fill="#B3BEC9"/>
<path d="M98 49C99.1046 49 100 48.1046 100 47C100 45.8954 99.1046 45 98 45C96.8954 45 96 45.8954 96 47C96 48.1046 96.8954 49 98 49Z" fill="#B3BEC9"/>
<path d="M70.7855 57.7297C71.1777 57.3292 71.8223 57.3292 72.2145 57.7297L74.3911 59.9525C74.6232 60.1895 74.9578 60.296 75.2843 60.2367L78.4037 59.6701C78.9653 59.5681 79.4982 59.9561 79.5737 60.5218L79.9677 63.4761C80.0132 63.8174 80.231 64.1112 80.5443 64.254L83.3442 65.5295C83.8788 65.773 84.0893 66.4227 83.7992 66.9335L82.3376 69.506C82.1636 69.8124 82.1636 70.1876 82.3376 70.494L83.7992 73.0665C84.0893 73.5773 83.8788 74.227 83.3442 74.4705L80.5443 75.746C80.231 75.8888 80.0132 76.1826 79.9677 76.5239L79.5737 79.4782C79.4982 80.0439 78.9653 80.4319 78.4037 80.3299L75.2843 79.7633C74.9578 79.704 74.6232 79.8105 74.3911 80.0475L72.2145 82.2703C71.8223 82.6708 71.1777 82.6708 70.7855 82.2703L68.6089 80.0475C68.3768 79.8105 68.0422 79.704 67.7157 79.7633L64.5963 80.3299C64.0347 80.4319 63.5018 80.0439 63.4263 79.4782L63.0323 76.5239C62.9868 76.1826 62.769 75.8888 62.4557 75.746L59.6558 74.4705C59.1212 74.227 58.9107 73.5773 59.2008 73.0665L60.6624 70.494C60.8364 70.1876 60.8364 69.8124 60.6624 69.506L59.2008 66.9335C58.9107 66.4227 59.1212 65.773 59.6558 65.5295L62.4557 64.254C62.769 64.1112 62.9868 63.8174 63.0323 63.4761L63.4263 60.5218C63.5018 59.9561 64.0347 59.5681 64.5963 59.6701L67.7157 60.2367C68.0422 60.296 68.3768 60.1895 68.6089 59.9525L70.7855 57.7297Z" fill="#FFAE41"/>
</g>
</g>
<defs>
<clipPath id="clip0_13885_12250">
<rect x="3" y="4" width="96" height="96" rx="48" fill="white"/>
</clipPath>
</defs>
</svg>
