<svg width="96" height="96" viewBox="0 0 96 96" fill="none" xmlns="http://www.w3.org/2000/svg">
<g clip-path="url(#clip0_15795_9687)">
<rect width="96" height="96" rx="48" fill="#E4EBF0"/>
<path d="M14.5127 27.3628H60.6397L59.0491 97.1279H16.5561L14.5127 27.3628Z" fill="#2F80ED"/>
<rect x="10.5361" y="17.8192" width="54.0799" height="9.54351" fill="#2F80ED"/>
<rect x="25.7031" y="21.2185" width="17.8089" height="2.74499" rx="1.37249" fill="white"/>
<rect x="45.209" y="21.2185" width="4.24022" height="2.74499" rx="1.37249" fill="white"/>
<path d="M60.6337 27.3628H14.8291L60.4811 33.1652L60.6337 27.3628Z" fill="#0048AF"/>
<path d="M39.8389 37.389C39.8389 36.1318 40.858 35.1127 42.1152 35.1127H50.8435C52.1006 35.1127 53.1198 36.1318 53.1198 37.389V45.0105C53.1198 46.2677 52.1006 47.2868 50.8435 47.2868H42.1152C40.858 47.2868 39.8389 46.2677 39.8389 45.0105V37.389Z" fill="#0048AF"/>
<rect x="47.5566" y="37.658" width="7.08358" height="2.15493" rx="1.07746" transform="rotate(90 47.5566 37.658)" fill="#2F80ED"/>
<rect x="50.0215" y="42.2772" width="7.08358" height="2.15493" rx="1.07746" transform="rotate(-180 50.0215 42.2772)" fill="#2F80ED"/>
<path d="M39.8389 53.0228C39.8389 51.7656 40.858 50.7465 42.1152 50.7465H50.8435C52.1006 50.7465 53.1198 51.7656 53.1198 53.0228V60.6443C53.1198 61.9015 52.1006 62.9206 50.8435 62.9206H42.1152C40.858 62.9206 39.8389 61.9015 39.8389 60.6443V53.0228Z" fill="#0048AF"/>
<rect x="47.5566" y="53.2917" width="7.08358" height="2.15493" rx="1.07746" transform="rotate(90 47.5566 53.2917)" fill="#2F80ED"/>
<rect x="50.0215" y="57.911" width="7.08358" height="2.15493" rx="1.07746" transform="rotate(-180 50.0215 57.911)" fill="#2F80ED"/>
<path d="M39.8389 68.6568C39.8389 67.3996 40.858 66.3805 42.1152 66.3805H50.8435C52.1006 66.3805 53.1198 67.3996 53.1198 68.6568V76.2784C53.1198 77.5355 52.1006 78.5547 50.8435 78.5547H42.1152C40.858 78.5547 39.8389 77.5355 39.8389 76.2784V68.6568Z" fill="#0048AF"/>
<rect x="47.5566" y="68.9258" width="7.08358" height="2.15493" rx="1.07746" transform="rotate(90 47.5566 68.9258)" fill="#2F80ED"/>
<rect x="50.0215" y="73.545" width="7.08358" height="2.15493" rx="1.07746" transform="rotate(-180 50.0215 73.545)" fill="#2F80ED"/>
<path d="M22.0322 37.389C22.0322 36.1318 23.0514 35.1127 24.3085 35.1127H33.0368C34.294 35.1127 35.3131 36.1318 35.3131 37.389V45.0105C35.3131 46.2677 34.294 47.2868 33.0368 47.2868H24.3085C23.0514 47.2868 22.0322 46.2677 22.0322 45.0105V37.389Z" fill="#0048AF"/>
<rect x="29.75" y="37.658" width="7.08358" height="2.15493" rx="1.07746" transform="rotate(90 29.75 37.658)" fill="#2F80ED"/>
<rect x="32.2148" y="42.2772" width="7.08358" height="2.15493" rx="1.07746" transform="rotate(-180 32.2148 42.2772)" fill="#2F80ED"/>
<path d="M22.0322 53.0228C22.0322 51.7656 23.0514 50.7465 24.3085 50.7465H33.0368C34.294 50.7465 35.3131 51.7656 35.3131 53.0228V60.6443C35.3131 61.9015 34.294 62.9206 33.0368 62.9206H24.3085C23.0514 62.9206 22.0322 61.9015 22.0322 60.6443V53.0228Z" fill="#0048AF"/>
<rect x="29.75" y="53.2917" width="7.08358" height="2.15493" rx="1.07746" transform="rotate(90 29.75 53.2917)" fill="#2F80ED"/>
<rect x="32.2148" y="57.911" width="7.08358" height="2.15493" rx="1.07746" transform="rotate(-180 32.2148 57.911)" fill="#2F80ED"/>
<path d="M22.0322 68.6568C22.0322 67.3996 23.0514 66.3805 24.3085 66.3805H33.0368C34.294 66.3805 35.3131 67.3996 35.3131 68.6568V76.2784C35.3131 77.5355 34.294 78.5547 33.0368 78.5547H24.3085C23.0514 78.5547 22.0322 77.5355 22.0322 76.2784V68.6568Z" fill="#0048AF"/>
<rect x="29.75" y="68.9258" width="7.08358" height="2.15493" rx="1.07746" transform="rotate(90 29.75 68.9258)" fill="#2F80ED"/>
<rect x="32.2148" y="73.545" width="7.08358" height="2.15493" rx="1.07746" transform="rotate(-180 32.2148 73.545)" fill="#2F80ED"/>
<path d="M30.5078 84.7887C30.5078 83.471 31.576 82.4028 32.8937 82.4028H43.3932C44.7109 82.4028 45.7791 83.471 45.7791 84.7887V101.557C45.7791 102.875 44.7109 103.943 43.3932 103.943H32.8937C31.576 103.943 30.5078 102.875 30.5078 101.557V84.7887Z" fill="#0048AF"/>
<circle cx="42.7988" cy="90.9681" r="1.26851" fill="white"/>
<path d="M90.0723 2.18274C88.9677 2.18274 88.0723 1.28731 88.0723 0.182739C88.0723 -0.92183 88.9677 -1.81726 90.0723 -1.81726C91.1768 -1.81726 92.0723 -0.92183 92.0723 0.182739C92.0723 1.28731 91.1768 2.18274 90.0723 2.18274Z" fill="#B3BEC9"/>
<path d="M82.0723 2.18274C80.9677 2.18274 80.0723 1.28731 80.0723 0.182739C80.0723 -0.92183 80.9677 -1.81726 82.0723 -1.81726C83.1768 -1.81726 84.0723 -0.92183 84.0723 0.182739C84.0723 1.28731 83.1768 2.18274 82.0723 2.18274Z" fill="#B3BEC9"/>
<path d="M74.0723 2.18274C72.9677 2.18274 72.0723 1.28731 72.0723 0.182739C72.0723 -0.92183 72.9677 -1.81726 74.0723 -1.81726C75.1768 -1.81726 76.0723 -0.92183 76.0723 0.182739C76.0723 1.28731 75.1768 2.18274 74.0723 2.18274Z" fill="#B3BEC9"/>
<path d="M90.0723 10.1827C88.9677 10.1827 88.0723 9.28731 88.0723 8.18274C88.0723 7.07817 88.9677 6.18274 90.0723 6.18274C91.1768 6.18274 92.0723 7.07817 92.0723 8.18274C92.0723 9.28731 91.1768 10.1827 90.0723 10.1827Z" fill="#B3BEC9"/>
<path d="M82.0723 10.1827C80.9677 10.1827 80.0723 9.28731 80.0723 8.18274C80.0723 7.07817 80.9677 6.18274 82.0723 6.18274C83.1768 6.18274 84.0723 7.07817 84.0723 8.18274C84.0723 9.28731 83.1768 10.1827 82.0723 10.1827Z" fill="#B3BEC9"/>
<path d="M74.0723 10.1827C72.9677 10.1827 72.0723 9.28731 72.0723 8.18274C72.0723 7.07817 72.9677 6.18274 74.0723 6.18274C75.1768 6.18274 76.0723 7.07817 76.0723 8.18274C76.0723 9.28731 75.1768 10.1827 74.0723 10.1827Z" fill="#B3BEC9"/>
<path d="M90.0723 18.1827C88.9677 18.1827 88.0723 17.2873 88.0723 16.1827C88.0723 15.0782 88.9677 14.1827 90.0723 14.1827C91.1768 14.1827 92.0723 15.0782 92.0723 16.1827C92.0723 17.2873 91.1768 18.1827 90.0723 18.1827Z" fill="#B3BEC9"/>
<path d="M82.0723 18.1827C80.9677 18.1827 80.0723 17.2873 80.0723 16.1827C80.0723 15.0782 80.9677 14.1827 82.0723 14.1827C83.1768 14.1827 84.0723 15.0782 84.0723 16.1827C84.0723 17.2873 83.1768 18.1827 82.0723 18.1827Z" fill="#B3BEC9"/>
<path d="M74.0723 18.1827C72.9677 18.1827 72.0723 17.2873 72.0723 16.1827C72.0723 15.0782 72.9677 14.1827 74.0723 14.1827C75.1768 14.1827 76.0723 15.0782 76.0723 16.1827C76.0723 17.2873 75.1768 18.1827 74.0723 18.1827Z" fill="#B3BEC9"/>
<path d="M90.0723 26.1827C88.9677 26.1827 88.0723 25.2873 88.0723 24.1827C88.0723 23.0782 88.9677 22.1827 90.0723 22.1827C91.1768 22.1827 92.0723 23.0782 92.0723 24.1827C92.0723 25.2873 91.1768 26.1827 90.0723 26.1827Z" fill="#B3BEC9"/>
<path d="M82.0723 26.1827C80.9677 26.1827 80.0723 25.2873 80.0723 24.1827C80.0723 23.0782 80.9677 22.1827 82.0723 22.1827C83.1768 22.1827 84.0723 23.0782 84.0723 24.1827C84.0723 25.2873 83.1768 26.1827 82.0723 26.1827Z" fill="#B3BEC9"/>
<path d="M74.0723 26.1827C72.9677 26.1827 72.0723 25.2873 72.0723 24.1827C72.0723 23.0782 72.9677 22.1827 74.0723 22.1827C75.1768 22.1827 76.0723 23.0782 76.0723 24.1827C76.0723 25.2873 75.1768 26.1827 74.0723 26.1827Z" fill="#FFB53D"/>
<path d="M90.0723 34.1827C88.9677 34.1827 88.0723 33.2873 88.0723 32.1827C88.0723 31.0782 88.9677 30.1827 90.0723 30.1827C91.1768 30.1827 92.0723 31.0782 92.0723 32.1827C92.0723 33.2873 91.1768 34.1827 90.0723 34.1827Z" fill="#B3BEC9"/>
<path d="M82.0723 34.1827C80.9677 34.1827 80.0723 33.2873 80.0723 32.1827C80.0723 31.0782 80.9677 30.1827 82.0723 30.1827C83.1768 30.1827 84.0723 31.0782 84.0723 32.1827C84.0723 33.2873 83.1768 34.1827 82.0723 34.1827Z" fill="#B3BEC9"/>
<path d="M74.0723 34.1827C72.9677 34.1827 72.0723 33.2873 72.0723 32.1827C72.0723 31.0782 72.9677 30.1827 74.0723 30.1827C75.1768 30.1827 76.0723 31.0782 76.0723 32.1827C76.0723 33.2873 75.1768 34.1827 74.0723 34.1827Z" fill="#B3BEC9"/>
<path d="M90.0723 42.1827C88.9677 42.1827 88.0723 41.2873 88.0723 40.1827C88.0723 39.0782 88.9677 38.1827 90.0723 38.1827C91.1768 38.1827 92.0723 39.0782 92.0723 40.1827C92.0723 41.2873 91.1768 42.1827 90.0723 42.1827Z" fill="#9C1EFF"/>
<path d="M82.0723 42.1827C80.9677 42.1827 80.0723 41.2873 80.0723 40.1827C80.0723 39.0782 80.9677 38.1827 82.0723 38.1827C83.1768 38.1827 84.0723 39.0782 84.0723 40.1827C84.0723 41.2873 83.1768 42.1827 82.0723 42.1827Z" fill="#B3BEC9"/>
<path d="M74.0723 42.1827C72.9677 42.1827 72.0723 41.2873 72.0723 40.1827C72.0723 39.0782 72.9677 38.1827 74.0723 38.1827C75.1768 38.1827 76.0723 39.0782 76.0723 40.1827C76.0723 41.2873 75.1768 42.1827 74.0723 42.1827Z" fill="#B3BEC9"/>
<circle cx="77.0143" cy="59.5324" r="7.44986" fill="#1C9E59"/>
<circle cx="77.0141" cy="75.5519" r="12.3979" fill="#1C9E59"/>
<rect x="75.5938" y="91.3923" width="24.1878" height="2.84004" rx="1.42002" transform="rotate(-90 75.5938 91.3923)" fill="white"/>
<rect x="75.2305" y="80.1626" width="10.2011" height="2.84004" rx="1.42002" transform="rotate(-45 75.2305 80.1626)" fill="white"/>
<rect width="10.2011" height="2.84004" rx="1.42002" transform="matrix(-0.707107 -0.707107 -0.707107 0.707107 78.8848 78.1544)" fill="white"/>
</g>
<defs>
<clipPath id="clip0_15795_9687">
<rect width="96" height="96" rx="48" fill="white"/>
</clipPath>
</defs>
</svg>
