<svg width="350" height="350" viewBox="0 0 350 350" fill="none" xmlns="http://www.w3.org/2000/svg">
<path d="M78.9203 64.1022C82.485 64.1022 85.3748 61.2147 85.3748 57.6529C85.3748 54.091 82.485 51.2036 78.9203 51.2036C75.3556 51.2036 72.4658 54.091 72.4658 57.6529C72.4658 61.2147 75.3556 64.1022 78.9203 64.1022Z" fill="#F1F1F1"/>
<path d="M108.665 75.7078C110.914 75.7078 112.737 73.8864 112.737 71.6395C112.737 69.3926 110.914 67.5711 108.665 67.5711C106.417 67.5711 104.594 69.3926 104.594 71.6395C104.594 73.8864 106.417 75.7078 108.665 75.7078Z" fill="#F1F1F1"/>
<path d="M136.223 86.7833C137.829 86.7833 139.131 85.4825 139.131 83.8777C139.131 82.273 137.829 80.9722 136.223 80.9722C134.617 80.9722 133.315 82.273 133.315 83.8777C133.315 85.4825 134.617 86.7833 136.223 86.7833Z" fill="#F1F1F1"/>
<path d="M273.014 64.1022C276.579 64.1022 279.469 61.2147 279.469 57.6529C279.469 54.091 276.579 51.2036 273.014 51.2036C269.449 51.2036 266.56 54.091 266.56 57.6529C266.56 61.2147 269.449 64.1022 273.014 64.1022Z" fill="#F1F1F1"/>
<path d="M243.269 75.7078C245.518 75.7078 247.34 73.8864 247.34 71.6395C247.34 69.3926 245.518 67.5711 243.269 67.5711C241.02 67.5711 239.197 69.3926 239.197 71.6395C239.197 73.8864 241.02 75.7078 243.269 75.7078Z" fill="#F1F1F1"/>
<path d="M215.711 86.7833C217.317 86.7833 218.619 85.4825 218.619 83.8777C218.619 82.273 217.317 80.9722 215.711 80.9722C214.105 80.9722 212.803 82.273 212.803 83.8777C212.803 85.4825 214.105 86.7833 215.711 86.7833Z" fill="#F1F1F1"/>
<path d="M178.937 280.428C198.022 280.428 213.493 278.667 213.493 276.494C213.493 274.321 198.022 272.56 178.937 272.56C159.851 272.56 144.38 274.321 144.38 276.494C144.38 278.667 159.851 280.428 178.937 280.428Z" fill="#F1F1F1"/>
<path d="M301.87 254.654L68.314 253.082L70.671 93.1545L304.232 96.5912L301.87 254.654Z" fill="#F1F1F1"/>
<path d="M328.125 48.8542L213.468 95.1211V253.015L328.125 301.485V48.8542Z" fill="#3F3D56"/>
<path d="M223.023 219.233L305.341 238.328" stroke="white" stroke-width="2" stroke-miterlimit="10"/>
<path d="M223.023 206.748L305.341 219.233" stroke="white" stroke-width="2" stroke-miterlimit="10"/>
<path d="M223.023 193.53L305.341 202.342" stroke="white" stroke-width="2" stroke-miterlimit="10"/>
<path d="M295.051 148.704V167.798L228.902 163.391V148.704H295.051Z" fill="#6C63FF"/>
<path opacity="0.2" d="M295.051 148.704V167.798L228.902 163.391V162.657L293.58 166.329V148.704H295.051Z" fill="black"/>
<path d="M21.875 48.8543L136.532 95.1212V253.015L21.875 301.485V48.8543Z" fill="#3F3D56"/>
<path d="M126.977 219.233L44.6597 238.328" stroke="white" stroke-width="2" stroke-miterlimit="10"/>
<path d="M126.977 206.748L44.6597 219.233" stroke="white" stroke-width="2" stroke-miterlimit="10"/>
<path d="M126.977 193.53L44.6597 202.342" stroke="white" stroke-width="2" stroke-miterlimit="10"/>
<path d="M54.9482 148.704V167.798L121.097 163.391V148.704H54.9482Z" fill="#6C63FF"/>
<path opacity="0.2" d="M54.9482 148.704V167.798L121.097 163.391V162.657L56.4182 166.329V148.704H54.9482Z" fill="black"/>
<path d="M147.214 107.905L204.719 108.612" stroke="#3F3D56" stroke-width="2" stroke-miterlimit="10"/>
<path d="M149.536 110.842L150.029 110.327L147.488 107.909L150.087 105.553L149.608 105.026L146.443 107.896L149.536 110.842Z" fill="#3F3D56"/>
<path d="M202.326 111.491L201.847 110.964L204.446 108.609L201.905 106.19L202.397 105.676L205.491 108.622L202.326 111.491Z" fill="#3F3D56"/>
<path d="M175.967 113.066C178.624 113.066 180.779 110.913 180.779 108.258C180.779 105.603 178.624 103.45 175.967 103.45C173.31 103.45 171.155 105.603 171.155 108.258C171.155 110.913 173.31 113.066 175.967 113.066Z" fill="#3F3D56"/>
<path d="M169.532 260.978C169.532 260.978 168.22 266.66 168.657 268.845C169.095 271.03 169.095 275.838 169.095 275.838H170.407V270.593C170.407 270.593 173.906 272.342 174.781 274.964C175.656 277.587 184.842 276.712 185.279 275.838C185.717 274.964 180.905 273.216 180.905 273.216L176.968 261.415L169.532 260.978Z" fill="#2F2E41"/>
<path d="M166.47 209.403C166.47 209.403 168.657 217.27 168.657 220.33C168.657 223.389 166.907 262.726 168.657 262.726C170.407 262.726 177.405 263.601 177.843 261.852C178.28 260.104 176.968 243.932 177.843 242.184C178.718 240.436 184.842 203.284 184.404 202.847C183.967 202.41 168.657 201.099 166.47 209.403Z" fill="#2F2E41"/>
<path d="M165.595 201.972C165.595 201.972 161.659 212.462 165.158 212.462C168.657 212.462 170.845 209.403 173.469 210.277C176.094 211.151 183.967 200.224 183.967 200.224L165.595 201.972Z" fill="#3F3D56"/>
<path d="M181.999 158.046C185.864 158.046 188.998 154.915 188.998 151.053C188.998 147.19 185.864 144.059 181.999 144.059C178.133 144.059 175 147.19 175 151.053C175 154.915 178.133 158.046 181.999 158.046Z" fill="#FFB9B9"/>
<path d="M185.498 153.238C185.498 153.238 182.436 163.291 183.311 164.602C184.186 165.913 175 164.165 175 164.165C175 164.165 178.062 155.861 177.625 154.112C177.187 152.364 185.498 153.238 185.498 153.238Z" fill="#FFB9B9"/>
<path d="M180.467 160.013C180.467 160.013 176.531 158.702 175.218 160.013C173.906 161.324 169.094 192.357 166.032 195.416C162.97 198.476 160.783 202.846 163.408 203.283C166.032 203.721 187.466 206.343 188.341 205.032C189.216 203.721 188.997 190.827 188.56 187.767C188.122 184.708 184.842 160.45 180.467 160.013Z" fill="#6C63FF"/>
<path d="M176.968 203.284L178.718 207.655L182.655 204.595L182.217 201.536L176.968 203.284Z" fill="#FFB9B9"/>
<path opacity="0.1" d="M175.001 167.225C175.001 167.225 174.782 161.762 172.157 168.755C169.533 175.748 163.846 184.927 168.658 191.92C173.47 198.913 173.603 201.965 175.875 201.754C178.148 201.544 185.28 204.158 185.28 203.284C185.28 202.41 176.969 188.86 176.969 188.86C176.754 187.605 176.84 186.316 177.22 185.101C177.6 183.885 178.264 182.777 179.156 181.867C182.218 178.808 180.687 168.536 175.001 167.225Z" fill="black"/>
<path d="M177.843 161.761C177.843 161.761 173.031 160.887 170.406 167.88C167.782 174.873 162.095 184.052 166.907 191.045C171.719 198.038 174.172 205.015 176.445 204.805C178.717 204.595 183.529 203.283 183.529 202.409C183.529 201.535 175.218 187.986 175.218 187.986C175.003 186.73 175.089 185.442 175.469 184.226C175.849 183.01 176.513 181.902 177.405 180.992C180.467 177.933 183.529 163.072 177.843 161.761Z" fill="#6C63FF"/>
<path d="M179.829 140.588C176.23 140.08 172.682 142.358 170.691 145.397C168.701 148.436 167.98 152.115 167.455 155.709C167.35 156.795 167.101 157.862 166.715 158.882C165.845 160.879 163.875 162.386 163.555 164.54C163.352 165.902 163.86 167.255 164.125 168.606C164.83 172.196 163.786 175.972 161.87 179.089C161.014 180.481 159.768 181.887 158.134 181.937L161.557 182.467C160.979 183.731 159.977 184.755 158.724 185.36C162.8 184.849 166.562 182.909 169.341 179.886C172.119 176.863 173.734 172.953 173.898 168.852C173.947 167.614 173.887 166.285 174.56 165.244C175.143 164.343 176.159 163.843 177.083 163.298C180.257 161.423 182.909 158.315 183.333 154.656C183.519 153.047 183.273 151.437 183.21 149.83C183.143 148.136 185.989 146.992 186.373 145.371C186.956 142.906 182.094 140.907 179.829 140.588Z" fill="#2F2E41"/>
</svg>
