<svg width="22" height="20" viewBox="0 0 22 20" fill="none" xmlns="http://www.w3.org/2000/svg">
<path fill-rule="evenodd" clip-rule="evenodd" d="M9.72927 0.754718C10.294 -0.251571 11.706 -0.251573 12.2707 0.754716L21.8012 17.7358C22.366 18.7421 21.66 20 20.5305 20H1.46951C0.339966 20 -0.365998 18.7421 0.198772 17.7359L9.72927 0.754718ZM11 10C11.5523 10 12 10.4477 12 11V16C12 16.5523 11.5523 17 11 17C10.4477 17 10 16.5523 10 16V11C10 10.4477 10.4477 10 11 10ZM12 7C12 6.44771 11.5523 6 11 6C10.4477 6 10 6.44771 10 7V8C10 8.55228 10.4477 9 11 9C11.5523 9 12 8.55228 12 8V7Z" fill="#FFB53D"/>
</svg>
