<svg width="350" height="350" viewBox="0 0 350 350" fill="none" xmlns="http://www.w3.org/2000/svg">
<g opacity="0.5">
<path opacity="0.5" d="M21.875 85.3125V94.3585V264.6H279.43V94.3585V85.3125H21.875Z" fill="url(#paint0_linear)"/>
</g>
<path d="M276.698 96.4696H25.6948V261.412H276.698V96.4696Z" fill="white"/>
<path d="M276.698 88.6233H25.6948V100.758H276.698V88.6233Z" fill="#F5F5F5"/>
<path d="M35.2471 97.4477C36.8654 97.4477 38.1773 96.1308 38.1773 94.5063C38.1773 92.8817 36.8654 91.5648 35.2471 91.5648C33.6288 91.5648 32.3169 92.8817 32.3169 94.5063C32.3169 96.1308 33.6288 97.4477 35.2471 97.4477Z" fill="#FF5252"/>
<path d="M43.3082 97.4477C44.9265 97.4477 46.2384 96.1308 46.2384 94.5063C46.2384 92.8817 44.9265 91.5648 43.3082 91.5648C41.6898 91.5648 40.3779 92.8817 40.3779 94.5063C40.3779 96.1308 41.6898 97.4477 43.3082 97.4477Z" fill="#FFFF00"/>
<path d="M51.3667 97.4477C52.9851 97.4477 54.297 96.1308 54.297 94.5063C54.297 92.8817 52.9851 91.5648 51.3667 91.5648C49.7484 91.5648 48.4365 92.8817 48.4365 94.5063C48.4365 96.1308 49.7484 97.4477 51.3667 97.4477Z" fill="#69F0AE"/>
<path opacity="0.5" d="M173.823 140.57H127.661V145.535H173.823V140.57Z" fill="#2F80ED"/>
<path d="M144.881 161.899H94.3242V166.864H144.881V161.899Z" fill="#E0E0E0"/>
<path d="M156.605 166.867H207.162V161.903H156.605V166.867Z" fill="#3AD29F"/>
<path d="M206.976 172.563H94.1382V177.528H206.976V172.563Z" fill="#E0E0E0"/>
<path d="M206.976 183.232H94.1382V188.196H206.976V183.232Z" fill="#E0E0E0"/>
<path d="M174.008 206.031H127.114V215.225H174.008V206.031Z" fill="url(#paint1_linear)"/>
<path d="M173.64 206.869H127.479V214.391H173.64V206.869Z" fill="#2F80ED"/>
<g opacity="0.5">
<path opacity="0.5" d="M276.25 226.058C300.447 226.058 320.063 206.367 320.063 182.077C320.063 157.787 300.447 138.097 276.25 138.097C252.053 138.097 232.437 157.787 232.437 182.077C232.437 206.367 252.053 226.058 276.25 226.058Z" fill="url(#paint2_linear)"/>
</g>
<path d="M276.25 223.244C298.899 223.244 317.259 204.813 317.259 182.077C317.259 159.342 298.899 140.911 276.25 140.911C253.602 140.911 235.241 159.342 235.241 182.077C235.241 204.813 253.602 223.244 276.25 223.244Z" fill="#F5F5F5"/>
<g opacity="0.5">
<path opacity="0.5" d="M281.967 172.201L281.178 171.92L281.136 171.99H281.09V169.844C281.091 169.585 281.071 169.326 281.031 169.07C282.304 168.129 283.278 166.839 283.835 165.354C284.935 163.922 285.614 162.209 285.793 160.409C285.973 158.61 285.647 156.796 284.852 155.173C284.057 153.55 282.825 152.183 281.296 151.227C279.767 150.271 278.001 149.764 276.199 149.764C274.398 149.764 272.632 150.271 271.102 151.227C269.573 152.183 268.341 153.55 267.546 155.173C266.751 156.796 266.425 158.61 266.605 160.409C266.785 162.209 267.463 163.922 268.563 165.354C269.121 166.839 270.095 168.129 271.367 169.07C271.327 169.326 271.308 169.585 271.308 169.844V172.194C267.088 173.361 263.367 175.887 260.717 179.383C258.066 182.879 256.632 187.152 256.636 191.546V209.138H296.593V191.546C296.598 187.159 295.17 182.892 292.529 179.398C289.887 175.904 286.177 173.376 281.967 172.201Z" fill="url(#paint3_linear)"/>
</g>
<path d="M276.6 171.765C279.127 171.765 281.628 172.264 283.962 173.235C286.295 174.205 288.416 175.627 290.202 177.42C291.988 179.214 293.405 181.342 294.372 183.685C295.339 186.028 295.836 188.539 295.836 191.074V208.019H257.365V191.074C257.365 185.953 259.391 181.042 262.999 177.42C266.606 173.799 271.499 171.765 276.6 171.765V171.765Z" fill="#2F80ED"/>
<path d="M280.919 170.192C280.919 167.581 278.81 165.463 276.208 165.463C273.607 165.463 271.498 167.581 271.498 170.192V172.557C271.498 175.168 273.607 177.285 276.208 177.285C278.81 177.285 280.919 175.168 280.919 172.557V170.192Z" fill="#FDA57D"/>
<path opacity="0.05" d="M268.23 173.858L271.389 180.656L274.529 177.503L271.389 172.676L268.23 173.858Z" fill="black"/>
<path d="M268.339 173.528L271.494 180.325L274.648 177.159L271.494 172.331L270.05 172.775C269.909 172.818 269.771 172.87 269.636 172.93L268.339 173.528Z" fill="white"/>
<path opacity="0.05" d="M284.2 173.528L281.028 180.656L277.887 177.504L281.115 172.419L284.2 173.528Z" fill="black"/>
<path d="M284.091 173.197L280.936 180.329L277.782 177.162L281.01 172.078L281.602 172.247C282.241 172.431 282.867 172.655 283.477 172.919L284.091 173.197Z" fill="white"/>
<path d="M274.403 176.923L276.159 179.495L278.014 176.923H274.403Z" fill="#FDA57D"/>
<path opacity="0.1" d="M264.596 186.24C264.596 186.24 262.724 204.923 263.934 206.14Z" fill="black"/>
<path opacity="0.1" d="M287.723 186.24C287.723 186.24 289.594 204.923 288.385 206.14Z" fill="black"/>
<path opacity="0.05" d="M276.208 171.198C277.878 171.203 279.506 170.67 280.853 169.678C280.676 168.568 280.11 167.557 279.258 166.827C278.406 166.097 277.322 165.696 276.201 165.696V165.696C275.082 165.697 274 166.099 273.149 166.829C272.298 167.559 271.734 168.569 271.557 169.678C272.905 170.672 274.536 171.205 276.208 171.198V171.198Z" fill="black"/>
<path d="M276.209 169.496C281.335 169.496 285.49 165.324 285.49 160.179C285.49 155.033 281.335 150.862 276.209 150.862C271.083 150.862 266.927 155.033 266.927 160.179C266.927 165.324 271.083 169.496 276.209 169.496Z" fill="black"/>
<path d="M276.209 170.98C280.545 170.98 284.06 167.452 284.06 163.099C284.06 158.746 280.545 155.217 276.209 155.217C271.873 155.217 268.357 158.746 268.357 163.099C268.357 167.452 271.873 170.98 276.209 170.98Z" fill="#FDA57D"/>
<path opacity="0.05" d="M269.882 155.284L271.866 157.716C271.866 157.716 280.565 158.49 281.557 156.498C282.549 154.507 275.83 153.071 275.83 153.071L269.882 155.284Z" fill="black"/>
<path d="M269.882 155.063L271.866 157.494C271.866 157.494 280.565 158.268 281.557 156.276C282.549 154.285 275.83 152.849 275.83 152.849L269.882 155.063Z" fill="black"/>
<path d="M268.339 163.577C268.643 163.577 268.89 163.132 268.89 162.582C268.89 162.032 268.643 161.586 268.339 161.586C268.035 161.586 267.789 162.032 267.789 162.582C267.789 163.132 268.035 163.577 268.339 163.577Z" fill="#FDA57D"/>
<path d="M284.087 163.577C284.391 163.577 284.638 163.132 284.638 162.582C284.638 162.032 284.391 161.586 284.087 161.586C283.783 161.586 283.537 162.032 283.537 162.582C283.537 163.132 283.783 163.577 284.087 163.577Z" fill="#FDA57D"/>
<g opacity="0.5">
<path opacity="0.5" d="M328.125 158.528H317.235V147.6H310.975V158.528H300.084V164.816H310.975V175.744H317.235V164.816H328.125V158.528Z" fill="url(#paint4_linear)"/>
</g>
<path d="M316.765 149.708H311.444V173.633H316.765V149.708Z" fill="#3AD29F"/>
<path d="M326.022 164.344V159.003H302.188V164.344H326.022Z" fill="#3AD29F"/>
<defs>
<linearGradient id="paint0_linear" x1="150.651" y1="264.6" x2="150.651" y2="85.3125" gradientUnits="userSpaceOnUse">
<stop stop-color="#808080" stop-opacity="0.25"/>
<stop offset="0.54" stop-color="#808080" stop-opacity="0.12"/>
<stop offset="1" stop-color="#808080" stop-opacity="0.1"/>
</linearGradient>
<linearGradient id="paint1_linear" x1="17343.8" y1="3600.65" x2="17343.8" y2="3360.42" gradientUnits="userSpaceOnUse">
<stop stop-color="#808080" stop-opacity="0.25"/>
<stop offset="0.54" stop-color="#808080" stop-opacity="0.12"/>
<stop offset="1" stop-color="#808080" stop-opacity="0.1"/>
</linearGradient>
<linearGradient id="paint2_linear" x1="63826.3" y1="35324.5" x2="63826.3" y2="13334.1" gradientUnits="userSpaceOnUse">
<stop stop-color="#808080" stop-opacity="0.25"/>
<stop offset="0.54" stop-color="#808080" stop-opacity="0.12"/>
<stop offset="1" stop-color="#808080" stop-opacity="0.1"/>
</linearGradient>
<linearGradient id="paint3_linear" x1="33536.1" y1="27625" x2="38091.3" y2="27625" gradientUnits="userSpaceOnUse">
<stop stop-color="#808080" stop-opacity="0.25"/>
<stop offset="0.54" stop-color="#808080" stop-opacity="0.12"/>
<stop offset="1" stop-color="#808080" stop-opacity="0.1"/>
</linearGradient>
<linearGradient id="paint4_linear" x1="23678.6" y1="7381.24" x2="23678.6" y2="5129.7" gradientUnits="userSpaceOnUse">
<stop stop-color="#808080" stop-opacity="0.25"/>
<stop offset="0.54" stop-color="#808080" stop-opacity="0.12"/>
<stop offset="1" stop-color="#808080" stop-opacity="0.1"/>
</linearGradient>
</defs>
</svg>
