<svg width="101" height="103" viewBox="0 0 101 103" fill="none" xmlns="http://www.w3.org/2000/svg">
<rect x="0.5" width="100" height="103" rx="5" fill="white"/>
<g style="mix-blend-mode:luminosity" opacity="0.5">
<g clip-path="url(#clip0_13885_10956)">
<rect x="2.5" y="3.5" width="96" height="96" rx="48" fill="#E4EBF0"/>
<path d="M3.27646 42.3106C2.84763 40.7102 3.79738 39.0652 5.39778 38.6364L40.3294 29.2765C41.9298 28.8477 43.5748 29.7974 44.0036 31.3978L57.8515 83.079C58.2804 84.6794 57.3306 86.3244 55.7302 86.7532L20.7986 96.1131C19.1982 96.5419 17.5532 95.5922 17.1244 93.9918L3.27646 42.3106Z" fill="#0048AF"/>
<path d="M14.947 37.4956C14.947 35.8388 16.2902 34.4956 17.947 34.4956H46.5873L60.6497 48.558V89.8544C60.6497 91.5113 59.3066 92.8544 57.6497 92.8544H17.947C16.2902 92.8544 14.947 91.5113 14.947 89.8544V37.4956Z" fill="#0085FF"/>
<path d="M46.5874 34.4956L60.6498 48.558H49.5874C47.9305 48.558 46.5874 47.2148 46.5874 45.558V34.4956Z" fill="#0048AF"/>
<path fill-rule="evenodd" clip-rule="evenodd" d="M24 78.5C24 77.6716 24.6716 77 25.5 77H31.5C32.3284 77 33 77.6716 33 78.5C33 79.3284 32.3284 80 31.5 80H25.5C24.6716 80 24 79.3284 24 78.5Z" fill="#0048AF"/>
<path fill-rule="evenodd" clip-rule="evenodd" d="M24 62.5C24 61.6716 24.6716 61 25.5 61H31.5C32.3284 61 33 61.6716 33 62.5C33 63.3284 32.3284 64 31.5 64H25.5C24.6716 64 24 63.3284 24 62.5Z" fill="white"/>
<path fill-rule="evenodd" clip-rule="evenodd" d="M24 70.5C24 69.6716 24.6716 69 25.5 69H38.5C39.3284 69 40 69.6716 40 70.5C40 71.3284 39.3284 72 38.5 72H25.5C24.6716 72 24 71.3284 24 70.5Z" fill="white"/>
<path d="M72.5 7.5C71.3954 7.5 70.5 6.60457 70.5 5.5C70.5 4.39543 71.3954 3.5 72.5 3.5C73.6046 3.5 74.5 4.39543 74.5 5.5C74.5 6.60457 73.6046 7.5 72.5 7.5Z" fill="#B3BEC9"/>
<path d="M72.5 15.5C71.3954 15.5 70.5 14.6046 70.5 13.5C70.5 12.3954 71.3954 11.5 72.5 11.5C73.6046 11.5 74.5 12.3954 74.5 13.5C74.5 14.6046 73.6046 15.5 72.5 15.5Z" fill="#B3BEC9"/>
<path d="M72.5 23.5C71.3954 23.5 70.5 22.6046 70.5 21.5C70.5 20.3954 71.3954 19.5 72.5 19.5C73.6046 19.5 74.5 20.3954 74.5 21.5C74.5 22.6046 73.6046 23.5 72.5 23.5Z" fill="#B3BEC9"/>
<path d="M64.5 7.5C63.3954 7.5 62.5 6.60457 62.5 5.5C62.5 4.39543 63.3954 3.5 64.5 3.5C65.6046 3.5 66.5 4.39543 66.5 5.5C66.5 6.60457 65.6046 7.5 64.5 7.5Z" fill="#B3BEC9"/>
<path d="M64.5 15.5C63.3954 15.5 62.5 14.6046 62.5 13.5C62.5 12.3954 63.3954 11.5 64.5 11.5C65.6046 11.5 66.5 12.3954 66.5 13.5C66.5 14.6046 65.6046 15.5 64.5 15.5Z" fill="#1C9E59"/>
<path d="M64.5 23.5C63.3954 23.5 62.5 22.6046 62.5 21.5C62.5 20.3954 63.3954 19.5 64.5 19.5C65.6046 19.5 66.5 20.3954 66.5 21.5C66.5 22.6046 65.6046 23.5 64.5 23.5Z" fill="#B3BEC9"/>
<path d="M56.5 7.5C55.3954 7.5 54.5 6.60457 54.5 5.5C54.5 4.39543 55.3954 3.5 56.5 3.5C57.6046 3.5 58.5 4.39543 58.5 5.5C58.5 6.60457 57.6046 7.5 56.5 7.5Z" fill="#B3BEC9"/>
<path d="M48.5 7.5C47.3954 7.5 46.5 6.60457 46.5 5.5C46.5 4.39543 47.3954 3.5 48.5 3.5C49.6046 3.5 50.5 4.39543 50.5 5.5C50.5 6.60457 49.6046 7.5 48.5 7.5Z" fill="#B3BEC9"/>
<path d="M40.5 7.5C39.3954 7.5 38.5 6.60457 38.5 5.5C38.5 4.39543 39.3954 3.5 40.5 3.5C41.6046 3.5 42.5 4.39543 42.5 5.5C42.5 6.60457 41.6046 7.5 40.5 7.5Z" fill="#B3BEC9"/>
<path d="M32.5 7.5C31.3954 7.5 30.5 6.60457 30.5 5.5C30.5 4.39543 31.3954 3.5 32.5 3.5C33.6046 3.5 34.5 4.39543 34.5 5.5C34.5 6.60457 33.6046 7.5 32.5 7.5Z" fill="#B3BEC9"/>
<path d="M56.5 15.5C55.3954 15.5 54.5 14.6046 54.5 13.5C54.5 12.3954 55.3954 11.5 56.5 11.5C57.6046 11.5 58.5 12.3954 58.5 13.5C58.5 14.6046 57.6046 15.5 56.5 15.5Z" fill="#B3BEC9"/>
<path d="M48.5 15.5C47.3954 15.5 46.5 14.6046 46.5 13.5C46.5 12.3954 47.3954 11.5 48.5 11.5C49.6046 11.5 50.5 12.3954 50.5 13.5C50.5 14.6046 49.6046 15.5 48.5 15.5Z" fill="#B3BEC9"/>
<path d="M40.5 15.5C39.3954 15.5 38.5 14.6046 38.5 13.5C38.5 12.3954 39.3954 11.5 40.5 11.5C41.6046 11.5 42.5 12.3954 42.5 13.5C42.5 14.6046 41.6046 15.5 40.5 15.5Z" fill="#B3BEC9"/>
<path d="M32.5 15.5C31.3954 15.5 30.5 14.6046 30.5 13.5C30.5 12.3954 31.3954 11.5 32.5 11.5C33.6046 11.5 34.5 12.3954 34.5 13.5C34.5 14.6046 33.6046 15.5 32.5 15.5Z" fill="#B3BEC9"/>
<path d="M56.5 23.5C55.3954 23.5 54.5 22.6046 54.5 21.5C54.5 20.3954 55.3954 19.5 56.5 19.5C57.6046 19.5 58.5 20.3954 58.5 21.5C58.5 22.6046 57.6046 23.5 56.5 23.5Z" fill="#B3BEC9"/>
<path d="M48.5 23.5C47.3954 23.5 46.5 22.6046 46.5 21.5C46.5 20.3954 47.3954 19.5 48.5 19.5C49.6046 19.5 50.5 20.3954 50.5 21.5C50.5 22.6046 49.6046 23.5 48.5 23.5Z" fill="#B3BEC9"/>
<path d="M40.5 23.5C39.3954 23.5 38.5 22.6046 38.5 21.5C38.5 20.3954 39.3954 19.5 40.5 19.5C41.6046 19.5 42.5 20.3954 42.5 21.5C42.5 22.6046 41.6046 23.5 40.5 23.5Z" fill="#F84747"/>
<path d="M32.5 23.5C31.3954 23.5 30.5 22.6046 30.5 21.5C30.5 20.3954 31.3954 19.5 32.5 19.5C33.6046 19.5 34.5 20.3954 34.5 21.5C34.5 22.6046 33.6046 23.5 32.5 23.5Z" fill="#B3BEC9"/>
<path d="M47.7426 69.3711C47.7426 68.8188 48.1903 68.3711 48.7426 68.3711H51C51.5523 68.3711 52 68.8188 52 69.3711V71.6285C52 72.1808 51.5523 72.6285 51 72.6285H48.7426C48.1903 72.6285 47.7426 72.1808 47.7426 71.6285V69.3711Z" fill="#0048AF"/>
<path d="M47.7426 61.5662C47.7426 61.0139 48.1903 60.5662 48.7426 60.5662H51C51.5523 60.5662 52 61.0139 52 61.5662V63.8236C52 64.3759 51.5523 64.8236 51 64.8236H48.7426C48.1903 64.8236 47.7426 64.3759 47.7426 63.8236V61.5662Z" fill="white"/>
<path d="M47.7426 77.2427C47.7426 76.6904 48.1903 76.2427 48.7426 76.2427H51C51.5523 76.2427 52 76.6904 52 77.2427V79.5001C52 80.0524 51.5523 80.5001 51 80.5001H48.7426C48.1903 80.5001 47.7426 80.0524 47.7426 79.5001V77.2427Z" fill="#0048AF"/>
<path d="M76.0254 36.8301C77.4061 34.4387 80.4641 33.6193 82.8555 35C85.247 36.3807 86.0664 39.4387 84.6856 41.8301L66.9727 72.5099C66.25 73.7616 65.2017 74.7941 63.9392 75.4978L58.8169 78.3528C58.1562 78.721 57.3417 78.2507 57.3302 77.4944L57.2415 71.6309C57.2197 70.1857 57.5897 68.7616 58.3124 67.5099L76.0254 36.8301Z" fill="#FFAE41"/>
<path d="M74.5254 39.4282L83.1856 44.4282L81.2014 47.8651L72.5411 42.8651L74.5254 39.4282Z" fill="#DC893C"/>
</g>
</g>
<defs>
<clipPath id="clip0_13885_10956">
<rect x="2.5" y="3.5" width="96" height="96" rx="48" fill="white"/>
</clipPath>
</defs>
</svg>
