<svg width="97" height="96" viewBox="0 0 97 96" fill="none" xmlns="http://www.w3.org/2000/svg">
<g clip-path="url(#clip0_13777_3345)">
<rect x="0.75" width="96" height="96" rx="48" fill="#E4EBF0"/>
<path d="M1.52646 38.8106C1.09763 37.2102 2.04738 35.5652 3.64778 35.1364L38.5794 25.7765C40.1798 25.3476 41.8248 26.2974 42.2536 27.8978L56.1015 79.5789C56.5304 81.1793 55.5806 82.8244 53.9802 83.2532L19.0486 92.6131C17.4482 93.0419 15.8032 92.0921 15.3744 90.4918L1.52646 38.8106Z" fill="#0048AF"/>
<path d="M13.197 33.9957C13.197 32.3389 14.5402 30.9957 16.197 30.9957H44.8373L58.8997 45.0581V86.3545C58.8997 88.0114 57.5566 89.3545 55.8997 89.3545H16.197C14.5402 89.3545 13.197 88.0114 13.197 86.3545V33.9957Z" fill="#0085FF"/>
<path d="M44.8374 30.9957L58.8998 45.0581H47.8374C46.1805 45.0581 44.8374 43.7149 44.8374 42.0581V30.9957Z" fill="#0048AF"/>
<path fill-rule="evenodd" clip-rule="evenodd" d="M22.25 75C22.25 74.1715 22.9216 73.5 23.75 73.5H29.75C30.5784 73.5 31.25 74.1715 31.25 75C31.25 75.8284 30.5784 76.5 29.75 76.5H23.75C22.9216 76.5 22.25 75.8284 22.25 75Z" fill="#0048AF"/>
<path fill-rule="evenodd" clip-rule="evenodd" d="M22.25 59C22.25 58.1715 22.9216 57.5 23.75 57.5H29.75C30.5784 57.5 31.25 58.1715 31.25 59C31.25 59.8284 30.5784 60.5 29.75 60.5H23.75C22.9216 60.5 22.25 59.8284 22.25 59Z" fill="white"/>
<path fill-rule="evenodd" clip-rule="evenodd" d="M22.25 67C22.25 66.1715 22.9216 65.5 23.75 65.5H36.75C37.5784 65.5 38.25 66.1715 38.25 67C38.25 67.8284 37.5784 68.5 36.75 68.5H23.75C22.9216 68.5 22.25 67.8284 22.25 67Z" fill="white"/>
<path d="M65.4488 38.1376C73.0144 38.1376 79.1475 32.0626 79.1475 24.5688C79.1475 17.0749 73.0144 11 65.4488 11C57.8831 11 51.75 17.0749 51.75 24.5688C51.75 32.0626 57.8831 38.1376 65.4488 38.1376Z" fill="#1C9E59"/>
<path fill-rule="evenodd" clip-rule="evenodd" d="M70.7626 20.8934C71.3738 21.4526 71.4159 22.4014 70.8567 23.0126L65.6442 28.7093C64.6796 29.7636 63.0557 29.7636 62.0911 28.7093L59.6434 26.0342C59.0841 25.423 59.1262 24.4742 59.7374 23.9149C60.3486 23.3557 61.2974 23.3978 61.8567 24.009L63.8677 26.2068L68.6434 20.9874C69.2026 20.3762 70.1514 20.3341 70.7626 20.8934Z" fill="white"/>
<path d="M97.75 57C96.6454 57 95.75 56.1046 95.75 55C95.75 53.8954 96.6454 53 97.75 53C98.8546 53 99.75 53.8954 99.75 55C99.75 56.1046 98.8546 57 97.75 57Z" fill="#B3BEC9"/>
<path d="M89.75 57C88.6454 57 87.75 56.1046 87.75 55C87.75 53.8954 88.6454 53 89.75 53C90.8546 53 91.75 53.8954 91.75 55C91.75 56.1046 90.8546 57 89.75 57Z" fill="#B3BEC9"/>
<path d="M81.75 57C80.6454 57 79.75 56.1046 79.75 55C79.75 53.8954 80.6454 53 81.75 53C82.8546 53 83.75 53.8954 83.75 55C83.75 56.1046 82.8546 57 81.75 57Z" fill="#F84747"/>
<path d="M73.75 57C72.6454 57 71.75 56.1046 71.75 55C71.75 53.8954 72.6454 53 73.75 53C74.8546 53 75.75 53.8954 75.75 55C75.75 56.1046 74.8546 57 73.75 57Z" fill="#B3BEC9"/>
<path d="M97.75 65C96.6454 65 95.75 64.1046 95.75 63C95.75 61.8954 96.6454 61 97.75 61C98.8546 61 99.75 61.8954 99.75 63C99.75 64.1046 98.8546 65 97.75 65Z" fill="#B3BEC9"/>
<path d="M89.75 65C88.6454 65 87.75 64.1046 87.75 63C87.75 61.8954 88.6454 61 89.75 61C90.8546 61 91.75 61.8954 91.75 63C91.75 64.1046 90.8546 65 89.75 65Z" fill="#B3BEC9"/>
<path d="M81.75 65C80.6454 65 79.75 64.1046 79.75 63C79.75 61.8954 80.6454 61 81.75 61C82.8546 61 83.75 61.8954 83.75 63C83.75 64.1046 82.8546 65 81.75 65Z" fill="#B3BEC9"/>
<path d="M73.75 65C72.6454 65 71.75 64.1046 71.75 63C71.75 61.8954 72.6454 61 73.75 61C74.8546 61 75.75 61.8954 75.75 63C75.75 64.1046 74.8546 65 73.75 65Z" fill="#B3BEC9"/>
<path d="M97.75 73C96.6454 73 95.75 72.1046 95.75 71C95.75 69.8954 96.6454 69 97.75 69C98.8546 69 99.75 69.8954 99.75 71C99.75 72.1046 98.8546 73 97.75 73Z" fill="#B3BEC9"/>
<path d="M89.75 73C88.6454 73 87.75 72.1046 87.75 71C87.75 69.8954 88.6454 69 89.75 69C90.8546 69 91.75 69.8954 91.75 71C91.75 72.1046 90.8546 73 89.75 73Z" fill="#B3BEC9"/>
<path d="M81.75 73C80.6454 73 79.75 72.1046 79.75 71C79.75 69.8954 80.6454 69 81.75 69C82.8546 69 83.75 69.8954 83.75 71C83.75 72.1046 82.8546 73 81.75 73Z" fill="#B3BEC9"/>
<path d="M73.75 73C72.6454 73 71.75 72.1046 71.75 71C71.75 69.8954 72.6454 69 73.75 69C74.8546 69 75.75 69.8954 75.75 71C75.75 72.1046 74.8546 73 73.75 73Z" fill="#B3BEC9"/>
<path d="M97.75 81C96.6454 81 95.75 80.1046 95.75 79C95.75 77.8954 96.6454 77 97.75 77C98.8546 77 99.75 77.8954 99.75 79C99.75 80.1046 98.8546 81 97.75 81Z" fill="#B3BEC9"/>
<path d="M89.75 81C88.6454 81 87.75 80.1046 87.75 79C87.75 77.8954 88.6454 77 89.75 77C90.8546 77 91.75 77.8954 91.75 79C91.75 80.1046 90.8546 81 89.75 81Z" fill="#B3BEC9"/>
<path d="M81.75 81C80.6454 81 79.75 80.1046 79.75 79C79.75 77.8954 80.6454 77 81.75 77C82.8546 77 83.75 77.8954 83.75 79C83.75 80.1046 82.8546 81 81.75 81Z" fill="#B3BEC9"/>
<path d="M73.75 81C72.6454 81 71.75 80.1046 71.75 79C71.75 77.8954 72.6454 77 73.75 77C74.8546 77 75.75 77.8954 75.75 79C75.75 80.1046 74.8546 81 73.75 81Z" fill="#FFAE41"/>
<path d="M97.75 89C96.6454 89 95.75 88.1046 95.75 87C95.75 85.8954 96.6454 85 97.75 85C98.8546 85 99.75 85.8954 99.75 87C99.75 88.1046 98.8546 89 97.75 89Z" fill="#B3BEC9"/>
<path d="M89.75 89C88.6454 89 87.75 88.1046 87.75 87C87.75 85.8954 88.6454 85 89.75 85C90.8546 85 91.75 85.8954 91.75 87C91.75 88.1046 90.8546 89 89.75 89Z" fill="#B3BEC9"/>
<path d="M81.75 89C80.6454 89 79.75 88.1046 79.75 87C79.75 85.8954 80.6454 85 81.75 85C82.8546 85 83.75 85.8954 83.75 87C83.75 88.1046 82.8546 89 81.75 89Z" fill="#B3BEC9"/>
<path d="M73.75 89C72.6454 89 71.75 88.1046 71.75 87C71.75 85.8954 72.6454 85 73.75 85C74.8546 85 75.75 85.8954 75.75 87C75.75 88.1046 74.8546 89 73.75 89Z" fill="#B3BEC9"/>
<path d="M97.75 97C96.6454 97 95.75 96.1046 95.75 95C95.75 93.8954 96.6454 93 97.75 93C98.8546 93 99.75 93.8954 99.75 95C99.75 96.1046 98.8546 97 97.75 97Z" fill="#B3BEC9"/>
<path d="M89.75 97C88.6454 97 87.75 96.1046 87.75 95C87.75 93.8954 88.6454 93 89.75 93C90.8546 93 91.75 93.8954 91.75 95C91.75 96.1046 90.8546 97 89.75 97Z" fill="#B3BEC9"/>
<path d="M81.75 97C80.6454 97 79.75 96.1046 79.75 95C79.75 93.8954 80.6454 93 81.75 93C82.8546 93 83.75 93.8954 83.75 95C83.75 96.1046 82.8546 97 81.75 97Z" fill="#B3BEC9"/>
<path d="M73.75 97C72.6454 97 71.75 96.1046 71.75 95C71.75 93.8954 72.6454 93 73.75 93C74.8546 93 75.75 93.8954 75.75 95C75.75 96.1046 74.8546 97 73.75 97Z" fill="#B3BEC9"/>
<path d="M45.9926 65.8712C45.9926 65.3189 46.4403 64.8712 46.9926 64.8712H49.25C49.8023 64.8712 50.25 65.3189 50.25 65.8712V68.1286C50.25 68.6809 49.8023 69.1286 49.25 69.1286H46.9926C46.4403 69.1286 45.9926 68.6809 45.9926 68.1286V65.8712Z" fill="#0048AF"/>
<path d="M45.9926 58.0661C45.9926 57.5138 46.4403 57.0661 46.9926 57.0661H49.25C49.8023 57.0661 50.25 57.5138 50.25 58.0661V60.3235C50.25 60.8758 49.8023 61.3235 49.25 61.3235H46.9926C46.4403 61.3235 45.9926 60.8758 45.9926 60.3235V58.0661Z" fill="white"/>
<path d="M45.9926 73.7426C45.9926 73.1903 46.4403 72.7426 46.9926 72.7426H49.25C49.8023 72.7426 50.25 73.1903 50.25 73.7426V76C50.25 76.5523 49.8023 77 49.25 77H46.9926C46.4403 77 45.9926 76.5523 45.9926 76V73.7426Z" fill="#0048AF"/>
</g>
<defs>
<clipPath id="clip0_13777_3345">
<rect x="0.75" width="96" height="96" rx="48" fill="white"/>
</clipPath>
</defs>
</svg>
