<svg width="275" height="154" viewBox="0 0 275 154" fill="none" xmlns="http://www.w3.org/2000/svg">
<path d="M288.75 0.198242H-13.75V153.535H288.75V0.198242Z" fill="#6C63FF"/>
<path d="M266.596 132.929H266.048V153.304H266.596V132.929Z" fill="#3F3D56"/>
<path d="M266.322 135.809C267.914 135.809 269.205 134.519 269.205 132.928C269.205 131.337 267.914 130.047 266.322 130.047C264.729 130.047 263.438 131.337 263.438 132.928C263.438 134.519 264.729 135.809 266.322 135.809Z" fill="#3F3D56"/>
<path d="M266.322 145.485C266.322 145.485 265.91 136.632 257.466 137.661L266.322 145.485Z" fill="#3F3D56"/>
<path d="M2.52889 143.642C4.19296 149.789 9.89277 153.596 9.89277 153.596C9.89277 153.596 12.8946 147.436 11.2305 141.289C9.56645 135.142 3.86664 131.335 3.86664 131.335C3.86664 131.335 0.864823 137.494 2.52889 143.642Z" fill="white"/>
<path d="M4.97334 142.32C9.53956 146.762 10.0973 153.591 10.0973 153.591C10.0973 153.591 3.25171 153.217 -1.31452 148.775C-5.88075 144.333 -6.43848 137.505 -6.43848 137.505C-6.43848 137.505 0.407108 137.878 4.97334 142.32Z" fill="#3F3D56"/>
<path opacity="0.1" d="M107.423 0.198242L-13.75 83.3394V64.3969L79.8304 0.198242H107.423Z" fill="black"/>
<path opacity="0.1" d="M61.5928 0.198242L-13.75 51.8863V32.9547L33.9979 0.198242H61.5928Z" fill="black"/>
<path opacity="0.1" d="M11.8584 0.198242L-13.75 17.7662V0.198242H11.8584Z" fill="black"/>
<path opacity="0.1" d="M137.5 116.744C161.561 116.744 181.067 113.802 181.067 110.172C181.067 106.543 161.561 103.601 137.5 103.601C113.439 103.601 93.9336 106.543 93.9336 110.172C93.9336 113.802 113.439 116.744 137.5 116.744Z" fill="black"/>
<path opacity="0.1" d="M137.5 111.267C161.561 111.267 181.067 108.325 181.067 104.696C181.067 101.066 161.561 98.124 137.5 98.124C113.439 98.124 93.9336 101.066 93.9336 104.696C93.9336 108.325 113.439 111.267 137.5 111.267Z" fill="black"/>
<path opacity="0.1" d="M137.5 105.792C161.561 105.792 181.067 102.849 181.067 99.22C181.067 95.5906 161.561 92.6484 137.5 92.6484C113.439 92.6484 93.9336 95.5906 93.9336 99.22C93.9336 102.849 113.439 105.792 137.5 105.792Z" fill="black"/>
<path opacity="0.1" d="M137.5 100.315C161.561 100.315 181.067 97.3728 181.067 93.7434C181.067 90.1141 161.561 87.1719 137.5 87.1719C113.439 87.1719 93.9336 90.1141 93.9336 93.7434C93.9336 97.3728 113.439 100.315 137.5 100.315Z" fill="black"/>
<path opacity="0.1" d="M137.5 94.8384C161.561 94.8384 181.067 91.8963 181.067 88.2669C181.067 84.6375 161.561 81.6953 137.5 81.6953C113.439 81.6953 93.9336 84.6375 93.9336 88.2669C93.9336 91.8963 113.439 94.8384 137.5 94.8384Z" fill="black"/>
<path opacity="0.1" d="M137.5 89.3628C161.561 89.3628 181.067 86.4206 181.067 82.7913C181.067 79.1619 161.561 76.2197 137.5 76.2197C113.439 76.2197 93.9336 79.1619 93.9336 82.7913C93.9336 86.4206 113.439 89.3628 137.5 89.3628Z" fill="black"/>
<path d="M152.761 62.677C149.287 75.5081 137.39 83.4547 137.39 83.4547C137.39 83.4547 131.124 70.598 134.598 57.7669C138.071 44.9359 149.969 36.9893 149.969 36.9893C149.969 36.9893 156.234 49.8459 152.761 62.677Z" fill="white"/>
<path d="M121.162 62.677C124.636 75.5081 136.533 83.4547 136.533 83.4547C136.533 83.4547 142.799 70.598 139.325 57.7669C135.852 44.9359 123.955 36.9893 123.955 36.9893C123.955 36.9893 117.689 49.8459 121.162 62.677Z" fill="white"/>
<path d="M126.265 59.9196C135.797 69.1914 136.961 83.4444 136.961 83.4444C136.961 83.4444 122.672 82.6647 113.141 73.3929C103.609 64.1211 102.445 49.8682 102.445 49.8682C102.445 49.8682 116.734 50.6478 126.265 59.9196Z" fill="#3F3D56"/>
<path d="M147.656 59.9196C138.125 69.1914 136.961 83.4444 136.961 83.4444C136.961 83.4444 151.25 82.6647 160.781 73.3929C170.312 64.1211 171.476 49.8682 171.476 49.8682C171.476 49.8682 157.187 50.6478 147.656 59.9196Z" fill="#3F3D56"/>
<path d="M210.385 120.762H56.4424V121.309H210.385V120.762Z" fill="#3F3D56"/>
<path d="M161.66 153.609C161.01 153.609 160.374 153.416 159.833 153.055C159.293 152.694 158.871 152.181 158.622 151.58C158.373 150.98 158.308 150.319 158.435 149.682C158.562 149.044 158.875 148.459 159.335 147.999C159.795 147.54 160.381 147.227 161.019 147.1C161.656 146.973 162.318 147.039 162.918 147.287C163.519 147.536 164.033 147.957 164.394 148.497C164.755 149.038 164.948 149.673 164.948 150.323C164.947 151.194 164.6 152.029 163.984 152.645C163.368 153.261 162.532 153.608 161.66 153.609ZM161.66 147.585C161.118 147.585 160.588 147.745 160.138 148.046C159.687 148.347 159.336 148.775 159.129 149.275C158.921 149.775 158.867 150.326 158.973 150.857C159.078 151.388 159.339 151.876 159.723 152.259C160.106 152.642 160.594 152.903 161.126 153.008C161.657 153.114 162.208 153.06 162.709 152.853C163.209 152.645 163.637 152.294 163.938 151.844C164.239 151.394 164.4 150.864 164.4 150.323C164.399 149.597 164.11 148.901 163.597 148.388C163.083 147.874 162.387 147.586 161.66 147.585Z" fill="#F0F0F0"/>
<path d="M58.3134 87.1516H52.9043V81.7461H58.3134V87.1516ZM53.3204 86.7357H57.8973V82.1619H53.3204V86.7357Z" fill="#3F3D56"/>
<path d="M213.454 94.879L209.765 90.9262L213.72 87.2393L217.41 91.1921L213.454 94.879ZM210.353 90.9466L213.475 94.2914L216.822 91.1716L213.7 87.8269L210.353 90.9466Z" fill="#F0F0F0"/>
<path opacity="0.1" d="M288.75 31.4131V109.724C278.358 109.724 268.392 105.599 261.044 98.2557C253.696 90.9126 249.567 80.9533 249.567 70.5686C249.567 60.1839 253.696 50.2246 261.044 42.8815C268.392 35.5384 278.358 31.4131 288.75 31.4131Z" fill="black"/>
<path opacity="0.1" d="M252.582 71.9375C269.228 71.9375 282.722 58.4525 282.722 41.8179C282.722 25.1833 269.228 11.6982 252.582 11.6982C235.936 11.6982 222.441 25.1833 222.441 41.8179C222.441 58.4525 235.936 71.9375 252.582 71.9375Z" fill="black"/>
<path opacity="0.1" d="M226.003 39.6272C234.478 39.6272 241.348 32.7621 241.348 24.2936C241.348 15.8251 234.478 8.95996 226.003 8.95996C217.529 8.95996 210.659 15.8251 210.659 24.2936C210.659 32.7621 217.529 39.6272 226.003 39.6272Z" fill="black"/>
<path d="M226.088 32.2543C224.51 32.2543 222.968 31.7868 221.656 30.9108C220.344 30.0347 219.321 28.7896 218.718 27.3329C218.114 25.8761 217.956 24.2731 218.264 22.7266C218.571 21.1801 219.331 19.7596 220.447 18.6446C221.563 17.5297 222.984 16.7704 224.532 16.4628C226.079 16.1551 227.683 16.313 229.141 16.9164C230.599 17.5198 231.845 18.5417 232.722 19.8527C233.598 21.1638 234.066 22.7052 234.066 24.282C234.064 26.3956 233.222 28.4221 231.727 29.9167C230.231 31.4113 228.203 32.252 226.088 32.2543Z" fill="#3F3D56"/>
<path d="M137.037 34.9822C138.562 34.9822 139.799 33.7467 139.799 32.2226C139.799 30.6984 138.562 29.4629 137.037 29.4629C135.512 29.4629 134.275 30.6984 134.275 32.2226C134.275 33.7467 135.512 34.9822 137.037 34.9822Z" fill="#F0F0F0"/>
<path d="M137.036 40.1948C135.459 40.1948 133.916 39.7272 132.604 38.8512C131.292 37.9752 130.27 36.7301 129.666 35.2733C129.062 33.8165 128.904 32.2136 129.212 30.6671C129.52 29.1206 130.28 27.7 131.395 26.5851C132.511 25.4701 133.933 24.7108 135.48 24.4032C137.028 24.0956 138.632 24.2535 140.09 24.8569C141.547 25.4603 142.793 26.4821 143.67 27.7932C144.546 29.1042 145.014 30.6456 145.014 32.2224C145.012 34.3361 144.171 36.3625 142.675 37.8571C141.179 39.3517 139.152 40.1924 137.036 40.1948ZM137.036 24.8633C135.58 24.8633 134.156 25.2949 132.945 26.1035C131.734 26.9121 130.79 28.0615 130.233 29.4062C129.675 30.7509 129.53 32.2306 129.814 33.6581C130.098 35.0856 130.799 36.3969 131.829 37.4261C132.859 38.4553 134.171 39.1562 135.6 39.4401C137.028 39.7241 138.509 39.5783 139.855 39.0213C141.2 38.4644 142.35 37.5211 143.16 36.3109C143.969 35.1007 144.401 33.6779 144.401 32.2224C144.398 30.2713 143.622 28.4008 142.241 27.0212C140.861 25.6416 138.989 24.8655 137.036 24.8633Z" fill="#2F2E41"/>
</svg>
