<svg width="24" height="24" viewBox="0 0 24 24" fill="none" xmlns="http://www.w3.org/2000/svg">
<g clip-path="url(#clip0_10964_200)">
<path fill-rule="evenodd" clip-rule="evenodd" d="M2.70695 2C10.497 2 5.30363 14.9804 6.34231 14.9804C7.38098 14.9804 9.21418 6.10256 13.1425 6.10256C17.2311 6.10256 16.6559 13.6982 17.6119 16.4217C17.6616 16.5634 17.7086 16.6757 17.7504 16.7635C17.9722 16.4538 18.1771 15.9986 18.4832 15.3056L18.4919 15.2859C18.7667 14.6635 19.128 13.8455 19.6348 13.1593C20.1714 12.4326 20.9746 11.7104 22.1715 11.5022C23.0189 11.3548 23.8269 11.9137 23.9761 12.7505C24.1254 13.5873 23.5594 14.3851 22.712 14.5325C22.5773 14.5559 22.4037 14.6319 22.1524 14.9723C21.8765 15.3458 21.6407 15.8535 21.3394 16.5356C21.3231 16.5726 21.3064 16.6104 21.2894 16.649C21.0319 17.2338 20.6987 17.9907 20.2567 18.5922C19.7487 19.2835 18.9155 20.0149 17.6479 20.0149C16.7639 20.0149 16.0685 19.6093 15.5851 19.0761C15.1405 18.5856 14.8606 17.9787 14.6677 17.4294C14.2837 16.3353 14.0731 14.9393 13.8932 13.7389L13.8845 13.6809C13.6946 12.4133 13.5337 11.3398 13.2854 10.567C13.2334 10.4052 13.1847 10.2808 13.1425 10.187C12.9851 10.3034 12.7579 10.5583 12.4666 11.1166C12.0209 11.9708 11.6547 13.0949 11.2252 14.4137C11.1649 14.5988 11.1034 14.7878 11.0402 14.9804C10.5593 16.446 9.98118 18.1228 9.12873 19.4324C8.25026 20.7819 6.90118 22 4.86419 22C3.74267 22 2.9014 21.4302 2.3807 20.6383C1.91838 19.9352 1.70633 19.0683 1.5939 18.2695C1.36684 16.6562 1.4597 14.5774 1.5508 12.6958C1.55477 12.614 1.55872 12.5325 1.56267 12.4514C1.65407 10.571 1.73613 8.88262 1.60673 7.63787C1.55128 7.10444 1.46658 6.77424 1.39357 6.59155C-0.409075 6.59155 -0.928396 2 2.70695 2Z" fill="#0085FF"/>
</g>
<defs>
<clipPath id="clip0_10964_200">
<rect width="24" height="24" fill="white"/>
</clipPath>
</defs>
</svg>
