<svg width="350" height="350" viewBox="0 0 350 350" fill="none" xmlns="http://www.w3.org/2000/svg">
<path d="M328.125 96.9792H21.875V252.216H328.125V96.9792Z" fill="#6C63FF"/>
<path d="M305.697 231.355H305.142V251.982H305.697V231.355Z" fill="#3F3D56"/>
<path d="M305.419 234.272C307.031 234.272 308.338 232.966 308.338 231.355C308.338 229.744 307.031 228.438 305.419 228.438C303.807 228.438 302.5 229.744 302.5 231.355C302.5 232.966 303.807 234.272 305.419 234.272Z" fill="#3F3D56"/>
<path d="M305.419 244.068C305.419 244.068 305.002 235.105 296.454 236.147Z" fill="#3F3D56"/>
<path d="M38.3554 242.201C40.0401 248.424 45.8106 252.279 45.8106 252.279C45.8106 252.279 48.8496 246.043 47.1649 239.819C45.4802 233.596 39.7098 229.742 39.7098 229.742C39.7098 229.742 36.6707 235.978 38.3554 242.201Z" fill="white"/>
<path d="M40.8306 240.863C45.4535 245.361 46.0181 252.274 46.0181 252.274C46.0181 252.274 39.0877 251.895 34.4648 247.398C29.842 242.901 29.2773 235.988 29.2773 235.988C29.2773 235.988 36.2078 236.366 40.8306 240.863Z" fill="#3F3D56"/>
<path opacity="0.1" d="M144.55 96.9792L21.875 181.151V161.974L116.616 96.9792H144.55Z" fill="black"/>
<path opacity="0.1" d="M98.1518 96.9792L21.875 149.308V130.142L70.2148 96.9792H98.1518Z" fill="black"/>
<path opacity="0.1" d="M47.8008 96.9792L21.875 114.765V96.9792H47.8008Z" fill="black"/>
<path opacity="0.1" d="M175 214.97C199.359 214.97 219.106 211.991 219.106 208.317C219.106 204.642 199.359 201.664 175 201.664C150.64 201.664 130.893 204.642 130.893 208.317C130.893 211.991 150.64 214.97 175 214.97Z" fill="black"/>
<path opacity="0.1" d="M175 209.425C199.359 209.425 219.106 206.447 219.106 202.772C219.106 199.098 199.359 196.119 175 196.119C150.64 196.119 130.893 199.098 130.893 202.772C130.893 206.447 150.64 209.425 175 209.425Z" fill="black"/>
<path opacity="0.1" d="M175 203.881C199.359 203.881 219.106 200.903 219.106 197.228C219.106 193.554 199.359 190.575 175 190.575C150.64 190.575 130.893 193.554 130.893 197.228C130.893 200.903 150.64 203.881 175 203.881Z" fill="black"/>
<path opacity="0.1" d="M175 198.337C199.359 198.337 219.106 195.358 219.106 191.684C219.106 188.01 199.359 185.031 175 185.031C150.64 185.031 130.893 188.01 130.893 191.684C130.893 195.358 150.64 198.337 175 198.337Z" fill="black"/>
<path opacity="0.1" d="M175 192.793C199.359 192.793 219.106 189.814 219.106 186.14C219.106 182.466 199.359 179.487 175 179.487C150.64 179.487 130.893 182.466 130.893 186.14C130.893 189.814 150.64 192.793 175 192.793Z" fill="black"/>
<path opacity="0.1" d="M175 187.249C199.359 187.249 219.106 184.27 219.106 180.596C219.106 176.921 199.359 173.943 175 173.943C150.64 173.943 130.893 176.921 130.893 180.596C130.893 184.27 150.64 187.249 175 187.249Z" fill="black"/>
<path d="M190.449 160.232C186.933 173.222 174.888 181.267 174.888 181.267C174.888 181.267 168.544 168.251 172.061 155.261C175.577 142.271 187.622 134.226 187.622 134.226C187.622 134.226 193.966 147.242 190.449 160.232Z" fill="white"/>
<path d="M158.459 160.232C161.976 173.222 174.021 181.267 174.021 181.267C174.021 181.267 180.364 168.251 176.848 155.261C173.331 142.271 161.286 134.226 161.286 134.226C161.286 134.226 154.943 147.242 158.459 160.232Z" fill="white"/>
<path d="M163.627 157.441C173.276 166.827 174.455 181.257 174.455 181.257C174.455 181.257 159.988 180.468 150.339 171.081C140.69 161.694 139.511 147.265 139.511 147.265C139.511 147.265 153.977 148.054 163.627 157.441Z" fill="#3F3D56"/>
<path d="M185.283 157.441C175.633 166.827 174.455 181.257 174.455 181.257C174.455 181.257 188.921 180.468 198.57 171.081C208.219 161.694 209.398 147.265 209.398 147.265C209.398 147.265 194.932 148.054 185.283 157.441Z" fill="#3F3D56"/>
<path d="M248.789 219.037H92.9375V219.592H248.789V219.037Z" fill="#3F3D56"/>
<path d="M199.46 252.291C198.801 252.291 198.158 252.096 197.61 251.731C197.063 251.365 196.636 250.846 196.384 250.238C196.132 249.63 196.066 248.961 196.195 248.316C196.323 247.671 196.64 247.078 197.106 246.613C197.571 246.148 198.165 245.831 198.81 245.702C199.456 245.574 200.125 245.64 200.734 245.892C201.342 246.143 201.862 246.57 202.227 247.117C202.593 247.664 202.788 248.307 202.788 248.965C202.787 249.847 202.436 250.692 201.812 251.316C201.188 251.94 200.342 252.29 199.46 252.291ZM199.46 246.193C198.911 246.193 198.375 246.355 197.918 246.66C197.462 246.965 197.107 247.398 196.897 247.904C196.687 248.411 196.632 248.968 196.739 249.506C196.846 250.043 197.11 250.537 197.498 250.925C197.886 251.313 198.38 251.577 198.918 251.684C199.457 251.791 200.014 251.736 200.521 251.526C201.028 251.316 201.461 250.961 201.766 250.505C202.071 250.049 202.234 249.513 202.234 248.965C202.233 248.23 201.94 247.525 201.42 247.006C200.9 246.486 200.195 246.194 199.46 246.193Z" fill="#F0F0F0"/>
<path d="M94.8312 185.01H89.355V179.538H94.8312V185.01ZM89.7762 184.589H94.4099V179.959H89.7762V184.589Z" fill="#3F3D56"/>
<path d="M251.896 192.833L248.161 188.832L252.165 185.099L255.9 189.101L251.896 192.833ZM248.756 188.852L251.917 192.238L255.305 189.08L252.145 185.694L248.756 188.852Z" fill="#F0F0F0"/>
<path opacity="0.1" d="M328.125 128.581V207.863C317.604 207.863 307.514 203.687 300.075 196.252C292.636 188.818 288.457 178.736 288.457 168.222C288.457 157.709 292.636 147.626 300.075 140.192C307.514 132.758 317.604 128.581 328.125 128.581V128.581Z" fill="black"/>
<path opacity="0.1" d="M291.508 169.608C308.361 169.608 322.022 155.956 322.022 139.115C322.022 122.274 308.361 108.622 291.508 108.622C274.656 108.622 260.994 122.274 260.994 139.115C260.994 155.956 274.656 169.608 291.508 169.608Z" fill="black"/>
<path opacity="0.1" d="M264.6 136.897C273.18 136.897 280.135 129.947 280.135 121.374C280.135 112.8 273.18 105.85 264.6 105.85C256.021 105.85 249.066 112.8 249.066 121.374C249.066 129.947 256.021 136.897 264.6 136.897Z" fill="black"/>
<path d="M264.686 129.433C263.089 129.433 261.527 128.959 260.199 128.072C258.871 127.185 257.835 125.925 257.224 124.45C256.613 122.975 256.453 121.352 256.765 119.787C257.076 118.221 257.845 116.783 258.975 115.654C260.105 114.525 261.544 113.757 263.11 113.445C264.677 113.134 266.301 113.294 267.777 113.905C269.253 114.515 270.514 115.55 271.402 116.877C272.289 118.205 272.763 119.765 272.763 121.361C272.761 123.501 271.909 125.553 270.395 127.066C268.88 128.579 266.828 129.43 264.686 129.433V129.433Z" fill="#3F3D56"/>
<path d="M174.531 132.195C176.075 132.195 177.327 130.944 177.327 129.401C177.327 127.858 176.075 126.607 174.531 126.607C172.987 126.607 171.735 127.858 171.735 129.401C171.735 130.944 172.987 132.195 174.531 132.195Z" fill="#F0F0F0"/>
<path d="M174.531 137.472C172.933 137.472 171.372 136.999 170.044 136.112C168.715 135.225 167.68 133.964 167.069 132.49C166.458 131.015 166.298 129.392 166.609 127.826C166.921 126.261 167.69 124.822 168.82 123.694C169.949 122.565 171.388 121.796 172.955 121.485C174.522 121.173 176.146 121.333 177.622 121.944C179.098 122.555 180.359 123.589 181.246 124.917C182.134 126.244 182.608 127.804 182.608 129.401C182.605 131.541 181.754 133.592 180.239 135.105C178.725 136.619 176.672 137.47 174.531 137.472V137.472ZM174.531 121.95C173.056 121.95 171.615 122.387 170.389 123.206C169.163 124.025 168.207 125.188 167.643 126.55C167.079 127.911 166.931 129.409 167.219 130.854C167.506 132.3 168.216 133.627 169.259 134.669C170.302 135.711 171.63 136.421 173.076 136.708C174.523 136.996 176.022 136.848 177.384 136.284C178.746 135.72 179.911 134.765 180.73 133.54C181.549 132.315 181.986 130.874 181.986 129.401C181.984 127.426 181.198 125.532 179.8 124.135C178.403 122.738 176.508 121.953 174.531 121.95V121.95Z" fill="#2F2E41"/>
</svg>
