<svg xmlns="http://www.w3.org/2000/svg" data-name="Layer 1" viewBox="0 0 512 512"><path d="M330.314,366H211.562a7.5,7.5,0,0,0,0,15H330.314a7.5,7.5,0,0,0,0-15Zm45-45H241.562a7.5,7.5,0,0,0,0,15H375.314a7.5,7.5,0,0,0,0-15ZM114.062,67.5v21a22.52554,22.52554,0,0,0,22.5,22.5H375.314a22.52554,22.52554,0,0,0,22.5-22.5v-21a22.52554,22.52554,0,0,0-22.5-22.5H136.562A22.52554,22.52554,0,0,0,114.062,67.5Zm15,0a7.50852,7.50852,0,0,1,7.5-7.5H375.314a7.50851,7.50851,0,0,1,7.5,7.5v21a7.50851,7.50851,0,0,1-7.5,7.5H136.562a7.50852,7.50852,0,0,1-7.5-7.5ZM375.314,141H136.562a7.5,7.5,0,0,0,0,15H375.314a7.5,7.5,0,0,0,0-15Zm0,135H241.562a7.5,7.5,0,0,0,0,15H375.314a7.5,7.5,0,0,0,0-15ZM462,0c-1.15619,0-2.29944.05371-3.43628.13135A7.53452,7.53452,0,0,0,457.18994,0H123.25a37.54227,37.54227,0,0,0-37.5,37.5V196.46484H50.5v-6.42968a7.5,7.5,0,0,0-15,0v6.48413A37.54606,37.54606,0,0,0,0,233.96484v100a37.54226,37.54226,0,0,0,37.5,37.5H85.75V412H50a50,50,0,0,0,0,100H377.25c.08533,0,.16815-.01.25281-.0127A50.05084,50.05084,0,0,0,427,462V100h35A50,50,0,0,0,462,0ZM15,233.96484a22.52722,22.52722,0,0,1,20.5-22.40625v7.40625a7.5,7.5,0,0,0,15,0v-7.5h105v7.5a7.5,7.5,0,0,0,15,0v-7.40625A22.52722,22.52722,0,0,1,191,233.96484v7.5H15Zm22.5,122.5a22.52554,22.52554,0,0,1-22.5-22.5v-77.5H191v77.5a22.52554,22.52554,0,0,1-22.5,22.5H93.34674c-.03259-.00048-.06409-.00488-.09674-.00488s-.06415.0044-.09674.00488ZM341.57568,497H50a35,35,0,0,1,0-70H341.57568a49.91823,49.91823,0,0,0,0,70Zm70.671-451.94873A7.49283,7.49283,0,0,0,412,46.92969V462a34.87522,34.87522,0,1,1-34.75-35,7.5,7.5,0,0,0,0-15H100.75V371.46484H168.5a37.54226,37.54226,0,0,0,37.5-37.5v-100a37.54606,37.54606,0,0,0-35.5-37.44555v-6.48413a7.5,7.5,0,0,0-15,0v6.42968H100.75V37.5A22.52554,22.52554,0,0,1,123.25,15H426.338A49.85412,49.85412,0,0,0,412.2467,45.05127ZM462,85H427V50a35,35,0,1,1,35,35ZM375.314,186H211.562a7.5,7.5,0,0,0,0,15H375.314a7.5,7.5,0,0,0,0-15Zm0,45H241.562a7.5,7.5,0,0,0,0,15H375.314a7.5,7.5,0,0,0,0-15Z"/></svg>