<svg width="97" height="96" viewBox="0 0 97 96" fill="none" xmlns="http://www.w3.org/2000/svg">
<g clip-path="url(#clip0_13777_4014)">
<rect x="0.75" width="96" height="96" rx="48" fill="#E4EBF0"/>
<path d="M95.75 64C94.6454 64 93.75 63.1046 93.75 62C93.75 60.8954 94.6454 60 95.75 60C96.8546 60 97.75 60.8954 97.75 62C97.75 63.1046 96.8546 64 95.75 64Z" fill="#B3BEC9"/>
<path d="M87.75 64C86.6454 64 85.75 63.1046 85.75 62C85.75 60.8954 86.6454 60 87.75 60C88.8546 60 89.75 60.8954 89.75 62C89.75 63.1046 88.8546 64 87.75 64Z" fill="#B3BEC9"/>
<path d="M79.75 64C78.6454 64 77.75 63.1046 77.75 62C77.75 60.8954 78.6454 60 79.75 60C80.8546 60 81.75 60.8954 81.75 62C81.75 63.1046 80.8546 64 79.75 64Z" fill="#B3BEC9"/>
<path d="M71.75 64C70.6454 64 69.75 63.1046 69.75 62C69.75 60.8954 70.6454 60 71.75 60C72.8546 60 73.75 60.8954 73.75 62C73.75 63.1046 72.8546 64 71.75 64Z" fill="#2F80ED"/>
<path d="M63.75 64C62.6454 64 61.75 63.1046 61.75 62C61.75 60.8954 62.6454 60 63.75 60C64.8546 60 65.75 60.8954 65.75 62C65.75 63.1046 64.8546 64 63.75 64Z" fill="#B3BEC9"/>
<path d="M95.75 72C94.6454 72 93.75 71.1046 93.75 70C93.75 68.8954 94.6454 68 95.75 68C96.8546 68 97.75 68.8954 97.75 70C97.75 71.1046 96.8546 72 95.75 72Z" fill="#B3BEC9"/>
<path d="M87.75 72C86.6454 72 85.75 71.1046 85.75 70C85.75 68.8954 86.6454 68 87.75 68C88.8546 68 89.75 68.8954 89.75 70C89.75 71.1046 88.8546 72 87.75 72Z" fill="#B3BEC9"/>
<path d="M79.75 72C78.6454 72 77.75 71.1046 77.75 70C77.75 68.8954 78.6454 68 79.75 68C80.8546 68 81.75 68.8954 81.75 70C81.75 71.1046 80.8546 72 79.75 72Z" fill="#B3BEC9"/>
<path d="M71.75 72C70.6454 72 69.75 71.1046 69.75 70C69.75 68.8954 70.6454 68 71.75 68C72.8546 68 73.75 68.8954 73.75 70C73.75 71.1046 72.8546 72 71.75 72Z" fill="#B3BEC9"/>
<path d="M63.75 72C62.6454 72 61.75 71.1046 61.75 70C61.75 68.8954 62.6454 68 63.75 68C64.8546 68 65.75 68.8954 65.75 70C65.75 71.1046 64.8546 72 63.75 72Z" fill="#B3BEC9"/>
<path d="M95.75 80C94.6454 80 93.75 79.1046 93.75 78C93.75 76.8954 94.6454 76 95.75 76C96.8546 76 97.75 76.8954 97.75 78C97.75 79.1046 96.8546 80 95.75 80Z" fill="#B3BEC9"/>
<path d="M95.75 88C94.6454 88 93.75 87.1046 93.75 86C93.75 84.8954 94.6454 84 95.75 84C96.8546 84 97.75 84.8954 97.75 86C97.75 87.1046 96.8546 88 95.75 88Z" fill="#B3BEC9"/>
<path d="M95.75 96C94.6454 96 93.75 95.1046 93.75 94C93.75 92.8954 94.6454 92 95.75 92C96.8546 92 97.75 92.8954 97.75 94C97.75 95.1046 96.8546 96 95.75 96Z" fill="#B3BEC9"/>
<path d="M87.75 80C86.6454 80 85.75 79.1046 85.75 78C85.75 76.8954 86.6454 76 87.75 76C88.8546 76 89.75 76.8954 89.75 78C89.75 79.1046 88.8546 80 87.75 80Z" fill="#B3BEC9"/>
<path d="M79.75 80C78.6454 80 77.75 79.1046 77.75 78C77.75 76.8954 78.6454 76 79.75 76C80.8546 76 81.75 76.8954 81.75 78C81.75 79.1046 80.8546 80 79.75 80Z" fill="#B3BEC9"/>
<path d="M71.75 80C70.6454 80 69.75 79.1046 69.75 78C69.75 76.8954 70.6454 76 71.75 76C72.8546 76 73.75 76.8954 73.75 78C73.75 79.1046 72.8546 80 71.75 80Z" fill="#B3BEC9"/>
<path d="M63.75 80C62.6454 80 61.75 79.1046 61.75 78C61.75 76.8954 62.6454 76 63.75 76C64.8546 76 65.75 76.8954 65.75 78C65.75 79.1046 64.8546 80 63.75 80Z" fill="#B3BEC9"/>
<path d="M87.75 88C86.6454 88 85.75 87.1046 85.75 86C85.75 84.8954 86.6454 84 87.75 84C88.8546 84 89.75 84.8954 89.75 86C89.75 87.1046 88.8546 88 87.75 88Z" fill="#B3BEC9"/>
<path d="M79.75 88C78.6454 88 77.75 87.1046 77.75 86C77.75 84.8954 78.6454 84 79.75 84C80.8546 84 81.75 84.8954 81.75 86C81.75 87.1046 80.8546 88 79.75 88Z" fill="#B3BEC9"/>
<path d="M71.75 88C70.6454 88 69.75 87.1046 69.75 86C69.75 84.8954 70.6454 84 71.75 84C72.8546 84 73.75 84.8954 73.75 86C73.75 87.1046 72.8546 88 71.75 88Z" fill="#B3BEC9"/>
<path d="M63.75 88C62.6454 88 61.75 87.1046 61.75 86C61.75 84.8954 62.6454 84 63.75 84C64.8546 84 65.75 84.8954 65.75 86C65.75 87.1046 64.8546 88 63.75 88Z" fill="#1C9E59"/>
<path d="M87.75 96C86.6454 96 85.75 95.1046 85.75 94C85.75 92.8954 86.6454 92 87.75 92C88.8546 92 89.75 92.8954 89.75 94C89.75 95.1046 88.8546 96 87.75 96Z" fill="#B3BEC9"/>
<path d="M79.75 96C78.6454 96 77.75 95.1046 77.75 94C77.75 92.8954 78.6454 92 79.75 92C80.8546 92 81.75 92.8954 81.75 94C81.75 95.1046 80.8546 96 79.75 96Z" fill="#B3BEC9"/>
<path d="M71.75 96C70.6454 96 69.75 95.1046 69.75 94C69.75 92.8954 70.6454 92 71.75 92C72.8546 92 73.75 92.8954 73.75 94C73.75 95.1046 72.8546 96 71.75 96Z" fill="#B3BEC9"/>
<path d="M63.75 96C62.6454 96 61.75 95.1046 61.75 94C61.75 92.8954 62.6454 92 63.75 92C64.8546 92 65.75 92.8954 65.75 94C65.75 95.1046 64.8546 96 63.75 96Z" fill="#B3BEC9"/>
<path d="M-5.25 18.9839C-5.25 17.327 -3.90685 15.9839 -2.25 15.9839H32.0522L48.631 32.5626V81.7857C48.631 83.4426 47.2878 84.7857 45.631 84.7857H-2.25C-3.90686 84.7857 -5.25 83.4426 -5.25 81.7857V18.9839Z" fill="#9C1EFF"/>
<path d="M32.052 15.9839L48.6308 32.5626H35.052C33.3951 32.5626 32.052 31.2195 32.052 29.5626V15.9839Z" fill="#59059B"/>
<path fill-rule="evenodd" clip-rule="evenodd" d="M-5.68456 77.9163C-3.41117 76.1115 -0.605187 73.5684 2.83329 70.1299C6.31539 66.6478 9.05538 64.1747 11.2047 62.5065C13.3048 60.8766 15.001 59.8848 16.3725 59.5891C17.0926 59.4338 17.8675 59.4391 18.5753 59.7983C19.2984 60.1653 19.7184 60.7828 19.9492 61.3866C20.3696 62.4866 20.2984 63.8996 20.1529 65.1103C20.0139 66.268 19.7631 67.53 19.5383 68.6617C19.5147 68.7807 19.4913 68.8982 19.4684 69.0141C19.3339 69.6942 19.2185 70.2992 19.1367 70.8182C19.3507 70.6231 19.5892 70.395 19.8543 70.1299C21.4998 68.4845 22.8933 67.3246 24.0996 66.5703C25.2954 65.8226 26.4239 65.3998 27.5065 65.411C29.8511 65.4352 30.9535 67.4263 31.544 68.5068C31.6267 68.658 31.7028 68.7997 31.7745 68.9331C32.0203 69.3904 32.214 69.7507 32.4386 70.0664C32.7156 70.4557 32.8781 70.5318 32.9392 70.5498C32.9705 70.5589 33.2124 70.6282 33.8547 70.2901C34.5108 69.9447 35.4291 69.2519 36.6893 67.9917L38.8107 70.113C37.459 71.4647 36.2934 72.3966 35.2522 72.9447C34.1973 73.5001 33.1286 73.7318 32.0946 73.4284C31.0904 73.1338 30.433 72.4224 29.9941 71.8054C29.6486 71.3198 29.3376 70.7392 29.0813 70.2606C29.0217 70.1492 28.965 70.0434 28.9115 69.9455C28.2036 68.6503 27.8583 68.4148 27.4755 68.4108C27.1945 68.4079 26.6393 68.5205 25.6901 69.114C24.7516 69.7009 23.5389 70.6879 21.9756 72.2512C21.262 72.9648 20.6388 73.5201 20.0953 73.9138C19.6004 74.2723 18.9805 74.6418 18.3031 74.7062C17.9183 74.7427 17.4751 74.6838 17.0607 74.4324C16.6547 74.1861 16.4111 73.8367 16.2695 73.5284C16.0147 72.9737 15.9953 72.3464 16.0098 71.8897C16.0405 70.917 16.287 69.6377 16.5254 68.4321C16.548 68.3179 16.5706 68.2038 16.5933 68.0897C16.8223 66.9355 17.0499 65.7888 17.1744 64.7525C17.3142 63.5883 17.2807 62.8545 17.1606 62.4959C17.1208 62.5 17.0695 62.5077 17.0049 62.5217C16.342 62.6646 15.1022 63.2791 13.0441 64.8764C11.0354 66.4355 8.39519 68.8106 4.95461 72.2512C1.47042 75.7354 -1.42425 78.3645 -3.81922 80.2659C-6.19545 82.1524 -8.15678 83.3852 -9.7694 83.9961C-11.358 84.598 -12.9855 84.7235 -14.2494 83.7291C-15.4195 82.8086 -15.7825 81.2865 -15.8805 79.9218C-16.0817 77.1206 -15.271 73.1343 -14.3693 69.3298C-14.0798 68.1085 -13.7792 66.899 -13.4878 65.7269C-12.84 63.1206 -12.2383 60.6999 -11.9088 58.75L-8.95072 59.2498C-9.29998 61.3169 -9.94829 63.9258 -10.6114 66.5944C-10.8957 67.7385 -11.1828 68.8936 -11.4501 70.0216C-12.3725 73.9133 -13.0508 77.4441 -12.8882 79.7069C-12.8044 80.8742 -12.5223 81.2708 -12.3945 81.3713C-12.3604 81.3981 -12.0371 81.6472 -10.8322 81.1907C-9.6514 80.7434 -7.97668 79.736 -5.68456 77.9163ZM17.2735 62.4946C17.2735 62.4946 17.2719 62.4944 17.269 62.4937C17.2721 62.4942 17.2736 62.4945 17.2735 62.4946Z" fill="white"/>
<path d="M68.6484 15.58C70.9235 12.4894 75.2733 11.8282 78.3639 14.1033C81.4546 16.3784 82.1158 20.7282 79.8407 23.8188L50.1437 64.1617C49.2868 65.3256 48.1307 66.2358 46.798 66.7953L37.8887 70.5361C37.1913 70.8289 36.4338 70.2713 36.5062 69.5183L37.4308 59.8999C37.5691 58.4612 38.0946 57.0868 38.9514 55.9229L68.6484 15.58Z" fill="#FFAE41"/>
<path d="M66.1768 18.9375L77.369 27.1763L74.0994 31.618L62.9072 23.3792L66.1768 18.9375Z" fill="#DC893C"/>
<path d="M82.4366 34.3581C83.3466 33.1218 83.0822 31.382 81.846 30.4719C80.6097 29.5618 78.8697 29.8263 77.9597 31.0626L66.4254 46.7317C65.5154 47.968 65.7798 49.7079 67.0161 50.6179C68.2523 51.528 69.9923 51.2635 70.9023 50.0272L82.4366 34.3581Z" fill="#DC893C"/>
<path fill-rule="evenodd" clip-rule="evenodd" d="M15.4424 41C15.4424 40.1716 14.7708 39.5 13.9424 39.5L10.75 39.5C9.9216 39.5 9.25003 40.1716 9.25003 41C9.25003 41.8284 9.9216 42.5 10.75 42.5L13.9424 42.5C14.7708 42.5 15.4424 41.8284 15.4424 41Z" fill="#59059B"/>
<path fill-rule="evenodd" clip-rule="evenodd" d="M22.8912 47.3848C22.8912 46.5563 22.2197 45.8848 21.3912 45.8848L10.7501 45.8848C9.92163 45.8848 9.25006 46.5563 9.25006 47.3848C9.25006 48.2132 9.92163 48.8848 10.7501 48.8848L21.3912 48.8848C22.2197 48.8848 22.8912 48.2132 22.8912 47.3848Z" fill="#59059B"/>
</g>
<defs>
<clipPath id="clip0_13777_4014">
<rect x="0.75" width="96" height="96" rx="48" fill="white"/>
</clipPath>
</defs>
</svg>
