<svg width="116" height="136" viewBox="0 0 116 136" fill="none" xmlns="http://www.w3.org/2000/svg">
<rect y="0.5" width="116" height="135" rx="5" fill="white"/>
<g style="mix-blend-mode:luminosity" opacity="0.5">
<g clip-path="url(#clip0_10502_53557)">
<rect x="10" y="20" width="96" height="96" rx="48" fill="#E4EBF0"/>
<circle cx="105" cy="82" r="2" transform="rotate(90 105 82)" fill="#B3BEC9"/>
<circle cx="97" cy="82" r="2" transform="rotate(90 97 82)" fill="#B3BEC9"/>
<circle cx="89" cy="82" r="2" transform="rotate(90 89 82)" fill="#B3BEC9"/>
<circle cx="81" cy="82" r="2" transform="rotate(90 81 82)" fill="#2F80ED"/>
<circle cx="73" cy="82" r="2" transform="rotate(90 73 82)" fill="#B3BEC9"/>
<circle cx="105" cy="90" r="2" transform="rotate(90 105 90)" fill="#B3BEC9"/>
<circle cx="97" cy="90" r="2" transform="rotate(90 97 90)" fill="#B3BEC9"/>
<circle cx="89" cy="90" r="2" transform="rotate(90 89 90)" fill="#B3BEC9"/>
<circle cx="81" cy="90" r="2" transform="rotate(90 81 90)" fill="#B3BEC9"/>
<circle cx="73" cy="90" r="2" transform="rotate(90 73 90)" fill="#B3BEC9"/>
<circle cx="105" cy="98" r="2" transform="rotate(90 105 98)" fill="#B3BEC9"/>
<circle cx="105" cy="106" r="2" transform="rotate(90 105 106)" fill="#B3BEC9"/>
<circle cx="105" cy="114" r="2" transform="rotate(90 105 114)" fill="#B3BEC9"/>
<circle cx="97" cy="98" r="2" transform="rotate(90 97 98)" fill="#B3BEC9"/>
<circle cx="89" cy="98" r="2" transform="rotate(90 89 98)" fill="#B3BEC9"/>
<circle cx="81" cy="98" r="2" transform="rotate(90 81 98)" fill="#B3BEC9"/>
<circle cx="73" cy="98" r="2" transform="rotate(90 73 98)" fill="#B3BEC9"/>
<circle cx="97" cy="106" r="2" transform="rotate(90 97 106)" fill="#B3BEC9"/>
<circle cx="89" cy="106" r="2" transform="rotate(90 89 106)" fill="#B3BEC9"/>
<circle cx="81" cy="106" r="2" transform="rotate(90 81 106)" fill="#B3BEC9"/>
<circle cx="73" cy="106" r="2" transform="rotate(90 73 106)" fill="#1C9E59"/>
<circle cx="97" cy="114" r="2" transform="rotate(90 97 114)" fill="#B3BEC9"/>
<circle cx="89" cy="114" r="2" transform="rotate(90 89 114)" fill="#B3BEC9"/>
<circle cx="81" cy="114" r="2" transform="rotate(90 81 114)" fill="#B3BEC9"/>
<circle cx="73" cy="114" r="2" transform="rotate(90 73 114)" fill="#B3BEC9"/>
<path d="M4 39C4 37.3431 5.34315 36 7 36H41.3022L57.881 52.5788V101.802C57.881 103.459 56.5378 104.802 54.881 104.802H7C5.34314 104.802 4 103.459 4 101.802V39Z" fill="#9C1EFF"/>
<path d="M41.302 36L57.8808 52.5788H44.302C42.6451 52.5788 41.302 51.2356 41.302 49.5788V36Z" fill="#59059B"/>
<path fill-rule="evenodd" clip-rule="evenodd" d="M3.56544 97.9163C5.83883 96.1115 8.64481 93.5684 12.0833 90.1299C15.5654 86.6478 18.3054 84.1747 20.4547 82.5065C22.5548 80.8766 24.251 79.8848 25.6225 79.5891C26.3426 79.4338 27.1175 79.4391 27.8253 79.7983C28.5484 80.1653 28.9684 80.7828 29.1992 81.3866C29.6196 82.4866 29.5484 83.8996 29.4029 85.1103C29.2639 86.268 29.0131 87.53 28.7883 88.6617C28.7647 88.7807 28.7413 88.8982 28.7184 89.0141C28.5839 89.6942 28.4685 90.2992 28.3867 90.8182C28.6007 90.6231 28.8392 90.395 29.1043 90.1299C30.7498 88.4845 32.1433 87.3246 33.3496 86.5703C34.5454 85.8226 35.6739 85.3998 36.7565 85.411C39.1011 85.4352 40.2035 87.4263 40.794 88.5068C40.8767 88.658 40.9528 88.7997 41.0245 88.9331C41.2703 89.3904 41.464 89.7507 41.6886 90.0664C41.9656 90.4557 42.1281 90.5318 42.1892 90.5498C42.2205 90.5589 42.4624 90.6282 43.1047 90.2901C43.7608 89.9447 44.6791 89.2519 45.9393 87.9917L48.0607 90.113C46.709 91.4647 45.5434 92.3966 44.5022 92.9447C43.4473 93.5001 42.3786 93.7318 41.3446 93.4284C40.3404 93.1338 39.683 92.4224 39.2441 91.8054C38.8986 91.3198 38.5876 90.7392 38.3313 90.2606C38.2717 90.1492 38.215 90.0434 38.1615 89.9455C37.4536 88.6503 37.1083 88.4148 36.7255 88.4108C36.4445 88.4079 35.8893 88.5205 34.9401 89.114C34.0016 89.7009 32.7889 90.6879 31.2256 92.2512C30.512 92.9648 29.8888 93.5201 29.3453 93.9138C28.8504 94.2723 28.2305 94.6418 27.5531 94.7062C27.1683 94.7427 26.7251 94.6838 26.3107 94.4324C25.9047 94.1861 25.6611 93.8367 25.5195 93.5284C25.2647 92.9737 25.2453 92.3464 25.2598 91.8897C25.2905 90.917 25.537 89.6377 25.7754 88.4321C25.798 88.3179 25.8206 88.2038 25.8433 88.0897C26.0723 86.9355 26.2999 85.7888 26.4244 84.7525C26.5642 83.5883 26.5307 82.8545 26.4106 82.4959C26.3708 82.5 26.3195 82.5077 26.2549 82.5217C25.592 82.6646 24.3522 83.2791 22.2941 84.8764C20.2854 86.4355 17.6452 88.8106 14.2046 92.2512C10.7204 95.7354 7.82575 98.3645 5.43078 100.266C3.05455 102.152 1.09322 103.385 -0.519401 103.996C-2.108 104.598 -3.73549 104.723 -4.99939 103.729C-6.16955 102.809 -6.5325 101.286 -6.63052 99.9218C-6.83173 97.1206 -6.02099 93.1343 -5.11927 89.3298C-4.82982 88.1085 -4.52915 86.899 -4.23782 85.7269C-3.58996 83.1206 -2.98826 80.6999 -2.6588 78.75L0.299276 79.2498C-0.0499835 81.3169 -0.698289 83.9258 -1.36142 86.5944C-1.64574 87.7385 -1.93277 88.8936 -2.20014 90.0216C-3.12251 93.9133 -3.80077 97.4441 -3.63823 99.7069C-3.55438 100.874 -3.27227 101.271 -3.14448 101.371C-3.11042 101.398 -2.78706 101.647 -1.58222 101.191C-0.4014 100.743 1.27332 99.736 3.56544 97.9163ZM26.5235 82.4946C26.5235 82.4946 26.5219 82.4944 26.519 82.4937C26.5221 82.4942 26.5236 82.4945 26.5235 82.4946Z" fill="white"/>
<path d="M77.8984 35.5961C80.1735 32.5055 84.5233 31.8443 87.6139 34.1194C90.7046 36.3945 91.3658 40.7443 89.0907 43.8349L59.3937 84.1778C58.5368 85.3418 57.3807 86.2519 56.048 86.8114L47.1387 90.5522C46.4413 90.845 45.6838 90.2874 45.7562 89.5345L46.6808 79.916C46.8191 78.4773 47.3446 77.103 48.2014 75.939L77.8984 35.5961Z" fill="#FFAE41"/>
<rect x="75.4268" y="38.9536" width="13.8976" height="5.5153" transform="rotate(36.3574 75.4268 38.9536)" fill="#DC893C"/>
<path d="M91.6865 54.3743C92.5965 53.1381 92.3321 51.3982 91.0959 50.4881C89.8596 49.5781 88.1197 49.8425 87.2096 51.0788L75.6754 66.7478C74.7653 67.9841 75.0298 69.724 76.2661 70.634C77.5023 71.5441 79.2422 71.2796 80.1523 70.0433L91.6865 54.3743Z" fill="#DC893C"/>
<path fill-rule="evenodd" clip-rule="evenodd" d="M24.6924 61C24.6924 60.1716 24.0208 59.5 23.1924 59.5L20 59.5C19.1716 59.5 18.5 60.1716 18.5 61C18.5 61.8284 19.1716 62.5 20 62.5L23.1924 62.5C24.0208 62.5 24.6924 61.8284 24.6924 61Z" fill="#59059B"/>
<path fill-rule="evenodd" clip-rule="evenodd" d="M32.1412 67.3848C32.1412 66.5563 31.4697 65.8848 30.6412 65.8848L20.0001 65.8848C19.1716 65.8848 18.5001 66.5563 18.5001 67.3848C18.5001 68.2132 19.1716 68.8848 20.0001 68.8848L30.6412 68.8848C31.4697 68.8848 32.1412 68.2132 32.1412 67.3848Z" fill="#59059B"/>
</g>
</g>
<defs>
<clipPath id="clip0_10502_53557">
<rect x="10" y="20" width="96" height="96" rx="48" fill="white"/>
</clipPath>
</defs>
</svg>
