<svg width="22" height="21" viewBox="0 0 22 21" fill="none" xmlns="http://www.w3.org/2000/svg">
<path fill-rule="evenodd" clip-rule="evenodd" d="M9.72927 1.25472C10.294 0.248429 11.706 0.248427 12.2707 1.25472L21.8012 18.2358C22.366 19.2421 21.66 20.5 20.5305 20.5H1.46951C0.339966 20.5 -0.365998 19.2421 0.198772 18.2359L9.72927 1.25472ZM11 10.5C11.5523 10.5 12 10.9477 12 11.5V16.5C12 17.0523 11.5523 17.5 11 17.5C10.4477 17.5 10 17.0523 10 16.5V11.5C10 10.9477 10.4477 10.5 11 10.5ZM12 7.5C12 6.94771 11.5523 6.5 11 6.5C10.4477 6.5 10 6.94771 10 7.5V8.5C10 9.05228 10.4477 9.5 11 9.5C11.5523 9.5 12 9.05228 12 8.5V7.5Z" fill="#E51C00"/>
</svg>
