<svg width="241" height="146" viewBox="0 0 241 146" fill="none" xmlns="http://www.w3.org/2000/svg">
<path d="M163.89 82.8996L165.953 82.5434C166.151 82.5087 166.347 82.4666 166.545 82.4307C163.279 80.4068 160.8 77.3339 159.515 73.717C158.23 70.1 158.215 66.1542 159.473 62.5278C160.731 58.9014 163.187 55.8101 166.438 53.7618C169.688 51.7134 173.54 50.8299 177.36 51.2564L174.655 57.6815L181.063 52.0956C181.077 52.0993 181.092 52.1042 181.106 52.1102C183.204 52.848 185.136 53.9912 186.792 55.4746C188.448 56.9579 189.794 58.7523 190.755 60.7553C191.716 62.7583 192.273 64.9307 192.393 67.1485C192.513 69.3662 192.195 71.5859 191.455 73.6807C191.348 73.9853 191.221 74.2762 191.098 74.5706C192.907 73.6632 194.642 72.6068 196.057 71.2543C198.922 68.5134 200.492 64.7311 202.246 60.0713C205.721 50.8371 209.066 41.4693 212.279 32.081C208.736 30.1668 205.993 27.0541 204.542 23.3019C203.091 19.5498 203.028 15.404 204.363 11.6094C204.535 11.1212 204.735 10.6511 204.946 10.1894C204.999 10.0739 205.052 9.95908 205.107 9.84519C205.322 9.40255 205.549 8.96887 205.798 8.55265C205.838 8.48442 205.884 8.42056 205.925 8.35307C206.142 8.00214 206.37 7.66159 206.611 7.33143C206.7 7.20748 206.789 7.08386 206.882 6.96285C207.154 6.60735 207.436 6.26144 207.733 5.9312C207.833 5.8207 207.938 5.71746 208.04 5.60982C208.269 5.36916 208.503 5.13576 208.744 4.90963C208.871 4.79058 208.997 4.67068 209.127 4.55585C209.161 4.52639 209.192 4.49423 209.226 4.46501C209.228 4.46717 209.229 4.46948 209.23 4.47161C212.214 1.87563 216.014 0.405509 219.971 0.316766C223.927 0.228023 227.79 1.52626 230.887 3.98585L227.368 12.3471L233.703 6.82759C235.919 9.64753 237.176 13.1009 237.288 16.684C237.401 20.2671 236.364 23.7924 234.329 26.7456C234.335 26.7476 234.341 26.7492 234.346 26.7512C234.277 26.8527 234.199 26.9456 234.128 27.0453C233.994 27.2324 233.857 27.4161 233.717 27.5966C233.537 27.8279 233.35 28.0515 233.16 28.2721C233.016 28.4386 232.874 28.6065 232.724 28.7666C232.504 29.0009 232.275 29.2227 232.043 29.4433C231.908 29.572 231.779 29.7071 231.64 29.8311C231.276 30.1558 230.899 30.464 230.51 30.7555C230.374 30.8576 230.229 30.9477 230.09 31.0455C229.817 31.2374 229.542 31.4265 229.258 31.6017C229.082 31.7104 228.901 31.8097 228.722 31.9118C228.462 32.0598 228.199 32.2032 227.932 32.3371C227.742 32.432 227.551 32.5221 227.358 32.61C227.083 32.735 226.805 32.8509 226.524 32.9612C226.336 33.0352 226.148 33.1101 225.957 33.1773C225.641 33.2883 225.321 33.3847 224.999 33.4769C224.837 33.5236 224.677 33.5769 224.513 33.6187C224.03 33.7417 223.541 33.8464 223.047 33.9266C222.954 33.9418 222.86 33.9475 222.766 33.961C222.357 34.0206 221.945 34.0686 221.53 34.0979C221.351 34.1105 221.172 34.1123 220.993 34.1192C220.657 34.1323 220.322 34.1389 219.984 34.1317C219.787 34.1275 219.59 34.1174 219.393 34.1062C219.064 34.0877 218.735 34.0591 218.406 34.0205C218.211 33.9979 218.017 33.9756 217.822 33.9461C217.469 33.8927 217.116 33.8228 216.764 33.7462C216.741 33.7412 216.718 33.7382 216.694 33.733C215.339 37.6938 213.958 41.6461 212.552 45.5899C214.267 44.0503 216.278 42.8768 218.464 42.1414C220.649 41.406 222.962 41.1243 225.26 41.3134C227.559 41.5026 229.794 42.1587 231.829 43.2414C233.865 44.3242 235.657 45.8108 237.096 47.61L231.24 54.0762L239.169 50.916C241.095 54.9482 241.338 59.5789 239.846 63.7906C239.329 65.2705 238.605 66.6698 237.695 67.9468C235.736 70.7134 232.989 72.8285 229.812 74.0176C226.634 75.2068 223.172 75.4151 219.874 74.6156C216.577 73.8162 213.596 72.0458 211.318 69.5341C209.04 67.0224 207.571 63.8854 207.101 60.5298C206.952 60.9272 206.808 61.3295 206.659 61.7265C205.111 65.8375 203.185 70.9535 199.318 74.6524C196.697 77.1595 193.471 78.7501 190.377 80.0949C188.362 80.9704 186.32 81.7799 184.251 82.5233C181.952 83.9156 179.354 84.7423 176.671 84.9354C173.407 85.8407 170.102 86.5964 166.766 87.1799L164.686 87.5379C162.816 87.8577 160.899 88.1869 158.997 88.5662C159.271 88.6473 159.545 88.7247 159.818 88.8205C163.207 90.0117 166.13 92.2482 168.163 95.2068C170.197 98.1654 171.235 101.693 171.129 105.279L158.088 109.276L169.888 111.147C168.809 113.796 167.074 116.128 164.847 117.926C162.62 119.724 159.973 120.93 157.153 121.429C154.333 121.929 151.432 121.707 148.721 120.784C146.01 119.861 143.578 118.267 141.652 116.15C141.771 116.551 141.892 116.951 142.012 117.351C142.252 118.144 142.49 118.934 142.718 119.715C145.823 130.369 144.487 138.749 138.954 143.311L135.952 139.683C141.337 135.242 139.666 126.09 138.192 121.03C137.968 120.262 137.734 119.487 137.499 118.707C135.476 111.999 133.184 104.395 136.153 97.4077C140.628 86.8764 153.526 84.6713 163.89 82.8996Z" fill="#F2F2F2"/>
<path d="M160.067 144.677H68.6952C65.6988 144.677 62.8252 143.489 60.7065 141.373C58.5878 139.258 57.3975 136.389 57.3975 133.397V91.6001C57.3975 90.9932 57.5213 90.3926 57.7614 89.8349C58.0015 89.2773 58.3529 88.7744 58.7941 88.3569L107.212 42.5321C109.148 40.6999 111.714 39.6787 114.381 39.6787C117.048 39.6787 119.614 40.6999 121.55 42.5321L167.714 86.2236C168.867 87.315 169.786 88.6296 170.413 90.0871C171.041 91.5446 171.364 93.1145 171.364 94.701V133.397C171.364 134.878 171.072 136.345 170.505 137.714C169.937 139.082 169.105 140.326 168.055 141.373C167.006 142.421 165.761 143.252 164.39 143.818C163.02 144.385 161.55 144.677 160.067 144.677Z" fill="#3F3D56"/>
<path opacity="0.1" d="M57.3975 92.2871H170.415V137.867C170.415 139.673 169.696 141.405 168.417 142.683C167.137 143.96 165.402 144.678 163.593 144.678H64.2194C62.4101 144.678 60.6749 143.96 59.3956 142.683C58.1162 141.405 57.3975 139.673 57.3975 137.867V92.2871Z" fill="black"/>
<path d="M150.072 56.3721H78.4535C75.0204 56.3721 72.2373 59.1508 72.2373 62.5786V134.086C72.2373 137.513 75.0204 140.292 78.4535 140.292H150.072C153.505 140.292 156.288 137.513 156.288 134.086V62.5786C156.288 59.1508 153.505 56.3721 150.072 56.3721Z" fill="#6C63FF"/>
<path opacity="0.1" d="M156.288 94.1709V140.291H72.2373V94.1709L114.263 114.452L156.288 94.1709Z" fill="black"/>
<path d="M114.263 117.059L60.4149 91.0729C60.0818 90.9121 59.7133 90.8385 59.3439 90.8588C58.9746 90.8791 58.6164 90.9927 58.303 91.189C57.9897 91.3853 57.7313 91.6578 57.5523 91.981C57.3732 92.3042 57.2793 92.6675 57.2793 93.0369V137.747C57.2793 138.641 57.4557 139.527 57.7986 140.353C58.1414 141.18 58.6439 141.931 59.2774 142.563C59.9109 143.196 60.6629 143.697 61.4906 144.04C62.3183 144.382 63.2054 144.558 64.1012 144.558H164.424C165.32 144.558 166.207 144.382 167.035 144.04C167.863 143.697 168.615 143.196 169.248 142.563C169.882 141.931 170.384 141.18 170.727 140.353C171.07 139.527 171.246 138.641 171.246 137.747V93.8028C171.246 93.3521 171.132 92.9087 170.913 92.5143C170.695 92.1199 170.379 91.7874 169.997 91.5479C169.615 91.3084 169.178 91.1697 168.727 91.1449C168.276 91.1201 167.827 91.21 167.42 91.4062L114.263 117.059Z" fill="#3F3D56"/>
<path d="M102.984 64.0762H79.4785V67.3951H102.984V64.0762Z" fill="#F2F2F2"/>
<path d="M147.384 76.167H77.5791V78.0635H147.384V76.167Z" fill="#F2F2F2"/>
<path d="M147.384 82.5674H77.5791V84.4639H147.384V82.5674Z" fill="#F2F2F2"/>
<path d="M147.384 88.9678H77.5791V90.8643H147.384V88.9678Z" fill="#F2F2F2"/>
<path d="M14.6602 144.56H210.304" stroke="#3F3D56" stroke-miterlimit="10"/>
<path d="M0.1875 115.367C0.1875 129.344 8.96975 140.655 19.8229 140.655L0.1875 115.367Z" fill="#46455B"/>
<path d="M19.8232 140.655C19.8232 126.52 29.6237 115.083 41.7352 115.083L19.8232 140.655Z" fill="#6C63FF"/>
<path d="M7.30176 116.634C7.30176 129.911 12.902 140.654 19.8229 140.654L7.30176 116.634Z" fill="#6C63FF"/>
<path d="M19.8232 140.654C19.8232 122.594 31.1511 107.979 45.1501 107.979L19.8232 140.654Z" fill="#46455B"/>
<path d="M15.6924 140.833C15.6924 140.833 18.477 140.748 19.3162 140.151C20.1554 139.554 23.5997 138.842 23.8079 139.799C24.0161 140.756 27.9926 144.558 24.8488 144.584C21.705 144.609 17.544 144.095 16.7064 143.585C15.8688 143.076 15.6924 140.833 15.6924 140.833Z" fill="#A8A8A8"/>
<path opacity="0.2" d="M24.9049 144.251C21.7611 144.276 17.6001 143.762 16.7625 143.252C16.1246 142.864 15.8704 141.472 15.7853 140.83C15.7264 140.833 15.6924 140.834 15.6924 140.834C15.6924 140.834 15.8688 143.076 16.7064 143.585C17.544 144.095 21.705 144.609 24.8488 144.584C25.7563 144.576 26.0698 144.254 26.0526 143.777C25.9265 144.065 25.5804 144.245 24.9049 144.251Z" fill="black"/>
<path d="M171.07 38.8951C170.928 40.1644 169.958 41.187 169.599 42.4129C169.058 44.258 169.993 46.2381 171.272 47.6751C172.304 48.8224 173.554 49.7538 174.949 50.4152C176.345 51.0767 177.858 51.4551 179.4 51.5285C179.854 51.5682 180.31 51.5185 180.744 51.3822C181.132 51.2265 181.481 50.9885 181.767 50.6846C182.73 49.7188 183.247 48.3807 183.453 47.0333C183.659 45.6859 183.579 44.3132 183.499 42.9526C183.499 42.6713 183.448 42.3923 183.348 42.1295C183.216 41.8791 183.036 41.6576 182.817 41.4782C182.123 40.843 181.36 40.2889 180.54 39.8267C180.17 39.661 179.843 39.4114 179.586 39.0978C179.431 38.8291 179.331 38.5325 179.291 38.2251L179.04 36.9452C178.995 36.5764 178.869 36.2221 178.67 35.9077C178.226 35.3092 177.376 35.2278 176.63 35.1986L173.898 35.0916C173.049 35.0583 171.929 34.815 171.1 34.9816C170.325 35.1372 170.582 35.8499 170.723 36.4988C170.927 37.2823 171.044 38.086 171.07 38.8951Z" fill="#A0616A"/>
<path opacity="0.1" d="M171.07 38.8951C170.928 40.1644 169.958 41.187 169.599 42.4129C169.058 44.258 169.993 46.2381 171.272 47.6751C172.304 48.8224 173.554 49.7538 174.949 50.4152C176.345 51.0767 177.858 51.4551 179.4 51.5285C179.854 51.5682 180.31 51.5185 180.744 51.3822C181.132 51.2265 181.481 50.9885 181.767 50.6846C182.73 49.7188 183.247 48.3807 183.453 47.0333C183.659 45.6859 183.579 44.3132 183.499 42.9526C183.499 42.6713 183.448 42.3923 183.348 42.1295C183.216 41.8791 183.036 41.6576 182.817 41.4782C182.123 40.843 181.36 40.2889 180.54 39.8267C180.17 39.661 179.843 39.4114 179.586 39.0978C179.431 38.8291 179.331 38.5325 179.291 38.2251L179.04 36.9452C178.995 36.5764 178.869 36.2221 178.67 35.9077C178.226 35.3092 177.376 35.2278 176.63 35.1986L173.898 35.0916C173.049 35.0583 171.929 34.815 171.1 34.9816C170.325 35.1372 170.582 35.8499 170.723 36.4988C170.927 37.2823 171.044 38.086 171.07 38.8951Z" fill="black"/>
<path d="M188.448 96.0301C188.061 100.267 187.674 104.503 187.287 108.739C186.984 112.072 186.675 115.419 186.081 118.709C185.876 119.843 185.635 120.971 185.35 122.089C184.556 125.194 183.405 128.229 183.034 131.412C183.022 131.503 183.012 131.597 183.002 131.691C182.961 132.395 182.827 133.09 182.605 133.759C182.42 134.245 182.134 134.688 181.933 135.169C181.532 136.129 181.48 137.19 181.431 138.23C180.021 137.439 178.478 136.913 176.879 136.677C176.106 136.562 175.246 136.48 174.721 135.904C174.138 135.268 174.203 134.294 174.3 133.439C174.607 130.785 174.913 128.133 175.219 125.481C175.319 124.34 175.513 123.21 175.8 122.101C175.905 121.732 176.032 121.369 176.161 121.006C176.339 120.507 176.519 120.007 176.654 119.494C176.848 118.664 176.984 117.822 177.06 116.974C177.375 114.304 177.754 111.641 178.086 108.973L178.104 108.832C178.602 104.789 178.982 100.726 178.872 96.6527C178.857 96.0496 178.831 95.4466 178.792 94.8416C178.737 93.9654 178.657 93.5009 179.384 92.9525C180.188 92.3475 181.245 91.9241 182.164 91.5279C182.658 91.3132 188.104 89.3831 188.231 89.8066C188.486 90.7099 188.62 91.6431 188.63 92.5817C188.633 93.7337 188.573 94.8849 188.448 96.0301Z" fill="#605D82"/>
<path opacity="0.1" d="M186.08 118.709C185.874 119.843 185.634 120.971 185.349 122.089C184.555 125.194 183.404 128.228 183.032 131.411C183.021 131.503 183.011 131.597 183.001 131.691C180.574 128.229 178.529 124.505 176.16 121.006C176.338 120.506 176.518 120.007 176.653 119.493C176.847 118.664 176.983 117.822 177.059 116.974C177.374 114.304 177.753 111.64 178.085 108.973L178.103 108.832C178.242 109.398 178.441 109.949 178.695 110.473C180.286 113.701 184.066 115.333 185.916 118.422C185.972 118.518 186.027 118.613 186.08 118.709Z" fill="black"/>
<path d="M166.382 90.3259C166.462 92.9148 166.877 95.4804 167.292 98.0373L168.146 103.313C168.614 106.2 169.101 109.146 170.469 111.732C171.493 113.667 172.968 115.318 174.302 117.053C177.583 121.32 180.047 126.153 183.157 130.545C184.061 131.821 185.353 133.202 186.896 132.935C187.909 132.76 188.645 131.919 189.441 131.27C190.379 130.504 191.51 129.945 192.248 128.985C192.987 128.026 193.131 126.432 192.131 125.75C191.769 125.549 191.385 125.392 190.986 125.282C189.435 124.693 188.432 123.181 187.793 121.652C187.154 120.123 186.767 118.479 185.916 117.057C184.067 113.968 180.287 112.336 178.695 109.107C177.804 107.299 177.719 105.214 177.651 103.2L177.477 98.0645C177.458 97.5029 177.443 96.9189 177.672 96.4054C178.281 95.0385 180.119 94.9112 181.607 94.7379C183.296 94.5402 184.932 94.0248 186.429 93.2188C187.286 92.7566 188.124 92.1675 188.582 91.3093C189.001 90.5264 189.058 89.6081 189.107 88.7221L189.623 79.4155C189.667 78.6148 189.708 77.787 189.425 77.0364C188.715 75.1516 186.332 74.5357 184.317 74.6256C180.568 74.793 177.107 76.4032 173.572 77.4906C172.696 77.7663 171.807 77.9978 170.909 78.1842C170.115 78.3431 169.155 78.2772 168.398 78.5319C167.053 78.9848 167.087 81.9229 166.896 83.1417C166.502 85.5153 166.33 87.9204 166.382 90.3259Z" fill="#605D82"/>
<path d="M186.386 133.326C186.717 133.659 186.825 134.146 186.911 134.607C187.389 137.163 187.637 139.757 187.653 142.357C187.631 142.6 187.68 142.844 187.793 143.059C187.886 143.188 188.012 143.289 188.158 143.352C189.114 143.807 190.223 143.173 191.019 142.477C192.495 141.186 193.744 139.453 193.828 137.496C193.812 136.992 193.83 136.487 193.88 135.986C194.01 135.249 194.441 134.607 194.821 133.962C195.467 132.864 195.988 131.697 196.375 130.484C196.52 130.028 196.617 129.453 196.259 129.135C196.132 129.036 195.988 128.961 195.833 128.915L191.517 127.314C191.143 127.176 190.212 129.563 190.065 129.824C189.703 130.462 189.344 130.824 188.619 130.972C187.879 131.122 186.998 130.906 186.308 131.275C185.14 131.899 185.725 132.66 186.386 133.326Z" fill="#535070"/>
<path d="M179.727 134.798C179.646 134.638 179.534 134.497 179.398 134.382C179.198 134.255 178.971 134.178 178.735 134.157C177.914 134.018 176.94 133.926 176.373 134.536C175.841 135.108 175.932 136.039 175.488 136.681C175.347 136.884 175.156 137.051 175.034 137.266C174.883 137.594 174.815 137.955 174.835 138.316C174.812 139.31 174.79 140.307 174.858 141.299C174.916 142.131 175.056 143.002 175.577 143.654C176.413 144.699 177.921 144.85 179.259 144.918L180.343 144.973C180.642 145.009 180.945 144.981 181.232 144.891C181.409 144.809 181.569 144.693 181.7 144.548C181.832 144.403 181.933 144.234 181.998 144.05C182.562 142.649 181.669 141.141 181.118 139.735C180.486 138.119 180.599 136.325 179.727 134.798Z" fill="#535070"/>
<path d="M170.756 31.7436C170.743 31.6017 170.764 31.4586 170.817 31.3264C170.976 31.0461 171.39 31.1224 171.703 31.2011C172.961 31.5177 174.286 31.2311 175.581 31.305C176.875 31.379 178.334 32.0253 178.594 33.2939C179.534 32.6287 180.344 31.7975 180.985 30.8414C181.344 30.3045 181.657 29.6894 181.609 29.0455C181.538 28.1167 180.757 27.4221 180.035 26.833L177.881 25.0771C177.598 24.8177 177.271 24.6104 176.916 24.4648C176.419 24.2951 175.876 24.376 175.35 24.3763C173.782 24.3773 172.11 23.6647 170.715 24.3805C170.133 24.6796 169.694 25.1919 169.272 25.6916L167.349 27.964C167.204 28.1088 167.098 28.2879 167.042 28.4844C166.987 28.7618 167.13 29.0355 167.179 29.3138C167.27 29.8215 167.051 30.3633 167.22 30.8508C167.499 31.6602 168.483 31.7748 169.085 32.2388C169.309 32.4117 169.661 32.9978 169.928 32.9906C170.41 32.9777 170.743 32.1176 170.756 31.7436Z" fill="#3F3D56"/>
<path d="M174.018 38.4413C177.419 38.4413 180.175 35.689 180.175 32.2939C180.175 28.8988 177.419 26.1465 174.018 26.1465C170.618 26.1465 167.861 28.8988 167.861 32.2939C167.861 35.689 170.618 38.4413 174.018 38.4413Z" fill="#A0616A"/>
<path d="M175.46 45.7481C175.251 45.1507 174.857 44.6352 174.335 44.2765C173.812 43.9177 173.189 43.7344 172.556 43.753C172.375 43.7867 172.187 43.763 172.02 43.6854C171.926 43.6129 171.85 43.5186 171.8 43.4106C171.426 42.7384 171.125 42.028 170.903 41.2916C170.804 40.9663 170.67 40.5826 170.34 40.4981C170.204 40.4802 170.065 40.4998 169.939 40.5546C169.813 40.6094 169.704 40.6975 169.624 40.8093C169.467 41.0345 169.296 41.2492 169.111 41.4521C168.337 42.1434 166.964 41.5133 166.143 42.1476C166.008 42.2512 165.897 42.3839 165.756 42.4781C165.615 42.5629 165.463 42.628 165.304 42.6716C163.717 43.1889 162.161 43.7974 160.645 44.4939C161.191 47.7811 161.751 51.1258 163.033 54.2026C163.643 55.6669 164.334 57.101 164.822 58.6099C165.904 61.9534 165.952 65.5307 165.964 69.0443C165.973 71.4491 165.961 73.9052 165.181 76.1807C164.972 76.6835 164.824 77.2099 164.741 77.7483C164.694 78.2905 164.852 78.8884 165.292 79.2096C165.548 79.3762 165.839 79.4785 166.143 79.5078C167.493 79.7056 168.854 79.3469 170.184 79.0394C173.747 78.2155 177.381 77.744 181.009 77.2738L187.087 76.4858C187.523 76.4562 187.949 76.3462 188.344 76.1613C189.457 75.5532 189.562 73.8828 188.871 72.821C188.54 72.312 188.073 71.8944 187.795 71.3547C187.517 70.815 187.493 70.0604 187.972 69.6866C188.946 68.9263 188.656 67.5156 188.702 66.2818C188.832 62.832 188.814 59.3808 188.649 55.9283C188.601 55.2136 188.589 54.4968 188.615 53.781C188.723 52.5679 188.948 51.368 189.285 50.1978L191.132 42.9371C190.65 42.1758 189.726 41.6928 188.851 41.4736C187.976 41.2543 187.064 41.1898 186.203 40.9231C184.437 40.3769 182.865 38.9906 181.021 39.1198C180.882 39.1223 180.744 39.1557 180.62 39.2177C180.204 39.4529 180.27 40.0513 180.243 40.5278C180.184 41.5819 179.408 42.463 178.55 43.0807C177.692 43.6985 176.713 44.1489 175.925 44.8534C175.786 44.9584 175.672 45.0932 175.591 45.248C175.51 45.4028 175.465 45.5737 175.46 45.7481Z" fill="#3F3D56"/>
<path d="M151.065 52.6346C150.656 52.8991 150.223 53.122 149.77 53.2999C149.326 53.4316 148.907 53.6346 148.529 53.901C148.355 54.0515 148.209 54.2317 148.098 54.4332C147.889 54.8022 147.784 55.2203 147.792 55.6439C147.801 56.0675 147.923 56.4809 148.147 56.8412C148.37 57.2014 148.686 57.4952 149.062 57.6919C149.438 57.8886 149.86 57.9809 150.283 57.9593C150.847 57.8962 151.394 57.7333 151.9 57.4781L156.242 55.5992C156.977 55.2812 157.771 54.9085 158.119 54.1878C158.159 54.1206 158.174 54.0412 158.161 53.9638C158.126 53.8821 158.063 53.8156 157.983 53.7766C157.003 53.1415 156.146 52.335 155.454 51.3959C155.276 51.1544 155.058 50.5841 154.806 50.4393C153.887 49.9108 151.8 52.1578 151.065 52.6346Z" fill="#A0616A"/>
<path d="M197.489 51.0928L199.09 52.9188C199.434 53.3109 199.778 53.7033 200.091 54.12C200.861 55.1787 201.478 56.3396 201.925 57.5691C202.273 58.4809 202.562 59.4521 202.44 60.4203C202.36 60.9166 202.225 61.4028 202.04 61.8703C201.746 62.7694 201.383 63.6442 200.952 64.4864C200.59 65.1263 200.18 65.7385 199.728 66.3181C198.488 67.9585 197.132 69.5076 195.669 70.9533C195.122 71.4942 194.892 72.369 194.654 73.1003C194.215 74.4491 193.169 75.4996 192.158 76.4958C191.833 76.8384 191.473 77.147 191.086 77.4168C190.505 77.7904 189.826 77.9834 189.135 77.9715C188.832 77.9736 188.533 77.9117 188.256 77.7899C187.564 77.4618 187.212 76.6628 187.14 75.9013C187.076 75.2103 187.192 74.5143 187.477 73.8814C188.396 71.8494 190.755 70.9688 192.423 69.4862C193.4 68.6168 194.148 67.5248 194.886 66.4446C195.387 65.7701 195.805 65.0382 196.131 64.2644C196.504 63.2722 196.359 62.0977 196.684 61.0891C196.822 60.6628 197.066 60.2779 197.214 59.855C197.362 59.4322 197.399 58.9302 197.141 58.5643C196.946 58.3318 196.697 58.15 196.416 58.0345C195.35 57.4946 194.157 56.7998 193.953 55.6245C193.872 54.9727 194.043 54.3145 194.43 53.7839C194.817 53.2603 195.268 52.788 195.774 52.3782C196.24 51.9668 197.023 51.5041 197.489 51.0928Z" fill="#A0616A"/>
<path d="M150.036 55.1845C149.754 54.6143 149.4 54.0326 148.83 53.7491C148.553 53.6292 148.255 53.5667 147.954 53.5654C147.652 53.5642 147.354 53.6242 147.076 53.7417C146.523 53.9799 146.005 54.2925 145.537 54.671L144.157 55.6867C143.844 55.8916 143.567 56.1468 143.338 56.4418C143.12 56.7997 142.975 57.1969 142.911 57.6107C142.67 58.5545 142.597 59.533 142.694 60.5021C142.913 62.0559 143.851 63.4124 144.884 64.5951C145.529 65.3342 146.326 66.0801 147.307 66.1116C147.731 66.1252 148.202 65.9584 148.378 65.5735C148.439 65.4209 148.472 65.2584 148.474 65.0941C148.58 63.361 147.959 61.6681 147.235 60.0895C147.004 59.6761 146.868 59.2169 146.836 58.7447C146.83 58.6652 146.851 58.5862 146.895 58.5195C146.957 58.4546 147.04 58.4139 147.13 58.4046C148.121 58.2089 149.828 58.9776 150.524 57.8787C150.974 57.1664 150.357 55.8305 150.036 55.1845Z" fill="#A0616A"/>
<path d="M170.433 29.8081C170.419 29.6661 170.44 29.5231 170.494 29.3908C170.652 29.1105 171.067 29.1868 171.38 29.2655C172.637 29.5821 173.962 29.2956 175.257 29.3695C176.552 29.4435 178.011 30.0898 178.271 31.3584C179.211 30.6931 180.021 29.862 180.662 28.9059C181.021 28.3689 181.334 27.7539 181.285 27.11C181.215 26.1812 180.434 25.4865 179.712 24.8975L177.557 23.1416C177.275 22.8821 176.948 22.6748 176.593 22.5293C176.095 22.3595 175.553 22.4404 175.027 22.4407C173.459 22.4417 171.787 21.7292 170.392 22.445C169.81 22.744 169.371 23.2564 168.948 23.756L167.026 26.0285C166.881 26.1733 166.775 26.3523 166.718 26.5489C166.664 26.8262 166.806 27.1 166.856 27.3783C166.947 27.886 166.728 28.4278 166.896 28.9153C167.176 29.7247 168.16 29.8392 168.762 30.3032C168.986 30.4762 169.337 31.0622 169.605 31.0551C170.087 31.0422 170.42 30.1821 170.433 29.8081Z" fill="#3F3D56"/>
<path d="M157.356 46.6554C157.107 46.8155 156.889 47.0183 156.711 47.2544C156.486 47.5952 156.44 48.0254 156.246 48.3852C155.831 49.155 154.86 49.4289 154.255 50.0605C154.159 50.1474 154.092 50.2619 154.064 50.3882C154.061 50.5596 154.118 50.7266 154.226 50.8599L157.146 55.4427C158.118 55.5281 159.051 54.9201 160.023 55.0008C160.386 55.0309 160.758 55.1561 161.106 55.049C161.355 54.9386 161.589 54.796 161.801 54.6247C162.381 54.2584 163.154 54.2157 163.641 53.7324C164.108 53.2687 164.167 52.543 164.162 51.8853C164.17 51.3141 164.111 50.7439 163.988 50.1861C163.558 48.427 162.211 47.0771 161.366 45.5189C160.955 44.7604 160.731 44.3163 159.861 44.8371C158.986 45.3607 158.179 46.0542 157.356 46.6554Z" fill="#3F3D56"/>
<path d="M192.814 44.3378C193.363 44.6936 193.858 45.1262 194.283 45.6224C194.728 46.195 194.98 46.8958 195.407 47.4815C195.821 48.0493 196.385 48.489 196.855 49.0119C197.567 49.8048 198.05 50.7721 198.524 51.7264C197.366 53.2336 196.104 54.6576 194.747 55.9881C194.596 56.1659 194.397 56.2965 194.173 56.3645C194.022 56.3806 193.868 56.3589 193.727 56.3013C193.585 56.2438 193.46 56.1521 193.363 56.0345C193.153 55.8143 193.004 55.5427 192.803 55.314C192.328 54.8253 191.696 54.52 191.018 54.4521C190.345 54.3872 189.669 54.3779 188.995 54.4242C188.847 54.4407 188.698 54.4156 188.563 54.3518C188.463 54.2829 188.382 54.1901 188.328 54.0819C187.537 52.7389 187.791 51.0527 188.07 49.52L188.71 46.0031C188.803 45.3314 188.982 44.6745 189.243 44.0485C189.485 43.5313 190.027 42.6542 190.694 42.8091C191.365 42.9652 192.249 43.9319 192.814 44.3378Z" fill="#3F3D56"/>
<path d="M75.68 67.4305C81.0563 67.4305 85.4147 63.071 85.4147 57.6933C85.4147 52.3156 81.0563 47.9561 75.68 47.9561C70.3037 47.9561 65.9453 52.3156 65.9453 57.6933C65.9453 63.071 70.3037 67.4305 75.68 67.4305Z" fill="white"/>
<path d="M75.68 46.2969C73.379 46.2969 71.1297 46.9781 69.2165 48.2545C67.3032 49.5309 65.8121 51.3451 64.9315 53.4677C64.0509 55.5902 63.8205 57.9258 64.2694 60.1791C64.7184 62.4324 65.8264 64.5022 67.4535 66.1267C69.0805 67.7512 71.1535 68.8576 73.4103 69.3058C75.6671 69.754 78.0064 69.5239 80.1322 68.6448C82.2581 67.7656 84.0751 66.2767 85.3535 64.3665C86.6318 62.4562 87.3142 60.2104 87.3142 57.9129C87.3052 54.8349 86.0765 51.8856 83.8967 49.7091C81.7168 47.5326 78.7628 46.3059 75.68 46.2969ZM73.2917 64.1063L67.3292 58.1531L69.0016 56.4833L73.2973 60.7723L82.3641 51.7196L84.0365 53.3894L73.2917 64.1063L73.2917 64.1063Z" fill="#57B894"/>
</svg>
