<svg width="22" height="27" viewBox="0 0 22 27" fill="none" xmlns="http://www.w3.org/2000/svg">
<path d="M19.3332 18.25V11.5833C19.3332 7.49 17.1465 4.06333 13.3332 3.15667V2.25C13.3332 1.14333 12.4398 0.25 11.3332 0.25C10.2265 0.25 9.33317 1.14333 9.33317 2.25V3.15667C5.5065 4.06333 3.33317 7.47667 3.33317 11.5833V18.25L0.666504 20.9167V22.25H21.9998V20.9167L19.3332 18.25ZM12.6665 18.25H9.99984V15.5833H12.6665V18.25ZM12.6665 12.9167H9.99984V7.58333H12.6665V12.9167ZM11.3332 26.25C12.7998 26.25 13.9998 25.05 13.9998 23.5833H8.6665C8.6665 25.05 9.85317 26.25 11.3332 26.25Z" fill="#EB5757"/>
</svg>
