<svg width="433" height="137" viewBox="0 0 433 137" fill="none" xmlns="http://www.w3.org/2000/svg">
<path d="M341.995 42.1145C353.393 42.1145 362.632 32.6868 362.632 21.0572C362.632 9.42764 353.393 0 341.995 0C330.598 0 321.358 9.42764 321.358 21.0572C321.358 32.6868 330.598 42.1145 341.995 42.1145Z" fill="#FF6584"/>
<path d="M334.156 105.245H333.396V135.872H334.156V105.245Z" fill="#3F3D56"/>
<path d="M341.169 109.147C341.217 119.857 333.833 128.574 333.833 128.574C333.833 128.574 326.37 119.927 326.322 109.217C326.273 98.5078 333.657 89.791 333.657 89.791C333.657 89.791 341.12 98.4379 341.169 109.147Z" fill="#27C66A"/>
<path opacity="0.4" d="M190.544 44.3518C197.101 44.3518 202.417 38.928 202.417 32.2374C202.417 25.5468 197.101 20.123 190.544 20.123C183.987 20.123 178.672 25.5468 178.672 32.2374C178.672 38.928 183.987 44.3518 190.544 44.3518Z" fill="#2F80ED"/>
<path opacity="0.4" d="M168.572 46.5217C173.171 46.5217 176.9 42.717 176.9 38.0236C176.9 33.3301 173.171 29.5254 168.572 29.5254C163.972 29.5254 160.243 33.3301 160.243 38.0236C160.243 42.717 163.972 46.5217 168.572 46.5217Z" fill="#2F80ED"/>
<path opacity="0.4" d="M79.2836 70.9465C83.8833 70.9465 87.6121 67.1417 87.6121 62.4484C87.6121 57.755 83.8833 53.9502 79.2836 53.9502C74.6839 53.9502 70.9551 57.755 70.9551 62.4484C70.9551 67.1417 74.6839 70.9465 79.2836 70.9465Z" fill="#2F80ED"/>
<path opacity="0.4" d="M325.536 43.3557C332.093 43.3557 337.408 37.9319 337.408 31.2413C337.408 24.5507 332.093 19.127 325.536 19.127C318.979 19.127 313.663 24.5507 313.663 31.2413C313.663 37.9319 318.979 43.3557 325.536 43.3557Z" fill="#27C66A"/>
<path d="M21.6983 132.466C22.3419 134.894 24.5464 136.397 24.5464 136.397C24.5464 136.397 25.7074 133.965 25.0638 131.537C24.4202 129.109 22.2157 127.606 22.2157 127.606C22.2157 127.606 21.0547 130.038 21.6983 132.466Z" fill="#3F3D56"/>
<path d="M22.6452 131.945C24.4113 133.699 24.627 136.396 24.627 136.396C24.627 136.396 21.9793 136.248 20.2133 134.494C18.4472 132.74 18.2314 130.043 18.2314 130.043C18.2314 130.043 20.8791 130.19 22.6452 131.945Z" fill="#2F80ED"/>
<path d="M254.228 132.466C254.871 134.894 257.076 136.397 257.076 136.397C257.076 136.397 258.237 133.965 257.593 131.537C256.949 129.109 254.745 127.606 254.745 127.606C254.745 127.606 253.584 130.038 254.228 132.466Z" fill="#3F3D56"/>
<path d="M255.174 131.945C256.94 133.699 257.155 136.396 257.155 136.396C257.155 136.396 254.508 136.248 252.742 134.494C250.975 132.74 250.76 130.043 250.76 130.043C250.76 130.043 253.407 130.19 255.174 131.945Z" fill="#27C66A"/>
<path d="M26.0699 114.219L24.498 111.546L39.1693 98.7139H76.8958V102.456L63.2724 117.427L47.5529 120.634L26.0699 114.219Z" fill="#3F3D56"/>
<path d="M83.3919 106.244V97.8789H78.4526V100.517L76.8978 98.714L64.3223 111.546L62.2262 113.684L59.6064 124.377L64.3223 136.139H88.4251V112.08L83.3919 106.244Z" fill="#CCCCCC"/>
<path d="M64.3202 111.545H24.498V136.139H64.3202V111.545Z" fill="#F2F2F2"/>
<path d="M58.8201 119.297H50.4365V126.782H58.8201V119.297Z" fill="#3F3D56"/>
<path d="M47.03 119.03H39.6943V136.139H47.03V119.03Z" fill="#CCCCCC"/>
<path d="M31.3097 121.703V119.03H28.166V121.703H31.0475H31.3097Z" fill="#3F3D56"/>
<path d="M31.0475 123.842H28.166V126.515H31.3097V123.842H31.0475Z" fill="#3F3D56"/>
<path d="M36.5501 119.03H33.4062V121.704H36.5501V119.03Z" fill="#3F3D56"/>
<path d="M36.5501 123.842H33.4062V126.516H36.5501V123.842Z" fill="#3F3D56"/>
<path d="M75.5865 121.971V119.298H72.4424V121.971H75.3243H75.5865Z" fill="#3F3D56"/>
<path d="M75.3243 124.109H72.4424V126.782H75.5865V124.109H75.3243Z" fill="#3F3D56"/>
<path d="M80.8265 119.297H77.6826V121.971H80.8265V119.297Z" fill="#3F3D56"/>
<path d="M80.8265 124.109H77.6826V126.783H80.8265V124.109Z" fill="#3F3D56"/>
<path d="M177.67 114.219L176.099 111.546L190.77 98.7139H228.496V102.456L214.873 117.427L199.153 120.634L177.67 114.219Z" fill="#3F3D56"/>
<path d="M234.99 106.244V97.8789H230.05V100.517L228.495 98.714L215.92 111.546L213.824 113.684L211.204 124.377L215.92 136.139H240.023V112.08L234.99 106.244Z" fill="#CCCCCC"/>
<path d="M215.921 111.545H176.099V136.139H215.921V111.545Z" fill="#F2F2F2"/>
<path d="M210.419 119.297H202.035V126.782H210.419V119.297Z" fill="#3F3D56"/>
<path d="M198.629 119.03H191.293V136.139H198.629V119.03Z" fill="#CCCCCC"/>
<path d="M182.91 121.703V119.03H179.767V121.703H182.648H182.91Z" fill="#3F3D56"/>
<path d="M182.648 123.842H179.767V126.515H182.91V123.842H182.648Z" fill="#3F3D56"/>
<path d="M188.149 119.03H185.005V121.704H188.149V119.03Z" fill="#3F3D56"/>
<path d="M188.149 123.842H185.005V126.516H188.149V123.842Z" fill="#3F3D56"/>
<path d="M227.186 121.971V119.298H224.042V121.971H226.924H227.186Z" fill="#3F3D56"/>
<path d="M226.924 124.109H224.042V126.782H227.186V124.109H226.924Z" fill="#3F3D56"/>
<path d="M232.426 119.297H229.282V121.971H232.426V119.297Z" fill="#3F3D56"/>
<path d="M232.426 124.109H229.282V126.783H232.426V124.109Z" fill="#3F3D56"/>
<path d="M106.764 69.3083L104.145 67.1695L118.816 53.8032H156.018V65.5656L131.915 82.14L106.764 69.3083Z" fill="#3F3D56"/>
<path d="M162.8 61.3011V54.0703H157.861V55.8413L156.018 53.8032L143.966 67.1695L139.251 70.3776L131.938 124.887L142.966 136.139H168.593V67.7041L162.8 61.3011Z" fill="#CCCCCC"/>
<path d="M143.965 67.1699H104.143V136.14H143.965V67.1699Z" fill="#F2F2F2"/>
<path d="M126.937 119.297H119.602V136.139H126.937V119.297Z" fill="#CCCCCC"/>
<path d="M111.74 124.109V121.436H108.597V124.109H111.479H111.74Z" fill="#3F3D56"/>
<path d="M111.479 126.248H108.597V128.921H111.74V126.248H111.479Z" fill="#3F3D56"/>
<path d="M116.98 121.437H113.836V124.11H116.98V121.437Z" fill="#3F3D56"/>
<path d="M116.98 126.248H113.836V128.921H116.98V126.248Z" fill="#3F3D56"/>
<path d="M133.224 124.109V121.436H130.08V124.109H132.962H133.224Z" fill="#3F3D56"/>
<path d="M132.962 126.248H130.08V128.921H133.224V126.248H132.962Z" fill="#3F3D56"/>
<path d="M138.464 121.437H135.32V124.11H138.464V121.437Z" fill="#3F3D56"/>
<path d="M138.464 126.248H135.32V128.921H138.464V126.248Z" fill="#3F3D56"/>
<path d="M155.232 70.6443V67.9712H152.088V70.6443H154.97H155.232Z" fill="#3F3D56"/>
<path d="M154.97 72.7832H152.088V75.4563H155.232V72.7832H154.97Z" fill="#3F3D56"/>
<path d="M160.471 67.9712H157.327V70.6444H160.471V67.9712Z" fill="#3F3D56"/>
<path d="M160.471 72.7832H157.327V75.4564H160.471V72.7832Z" fill="#3F3D56"/>
<path d="M155.232 85.6149V82.9414H152.088V85.6149H154.97H155.232Z" fill="#3F3D56"/>
<path d="M154.97 87.7534H152.088V90.4265H155.232V87.7534H154.97Z" fill="#3F3D56"/>
<path d="M160.471 82.9414H157.327V85.6146H160.471V82.9414Z" fill="#3F3D56"/>
<path d="M160.471 87.7539H157.327V90.4271H160.471V87.7539Z" fill="#3F3D56"/>
<path d="M155.232 100.586V97.9121H152.088V100.586H154.97H155.232Z" fill="#3F3D56"/>
<path d="M154.97 102.724H152.088V105.397H155.232V102.724H154.97Z" fill="#3F3D56"/>
<path d="M160.471 97.9121H157.327V100.585H160.471V97.9121Z" fill="#3F3D56"/>
<path d="M160.471 102.724H157.327V105.397H160.471V102.724Z" fill="#3F3D56"/>
<path d="M155.232 115.555V112.881H152.088V115.555H154.97H155.232Z" fill="#3F3D56"/>
<path d="M154.97 117.693H152.088V120.366H155.232V117.693H154.97Z" fill="#3F3D56"/>
<path d="M160.471 112.882H157.327V115.556H160.471V112.882Z" fill="#3F3D56"/>
<path d="M160.471 117.694H157.327V120.367H160.471V117.694Z" fill="#3F3D56"/>
<path d="M138.987 70.6445H108.597V77.0603H138.987V70.6445Z" fill="#3F3D56"/>
<path d="M138.987 83.4761H108.597V89.8918H138.987V83.4761Z" fill="#3F3D56"/>
<path d="M138.987 96.3081H108.597V102.724H138.987V96.3081Z" fill="#3F3D56"/>
<path d="M138.987 109.139H108.597V115.555H138.987V109.139Z" fill="#3F3D56"/>
<path d="M259.882 69.3083L257.263 67.1695L271.934 53.8032H309.136V65.5656L285.033 82.14L259.882 69.3083Z" fill="#3F3D56"/>
<path d="M315.919 61.3011V54.0703H310.979V55.8413L309.136 53.8032L297.084 67.1695L292.369 70.3776L285.057 124.887L296.084 136.139H321.711V67.7041L315.919 61.3011Z" fill="#CCCCCC"/>
<path d="M297.085 67.1699H257.263V136.14H297.085V67.1699Z" fill="#F2F2F2"/>
<path d="M280.055 119.297H272.72V136.139H280.055V119.297Z" fill="#CCCCCC"/>
<path d="M264.86 124.109V121.436H261.717V124.109H264.599H264.86Z" fill="#3F3D56"/>
<path d="M264.599 126.248H261.717V128.921H264.86V126.248H264.599Z" fill="#3F3D56"/>
<path d="M270.101 121.437H266.957V124.11H270.101V121.437Z" fill="#3F3D56"/>
<path d="M270.101 126.248H266.957V128.921H270.101V126.248Z" fill="#3F3D56"/>
<path d="M286.342 124.109V121.436H283.198V124.109H286.08H286.342Z" fill="#3F3D56"/>
<path d="M286.08 126.248H283.198V128.921H286.342V126.248H286.08Z" fill="#3F3D56"/>
<path d="M291.583 121.437H288.439V124.11H291.583V121.437Z" fill="#3F3D56"/>
<path d="M291.583 126.248H288.439V128.921H291.583V126.248Z" fill="#3F3D56"/>
<path d="M308.349 70.6443V67.9712H305.205V70.6443H308.087H308.349Z" fill="#3F3D56"/>
<path d="M308.087 72.7832H305.205V75.4563H308.349V72.7832H308.087Z" fill="#3F3D56"/>
<path d="M313.59 67.9712H310.446V70.6444H313.59V67.9712Z" fill="#3F3D56"/>
<path d="M313.59 72.7832H310.446V75.4564H313.59V72.7832Z" fill="#3F3D56"/>
<path d="M308.349 85.6149V82.9414H305.205V85.6149H308.087H308.349Z" fill="#3F3D56"/>
<path d="M308.087 87.7534H305.205V90.4265H308.349V87.7534H308.087Z" fill="#3F3D56"/>
<path d="M313.59 82.9414H310.446V85.6146H313.59V82.9414Z" fill="#3F3D56"/>
<path d="M313.59 87.7539H310.446V90.4271H313.59V87.7539Z" fill="#3F3D56"/>
<path d="M308.349 100.586V97.9121H305.205V100.586H308.087H308.349Z" fill="#3F3D56"/>
<path d="M308.087 102.724H305.205V105.397H308.349V102.724H308.087Z" fill="#3F3D56"/>
<path d="M313.59 97.9121H310.446V100.585H313.59V97.9121Z" fill="#3F3D56"/>
<path d="M313.59 102.724H310.446V105.397H313.59V102.724Z" fill="#3F3D56"/>
<path d="M308.349 115.555V112.881H305.205V115.555H308.087H308.349Z" fill="#3F3D56"/>
<path d="M308.087 117.693H305.205V120.366H308.349V117.693H308.087Z" fill="#3F3D56"/>
<path d="M313.59 112.882H310.446V115.556H313.59V112.882Z" fill="#3F3D56"/>
<path d="M313.59 117.694H310.446V120.367H313.59V117.694Z" fill="#3F3D56"/>
<path d="M292.107 70.6445H261.717V77.0603H292.107V70.6445Z" fill="#3F3D56"/>
<path d="M292.107 83.4761H261.717V89.8918H292.107V83.4761Z" fill="#3F3D56"/>
<path d="M292.107 96.3081H261.717V102.724H292.107V96.3081Z" fill="#3F3D56"/>
<path d="M292.107 109.139H261.717V115.555H292.107V109.139Z" fill="#3F3D56"/>
<path d="M343.85 69.3083L341.23 67.1695L355.902 53.8032H393.104V65.5656L369.001 82.14L343.85 69.3083Z" fill="#3F3D56"/>
<path d="M399.886 61.3011V54.0703H394.947V55.8413L393.104 53.8032L381.052 67.1695L376.336 70.3776L369.024 124.887L380.052 136.139H405.679V67.7041L399.886 61.3011Z" fill="#CCCCCC"/>
<path d="M381.053 67.1699H341.23V136.14H381.053V67.1699Z" fill="#F2F2F2"/>
<path d="M364.023 119.297H356.688V136.139H364.023V119.297Z" fill="#CCCCCC"/>
<path d="M348.828 124.109V121.436H345.685V124.109H348.566H348.828Z" fill="#3F3D56"/>
<path d="M348.566 126.248H345.685V128.921H348.828V126.248H348.566Z" fill="#3F3D56"/>
<path d="M354.069 121.437H350.925V124.11H354.069V121.437Z" fill="#3F3D56"/>
<path d="M354.069 126.248H350.925V128.921H354.069V126.248Z" fill="#3F3D56"/>
<path d="M370.311 124.109V121.436H367.167V124.109H370.049H370.311Z" fill="#3F3D56"/>
<path d="M370.049 126.248H367.167V128.921H370.311V126.248H370.049Z" fill="#3F3D56"/>
<path d="M375.552 121.437H372.408V124.11H375.552V121.437Z" fill="#3F3D56"/>
<path d="M375.552 126.248H372.408V128.921H375.552V126.248Z" fill="#3F3D56"/>
<path d="M392.318 70.6443V67.9712H389.175V70.6443H392.057H392.318Z" fill="#3F3D56"/>
<path d="M392.057 72.7832H389.175V75.4563H392.318V72.7832H392.057Z" fill="#3F3D56"/>
<path d="M397.557 67.9712H394.413V70.6444H397.557V67.9712Z" fill="#3F3D56"/>
<path d="M397.557 72.7832H394.413V75.4564H397.557V72.7832Z" fill="#3F3D56"/>
<path d="M392.318 85.6149V82.9414H389.175V85.6149H392.057H392.318Z" fill="#3F3D56"/>
<path d="M392.057 87.7534H389.175V90.4265H392.318V87.7534H392.057Z" fill="#3F3D56"/>
<path d="M397.557 82.9414H394.413V85.6146H397.557V82.9414Z" fill="#3F3D56"/>
<path d="M397.557 87.7539H394.413V90.4271H397.557V87.7539Z" fill="#3F3D56"/>
<path d="M392.318 100.586V97.9121H389.175V100.586H392.057H392.318Z" fill="#3F3D56"/>
<path d="M392.057 102.724H389.175V105.397H392.318V102.724H392.057Z" fill="#3F3D56"/>
<path d="M397.557 97.9121H394.413V100.585H397.557V97.9121Z" fill="#3F3D56"/>
<path d="M397.557 102.724H394.413V105.397H397.557V102.724Z" fill="#3F3D56"/>
<path d="M392.318 115.555V112.881H389.175V115.555H392.057H392.318Z" fill="#3F3D56"/>
<path d="M392.057 117.693H389.175V120.366H392.318V117.693H392.057Z" fill="#3F3D56"/>
<path d="M397.557 112.882H394.413V115.556H397.557V112.882Z" fill="#3F3D56"/>
<path d="M397.557 117.694H394.413V120.367H397.557V117.694Z" fill="#3F3D56"/>
<path d="M376.074 70.6445H345.684V77.0603H376.074V70.6445Z" fill="#3F3D56"/>
<path d="M376.074 83.4761H345.684V89.8918H376.074V83.4761Z" fill="#3F3D56"/>
<path d="M376.074 96.3081H345.684V102.724H376.074V96.3081Z" fill="#3F3D56"/>
<path d="M376.074 109.139H345.684V115.555H376.074V109.139Z" fill="#3F3D56"/>
<path d="M432.183 135.873H0.182617V136.648H432.183V135.873Z" fill="#3F3D56"/>
<path d="M96.6886 105.245H95.9287V135.872H96.6886V105.245Z" fill="#3F3D56"/>
<path d="M103.702 109.147C103.75 119.857 96.3659 128.574 96.3659 128.574C96.3659 128.574 88.9031 119.927 88.8547 109.217C88.8064 98.5078 96.1907 89.791 96.1907 89.791C96.1907 89.791 103.653 98.4379 103.702 109.147Z" fill="#27C66A"/>
<path d="M172.678 105.245H171.918V135.872H172.678V105.245Z" fill="#3F3D56"/>
<path d="M179.691 109.147C179.739 119.857 172.355 128.574 172.355 128.574C172.355 128.574 164.892 119.927 164.844 109.217C164.796 98.5078 172.18 89.791 172.18 89.791C172.18 89.791 179.643 98.4379 179.691 109.147Z" fill="#27C66A"/>
<path d="M324.278 105.245H323.519V135.872H324.278V105.245Z" fill="#3F3D56"/>
<path d="M331.291 109.147C331.339 119.857 323.955 128.574 323.955 128.574C323.955 128.574 316.492 119.927 316.444 109.217C316.395 98.5078 323.78 89.791 323.78 89.791C323.78 89.791 331.242 98.4379 331.291 109.147Z" fill="#27C66A"/>
</svg>
