<svg width="20" height="20" viewBox="0 0 20 20" fill="none" xmlns="http://www.w3.org/2000/svg">
<path d="M10 0C4.477 0 0 4.476 0 10C0 15.523 4.477 20 10 20C15.523 20 20 15.522 20 10C20 4.476 15.523 0 10 0ZM2.607 10C2.607 8.593 3.009 7.281 3.694 6.16L13.84 16.305C12.719 16.991 11.407 17.393 10 17.393C5.923 17.393 2.607 14.076 2.607 10ZM16.012 14.287L5.713 3.987C6.923 3.122 8.402 2.606 10 2.606C14.077 2.606 17.393 5.922 17.393 9.999C17.393 11.599 16.877 13.076 16.012 14.287Z" fill="#637381"/>
</svg>
