<svg width="350" height="350" viewBox="0 0 350 350" fill="none" xmlns="http://www.w3.org/2000/svg">
<path d="M28.3609 205.198C30.297 208.794 34.4062 210.337 34.4062 210.337C34.4062 210.337 35.3762 206.051 33.4401 202.455C31.504 198.859 27.3949 197.315 27.3949 197.315C27.3949 197.315 26.4248 201.602 28.3609 205.198Z" fill="#3F3D56"/>
<path d="M29.6915 204.015C33.187 206.121 34.5332 210.304 34.5332 210.304C34.5332 210.304 30.2122 211.073 26.7167 208.967C23.2212 206.86 21.875 202.677 21.875 202.677C21.875 202.677 26.1961 201.908 29.6915 204.015Z" fill="#6C63FF"/>
<path d="M212.681 145.539C212.681 174.291 195.614 184.331 174.56 184.331C153.507 184.331 136.44 174.291 136.44 145.539C136.44 116.786 174.56 80.2084 174.56 80.2084C174.56 80.2084 212.681 116.786 212.681 145.539Z" fill="#F2F2F2"/>
<path d="M173.172 179.932L173.563 155.869L189.811 126.099L173.624 152.094L173.8 141.274L184.998 119.736L173.846 138.411L174.162 118.951L186.153 101.804L174.211 115.891L174.408 80.2084L173.169 127.446L173.271 125.497L161.079 106.808L173.075 129.238L171.94 150.971L171.906 150.394L157.851 130.727L171.863 152.432L171.721 155.15L171.695 155.191L171.707 155.414L168.825 210.554H172.676L173.138 182.073L187.115 160.421L173.172 179.932Z" fill="#3F3D56"/>
<path d="M319.265 145.539C319.265 174.291 302.198 184.331 281.145 184.331C260.092 184.331 243.024 174.291 243.024 145.539C243.024 116.786 281.145 80.2084 281.145 80.2084C281.145 80.2084 319.265 116.786 319.265 145.539Z" fill="#F2F2F2"/>
<path d="M279.756 179.932L280.147 155.869L296.395 126.099L280.208 152.094L280.383 141.274L291.582 119.736L280.43 138.411L280.746 118.951L292.737 101.804L280.795 115.891L280.992 80.2084L279.753 127.446L279.855 125.497L267.663 106.808L279.659 129.238L278.524 150.971L278.49 150.394L264.435 130.727L278.447 152.432L278.305 155.15L278.279 155.191L278.291 155.414L275.409 210.554H279.26L279.722 182.073L293.699 160.421L279.756 179.932Z" fill="#3F3D56"/>
<path d="M51.197 168.613C59.2505 168.613 65.7792 162.074 65.7792 154.009C65.7792 145.943 59.2505 139.404 51.197 139.404C43.1434 139.404 36.6147 145.943 36.6147 154.009C36.6147 162.074 43.1434 168.613 51.197 168.613Z" fill="#FF6584"/>
<path d="M32.6957 181.478L30.5552 177.905L50.5339 160.755H101.908V165.757L83.3565 185.766L61.9505 190.054L32.6957 181.478Z" fill="#3F3D56"/>
<path d="M110.751 170.819V159.639H104.025V163.164L101.908 160.754L84.783 177.905L81.9288 180.763L78.3613 195.056L84.783 210.777H117.606V178.62L110.751 170.819Z" fill="#CCCCCC"/>
<path d="M84.7831 177.905H30.5547V210.777H84.7831V177.905Z" fill="#F2F2F2"/>
<path d="M77.2905 188.267H65.874V198.271H77.2905V188.267Z" fill="#3F3D56"/>
<path d="M61.236 187.91H51.2466V210.777H61.236V187.91Z" fill="#CCCCCC"/>
<path d="M39.8304 191.483V187.91H35.5493V191.483H39.4736H39.8304Z" fill="#3F3D56"/>
<path d="M39.4736 194.341H35.5493V197.914H39.8304V194.341H39.4736Z" fill="#3F3D56"/>
<path d="M46.9663 187.91H42.6851V191.483H46.9663V187.91Z" fill="#3F3D56"/>
<path d="M46.9663 194.341H42.6851V197.914H46.9663V194.341Z" fill="#3F3D56"/>
<path d="M100.124 191.84V188.267H95.8428V191.84H99.7673H100.124Z" fill="#3F3D56"/>
<path d="M99.7673 194.698H95.8428V198.272H100.124V194.698H99.7673Z" fill="#3F3D56"/>
<path d="M107.259 188.267H102.978V191.84H107.259V188.267Z" fill="#3F3D56"/>
<path d="M107.259 194.699H102.978V198.272H107.259V194.699Z" fill="#3F3D56"/>
<path d="M135.657 181.458L133.517 177.886L153.496 160.735H204.87V165.737L186.318 185.746L164.912 190.034L135.657 181.458Z" fill="#3F3D56"/>
<path d="M213.714 170.799V159.619H206.987V163.144L204.87 160.735L187.745 177.886L184.891 180.744L181.323 195.036L187.745 210.758H220.567V178.6L213.714 170.799Z" fill="#CCCCCC"/>
<path d="M187.746 177.886H133.518V210.758H187.746V177.886Z" fill="#F2F2F2"/>
<path d="M180.253 188.247H168.837V198.252H180.253V188.247Z" fill="#3F3D56"/>
<path d="M164.199 187.89H154.21V210.758H164.199V187.89Z" fill="#CCCCCC"/>
<path d="M142.793 191.463V187.89H138.512V191.463H142.436H142.793Z" fill="#3F3D56"/>
<path d="M142.436 194.321H138.512V197.894H142.793V194.321H142.436Z" fill="#3F3D56"/>
<path d="M149.929 187.89H145.647V191.463H149.929V187.89Z" fill="#3F3D56"/>
<path d="M149.929 194.322H145.647V197.895H149.929V194.322Z" fill="#3F3D56"/>
<path d="M203.087 191.821V188.248H198.806V191.821H202.73H203.087Z" fill="#3F3D56"/>
<path d="M202.73 194.679H198.806V198.252H203.087V194.679H202.73Z" fill="#3F3D56"/>
<path d="M210.222 188.247H205.941V191.82H210.222V188.247Z" fill="#3F3D56"/>
<path d="M210.222 194.679H205.941V198.252H210.222V194.679Z" fill="#3F3D56"/>
<path d="M235.53 181.458L233.389 177.886L253.368 160.735H304.742V165.737L286.19 185.746L264.785 190.034L235.53 181.458Z" fill="#3F3D56"/>
<path d="M313.586 170.799V159.619H306.86V163.144L304.742 160.735L287.618 177.886L284.764 180.744L281.196 195.036L287.618 210.758H320.44V178.6L313.586 170.799Z" fill="#CCCCCC"/>
<path d="M287.618 177.886H233.389V210.758H287.618V177.886Z" fill="#F2F2F2"/>
<path d="M280.126 188.247H268.709V198.252H280.126V188.247Z" fill="#3F3D56"/>
<path d="M264.071 187.89H254.082V210.758H264.071V187.89Z" fill="#CCCCCC"/>
<path d="M242.665 191.463V187.89H238.384V191.463H242.308H242.665Z" fill="#3F3D56"/>
<path d="M242.308 194.321H238.384V197.894H242.665V194.321H242.308Z" fill="#3F3D56"/>
<path d="M249.801 187.89H245.52V191.463H249.801V187.89Z" fill="#3F3D56"/>
<path d="M249.801 194.322H245.52V197.895H249.801V194.322Z" fill="#3F3D56"/>
<path d="M302.959 191.821V188.248H298.678V191.821H302.602H302.959Z" fill="#3F3D56"/>
<path d="M302.602 194.679H298.678V198.252H302.959V194.679H302.602Z" fill="#3F3D56"/>
<path d="M310.094 188.247H305.813V191.82H310.094V188.247Z" fill="#3F3D56"/>
<path d="M310.094 194.679H305.813V198.252H310.094V194.679Z" fill="#3F3D56"/>
<path d="M226.206 189.534H225.669V210.776H226.206V189.534Z" fill="#3F3D56"/>
<path d="M231.161 192.241C231.195 199.669 225.978 205.714 225.978 205.714C225.978 205.714 220.704 199.717 220.67 192.29C220.636 184.862 225.854 178.817 225.854 178.817C225.854 178.817 231.127 184.814 231.161 192.241Z" fill="#6C63FF"/>
<path d="M128.481 188.996H127.944V210.238H128.481V188.996Z" fill="#3F3D56"/>
<path d="M133.437 191.704C133.471 199.131 128.253 205.177 128.253 205.177C128.253 205.177 122.98 199.18 122.945 191.752C122.911 184.324 128.129 178.279 128.129 178.279C128.129 178.279 133.402 184.276 133.437 191.704Z" fill="#6C63FF"/>
<path opacity="0.1" d="M133.437 191.704C133.471 199.131 128.253 205.177 128.253 205.177C128.253 205.177 122.98 199.18 122.945 191.752C122.911 184.324 128.129 178.279 128.129 178.279C128.129 178.279 133.402 184.276 133.437 191.704Z" fill="black"/>
<path d="M121.501 188.996H120.964V210.238H121.501V188.996Z" fill="#3F3D56"/>
<path d="M126.457 191.704C126.491 199.131 121.273 205.177 121.273 205.177C121.273 205.177 116 199.18 115.965 191.752C115.931 184.324 121.149 178.279 121.149 178.279C121.149 178.279 126.422 184.276 126.457 191.704Z" fill="#6C63FF"/>
<path d="M328.125 210.239H22.8701V210.777H328.125V210.239Z" fill="#3F3D56"/>
<path d="M91.9806 194.15C91.9806 194.15 92.2556 194.465 91.7844 195.076C91.3132 195.687 91.6937 197.012 92.5889 197.046C93.4841 197.08 93.9182 197.455 93.7024 197.95C93.4866 198.444 93.2272 199.62 94.2021 199.441C95.1771 199.262 95.4852 199.651 95.3126 199.95C95.14 200.249 95.7473 199.356 95.7473 199.356C95.7473 199.356 96.2906 200.166 96.9574 199.599C97.6242 199.031 97.8893 193.888 96.5299 193.801C95.1706 193.713 91.9806 194.15 91.9806 194.15Z" fill="#2F2E41"/>
<path d="M98.873 218.61L99.1826 220.782H100.577L100.112 218.3L98.873 218.61Z" fill="#FFB8B8"/>
<path d="M100.731 219.464C100.731 219.464 102.59 221.17 102.125 221.325C101.66 221.48 99.9565 223.342 99.6468 223.497C99.3697 223.636 96.3941 224.583 96.8587 223.497C97.2004 222.791 97.7382 222.198 98.4076 221.791L98.7174 219.929L100.731 219.464Z" fill="#F2F2F2"/>
<path opacity="0.1" d="M100.731 219.464C100.731 219.464 102.59 221.17 102.125 221.325C101.66 221.48 99.9565 223.342 99.6468 223.497C99.3697 223.636 96.3941 224.583 96.8587 223.497C97.2004 222.791 97.7382 222.198 98.4076 221.791L98.7174 219.929L100.731 219.464Z" fill="black"/>
<path d="M100.731 216.982L101.041 219.154H102.435L101.97 216.672L100.731 216.982Z" fill="#FFB8B8"/>
<path d="M94.9062 211.217L96.9363 204.494C96.9363 204.494 93.5287 201.392 95.8521 200.461C98.1754 199.53 98.795 204.184 98.795 204.184L98.0205 212.25H94.9227L94.9062 211.217Z" fill="#FFB8B8"/>
<path d="M99.6469 206.278C99.6469 206.278 95.6437 211.421 96.2512 212.185C96.8588 212.949 97.9431 217.602 97.9431 217.602C97.9431 217.602 97.7882 219.464 98.4077 219.464C99.0273 219.464 100.576 219.154 100.576 218.688C100.576 218.223 99.1822 212.328 99.1822 212.328L103.209 207.054L99.6469 206.278Z" fill="#6C63FF"/>
<path d="M99.9566 206.588L103.984 204.417C103.984 204.417 106.772 205.813 105.997 207.054C105.223 208.295 101.66 211.552 101.66 211.552C101.66 211.552 102.745 216.827 102.59 216.982C102.435 217.137 100.731 217.757 100.266 217.602C99.8017 217.447 97.3235 211.397 97.943 211.087C98.5626 210.777 100.576 207.519 100.576 207.519L99.9566 206.588Z" fill="#6C63FF"/>
<path d="M88.9597 265.939C88.9597 265.939 91.7477 267.645 92.0575 267.645C92.3672 267.645 96.5493 268.731 94.6906 269.507C92.8319 270.282 85.707 269.196 85.8619 268.731C86.0168 268.266 85.8619 265.473 86.1716 265.473C86.4814 265.473 88.9597 265.939 88.9597 265.939Z" fill="#2F2E41"/>
<path d="M92.0573 265.691C92.0573 265.691 94.8453 267.397 95.1551 267.397C95.4649 267.397 99.6469 268.483 97.7882 269.259C95.9296 270.034 88.8046 268.949 88.9595 268.483C89.1144 268.018 88.9595 265.226 89.2693 265.226C89.5791 265.226 92.0573 265.691 92.0573 265.691Z" fill="#2F2E41"/>
<path d="M88.8459 233.342C88.8459 233.342 89.5791 237.551 90.3535 239.257C91.128 240.964 90.1986 249.03 89.734 250.271C89.2693 251.512 84.7775 266.249 86.1715 266.404C87.5655 266.559 90.3535 266.404 90.3535 266.404L94.8453 252.288L94.0709 233.363L88.8459 233.342Z" fill="#575A88"/>
<path opacity="0.1" d="M88.8459 233.342C88.8459 233.342 89.5791 237.551 90.3535 239.257C91.128 240.964 90.1986 249.03 89.734 250.271C89.2693 251.512 84.7775 266.249 86.1715 266.404C87.5655 266.559 90.3535 266.404 90.3535 266.404L94.8453 252.288L94.0709 233.363L88.8459 233.342Z" fill="black"/>
<path d="M90.0435 232.959C90.0435 232.959 90.663 237.148 92.057 238.078C93.451 239.009 92.9864 239.94 92.9864 239.94L92.3668 248.162C92.3668 248.162 86.3261 263.054 88.1848 264.915C90.0435 266.776 91.7473 266.001 92.5217 265.846C93.2962 265.691 94.6902 262.433 93.9158 261.502C93.1413 260.571 95.4647 254.987 96.0842 254.056C96.7038 253.126 96.0842 251.885 96.8587 251.574C97.6331 251.264 99.3369 249.247 99.3369 247.851C99.3369 246.455 101.505 231.563 100.111 230.633C98.7173 229.702 89.7818 232.553 89.7818 232.553L90.0435 232.959Z" fill="#575A88"/>
<path d="M87.1009 211.242C88.9829 211.242 90.5085 209.714 90.5085 207.83C90.5085 205.945 88.9829 204.417 87.1009 204.417C85.219 204.417 83.6934 205.945 83.6934 207.83C83.6934 209.714 85.219 211.242 87.1009 211.242Z" fill="#FFB8B8"/>
<path d="M94.8452 198.212C96.3849 198.212 97.6332 196.962 97.6332 195.42C97.6332 193.878 96.3849 192.627 94.8452 192.627C93.3054 192.627 92.0571 193.878 92.0571 195.42C92.0571 196.962 93.3054 198.212 94.8452 198.212Z" fill="#FFB8B8"/>
<path d="M89.4241 207.829C89.4241 207.829 91.2827 211.242 92.2121 211.242C93.1414 211.242 88.4947 214.81 88.4947 214.81C88.4947 214.81 86.9458 210.311 86.636 210.156C86.3263 210.001 89.4241 207.829 89.4241 207.829Z" fill="#FFB8B8"/>
<path d="M90.0437 210.932C90.0437 210.932 86.0166 212.328 86.1715 212.793C86.3263 213.259 85.0872 214.345 85.0872 214.81C85.0872 215.275 84.7775 219.464 86.6361 222.876C88.4948 226.289 91.4377 228.771 90.0437 230.322C88.6497 231.874 86.4812 234.511 88.8046 234.511C91.1279 234.511 94.8453 231.098 98.2529 232.339C101.66 233.58 100.886 228.926 100.886 228.926C100.886 228.926 101.351 225.358 100.421 224.273C99.492 223.187 96.2393 215.43 96.2393 214.5C96.2393 213.569 93.1415 210.001 92.3671 210.001C91.5926 210.001 90.0437 210.932 90.0437 210.932Z" fill="#8985A8"/>
<path d="M95.6196 197.126C95.6196 197.126 96.8809 199.527 96.9473 199.955C97.0136 200.383 99.1821 197.126 99.1821 197.126L96.7039 195.419L95.6196 197.126Z" fill="#FFB8B8"/>
<path d="M96.0849 198.987L98.7181 196.195L101.816 197.591C101.816 197.591 104.705 203.951 104.887 204.417C105.069 204.882 100.267 207.054 99.8023 207.054C99.3376 207.054 96.0849 202.245 96.0849 202.245C96.0849 202.245 95.3105 199.918 96.0849 198.987Z" fill="#F2F2F2"/>
<path d="M94.8447 202.71V205.503H96.7036L96.0923 202.71H94.8447Z" fill="#FFB8B8"/>
<path d="M95.9058 204.804C95.6709 204.801 95.4407 204.87 95.2457 205.001C95.0508 205.132 94.9004 205.32 94.8147 205.539C94.6936 205.867 94.7347 206.211 95.31 206.356C96.5491 206.666 96.704 206.356 96.704 206.356C96.704 206.356 98.855 206.045 98.3991 205.425C97.9431 204.804 96.704 204.804 96.704 204.804H95.9058Z" fill="#FFB8B8"/>
<path d="M102.59 218.223C102.59 218.223 104.449 219.929 103.984 220.084C103.52 220.239 101.816 222.101 101.506 222.256C101.229 222.395 98.2534 223.342 98.7181 222.256C99.0598 221.55 99.5976 220.957 100.267 220.55L100.577 218.688L102.59 218.223Z" fill="#F2F2F2"/>
<path d="M85.8867 205.202C86.0999 205.077 86.3517 204.922 86.3578 204.674C86.3522 204.583 86.3203 204.496 86.2659 204.423C86.2115 204.35 86.137 204.294 86.0516 204.263C85.8797 204.204 85.6977 204.179 85.5163 204.191C85.4467 204.188 85.3769 204.194 85.3094 204.212C85.1329 204.266 85.0313 204.446 84.8923 204.567C84.672 204.722 84.419 204.823 84.1531 204.863C83.7183 204.976 83.3013 205.149 82.9141 205.378C82.8377 205.416 82.7707 205.472 82.718 205.539C82.6571 205.664 82.63 205.802 82.6393 205.941C82.6043 206.467 82.2892 206.925 82.054 207.397C81.8188 207.869 81.6643 208.457 81.9404 208.906C82.0499 209.046 82.1522 209.191 82.2467 209.342C82.4424 209.75 82.1982 210.253 82.3395 210.683C82.4028 210.852 82.5043 211.005 82.6361 211.128C82.9081 211.403 83.2432 211.606 83.612 211.72C83.964 211.829 84.4007 211.901 84.5386 212.243C84.5691 212.398 84.6128 212.55 84.6691 212.697C84.732 212.772 84.8096 212.834 84.8971 212.878C84.9846 212.922 85.0802 212.947 85.178 212.953C85.394 213.002 85.6163 213.018 85.8373 213.001C85.9477 212.991 86.0551 212.959 86.1529 212.907C86.2506 212.854 86.3367 212.782 86.406 212.696C86.4684 212.573 86.5458 212.459 86.6362 212.356C86.8605 212.168 87.2012 212.316 87.4892 212.266C87.6059 212.244 87.7139 212.189 87.8005 212.108C87.8871 212.027 87.9487 211.922 87.978 211.807C87.9859 211.684 88.0197 211.564 88.0772 211.456C88.2561 211.226 88.7268 211.388 88.8449 211.122C88.9216 210.95 88.7611 210.767 88.6058 210.66C88.34 210.504 88.0851 210.331 87.8427 210.141C87.7223 210.045 87.6291 209.918 87.5723 209.775C87.5155 209.631 87.4971 209.475 87.5188 209.322C87.6254 208.872 88.2117 208.624 88.2312 208.163C88.2229 208.03 88.183 207.902 88.115 207.788C88.0469 207.674 87.9526 207.578 87.8399 207.508C87.6139 207.371 87.3972 207.219 87.1911 207.053C87.0522 206.919 86.9475 206.75 86.7965 206.629C86.4984 206.443 86.1536 206.345 85.8023 206.348C85.6158 206.329 84.8718 206.242 84.9011 205.958C84.9254 205.722 85.6974 205.314 85.8867 205.202Z" fill="#2F2E41"/>
<path d="M96.0846 198.832C96.0846 198.832 94.3808 199.453 94.3808 200.228C94.3808 201.004 93.6064 203.486 94.3808 203.486C95.1553 203.486 96.7042 202.89 96.7042 202.89L96.0846 198.832Z" fill="#F2F2F2"/>
<path d="M95.6194 210.001C95.6194 210.001 100.111 208.45 100.266 208.45C100.421 208.45 102.589 207.209 102.435 206.744L101.815 202.865C101.815 202.865 99.3368 197.746 101.041 197.746C102.744 197.746 103.674 201.78 103.674 201.78C103.674 201.78 107.391 208.76 105.378 210.311C103.364 211.863 94.9999 214.655 94.5352 214.19C94.0705 213.724 95.6194 210.001 95.6194 210.001Z" fill="#FFB8B8"/>
<path d="M99.9568 199.918L101.002 200.927L99.647 202.245C99.647 202.245 97.7884 201.469 97.9433 201.935C98.0981 202.4 99.0275 203.796 99.647 203.796C100.267 203.796 103.491 201.78 103.505 201.159C103.519 200.539 101.506 198.367 101.041 198.212C100.576 198.057 99.9568 199.918 99.9568 199.918Z" fill="#FFB8B8"/>
<path d="M97.9907 198.837C97.9907 198.837 100.266 200.849 100.576 200.849C100.886 200.849 101.449 197.826 101.449 197.826C101.449 197.826 99.6132 196.627 98.933 196.954C98.2528 197.281 97.9907 198.837 97.9907 198.837Z" fill="#F2F2F2"/>
<path d="M90.0439 211.863C90.0439 211.863 90.044 209.691 94.6907 209.691H96.7042L95.7749 214.81L92.6771 215.741L90.0439 211.863Z" fill="#8985A8"/>
<path d="M100.194 194.288C99.7386 194.286 99.2837 194.257 98.8315 194.204C98.4764 193.344 98.024 192.623 97.5347 192.354C97.1392 192.05 96.6998 191.809 96.2316 191.638C95.1995 191.199 93.4815 191.473 93.3811 191.972C91.3503 192.944 91.8635 194.65 91.8635 194.65C92.179 195.318 92.8869 195.022 93.4875 194.72C93.5432 194.961 93.6728 195.179 93.8582 195.343C94.0437 195.507 94.2756 195.609 94.5217 195.635C95.5134 195.672 95.9944 196.088 95.7553 196.636C95.5162 197.184 95.2289 198.486 96.3089 198.288C97.3889 198.09 97.7303 198.521 97.5391 198.852C97.3478 199.183 98.0207 198.193 98.0207 198.193C98.0207 198.193 98.6225 199.091 99.3612 198.463C99.4359 198.391 99.4891 198.299 99.5151 198.199C99.7469 198.336 100.021 198.384 100.285 198.334C101.17 197.937 100.62 197.006 100.62 197.006C100.62 197.006 101.802 196.825 101.421 196.855C101.04 196.885 100.8 196.391 101.444 195.5C102.088 194.61 100.791 194.308 100.194 194.288Z" fill="#2F2E41"/>
<path d="M94.2016 193.589L93.7607 193.442L93.3206 194.767L93.7615 194.914L94.2016 193.589Z" fill="#6C63FF"/>
<path d="M127.038 269.393H49.9858V269.931H127.038V269.393Z" fill="#3F3D56"/>
<path d="M292.686 244.119H215.634V244.656H292.686V244.119Z" fill="#3F3D56"/>
<path d="M272.473 195.825L276.803 194.979C276.803 194.979 277.859 191.383 279.126 191.806C280.393 192.229 278.281 195.825 278.281 195.825L272.262 198.575L272.473 195.825Z" fill="#A0616A"/>
<path d="M246.177 199.421L244.276 201.853C244.276 201.853 241.53 201.748 242.375 203.228C243.22 204.709 245.121 203.863 245.226 203.546C245.332 203.228 248.395 200.478 248.395 200.478L246.177 199.421Z" fill="#A0616A"/>
<path d="M253.939 196.618L255.523 195.772C255.523 195.772 262.282 195.243 264.817 196.936C267.351 198.628 254.15 198.839 254.15 198.839L253.939 196.618Z" fill="#6C63FF"/>
<path d="M256.949 195.085C256.949 195.085 256.104 193.075 257.266 192.863C257.928 192.733 258.61 192.733 259.272 192.863L258.005 193.921L256.949 195.085Z" fill="#3F3D56"/>
<path opacity="0.1" d="M256.949 195.085C256.949 195.085 256.104 193.075 257.266 192.863C257.928 192.733 258.61 192.733 259.272 192.863L258.005 193.921L256.949 195.085Z" fill="black"/>
<path d="M251.14 207.248L248.077 207.036L248.605 207.988C248.605 207.988 244.381 209.257 245.754 212.853C246.718 215.274 247.884 217.609 249.239 219.834L250.612 222.478C250.612 222.478 253.463 222.901 253.569 222.055C253.675 221.209 253.569 220.786 253.041 220.363C252.556 219.926 252.255 219.321 252.196 218.671C252.196 218.247 252.302 217.824 251.985 217.613C251.668 217.401 251.562 217.084 251.562 216.449C251.562 215.815 250.401 213.488 250.401 213.488C250.401 213.488 254.097 213.382 255.259 214.334C256.42 215.286 260.222 218.882 260.222 218.882C260.432 219.102 260.61 219.352 260.75 219.622C260.961 220.046 260.961 220.257 261.384 220.469C261.806 220.68 261.489 221.526 261.384 221.632C261.278 221.738 260.222 225.968 260.222 225.968C260.222 225.968 259.061 227.978 260.328 228.084C261.595 228.19 262.757 228.295 262.862 228.084C262.98 227.791 263.121 227.508 263.285 227.238C263.602 226.709 263.285 225.545 263.285 225.545C263.285 225.545 266.347 221.632 265.397 219.199C264.447 216.767 262.44 211.267 262.44 211.267L259.377 209.998L253.78 207.988L251.14 207.248Z" fill="#2F2E41"/>
<path d="M250.93 221.949C250.93 221.949 250.296 224.382 250.085 224.488C249.874 224.593 247.55 226.603 249.134 226.92C250.719 227.238 251.88 227.132 252.197 226.815C252.514 226.497 252.408 226.18 252.936 226.074C253.464 225.968 254.415 225.651 254.309 224.911C254.204 224.17 253.676 222.161 253.359 221.949C253.042 221.738 250.93 221.949 250.93 221.949Z" fill="#2F2E41"/>
<path d="M260.117 227.344C260.117 227.344 259.166 228.084 259.694 229.459C260.222 230.834 260.962 232.315 260.962 232.315C260.962 232.315 261.807 234.959 263.179 234.536C263.426 234.448 263.646 234.297 263.817 234.097C263.987 233.898 264.102 233.657 264.151 233.399C264.248 233.025 264.264 232.633 264.197 232.252C264.131 231.871 263.985 231.508 263.767 231.188L262.968 229.988L262.123 227.767L260.117 227.344Z" fill="#2F2E41"/>
<path d="M257.476 196.248C257.476 196.248 256.209 196.142 255.998 196.46C255.786 196.777 254.836 201.008 255.998 201.431C257.159 201.854 260.644 202.594 261.172 202.065C261.701 201.536 261.912 196.883 261.912 196.883L257.476 196.248Z" fill="#A0616A"/>
<path opacity="0.1" d="M257.476 196.248C257.476 196.248 256.209 196.142 255.998 196.46C255.786 196.777 254.836 201.008 255.998 201.431C257.159 201.854 260.644 202.594 261.172 202.065C261.701 201.536 261.912 196.883 261.912 196.883L257.476 196.248Z" fill="black"/>
<path d="M255.576 199.738C255.576 199.738 257.054 201.219 258.005 201.008C258.955 200.796 261.173 199.844 261.384 199.421C261.595 198.998 264.236 198.892 264.236 198.892L261.384 206.825L263.391 213.488C263.391 213.488 264.552 212.113 261.384 212.007C258.216 211.902 253.992 210.315 253.252 208.2C253.252 208.2 248.606 207.565 248.394 207.459C248.183 207.354 248.922 206.719 248.922 206.719L251.985 205.873L254.203 203.017L255.576 199.738Z" fill="#F2F2F2"/>
<path d="M256.526 196.459C256.526 196.459 257.054 195.719 256.526 195.719C255.68 195.701 254.834 195.737 253.992 195.825C253.464 195.931 251.457 195.402 251.246 196.036C251.035 196.671 251.035 200.584 251.457 200.902C251.88 201.219 252.091 201.219 251.563 201.854C251.035 202.488 249.767 204.603 250.084 205.344C250.401 206.084 246.705 206.296 247.233 207.142C247.376 207.384 247.576 207.587 247.815 207.734C248.054 207.882 248.326 207.969 248.606 207.988C248.606 207.988 248.817 206.296 250.084 207.142C251.352 207.988 253.041 210.103 254.414 208.728C255.787 207.353 256.315 206.084 256.421 204.286C256.531 202.943 256.46 201.591 256.21 200.267C255.998 199.209 256.526 196.459 256.526 196.459Z" fill="#6C63FF"/>
<path d="M262.018 198.469C262.018 198.469 262.863 199.209 262.018 201.007C261.173 202.805 258.955 207.036 260.751 209.786C262.546 212.536 263.285 213.276 262.863 213.805C262.606 214.14 262.458 214.547 262.44 214.969L263.602 214.546C263.729 213.681 263.942 212.83 264.236 212.007C264.658 210.95 263.391 207.777 263.391 207.777L263.813 203.652C263.813 203.652 265.503 201.007 265.714 200.902C265.925 200.796 265.292 196.248 265.292 196.248C265.292 196.248 264.236 195.931 263.708 196.248C263.18 196.565 262.018 198.469 262.018 198.469Z" fill="#6C63FF"/>
<path d="M251.879 196.142H251.246L246.916 198.363C246.916 198.363 246.599 196.988 246.388 197.306C246.176 197.623 246.282 198.469 245.754 198.681C245.226 198.892 244.909 199.209 245.754 199.632C246.599 200.055 246.704 199.738 246.704 200.479C246.704 201.219 247.338 201.325 247.866 201.113C248.394 200.902 248.5 200.796 249.028 201.007C249.556 201.219 249.239 201.536 249.978 201.219C250.718 200.902 252.618 201.007 252.618 201.007L251.879 196.142Z" fill="#6C63FF"/>
<path d="M264.552 196.46L265.292 196.248C265.292 196.248 267.509 196.46 268.037 196.46C268.565 196.46 269.093 196.354 269.41 196.354C269.727 196.354 271.311 196.142 271.522 195.931C271.734 195.719 272.684 195.19 272.79 195.508C272.895 195.825 274.057 197.835 273.001 198.786C271.945 199.738 271.734 199.315 271.1 199.738C270.466 200.161 265.397 201.008 265.292 200.902C265.186 200.796 264.552 196.46 264.552 196.46Z" fill="#6C63FF"/>
<path d="M260.222 200.479C261.972 200.479 263.391 199.058 263.391 197.305C263.391 195.553 261.972 194.132 260.222 194.132C258.473 194.132 257.054 195.553 257.054 197.305C257.054 199.058 258.473 200.479 260.222 200.479Z" fill="#A0616A"/>
<path d="M257.891 197.433C257.927 197.502 257.95 197.578 257.957 197.655C257.999 197.835 258.1 197.996 258.244 198.112C258.388 198.228 258.566 198.293 258.751 198.296C258.736 198.364 258.735 198.434 258.749 198.503C258.763 198.571 258.791 198.636 258.832 198.692C258.872 198.749 258.924 198.797 258.984 198.832C259.044 198.867 259.111 198.889 259.18 198.897C259.395 198.622 259.554 198.309 259.651 197.974C259.675 197.842 259.729 197.718 259.81 197.612C259.937 197.506 260.096 197.446 260.261 197.442C261.104 197.333 261.952 197.27 262.802 197.253C262.918 197.261 263.033 197.237 263.136 197.184C263.375 197.03 263.295 196.658 263.145 196.417C262.848 195.946 262.396 195.593 261.867 195.419C261.482 195.315 261.088 195.25 260.69 195.224C260.163 195.139 259.632 195.084 259.1 195.058C258.563 195.033 258.031 195.176 257.578 195.466C257.261 195.69 256.74 196.318 256.995 196.714C257.036 196.778 257.165 196.809 257.219 196.874C257.294 196.962 257.294 197.095 257.379 197.175C257.521 197.308 257.778 197.266 257.891 197.433Z" fill="#2F2E41"/>
<path d="M260.222 192.017C260.222 192.017 256.632 193.286 256.949 195.084C257.265 196.882 258.216 198.998 260.222 198.892C262.229 198.786 263.285 196.599 263.285 196.599L262.757 193.603C262.757 193.603 260.75 192.017 260.222 192.017Z" fill="#3F3D56"/>
<path d="M259.77 198.364C259.77 198.364 261.181 196.83 261.892 197.72C261.892 197.72 261.86 197.676 259.77 198.364Z" fill="#2F2E41"/>
<path d="M262.435 237.583C260.542 237.583 258.2 236.955 255.917 234.685C250.329 229.127 245.021 228.57 244.968 228.565L244.987 228.354C245.041 228.359 250.425 228.924 256.066 234.535C258.964 237.418 261.956 237.595 263.956 237.235C265.276 236.995 266.534 236.487 267.652 235.743L267.777 235.914C266.635 236.675 265.35 237.195 264.001 237.442C263.484 237.536 262.96 237.583 262.435 237.583V237.583Z" fill="#2F2E41"/>
<path d="M247.814 233.002C248.514 233.002 249.081 232.434 249.081 231.733C249.081 231.032 248.514 230.464 247.814 230.464C247.114 230.464 246.546 231.032 246.546 231.733C246.546 232.434 247.114 233.002 247.814 233.002Z" fill="#2F2E41"/>
<path d="M256.791 238.925C257.491 238.925 258.058 238.357 258.058 237.656C258.058 236.955 257.491 236.386 256.791 236.386C256.091 236.386 255.523 236.955 255.523 237.656C255.523 238.357 256.091 238.925 256.791 238.925Z" fill="#2F2E41"/>
</svg>
