<svg width="200" height="200" viewBox="0 0 200 200" fill="none" xmlns="http://www.w3.org/2000/svg">
<g clip-path="url(#clip0_11987_31160)">
<rect width="200" height="200" rx="100" fill="#E4EBF0"/>
<path d="M21.504 52.7537C21.504 49.3019 24.3022 46.5037 27.754 46.5037H91.7129L122.917 77.7076V169.75C122.917 173.202 120.119 176 116.667 176H27.754C24.3022 176 21.504 173.202 21.504 169.75V52.7537Z" fill="#0085FF"/>
<path d="M91.7127 46.5037L122.917 77.7077H97.9627C94.5109 77.7077 91.7127 74.9094 91.7127 71.4577V46.5037Z" fill="#0048AF"/>
<path fill-rule="evenodd" clip-rule="evenodd" d="M23.5801 48.5801C22.2027 49.9576 22.2027 52.1909 23.5801 53.5683L37.6916 67.6798C39.0691 69.0573 41.3024 69.0573 42.6799 67.6798C44.0573 66.3024 44.0573 64.0691 42.6799 62.6916L28.5684 48.5801C27.1909 47.2026 24.9576 47.2026 23.5801 48.5801ZM19.1607 57.9878C15.3425 54.1695 15.3425 47.9789 19.1607 44.1607C22.979 40.3424 29.1696 40.3424 32.9878 44.1607L47.0993 58.2722C50.9175 62.0904 50.9175 68.281 47.0993 72.0992C43.2811 75.9175 37.0905 75.9175 33.2722 72.0992L19.1607 57.9878Z" fill="#0048AF"/>
<path fill-rule="evenodd" clip-rule="evenodd" d="M38.3353 113.026C38.3353 111.3 39.7344 109.901 41.4603 109.901H72.504C74.2299 109.901 75.629 111.3 75.629 113.026C75.629 114.752 74.2299 116.151 72.504 116.151H41.4603C39.7344 116.151 38.3353 114.752 38.3353 113.026Z" fill="white"/>
<path fill-rule="evenodd" clip-rule="evenodd" d="M38.5416 95.8333C38.5416 94.1074 39.9407 92.7083 41.6666 92.7083H56.2499C57.9758 92.7083 59.3749 94.1074 59.3749 95.8333C59.3749 97.5591 57.9758 98.9583 56.2499 98.9583H41.6666C39.9407 98.9583 38.5416 97.5591 38.5416 95.8333Z" fill="white"/>
<path fill-rule="evenodd" clip-rule="evenodd" d="M38.3353 130.765C38.3353 129.039 39.7344 127.64 41.4603 127.64H56.9821C58.708 127.64 60.1071 129.039 60.1071 130.765C60.1071 132.491 58.708 133.89 56.9821 133.89H41.4603C39.7344 133.89 38.3353 132.491 38.3353 130.765Z" fill="#0048AF"/>
<path fill-rule="evenodd" clip-rule="evenodd" d="M38.3353 148.505C38.3353 146.779 39.7344 145.38 41.4603 145.38H68.0691C69.795 145.38 71.1941 146.779 71.1941 148.505C71.1941 150.231 69.795 151.63 68.0691 151.63H41.4603C39.7344 151.63 38.3353 150.231 38.3353 148.505Z" fill="#0048AF"/>
<path d="M94.6782 127.878C94.6782 126.727 95.611 125.794 96.7616 125.794H101.465C102.615 125.794 103.548 126.727 103.548 127.878V132.581C103.548 133.731 102.615 134.664 101.465 134.664H96.7616C95.611 134.664 94.6782 133.731 94.6782 132.581V127.878Z" fill="#0048AF"/>
<path d="M94.6782 110.675C94.6782 109.524 95.611 108.591 96.7616 108.591H101.465C102.615 108.591 103.548 109.524 103.548 110.675V115.378C103.548 116.528 102.615 117.461 101.465 117.461H96.7616C95.611 117.461 94.6782 116.528 94.6782 115.378V110.675Z" fill="white"/>
<path d="M94.6782 146.153C94.6782 145.002 95.611 144.069 96.7616 144.069H101.465C102.615 144.069 103.548 145.002 103.548 146.153V150.856C103.548 152.006 102.615 152.939 101.465 152.939H96.7616C95.611 152.939 94.6782 152.006 94.6782 150.856V146.153Z" fill="#0048AF"/>
<path d="M202.083 118.75C199.782 118.75 197.917 116.885 197.917 114.583C197.917 112.282 199.782 110.417 202.083 110.417C204.385 110.417 206.25 112.282 206.25 114.583C206.25 116.885 204.385 118.75 202.083 118.75Z" fill="#B3BEC9"/>
<path d="M185.417 118.75C183.115 118.75 181.25 116.885 181.25 114.583C181.25 112.282 183.115 110.417 185.417 110.417C187.718 110.417 189.583 112.282 189.583 114.583C189.583 116.885 187.718 118.75 185.417 118.75Z" fill="#B3BEC9"/>
<path d="M168.75 118.75C166.449 118.75 164.583 116.885 164.583 114.583C164.583 112.282 166.449 110.417 168.75 110.417C171.051 110.417 172.917 112.282 172.917 114.583C172.917 116.885 171.051 118.75 168.75 118.75Z" fill="#F84747"/>
<path d="M152.083 118.75C149.782 118.75 147.917 116.885 147.917 114.583C147.917 112.282 149.782 110.417 152.083 110.417C154.385 110.417 156.25 112.282 156.25 114.583C156.25 116.885 154.385 118.75 152.083 118.75Z" fill="#B3BEC9"/>
<path d="M202.083 135.417C199.782 135.417 197.917 133.551 197.917 131.25C197.917 128.949 199.782 127.083 202.083 127.083C204.385 127.083 206.25 128.949 206.25 131.25C206.25 133.551 204.385 135.417 202.083 135.417Z" fill="#B3BEC9"/>
<path d="M185.417 135.417C183.115 135.417 181.25 133.551 181.25 131.25C181.25 128.949 183.115 127.083 185.417 127.083C187.718 127.083 189.583 128.949 189.583 131.25C189.583 133.551 187.718 135.417 185.417 135.417Z" fill="#B3BEC9"/>
<path d="M168.75 135.417C166.449 135.417 164.583 133.551 164.583 131.25C164.583 128.949 166.449 127.083 168.75 127.083C171.051 127.083 172.917 128.949 172.917 131.25C172.917 133.551 171.051 135.417 168.75 135.417Z" fill="#B3BEC9"/>
<path d="M152.083 135.417C149.782 135.417 147.917 133.551 147.917 131.25C147.917 128.949 149.782 127.083 152.083 127.083C154.385 127.083 156.25 128.949 156.25 131.25C156.25 133.551 154.385 135.417 152.083 135.417Z" fill="#B3BEC9"/>
<path d="M202.083 152.083C199.782 152.083 197.917 150.218 197.917 147.917C197.917 145.615 199.782 143.75 202.083 143.75C204.385 143.75 206.25 145.615 206.25 147.917C206.25 150.218 204.385 152.083 202.083 152.083Z" fill="#B3BEC9"/>
<path d="M185.417 152.083C183.115 152.083 181.25 150.218 181.25 147.917C181.25 145.615 183.115 143.75 185.417 143.75C187.718 143.75 189.583 145.615 189.583 147.917C189.583 150.218 187.718 152.083 185.417 152.083Z" fill="#B3BEC9"/>
<path d="M168.75 152.083C166.449 152.083 164.583 150.218 164.583 147.917C164.583 145.615 166.449 143.75 168.75 143.75C171.051 143.75 172.917 145.615 172.917 147.917C172.917 150.218 171.051 152.083 168.75 152.083Z" fill="#B3BEC9"/>
<path d="M152.083 152.083C149.782 152.083 147.917 150.218 147.917 147.917C147.917 145.615 149.782 143.75 152.083 143.75C154.385 143.75 156.25 145.615 156.25 147.917C156.25 150.218 154.385 152.083 152.083 152.083Z" fill="#B3BEC9"/>
<path d="M202.083 168.75C199.782 168.75 197.917 166.885 197.917 164.583C197.917 162.282 199.782 160.417 202.083 160.417C204.385 160.417 206.25 162.282 206.25 164.583C206.25 166.885 204.385 168.75 202.083 168.75Z" fill="#B3BEC9"/>
<path d="M185.417 168.75C183.115 168.75 181.25 166.885 181.25 164.583C181.25 162.282 183.115 160.417 185.417 160.417C187.718 160.417 189.583 162.282 189.583 164.583C189.583 166.885 187.718 168.75 185.417 168.75Z" fill="#B3BEC9"/>
<path d="M168.75 168.75C166.449 168.75 164.583 166.885 164.583 164.583C164.583 162.282 166.449 160.417 168.75 160.417C171.051 160.417 172.917 162.282 172.917 164.583C172.917 166.885 171.051 168.75 168.75 168.75Z" fill="#B3BEC9"/>
<path d="M152.083 168.75C149.782 168.75 147.917 166.885 147.917 164.583C147.917 162.282 149.782 160.417 152.083 160.417C154.385 160.417 156.25 162.282 156.25 164.583C156.25 166.885 154.385 168.75 152.083 168.75Z" fill="#1C9E59"/>
<path d="M202.083 185.417C199.782 185.417 197.917 183.551 197.917 181.25C197.917 178.949 199.782 177.083 202.083 177.083C204.385 177.083 206.25 178.949 206.25 181.25C206.25 183.551 204.385 185.417 202.083 185.417Z" fill="#B3BEC9"/>
<path d="M185.417 185.417C183.115 185.417 181.25 183.551 181.25 181.25C181.25 178.949 183.115 177.083 185.417 177.083C187.718 177.083 189.583 178.949 189.583 181.25C189.583 183.551 187.718 185.417 185.417 185.417Z" fill="#B3BEC9"/>
<path d="M168.75 185.417C166.449 185.417 164.583 183.551 164.583 181.25C164.583 178.949 166.449 177.083 168.75 177.083C171.051 177.083 172.917 178.949 172.917 181.25C172.917 183.551 171.051 185.417 168.75 185.417Z" fill="#B3BEC9"/>
<path d="M152.083 185.417C149.782 185.417 147.917 183.551 147.917 181.25C147.917 178.949 149.782 177.083 152.083 177.083C154.385 177.083 156.25 178.949 156.25 181.25C156.25 183.551 154.385 185.417 152.083 185.417Z" fill="#B3BEC9"/>
<path d="M202.083 202.083C199.782 202.083 197.917 200.218 197.917 197.917C197.917 195.615 199.782 193.75 202.083 193.75C204.385 193.75 206.25 195.615 206.25 197.917C206.25 200.218 204.385 202.083 202.083 202.083Z" fill="#B3BEC9"/>
<path d="M185.417 202.083C183.115 202.083 181.25 200.218 181.25 197.917C181.25 195.615 183.115 193.75 185.417 193.75C187.718 193.75 189.583 195.615 189.583 197.917C189.583 200.218 187.718 202.083 185.417 202.083Z" fill="#B3BEC9"/>
<path d="M168.75 202.083C166.449 202.083 164.583 200.218 164.583 197.917C164.583 195.615 166.449 193.75 168.75 193.75C171.051 193.75 172.917 195.615 172.917 197.917C172.917 200.218 171.051 202.083 168.75 202.083Z" fill="#B3BEC9"/>
<path d="M152.083 202.083C149.782 202.083 147.917 200.218 147.917 197.917C147.917 195.615 149.782 193.75 152.083 193.75C154.385 193.75 156.25 195.615 156.25 197.917C156.25 200.218 154.385 202.083 152.083 202.083Z" fill="#B3BEC9"/>
<path d="M151.916 44.2638C154.793 39.2816 161.164 37.5745 166.146 40.451C171.128 43.3275 172.835 49.6982 169.959 54.6804L133.057 118.597C131.551 121.204 129.367 123.355 126.737 124.821L116.066 130.769C114.689 131.536 112.992 130.557 112.968 128.981L112.783 116.765C112.738 113.755 113.509 110.788 115.014 108.18L151.916 44.2638Z" fill="#FFAE41"/>
<path d="M148.792 49.6765L166.834 60.0932L162.7 67.2533L144.658 56.8366L148.792 49.6765Z" fill="#DC893C"/>
</g>
<defs>
<clipPath id="clip0_11987_31160">
<rect width="200" height="200" rx="100" fill="white"/>
</clipPath>
</defs>
</svg>
