<svg width="241" height="168" viewBox="0 0 241 168" fill="none" xmlns="http://www.w3.org/2000/svg">
<path d="M45.8375 36.715C53.4274 36.715 59.5802 30.5621 59.5802 22.9722C59.5802 15.3823 53.4274 9.22949 45.8375 9.22949C38.2476 9.22949 32.0947 15.3823 32.0947 22.9722C32.0947 30.5621 38.2476 36.715 45.8375 36.715Z" fill="#FF6584"/>
<path d="M112.701 74.5331C112.701 106.96 93.4243 118.282 69.6447 118.282C45.8651 118.282 26.5879 106.96 26.5879 74.5331C26.5879 42.1064 69.6447 0.854492 69.6447 0.854492C69.6447 0.854492 112.701 42.1064 112.701 74.5331Z" fill="#F2F2F2"/>
<path d="M68.0759 113.322L68.5169 86.1836L86.8686 52.6097L68.5861 81.9264L68.7842 69.7239L81.4323 45.4336L68.8366 66.4948L69.1931 44.548L82.737 25.2099L69.2494 41.0969L69.472 0.854492L68.072 54.1282L68.1871 51.9305L54.4171 30.8532L67.9663 56.1493L66.6833 80.6599L66.6451 80.0095L50.7705 57.8287L66.597 82.3077L66.4366 85.373L66.4078 85.4192L66.4209 85.6708L63.1658 147.857H67.515L68.0368 115.736L83.8242 91.3172L68.0759 113.322Z" fill="#3F3D56"/>
<path d="M240.812 87.8144C240.812 114.357 225.033 123.625 205.568 123.625C186.104 123.625 170.324 114.357 170.324 87.8144C170.324 61.2716 205.568 27.5049 205.568 27.5049C205.568 27.5049 240.812 61.2716 240.812 87.8144Z" fill="#F2F2F2"/>
<path d="M204.284 119.565L204.645 97.3509L219.667 69.869L204.702 93.866L204.864 83.8778L215.217 63.9949L204.907 81.2345L205.199 63.2702L216.285 47.4409L205.245 60.4454L205.427 27.5049L204.281 71.1119L204.376 69.3131L193.104 52.0602L204.195 72.7664L203.144 92.8295L203.113 92.297L190.119 74.1409L203.074 94.1782L202.942 96.6873L202.919 96.7251L202.93 96.9311L200.265 147.833H203.825L204.252 121.541L217.175 101.553L204.284 119.565Z" fill="#3F3D56"/>
<path d="M119.275 152.994C185.046 152.994 238.363 150.299 238.363 146.974C238.363 143.649 185.046 140.954 119.275 140.954C53.5049 140.954 0.1875 143.649 0.1875 146.974C0.1875 150.299 53.5049 152.994 119.275 152.994Z" fill="#3F3D56"/>
<path d="M191.822 157.951C203.087 157.951 212.219 157.489 212.219 156.92C212.219 156.35 203.087 155.889 191.822 155.889C180.557 155.889 171.425 156.35 171.425 156.92C171.425 157.489 180.557 157.951 191.822 157.951Z" fill="#3F3D56"/>
<path d="M118.014 167.897C129.279 167.897 138.411 167.435 138.411 166.866C138.411 166.297 129.279 165.835 118.014 165.835C106.749 165.835 97.6172 166.297 97.6172 166.866C97.6172 167.435 106.749 167.897 118.014 167.897Z" fill="#3F3D56"/>
<path d="M62.0175 160.882C87.7538 160.882 108.617 159.827 108.617 158.526C108.617 157.226 87.7538 156.171 62.0175 156.171C36.2813 156.171 15.418 157.226 15.418 158.526C15.418 159.827 36.2813 160.882 62.0175 160.882Z" fill="#3F3D56"/>
<path d="M21.034 139.414C30.4028 139.414 37.9977 131.819 37.9977 122.45C37.9977 113.081 30.4028 105.486 21.034 105.486C11.6652 105.486 4.07031 113.081 4.07031 122.45C4.07031 131.819 11.6652 139.414 21.034 139.414Z" fill="#2F2E41"/>
<path d="M18.3006 135.732L13.1475 135.671L13.0387 144.904L18.1918 144.964L18.3006 135.732Z" fill="#2F2E41"/>
<path d="M28.6073 135.853L23.4541 135.792L23.3453 145.025L28.4985 145.085L28.6073 135.853Z" fill="#2F2E41"/>
<path d="M21.6261 145.113C21.6366 144.224 19.7225 143.48 17.3508 143.452C14.9791 143.424 13.048 144.122 13.0375 145.012C13.0271 145.901 14.9412 146.645 17.3129 146.673C19.6845 146.701 21.6157 146.002 21.6261 145.113Z" fill="#2F2E41"/>
<path d="M31.9357 145.019C31.9462 144.13 30.0321 143.386 27.6604 143.358C25.2887 143.33 23.3576 144.029 23.3471 144.918C23.3366 145.807 25.2508 146.551 27.6224 146.579C29.9941 146.607 31.9252 145.909 31.9357 145.019Z" fill="#2F2E41"/>
<path d="M21.5155 123.958C24.7175 123.958 27.3132 121.362 27.3132 118.16C27.3132 114.958 24.7175 112.362 21.5155 112.362C18.3135 112.362 15.7178 114.958 15.7178 118.16C15.7178 121.362 18.3135 123.958 21.5155 123.958Z" fill="white"/>
<path d="M21.5156 120.093C22.5829 120.093 23.4482 119.227 23.4482 118.16C23.4482 117.093 22.5829 116.228 21.5156 116.228C20.4483 116.228 19.583 117.093 19.583 118.16C19.583 119.227 20.4483 120.093 21.5156 120.093Z" fill="#3F3D56"/>
<path d="M4.76578 106.481C3.46841 100.331 7.91965 94.1846 14.7079 92.7526C21.4962 91.3206 28.0508 95.1453 29.3482 101.295C30.6456 107.445 26.1319 109.655 19.3437 111.087C12.5554 112.519 6.06315 112.631 4.76578 106.481Z" fill="#6C63FF"/>
<path d="M46.9104 131.913C46.9104 143.74 39.8801 147.869 31.2071 147.869C31.0062 147.869 30.8056 147.867 30.6053 147.863C30.2035 147.854 29.8055 147.835 29.4123 147.808C21.5851 147.254 15.5039 142.912 15.5039 131.913C15.5039 120.531 30.0495 106.168 31.1421 105.105L31.144 105.103C31.1861 105.062 31.2071 105.042 31.2071 105.042C31.2071 105.042 46.9104 120.087 46.9104 131.913Z" fill="#6C63FF"/>
<path d="M30.636 146.06L36.3793 138.035L30.6216 146.941L30.6063 147.863C30.2045 147.854 29.8064 147.835 29.4132 147.808L30.0322 135.976L30.0275 135.884L30.038 135.867L30.0963 134.749L24.3242 125.821L30.1145 133.911L30.1279 134.148L30.5958 125.208L25.6541 115.982L30.656 123.639L31.143 105.105L31.1449 105.042V105.103L31.0636 119.719L35.9833 113.925L31.0435 120.978L30.9134 128.982L35.5068 121.3L30.8943 130.16L30.8216 134.61L37.4902 123.918L30.7967 136.162L30.636 146.06Z" fill="#3F3D56"/>
<path d="M153.18 139.23C162.548 139.23 170.143 131.635 170.143 122.266C170.143 112.898 162.548 105.303 153.18 105.303C143.811 105.303 136.216 112.898 136.216 122.266C136.216 131.635 143.811 139.23 153.18 139.23Z" fill="#2F2E41"/>
<path d="M154.627 135.749L149.701 137.263L152.414 146.089L157.34 144.575L154.627 135.749Z" fill="#2F2E41"/>
<path d="M164.48 132.722L159.554 134.236L162.266 143.062L167.192 141.548L164.48 132.722Z" fill="#2F2E41"/>
<path d="M157.023 146.47C159.29 145.773 160.916 144.519 160.655 143.669C160.394 142.818 158.344 142.694 156.077 143.391C153.81 144.088 152.183 145.342 152.445 146.192C152.706 147.042 154.756 147.166 157.023 146.47Z" fill="#2F2E41"/>
<path d="M166.813 143.236C169.08 142.539 170.706 141.285 170.445 140.435C170.184 139.585 168.134 139.461 165.867 140.157C163.6 140.854 161.974 142.108 162.235 142.958C162.496 143.809 164.546 143.933 166.813 143.236Z" fill="#2F2E41"/>
<path d="M152.329 123.833C155.531 123.833 158.127 121.237 158.127 118.035C158.127 114.833 155.531 112.237 152.329 112.237C149.127 112.237 146.531 114.833 146.531 118.035C146.531 121.237 149.127 123.833 152.329 123.833Z" fill="white"/>
<path d="M152.329 119.968C153.396 119.968 154.262 119.102 154.262 118.035C154.262 116.968 153.396 116.103 152.329 116.103C151.262 116.103 150.396 116.968 150.396 118.035C150.396 119.102 151.262 119.968 152.329 119.968Z" fill="#3F3D56"/>
<path d="M132.816 112.021C129.705 106.56 132.069 99.3485 138.097 95.9143C144.125 92.48 151.534 94.1233 154.645 99.5846C157.757 105.046 154.132 108.527 148.104 111.961C142.076 115.395 135.927 117.482 132.816 112.021Z" fill="#6C63FF"/>
<path d="M122.926 129.748C122.926 140.604 116.473 144.395 108.512 144.395C108.327 144.395 108.143 144.392 107.959 144.388C107.59 144.38 107.225 144.363 106.864 144.338C99.6789 143.83 94.0967 139.844 94.0967 129.748C94.0967 119.299 107.449 106.115 108.452 105.139L108.454 105.137C108.492 105.1 108.512 105.081 108.512 105.081C108.512 105.081 122.926 118.892 122.926 129.748Z" fill="#6C63FF"/>
<path d="M107.985 142.734L113.257 135.367L107.972 143.543L107.958 144.388C107.589 144.38 107.224 144.363 106.863 144.338L107.431 133.477L107.427 133.393L107.436 133.377L107.49 132.351L102.191 124.155L107.507 131.582L107.519 131.799L107.948 123.593L103.412 115.124L108.004 122.153L108.451 105.139L108.452 105.081V105.137L108.378 118.554L112.894 113.235L108.359 119.709L108.24 127.057L112.456 120.005L108.222 128.138L108.156 132.223L114.277 122.408L108.133 133.648L107.985 142.734Z" fill="#3F3D56"/>
<path d="M179.614 134.276C179.614 146.102 172.584 150.232 163.911 150.232C163.71 150.232 163.51 150.229 163.309 150.225C162.908 150.216 162.51 150.197 162.116 150.17C154.289 149.616 148.208 145.275 148.208 134.276C148.208 122.893 162.754 108.53 163.846 107.467L163.848 107.466C163.89 107.424 163.911 107.404 163.911 107.404C163.911 107.404 179.614 122.449 179.614 134.276Z" fill="#6C63FF"/>
<path d="M163.34 148.422L169.083 140.397L163.326 149.303L163.31 150.225C162.909 150.216 162.511 150.197 162.117 150.17L162.736 138.338L162.732 138.246L162.742 138.229L162.8 137.112L157.028 128.183L162.819 136.273L162.832 136.511L163.3 127.571L158.358 118.345L163.36 126.002L163.847 107.467L163.849 107.404V107.466L163.768 122.081L168.687 116.287L163.748 123.34L163.618 131.344L168.211 123.662L163.598 132.522L163.526 136.972L170.194 126.28L163.501 138.525L163.34 148.422Z" fill="#3F3D56"/>
<path d="M154.257 132.421C154.887 131.093 151.967 128.388 147.735 126.381C143.502 124.373 139.56 123.823 138.93 125.152C138.3 126.48 141.22 129.185 145.453 131.192C149.685 133.2 153.627 133.75 154.257 132.421Z" fill="#2F2E41"/>
<path d="M23.6956 130.868C24.2427 129.503 21.1614 126.984 16.8133 125.241C12.4651 123.498 8.49675 123.192 7.94963 124.557C7.40251 125.922 10.4838 128.441 14.832 130.184C19.1801 131.927 23.1485 132.233 23.6956 130.868Z" fill="#2F2E41"/>
</svg>
