<svg width="20" height="20" viewBox="0 0 20 20" fill="none" xmlns="http://www.w3.org/2000/svg">
<g clip-path="url(#clip0_2539_14012)">
<path d="M6.1111 9.16699L5.55554 10.8892H6.66665L6.1111 9.16699Z" fill="black"/>
<path d="M18.0645 0.833008H7.74194V3.98307H10.3226V5.24309H1.93548C0.83871 5.24309 0 6.0621 0 7.13312V14.0632C0 15.1343 0.83871 15.9533 1.93548 15.9533H2.58065V19.1663L6.64516 15.9533H10.9677V11.5432H18.0645C19.1613 11.5432 20 10.7242 20 9.65317V2.72304C20 1.65202 19.1613 0.833008 18.0645 0.833008ZM6.96774 13.3702L6.64516 12.3622H4.64516L4.25806 13.3702H2.70968L4.83871 7.76313H6.3871L8.51613 13.3702H6.96774ZM16.7742 8.39315V9.65317C15.9355 9.65317 15.0323 9.40116 14.2581 9.02316C13.4839 9.40116 12.5806 9.59017 11.6774 9.65317L11.6129 8.39315C12.0645 8.39315 12.5161 8.33014 12.9677 8.20414C12.3871 7.63713 12 6.94412 11.8065 6.18811H13.1613C13.3548 6.75512 13.7419 7.19612 14.1935 7.57413C14.9032 7.00712 15.3548 6.18811 15.4194 5.24309H11.5484V3.98307H13.4839V2.72304H14.7742V3.98307H16.9032L16.9677 4.61308C17.0323 5.9361 16.5161 7.25913 15.5484 8.20414C16 8.33014 16.3871 8.39315 16.7742 8.39315Z" fill="#637381"/>
</g>
<defs>
<clipPath id="clip0_2539_14012">
<rect width="20" height="20" fill="white"/>
</clipPath>
</defs>
</svg>
