<svg width="25" height="24" viewBox="0 0 25 24" fill="none" xmlns="http://www.w3.org/2000/svg">
<path d="M21.4994 16.4765V19.1862C21.5005 19.4377 21.4488 19.6867 21.3479 19.9172C21.2469 20.1477 21.0988 20.3546 20.9131 20.5247C20.7273 20.6947 20.508 20.8242 20.2693 20.9048C20.0305 20.9854 19.7775 21.0153 19.5265 20.9927C16.7415 20.6907 14.0664 19.7409 11.716 18.2197C9.52929 16.8329 7.67534 14.9827 6.2858 12.8003C4.75627 10.4439 3.80442 7.76107 3.50735 4.96915C3.48473 4.71938 3.51447 4.46764 3.59468 4.22996C3.67489 3.99229 3.80381 3.77389 3.97323 3.58866C4.14265 3.40343 4.34885 3.25544 4.57872 3.15411C4.80858 3.05278 5.05707 3.00032 5.30837 3.00009H8.02347C8.46269 2.99577 8.8885 3.151 9.22152 3.43683C9.55455 3.72267 9.77207 4.11961 9.83354 4.55366C9.94814 5.42084 10.1607 6.27229 10.4671 7.09177C10.5888 7.41507 10.6152 7.76642 10.543 8.1042C10.4708 8.44198 10.3031 8.75203 10.0598 8.99761L8.91041 10.1447C10.1988 12.406 12.0748 14.2784 14.3406 15.5642L15.49 14.4171C15.7361 14.1742 16.0467 14.0069 16.3852 13.9348C16.7236 13.8628 17.0757 13.8891 17.3996 14.0106C18.2207 14.3164 19.0739 14.5285 19.9428 14.6429C20.3824 14.7048 20.7839 14.9258 21.0709 15.2638C21.358 15.6019 21.5105 16.0335 21.4994 16.4765Z" stroke="#637381" stroke-width="2" stroke-linecap="round" stroke-linejoin="round"/>
</svg>
