<svg width="17" height="17" viewBox="0 0 17 17" fill="none" xmlns="http://www.w3.org/2000/svg">
<g clip-path="url(#clip0_5581:4732)">
<path d="M13.8491 6.05769H12.8395V4.71153C12.8395 2.11357 10.726 0 8.12801 0C5.53001 0 3.41648 2.11357 3.41648 4.71153V6.05769H2.40686C2.22084 6.05769 2.07031 6.20822 2.07031 6.39424V14.8077C2.07031 15.5501 2.67403 16.1538 3.41648 16.1538H12.8396C13.582 16.1538 14.1857 15.5501 14.1857 14.8077V6.39424C14.1857 6.20822 14.0352 6.05769 13.8491 6.05769ZM9.13566 13.0879C9.14617 13.1828 9.11563 13.2781 9.05187 13.3495C8.9881 13.4208 8.89673 13.4615 8.8011 13.4615H7.45494C7.35931 13.4615 7.26794 13.4208 7.20417 13.3495C7.14041 13.2782 7.10984 13.1829 7.12038 13.0879L7.33268 11.1787C6.98793 10.928 6.78187 10.5313 6.78187 10.0962C6.78187 9.35374 7.38559 8.74999 8.12804 8.74999C8.87048 8.74999 9.4742 9.35371 9.4742 10.0962C9.4742 10.5313 9.26814 10.928 8.92339 11.1787L9.13566 13.0879ZM10.8203 6.05769H5.43571V4.71153C5.43571 3.22701 6.64349 2.01923 8.12801 2.01923C9.61252 2.01923 10.8203 3.22701 10.8203 4.71153V6.05769Z" fill="#4F4F4F"/>
</g>
<defs>
<clipPath id="clip0_5581:4732">
<rect width="16.1538" height="16.1538" fill="white"/>
</clipPath>
</defs>
</svg>
