<svg width="200" height="200" viewBox="0 0 200 200" fill="none" xmlns="http://www.w3.org/2000/svg">
<g clip-path="url(#clip0_9376_31654)">
<rect width="200" height="200" rx="100" fill="#E4EBF0"/>
<path d="M97.689 53.6692L72.2656 44.0155L121.149 10.4166L63.2839 40.9335L47.2997 36.0688L121.149 10.4166L97.689 53.6692Z" fill="#F84747"/>
<path d="M72.7313 64.0154L63.2841 40.9333L121.15 10.4164L73.7878 43.6075L72.7313 64.0154Z" fill="#B92929"/>
<path d="M86.2708 47.5807L72.7314 64.0153L73.7878 43.6073L86.2708 47.5807Z" fill="#F84747"/>
<rect x="-4.1662" y="86.41" width="123.587" height="82.3912" rx="4.16667" transform="rotate(-8.24909 -4.1662 86.41)" fill="#59059B"/>
<rect x="9.74677" y="89.5482" width="123.587" height="82.3912" rx="4.16667" fill="#9C1EFF"/>
<mask id="mask0_9376_31654" style="mask-type:alpha" maskUnits="userSpaceOnUse" x="9" y="89" width="125" height="83">
<rect x="9.74677" y="89.5482" width="123.587" height="82.3912" rx="4.16667" fill="#9C1EFF"/>
</mask>
<g mask="url(#mask0_9376_31654)">
<path d="M71.5402 133.318L133.334 171.939H9.7468L71.5402 133.318Z" fill="#59059B"/>
</g>
<path d="M117.885 104.997L72.6467 135.156C71.9717 135.605 71.0969 135.623 70.4047 135.2L25.1948 107.571" stroke="white" stroke-width="6.25" stroke-linecap="round"/>
<circle cx="152.084" cy="191.667" r="4.16667" transform="rotate(-90 152.084 191.667)" fill="#B3BEC9"/>
<circle cx="168.75" cy="191.667" r="4.16667" transform="rotate(-90 168.75 191.667)" fill="#B3BEC9"/>
<circle cx="185.417" cy="191.667" r="4.16667" transform="rotate(-90 185.417 191.667)" fill="#B3BEC9"/>
<circle cx="202.084" cy="191.667" r="4.16667" transform="rotate(-90 202.084 191.667)" fill="#B3BEC9"/>
<circle cx="152.084" cy="175" r="4.16667" transform="rotate(-90 152.084 175)" fill="#B3BEC9"/>
<circle cx="168.75" cy="175" r="4.16667" transform="rotate(-90 168.75 175)" fill="#B3BEC9"/>
<circle cx="185.417" cy="175" r="4.16667" transform="rotate(-90 185.417 175)" fill="#B3BEC9"/>
<circle cx="202.084" cy="175" r="4.16667" transform="rotate(-90 202.084 175)" fill="#B3BEC9"/>
<circle cx="152.084" cy="158.334" r="4.16667" transform="rotate(-90 152.084 158.334)" fill="#B3BEC9"/>
<circle cx="152.084" cy="141.667" r="4.16667" transform="rotate(-90 152.084 141.667)" fill="#B3BEC9"/>
<circle cx="152.084" cy="125" r="4.16667" transform="rotate(-90 152.084 125)" fill="#B3BEC9"/>
<circle cx="152.084" cy="108.334" r="4.16667" transform="rotate(-90 152.084 108.334)" fill="#1C9E59"/>
<circle cx="152.084" cy="91.6671" r="4.16667" transform="rotate(-90 152.084 91.6671)" fill="#B3BEC9"/>
<circle cx="152.084" cy="75.0005" r="4.16667" transform="rotate(-90 152.084 75.0005)" fill="#B3BEC9"/>
<circle cx="168.75" cy="158.334" r="4.16667" transform="rotate(-90 168.75 158.334)" fill="#B3BEC9"/>
<circle cx="168.75" cy="141.667" r="4.16667" transform="rotate(-90 168.75 141.667)" fill="#B3BEC9"/>
<circle cx="168.75" cy="125" r="4.16667" transform="rotate(-90 168.75 125)" fill="#B3BEC9"/>
<circle cx="168.75" cy="108.334" r="4.16667" transform="rotate(-90 168.75 108.334)" fill="#B3BEC9"/>
<circle cx="168.75" cy="91.6671" r="4.16667" transform="rotate(-90 168.75 91.6671)" fill="#B3BEC9"/>
<circle cx="168.75" cy="75.0005" r="4.16667" transform="rotate(-90 168.75 75.0005)" fill="#B3BEC9"/>
<circle cx="185.417" cy="158.334" r="4.16667" transform="rotate(-90 185.417 158.334)" fill="#B3BEC9"/>
<circle cx="202.084" cy="158.334" r="4.16667" transform="rotate(-90 202.084 158.334)" fill="#B3BEC9"/>
<circle cx="185.417" cy="141.667" r="4.16667" transform="rotate(-90 185.417 141.667)" fill="#B3BEC9"/>
<circle cx="202.084" cy="141.667" r="4.16667" transform="rotate(-90 202.084 141.667)" fill="#B3BEC9"/>
<circle cx="185.417" cy="125" r="4.16667" transform="rotate(-90 185.417 125)" fill="#B3BEC9"/>
<circle cx="202.084" cy="125" r="4.16667" transform="rotate(-90 202.084 125)" fill="#B3BEC9"/>
<circle cx="185.417" cy="108.334" r="4.16667" transform="rotate(-90 185.417 108.334)" fill="#B3BEC9"/>
<circle cx="202.084" cy="108.334" r="4.16667" transform="rotate(-90 202.084 108.334)" fill="#B3BEC9"/>
<circle cx="185.417" cy="91.6671" r="4.16667" transform="rotate(-90 185.417 91.6671)" fill="#B3BEC9"/>
<circle cx="202.084" cy="91.6671" r="4.16667" transform="rotate(-90 202.084 91.6671)" fill="#B3BEC9"/>
<circle cx="185.417" cy="75.0005" r="4.16667" transform="rotate(-90 185.417 75.0005)" fill="#EBA210"/>
<circle cx="202.084" cy="75.0005" r="4.16667" transform="rotate(-90 202.084 75.0005)" fill="#B3BEC9"/>
</g>
<defs>
<clipPath id="clip0_9376_31654">
<rect width="200" height="200" rx="100" fill="white"/>
</clipPath>
</defs>
</svg>
