<svg width="24" height="24" viewBox="0 0 24 24" fill="none" xmlns="http://www.w3.org/2000/svg">
<path d="M5.25 17.7778C2.35051 17.7778 0 15.4563 0 12.5926C0 9.91352 2.05719 7.709 4.69652 7.43588C4.56829 6.95381 4.5 6.44774 4.5 5.92593C4.5 2.65313 7.18629 0 10.5 0C13.3183 0 15.6827 1.91908 16.3267 4.50629C16.6286 4.46551 16.9368 4.44444 17.25 4.44444C20.9779 4.44444 24 7.42921 24 11.1111C24 14.793 20.9779 17.7778 17.25 17.7778H13.5V12.4655L15.4393 14.3809C16.0251 14.9595 16.9749 14.9595 17.5607 14.3809C18.1464 13.8023 18.1464 12.8643 17.5607 12.2858L13.0607 7.84132C12.4749 7.26277 11.5251 7.26277 10.9393 7.84132L6.43934 12.2858C5.85355 12.8643 5.85355 13.8023 6.43934 14.3809C7.02513 14.9595 7.97487 14.9595 8.56066 14.3809L10.5 12.4655L10.5 17.7778H5.25Z" fill="#637381"/>
<path d="M10.5 17.7778H13.5L13.5 22.5185C13.5 23.3367 12.8284 24 12 24C11.1716 24 10.5 23.3367 10.5 22.5185L10.5 17.7778Z" fill="#637381"/>
</svg>
