<svg width="20" height="20" viewBox="0 0 20 20" fill="none" xmlns="http://www.w3.org/2000/svg">
<path d="M10 0C8.02219 0 6.08879 0.58649 4.4443 1.6853C2.79981 2.78412 1.51809 4.3459 0.761209 6.17317C0.00433284 8.00043 -0.193701 10.0111 0.192152 11.9509C0.578004 13.8907 1.53041 15.6725 2.92894 17.0711C4.32746 18.4696 6.10929 19.422 8.0491 19.8079C9.98891 20.1937 11.9996 19.9957 13.8268 19.2388C15.6541 18.4819 17.2159 17.2002 18.3147 15.5557C19.4135 13.9112 20 11.9778 20 10C20 8.68678 19.7413 7.38642 19.2388 6.17317C18.7363 4.95991 17.9997 3.85752 17.0711 2.92893C16.1425 2.00035 15.0401 1.26375 13.8268 0.761205C12.6136 0.258658 11.3132 0 10 0ZM13.707 12.293C13.8025 12.3852 13.8787 12.4956 13.9311 12.6176C13.9835 12.7396 14.0111 12.8708 14.0123 13.0036C14.0134 13.1364 13.9881 13.2681 13.9378 13.391C13.8875 13.5139 13.8133 13.6255 13.7194 13.7194C13.6255 13.8133 13.5139 13.8875 13.391 13.9378C13.2681 13.9881 13.1364 14.0134 13.0036 14.0123C12.8708 14.0111 12.7396 13.9835 12.6176 13.9311C12.4956 13.8787 12.3853 13.8025 12.293 13.707L10 11.414L7.707 13.707C7.5184 13.8892 7.2658 13.99 7.0036 13.9877C6.74141 13.9854 6.49059 13.8802 6.30519 13.6948C6.11978 13.5094 6.01461 13.2586 6.01233 12.9964C6.01005 12.7342 6.11085 12.4816 6.293 12.293L8.58601 10L6.293 7.707C6.11085 7.5184 6.01005 7.2658 6.01233 7.0036C6.01461 6.7414 6.11978 6.49059 6.30519 6.30518C6.49059 6.11977 6.74141 6.0146 7.0036 6.01233C7.2658 6.01005 7.5184 6.11084 7.707 6.293L10 8.586L12.293 6.293C12.4816 6.11084 12.7342 6.01005 12.9964 6.01233C13.2586 6.0146 13.5094 6.11977 13.6948 6.30518C13.8802 6.49059 13.9854 6.7414 13.9877 7.0036C13.99 7.2658 13.8892 7.5184 13.707 7.707L11.414 10L13.707 12.293Z" fill="#637381"/>
</svg>
