<svg width="241" height="150" viewBox="0 0 241 150" fill="none" xmlns="http://www.w3.org/2000/svg">
<path d="M5.28299 98.2267C6.80422 101.052 10.0328 102.265 10.0328 102.265C10.0328 102.265 10.795 98.897 9.27377 96.0716C7.75254 93.2461 4.52395 92.0332 4.52395 92.0332C4.52395 92.0332 3.76176 95.4013 5.28299 98.2267Z" fill="#3F3D56"/>
<path d="M6.32907 97.2971C9.07552 98.952 10.1333 102.239 10.1333 102.239C10.1333 102.239 6.73813 102.843 3.99168 101.188C1.24524 99.5332 0.1875 96.2462 0.1875 96.2462C0.1875 96.2462 3.58262 95.6422 6.32907 97.2971Z" fill="#6C63FF"/>
<path d="M150.107 51.3515C150.107 73.9427 136.697 81.8308 120.155 81.8308C103.613 81.8308 90.2031 73.9427 90.2031 51.3515C90.2031 28.7602 120.155 0.0205078 120.155 0.0205078C120.155 0.0205078 150.107 28.7602 150.107 51.3515Z" fill="#F2F2F2"/>
<path d="M119.064 78.375L119.37 59.468L132.137 36.0776L119.418 56.5021L119.556 48.0009L128.355 31.0781L119.593 45.7511L119.841 30.4612L129.262 16.9885L119.88 28.0568L120.035 0.0205078L119.061 37.1356L119.141 35.6046L109.562 20.9201L118.987 38.5437L118.095 55.6199L118.068 55.1667L107.025 39.7137L118.035 56.7679L117.923 58.9035L117.903 58.9356L117.912 59.111L115.648 102.435H118.673L119.036 80.0571L130.019 63.0447L119.064 78.375Z" fill="#3F3D56"/>
<path d="M233.852 51.3515C233.852 73.9427 220.442 81.8308 203.9 81.8308C187.358 81.8308 173.948 73.9427 173.948 51.3515C173.948 28.7602 203.9 0.0205078 203.9 0.0205078C203.9 0.0205078 233.852 28.7602 233.852 51.3515Z" fill="#F2F2F2"/>
<path d="M202.809 78.375L203.115 59.468L215.882 36.0776L203.163 56.5021L203.301 48.0009L212.1 31.0781L203.338 45.7511L203.586 30.4612L213.008 16.9885L203.625 28.0568L203.78 0.0205078L202.806 37.1356L202.886 35.6046L193.307 20.9201L202.732 38.5437L201.84 55.6199L201.813 55.1667L190.771 39.7137L201.78 56.7679L201.668 58.9035L201.648 58.9356L201.658 59.111L199.393 102.435H202.418L202.781 80.0571L213.764 63.0447L202.809 78.375Z" fill="#3F3D56"/>
<path d="M23.226 69.4808C29.5538 69.4808 34.6835 64.3434 34.6835 58.006C34.6835 51.6687 29.5538 46.5312 23.226 46.5312C16.8982 46.5312 11.7686 51.6687 11.7686 58.006C11.7686 64.3434 16.8982 69.4808 23.226 69.4808Z" fill="#FF6584"/>
<path d="M8.68967 79.5895L7.00781 76.7821L22.7054 63.3066H63.071V67.237L48.4946 82.9583L31.6756 86.3274L8.68967 79.5895Z" fill="#3F3D56"/>
<path d="M70.0187 71.2144V62.4297H64.7339V65.1998L63.0702 63.3064L49.6149 76.7818L47.3724 79.0278L44.5693 90.2575L49.6149 102.61H75.4041V77.3434L70.0187 71.2144Z" fill="#CCCCCC"/>
<path d="M49.6149 76.7822H7.00684V102.61H49.6149V76.7822Z" fill="#F2F2F2"/>
<path d="M43.7279 84.9238H34.7578V92.7846H43.7279V84.9238Z" fill="#3F3D56"/>
<path d="M31.1145 84.6426H23.2656V102.61H31.1145V84.6426Z" fill="#CCCCCC"/>
<path d="M14.2954 87.4508V84.6436H10.9316V87.4508H14.015H14.2954Z" fill="#3F3D56"/>
<path d="M14.015 89.6963H10.9316V92.5038H14.2954V89.6963H14.015Z" fill="#3F3D56"/>
<path d="M19.9019 84.6426H16.5381V87.45H19.9019V84.6426Z" fill="#3F3D56"/>
<path d="M19.9019 89.6963H16.5381V92.5037H19.9019V89.6963Z" fill="#3F3D56"/>
<path d="M61.6696 87.7311V84.9238H58.3057V87.7311H61.3893H61.6696Z" fill="#3F3D56"/>
<path d="M61.3893 89.9766H58.3057V92.784H61.6696V89.9766H61.3893Z" fill="#3F3D56"/>
<path d="M67.2749 84.9238H63.9111V87.7312H67.2749V84.9238Z" fill="#3F3D56"/>
<path d="M67.2749 89.9775H63.9111V92.785H67.2749V89.9775Z" fill="#3F3D56"/>
<path d="M89.5881 79.5739L87.9062 76.7666L103.604 63.291H143.969V67.2214L129.393 82.9429L112.574 86.3117L89.5881 79.5739Z" fill="#3F3D56"/>
<path d="M150.918 71.1988V62.4141H145.633V65.1841L143.97 63.2908L130.515 76.7664L128.272 79.0122L125.469 90.2418L130.515 102.594H156.303V77.3278L150.918 71.1988Z" fill="#CCCCCC"/>
<path d="M130.514 76.7666H87.9062V102.595H130.514V76.7666Z" fill="#F2F2F2"/>
<path d="M124.628 84.9082H115.658V92.7689H124.628V84.9082Z" fill="#3F3D56"/>
<path d="M112.014 84.6279H104.165V102.595H112.014V84.6279Z" fill="#CCCCCC"/>
<path d="M95.195 87.4352V84.6279H91.8311V87.4352H94.9146H95.195Z" fill="#3F3D56"/>
<path d="M94.9146 89.6807H91.8311V92.4882H95.195V89.6807H94.9146Z" fill="#3F3D56"/>
<path d="M100.801 84.6279H97.4375V87.4353H100.801V84.6279Z" fill="#3F3D56"/>
<path d="M100.801 89.6807H97.4375V92.4881H100.801V89.6807Z" fill="#3F3D56"/>
<path d="M142.568 87.7155V84.9082H139.204V87.7155H142.287H142.568Z" fill="#3F3D56"/>
<path d="M142.287 89.9609H139.204V92.7684H142.568V89.9609H142.287Z" fill="#3F3D56"/>
<path d="M148.174 84.9082H144.811V87.7156H148.174V84.9082Z" fill="#3F3D56"/>
<path d="M148.174 89.9619H144.811V92.7693H148.174V89.9619Z" fill="#3F3D56"/>
<path d="M168.059 79.5739L166.377 76.7666L182.075 63.291H222.44V67.2214L207.864 82.9429L191.045 86.3117L168.059 79.5739Z" fill="#3F3D56"/>
<path d="M229.389 71.1988V62.4141H224.104V65.1841L222.44 63.2908L208.985 76.7664L206.743 79.0122L203.939 90.2418L208.985 102.594H234.774V77.3278L229.389 71.1988Z" fill="#CCCCCC"/>
<path d="M208.985 76.7666H166.377V102.595H208.985V76.7666Z" fill="#F2F2F2"/>
<path d="M203.099 84.9082H194.129V92.7689H203.099V84.9082Z" fill="#3F3D56"/>
<path d="M190.485 84.6279H182.636V102.595H190.485V84.6279Z" fill="#CCCCCC"/>
<path d="M173.666 87.4352V84.6279H170.302V87.4352H173.385H173.666Z" fill="#3F3D56"/>
<path d="M173.385 89.6807H170.302V92.4882H173.666V89.6807H173.385Z" fill="#3F3D56"/>
<path d="M179.272 84.6279H175.908V87.4353H179.272V84.6279Z" fill="#3F3D56"/>
<path d="M179.272 89.6807H175.908V92.4881H179.272V89.6807Z" fill="#3F3D56"/>
<path d="M221.04 87.7155V84.9082H217.676V87.7155H220.759H221.04Z" fill="#3F3D56"/>
<path d="M220.759 89.9609H217.676V92.7684H221.04V89.9609H220.759Z" fill="#3F3D56"/>
<path d="M226.646 84.9082H223.282V87.7156H226.646V84.9082Z" fill="#3F3D56"/>
<path d="M226.646 89.9619H223.282V92.7693H226.646V89.9619Z" fill="#3F3D56"/>
<path d="M160.733 85.9189H160.312V102.609H160.733V85.9189Z" fill="#3F3D56"/>
<path d="M164.627 88.046C164.654 93.882 160.554 98.6321 160.554 98.6321C160.554 98.6321 156.411 93.9201 156.384 88.0841C156.357 82.2481 160.457 77.498 160.457 77.498C160.457 77.498 164.6 82.21 164.627 88.046Z" fill="#6C63FF"/>
<path d="M83.9492 85.4971H83.5273V102.187H83.9492V85.4971Z" fill="#3F3D56"/>
<path d="M87.8437 87.6242C87.8706 93.4602 83.7709 98.2102 83.7709 98.2102C83.7709 98.2102 79.6276 93.4982 79.6007 87.6622C79.5739 81.8262 83.6736 77.0762 83.6736 77.0762C83.6736 77.0762 87.8169 81.7882 87.8437 87.6242Z" fill="#6C63FF"/>
<path opacity="0.1" d="M87.8437 87.6242C87.8706 93.4602 83.7709 98.2102 83.7709 98.2102C83.7709 98.2102 79.6276 93.4982 79.6007 87.6622C79.5739 81.8262 83.6736 77.0762 83.6736 77.0762C83.6736 77.0762 87.8169 81.7882 87.8437 87.6242Z" fill="black"/>
<path d="M78.4659 85.4971H78.0439V102.187H78.4659V85.4971Z" fill="#3F3D56"/>
<path d="M82.3584 87.6242C82.3852 93.4602 78.2855 98.2102 78.2855 98.2102C78.2855 98.2102 74.1422 93.4982 74.1154 87.6622C74.0885 81.8262 78.1882 77.0762 78.1882 77.0762C78.1882 77.0762 82.3315 81.7882 82.3584 87.6242Z" fill="#6C63FF"/>
<path d="M240.812 102.188H0.96875V102.61H240.812V102.188Z" fill="#3F3D56"/>
<path d="M55.2709 89.5461C55.2709 89.5461 55.487 89.7941 55.1168 90.274C54.7465 90.7538 55.0455 91.7951 55.7489 91.8216C56.4523 91.8481 56.7934 92.1431 56.6238 92.5318C56.4542 92.9205 56.2504 93.844 57.0165 93.7035C57.7825 93.5631 58.0246 93.8685 57.889 94.1033C57.7533 94.338 58.2305 93.6364 58.2305 93.6364C58.2305 93.6364 58.6574 94.2733 59.1813 93.8275C59.7052 93.3817 59.9135 89.3402 58.8454 89.2717C57.7773 89.2032 55.2709 89.5461 55.2709 89.5461Z" fill="#2F2E41"/>
<path d="M60.6855 108.765L60.9288 110.472H62.0242L61.6591 108.521L60.6855 108.765Z" fill="#FFB8B8"/>
<path d="M62.1456 109.436C62.1456 109.436 63.606 110.776 63.2409 110.898C62.8758 111.02 61.5371 112.483 61.2937 112.605C61.076 112.714 58.738 113.458 59.1031 112.605C59.3716 112.05 59.7941 111.584 60.3201 111.264L60.5635 109.801L62.1456 109.436Z" fill="#F2F2F2"/>
<path opacity="0.1" d="M62.1456 109.436C62.1456 109.436 63.606 110.776 63.2409 110.898C62.8758 111.02 61.5371 112.483 61.2937 112.605C61.076 112.714 58.738 113.458 59.1031 112.605C59.3716 112.05 59.7941 111.584 60.3201 111.264L60.5635 109.801L62.1456 109.436Z" fill="black"/>
<path d="M62.1455 107.485L62.3889 109.191H63.4842L63.119 107.241L62.1455 107.485Z" fill="#FFB8B8"/>
<path d="M57.5693 102.956L59.1644 97.6739C59.1644 97.6739 56.487 95.2362 58.3125 94.5049C60.1379 93.7736 60.6247 97.4301 60.6247 97.4301L60.0162 103.768H57.5823L57.5693 102.956Z" fill="#FFB8B8"/>
<path d="M61.2944 99.0752C61.2944 99.0752 58.1491 103.116 58.6265 103.716C59.1039 104.316 59.9558 107.973 59.9558 107.973C59.9558 107.973 59.8341 109.435 60.3208 109.435C60.8076 109.435 62.0246 109.192 62.0246 108.826C62.0246 108.46 60.9293 103.829 60.9293 103.829L64.0935 99.6846L61.2944 99.0752Z" fill="#6C63FF"/>
<path d="M61.5377 99.3197L64.7019 97.6133C64.7019 97.6133 66.8925 98.7102 66.2839 99.6853C65.6754 100.66 62.8764 103.22 62.8764 103.22C62.8764 103.22 63.7282 107.364 63.6065 107.486C63.4848 107.608 62.1462 108.095 61.7811 107.973C61.416 107.851 59.4688 103.098 59.9556 102.854C60.4424 102.61 62.0245 100.051 62.0245 100.051L61.5377 99.3197Z" fill="#6C63FF"/>
<path d="M52.8969 145.952C52.8969 145.952 55.0875 147.292 55.3309 147.292C55.5743 147.292 58.8602 148.145 57.3998 148.755C55.9394 149.364 50.3412 148.511 50.4629 148.145C50.5846 147.78 50.4629 145.586 50.7063 145.586C50.9497 145.586 52.8969 145.952 52.8969 145.952Z" fill="#2F2E41"/>
<path d="M55.3305 145.756C55.3305 145.756 57.5211 147.097 57.7645 147.097C58.0078 147.097 61.2937 147.95 59.8333 148.56C58.373 149.169 52.7748 148.316 52.8965 147.95C53.0182 147.585 52.8965 145.391 53.1399 145.391C53.3833 145.391 55.3305 145.756 55.3305 145.756Z" fill="#2F2E41"/>
<path d="M52.8074 120.34C52.8074 120.34 53.3834 123.647 53.9919 124.988C54.6004 126.328 53.8702 132.666 53.5051 133.641C53.14 134.616 49.6107 146.195 50.706 146.317C51.8013 146.439 53.9919 146.317 53.9919 146.317L57.5212 135.226L56.9127 120.356L52.8074 120.34Z" fill="#575A88"/>
<path opacity="0.1" d="M52.8074 120.34C52.8074 120.34 53.3834 123.647 53.9919 124.988C54.6004 126.328 53.8702 132.666 53.5051 133.641C53.14 134.616 49.6107 146.195 50.706 146.317C51.8013 146.439 53.9919 146.317 53.9919 146.317L57.5212 135.226L56.9127 120.356L52.8074 120.34Z" fill="black"/>
<path d="M53.7483 120.039C53.7483 120.039 54.2351 123.33 55.3304 124.062C56.4256 124.793 56.0606 125.524 56.0606 125.524L55.5738 131.984C55.5738 131.984 50.8275 143.685 52.2879 145.147C53.7483 146.61 55.087 146.001 55.6955 145.879C56.304 145.757 57.3993 143.197 56.7908 142.466C56.1823 141.735 58.0078 137.347 58.4946 136.616C58.9814 135.884 58.4946 134.909 59.1031 134.665C59.7116 134.422 61.0503 132.837 61.0503 131.74C61.0503 130.643 62.7541 118.942 61.6588 118.211C60.5635 117.48 53.5427 119.721 53.5427 119.721L53.7483 120.039Z" fill="#575A88"/>
<path d="M51.4362 102.976C52.9149 102.976 54.1136 101.776 54.1136 100.295C54.1136 98.8138 52.9149 97.6133 51.4362 97.6133C49.9575 97.6133 48.7588 98.8138 48.7588 100.295C48.7588 101.776 49.9575 102.976 51.4362 102.976Z" fill="#FFB8B8"/>
<path d="M57.5216 92.7374C58.7315 92.7374 59.7122 91.7552 59.7122 90.5435C59.7122 89.3319 58.7315 88.3496 57.5216 88.3496C56.3118 88.3496 55.3311 89.3319 55.3311 90.5435C55.3311 91.7552 56.3118 92.7374 57.5216 92.7374Z" fill="#FFB8B8"/>
<path d="M53.2614 100.294C53.2614 100.294 54.7218 102.975 55.452 102.975C56.1822 102.975 52.5312 105.779 52.5312 105.779C52.5312 105.779 51.3142 102.244 51.0708 102.122C50.8274 102 53.2614 100.294 53.2614 100.294Z" fill="#FFB8B8"/>
<path d="M53.7485 102.732C53.7485 102.732 50.5843 103.829 50.706 104.195C50.8277 104.561 49.8541 105.414 49.8541 105.779C49.8541 106.145 49.6107 109.436 51.0711 112.117C52.5315 114.799 54.8437 116.749 53.7485 117.968C52.6532 119.187 50.9494 121.259 52.7749 121.259C54.6003 121.259 57.5211 118.577 60.1985 119.552C62.8759 120.527 62.2674 116.871 62.2674 116.871C62.2674 116.871 62.6325 114.067 61.9023 113.214C61.1721 112.361 58.6164 106.267 58.6164 105.536C58.6164 104.804 56.1824 102.001 55.5739 102.001C54.9654 102.001 53.7485 102.732 53.7485 102.732Z" fill="#8985A8"/>
<path d="M58.1299 91.8847C58.1299 91.8847 59.1209 93.7717 59.173 94.1079C59.2252 94.4442 60.929 91.8847 60.929 91.8847L58.9818 90.5439L58.1299 91.8847Z" fill="#FFB8B8"/>
<path d="M58.4951 93.3472L60.5639 91.1533L62.9979 92.2503C62.9979 92.2503 65.2679 97.2475 65.4108 97.6131C65.5536 97.9788 61.7809 99.6851 61.4158 99.6851C61.0507 99.6851 58.4951 95.9068 58.4951 95.9068C58.4951 95.9068 57.8866 94.0785 58.4951 93.3472Z" fill="#F2F2F2"/>
<path d="M57.5215 96.2725V98.4664H58.9821L58.5017 96.2725H57.5215Z" fill="#FFB8B8"/>
<path d="M58.354 97.9171C58.1694 97.9146 57.9885 97.9685 57.8353 98.0716C57.6822 98.1747 57.564 98.3221 57.4967 98.4942C57.4015 98.7519 57.4338 99.0227 57.8858 99.1359C58.8594 99.3796 58.9811 99.1359 58.9811 99.1359C58.9811 99.1359 60.6712 98.8921 60.313 98.4046C59.9547 97.9171 58.9811 97.9171 58.9811 97.9171H58.354Z" fill="#FFB8B8"/>
<path d="M63.6065 108.46C63.6065 108.46 65.0669 109.801 64.7018 109.923C64.3367 110.044 62.998 111.507 62.7546 111.629C62.5369 111.738 60.1989 112.482 60.564 111.629C60.8325 111.074 61.2551 110.609 61.781 110.288L62.0244 108.826L63.6065 108.46Z" fill="#F2F2F2"/>
<path d="M50.4821 98.2305C50.6496 98.1322 50.8475 98.0098 50.8522 97.8154C50.8479 97.744 50.8228 97.6754 50.78 97.618C50.7373 97.5607 50.6788 97.5171 50.6117 97.4926C50.4766 97.4459 50.3337 97.4266 50.1911 97.4358C50.1364 97.433 50.0816 97.4385 50.0285 97.452C49.8899 97.4948 49.81 97.6358 49.7008 97.7314C49.5278 97.8528 49.329 97.9325 49.12 97.9641C48.7784 98.0529 48.4507 98.1889 48.1465 98.3681C48.0865 98.3986 48.0339 98.4419 47.9925 98.4951C47.9446 98.593 47.9233 98.7018 47.9306 98.8106C47.9031 99.2241 47.6555 99.5841 47.4707 99.9549C47.2859 100.326 47.1645 100.788 47.3814 101.141C47.4675 101.25 47.5479 101.365 47.6221 101.483C47.7759 101.804 47.584 102.199 47.6951 102.537C47.7448 102.67 47.8245 102.79 47.9281 102.887C48.1418 103.102 48.4051 103.262 48.6949 103.352C48.9714 103.437 49.3146 103.494 49.4229 103.762C49.4469 103.884 49.4812 104.003 49.5254 104.119C49.5749 104.178 49.6358 104.226 49.7046 104.261C49.7734 104.296 49.8485 104.316 49.9253 104.32C50.095 104.359 50.2697 104.372 50.4433 104.358C50.5301 104.35 50.6145 104.325 50.6913 104.284C50.7681 104.243 50.8357 104.186 50.8901 104.118C50.9392 104.022 51 103.932 51.071 103.851C51.2473 103.703 51.5149 103.82 51.7412 103.781C51.8329 103.763 51.9178 103.72 51.9858 103.656C52.0538 103.592 52.1022 103.51 52.1253 103.42C52.1315 103.323 52.1581 103.229 52.2033 103.144C52.3438 102.964 52.7136 103.091 52.8064 102.882C52.8667 102.746 52.7405 102.603 52.6186 102.518C52.4097 102.396 52.2094 102.26 52.019 102.111C51.9244 102.035 51.8511 101.936 51.8065 101.823C51.7619 101.71 51.7474 101.587 51.7645 101.467C51.8482 101.114 52.3089 100.919 52.3242 100.556C52.3177 100.452 52.2864 100.351 52.2329 100.262C52.1794 100.172 52.1053 100.097 52.0168 100.042C51.8392 99.9343 51.6689 99.8149 51.507 99.6847C51.3979 99.5789 51.3156 99.4462 51.197 99.3512C50.9628 99.2049 50.6918 99.1283 50.4158 99.1305C50.2692 99.1154 49.6847 99.0476 49.7077 98.8241C49.7268 98.6384 50.3334 98.3178 50.4821 98.2305Z" fill="#2F2E41"/>
<path d="M58.4949 93.2246C58.4949 93.2246 57.1562 93.7121 57.1562 94.3216C57.1562 94.931 56.5477 96.8811 57.1562 96.8811C57.7647 96.8811 58.9817 96.4133 58.9817 96.4133L58.4949 93.2246Z" fill="#F2F2F2"/>
<path d="M58.1292 102.001C58.1292 102.001 61.6585 100.782 61.7802 100.782C61.9019 100.782 63.6057 99.807 63.484 99.4413L62.9972 96.3942C62.9972 96.3942 61.05 92.3721 62.3887 92.3721C63.7274 92.3721 64.4576 95.541 64.4576 95.541C64.4576 95.541 67.3784 101.026 65.7963 102.245C64.2142 103.463 57.6424 105.657 57.2773 105.292C56.9122 104.926 58.1292 102.001 58.1292 102.001Z" fill="#FFB8B8"/>
<path d="M61.5375 94.0784L62.359 94.8712L61.2941 95.9066C61.2941 95.9066 59.8337 95.2972 59.9554 95.6629C60.0771 96.0285 60.8073 97.1255 61.2941 97.1255C61.7809 97.1255 64.3145 95.541 64.3256 95.0535C64.3366 94.5659 62.7545 92.8596 62.3894 92.7377C62.0243 92.6158 61.5375 94.0784 61.5375 94.0784Z" fill="#FFB8B8"/>
<path d="M59.9932 93.2285C59.9932 93.2285 61.7812 94.8094 62.0246 94.8094C62.268 94.8094 62.7107 92.4342 62.7107 92.4342C62.7107 92.4342 61.268 91.4927 60.7335 91.7494C60.1991 92.0061 59.9932 93.2285 59.9932 93.2285Z" fill="#F2F2F2"/>
<path d="M53.749 103.463C53.749 103.463 53.749 101.757 57.4 101.757H58.9821L58.2519 105.779L55.8179 106.51L53.749 103.463Z" fill="#8985A8"/>
<path d="M61.7237 89.6544C61.3659 89.6526 61.0085 89.6306 60.6531 89.5882C60.3741 88.9129 60.0187 88.3462 59.6342 88.1349C59.3235 87.8964 58.9782 87.7066 58.6103 87.5722C57.7994 87.2272 56.4496 87.4424 56.3707 87.8348C54.775 88.5984 55.1783 89.9393 55.1783 89.9393C55.4262 90.4642 55.9824 90.2315 56.4543 89.9939C56.498 90.1835 56.5998 90.3548 56.7455 90.4837C56.8912 90.6125 57.0735 90.6926 57.2669 90.7126C58.0461 90.742 58.4239 91.0688 58.2361 91.4994C58.0482 91.9299 57.8225 92.953 58.6711 92.7974C59.5197 92.6419 59.7879 92.9802 59.6376 93.2403C59.4874 93.5003 60.016 92.7231 60.016 92.7231C60.016 92.7231 60.4889 93.4287 61.0693 92.9348C61.128 92.8781 61.1698 92.8063 61.1902 92.7273C61.3724 92.835 61.5874 92.8727 61.7953 92.8334C62.4905 92.5219 62.0587 91.7904 62.0587 91.7904C62.0587 91.7904 62.9868 91.6478 62.6878 91.6714C62.3887 91.6951 62.1996 91.3068 62.7056 90.6071C63.2116 89.9073 62.1926 89.6702 61.7237 89.6544Z" fill="#2F2E41"/>
<path d="M57.0154 89.1057L56.6689 88.9902L56.3231 90.0311L56.6695 90.1465L57.0154 89.1057Z" fill="#6C63FF"/>
<path d="M82.8153 148.666H22.2744V149.089H82.8153V148.666Z" fill="#3F3D56"/>
<path d="M212.968 128.807H152.427V129.229H212.968V128.807Z" fill="#3F3D56"/>
<path d="M197.086 90.8619L200.488 90.197C200.488 90.197 201.318 87.3715 202.313 87.7039C203.309 88.0364 201.65 90.8619 201.65 90.8619L196.92 93.0225L197.086 90.8619Z" fill="#A0616A"/>
<path d="M176.425 93.6875L174.931 95.5989C174.931 95.5989 172.774 95.5158 173.437 96.6792C174.101 97.8427 175.595 97.1778 175.678 96.9285C175.761 96.6792 178.167 94.5185 178.167 94.5185L176.425 93.6875Z" fill="#A0616A"/>
<path d="M182.523 91.4851L183.768 90.8203C183.768 90.8203 189.079 90.4047 191.07 91.7344C193.062 93.064 182.689 93.2302 182.689 93.2302L182.523 91.4851Z" fill="#6C63FF"/>
<path d="M184.888 90.2808C184.888 90.2808 184.225 88.7019 185.137 88.5357C185.658 88.4334 186.193 88.4334 186.714 88.5357L185.718 89.3667L184.888 90.2808Z" fill="#3F3D56"/>
<path opacity="0.1" d="M184.888 90.2808C184.888 90.2808 184.225 88.7019 185.137 88.5357C185.658 88.4334 186.193 88.4334 186.714 88.5357L185.718 89.3667L184.888 90.2808Z" fill="black"/>
<path d="M180.324 99.8371L177.918 99.6709L178.333 100.419C178.333 100.419 175.014 101.416 176.093 104.242C176.85 106.143 177.766 107.978 178.831 109.726L179.91 111.804C179.91 111.804 182.15 112.136 182.233 111.472C182.316 110.807 182.233 110.474 181.818 110.142C181.437 109.798 181.2 109.323 181.154 108.812C181.154 108.48 181.237 108.147 180.988 107.981C180.739 107.815 180.656 107.566 180.656 107.067C180.656 106.568 179.744 104.74 179.744 104.74C179.744 104.74 182.648 104.657 183.561 105.405C184.473 106.153 187.461 108.978 187.461 108.978C187.626 109.152 187.765 109.347 187.875 109.56C188.041 109.893 188.041 110.059 188.373 110.225C188.705 110.391 188.456 111.056 188.373 111.139C188.29 111.222 187.461 114.546 187.461 114.546C187.461 114.546 186.548 116.125 187.543 116.208C188.539 116.291 189.452 116.375 189.535 116.208C189.627 115.978 189.738 115.756 189.867 115.544C190.116 115.128 189.867 114.214 189.867 114.214C189.867 114.214 192.273 111.139 191.526 109.228C190.78 107.316 189.203 102.995 189.203 102.995L186.797 101.998L182.399 100.419L180.324 99.8371Z" fill="#2F2E41"/>
<path d="M180.159 111.388C180.159 111.388 179.661 113.3 179.495 113.383C179.329 113.466 177.504 115.045 178.748 115.294C179.993 115.544 180.906 115.46 181.155 115.211C181.403 114.962 181.32 114.712 181.735 114.629C182.15 114.546 182.897 114.297 182.814 113.715C182.731 113.134 182.316 111.555 182.067 111.388C181.818 111.222 180.159 111.388 180.159 111.388Z" fill="#2F2E41"/>
<path d="M187.377 115.627C187.377 115.627 186.631 116.209 187.045 117.289C187.46 118.369 188.041 119.533 188.041 119.533C188.041 119.533 188.705 121.61 189.784 121.278C189.978 121.209 190.15 121.09 190.284 120.934C190.418 120.777 190.509 120.588 190.547 120.385C190.623 120.091 190.636 119.783 190.584 119.484C190.532 119.184 190.416 118.899 190.245 118.647L189.618 117.705L188.954 115.959L187.377 115.627Z" fill="#2F2E41"/>
<path d="M185.303 91.1949C185.303 91.1949 184.307 91.1118 184.141 91.3611C183.975 91.6105 183.229 94.9346 184.141 95.267C185.054 95.5994 187.792 96.1811 188.207 95.7656C188.622 95.3501 188.788 91.6936 188.788 91.6936L185.303 91.1949Z" fill="#A0616A"/>
<path opacity="0.1" d="M185.303 91.1949C185.303 91.1949 184.307 91.1118 184.141 91.3611C183.975 91.6105 183.229 94.9346 184.141 95.267C185.054 95.5994 187.792 96.1811 188.207 95.7656C188.622 95.3501 188.788 91.6936 188.788 91.6936L185.303 91.1949Z" fill="black"/>
<path d="M183.809 93.9373C183.809 93.9373 184.971 95.1007 185.717 94.9345C186.464 94.7683 188.207 94.0204 188.373 93.688C188.539 93.3556 190.613 93.2725 190.613 93.2725L188.373 99.5052L189.949 104.741C189.949 104.741 190.862 103.66 188.373 103.577C185.883 103.494 182.564 102.248 181.983 100.586C181.983 100.586 178.332 100.087 178.167 100.004C178.001 99.9207 178.581 99.4221 178.581 99.4221L180.988 98.7573L182.73 96.5135L183.809 93.9373Z" fill="#F2F2F2"/>
<path d="M184.557 91.3606C184.557 91.3606 184.971 90.7788 184.557 90.7788C183.892 90.765 183.227 90.7928 182.565 90.8619C182.15 90.945 180.574 90.5295 180.408 91.0281C180.242 91.5268 180.242 94.6016 180.574 94.8509C180.906 95.1002 181.072 95.1002 180.657 95.5988C180.242 96.0974 179.246 97.7595 179.495 98.3412C179.744 98.923 176.84 99.0892 177.255 99.754C177.367 99.944 177.524 100.104 177.712 100.22C177.9 100.335 178.113 100.404 178.333 100.419C178.333 100.419 178.499 99.0892 179.495 99.754C180.491 100.419 181.818 102.081 182.897 101.001C183.976 99.9202 184.391 98.9229 184.474 97.5102C184.56 96.4549 184.505 95.3926 184.308 94.3523C184.142 93.5212 184.557 91.3606 184.557 91.3606Z" fill="#6C63FF"/>
<path d="M188.871 92.94C188.871 92.94 189.535 93.5217 188.871 94.9344C188.207 96.3472 186.465 99.6713 187.875 101.832C189.286 103.993 189.867 104.574 189.535 104.99C189.333 105.253 189.217 105.572 189.203 105.904L190.116 105.572C190.216 104.892 190.383 104.224 190.614 103.577C190.945 102.746 189.95 100.253 189.95 100.253L190.282 97.012C190.282 97.012 191.609 94.9344 191.775 94.8513C191.941 94.7682 191.443 91.1948 191.443 91.1948C191.443 91.1948 190.614 90.9455 190.199 91.1948C189.784 91.4441 188.871 92.94 188.871 92.94Z" fill="#6C63FF"/>
<path d="M180.905 91.1113H180.407L177.005 92.8565C177.005 92.8565 176.756 91.7762 176.59 92.0255C176.424 92.2748 176.507 92.9396 176.092 93.1058C175.677 93.272 175.429 93.5213 176.092 93.8537C176.756 94.1862 176.839 93.9368 176.839 94.5186C176.839 95.1003 177.337 95.1834 177.752 95.0172C178.167 94.851 178.25 94.7679 178.665 94.9341C179.08 95.1003 178.831 95.3496 179.412 95.1003C179.992 94.851 181.486 94.9341 181.486 94.9341L180.905 91.1113Z" fill="#6C63FF"/>
<path d="M190.862 91.3608L191.443 91.1946C191.443 91.1946 193.186 91.3608 193.601 91.3608C194.015 91.3608 194.43 91.2777 194.679 91.2777C194.928 91.2777 196.173 91.1115 196.339 90.9453C196.505 90.7791 197.252 90.3636 197.335 90.6129C197.418 90.8622 198.33 92.4412 197.501 93.1891C196.671 93.937 196.505 93.6046 196.007 93.937C195.509 94.2694 191.526 94.9343 191.443 94.8512C191.36 94.7681 190.862 91.3608 190.862 91.3608Z" fill="#6C63FF"/>
<path d="M187.461 94.5184C188.836 94.5184 189.95 93.4022 189.95 92.0253C189.95 90.6484 188.836 89.5322 187.461 89.5322C186.086 89.5322 184.972 90.6484 184.972 92.0253C184.972 93.4022 186.086 94.5184 187.461 94.5184Z" fill="#A0616A"/>
<path d="M185.629 92.1261C185.657 92.1804 185.675 92.2397 185.68 92.3006C185.714 92.442 185.793 92.5683 185.906 92.6595C186.019 92.7507 186.159 92.8015 186.304 92.8039C186.292 92.8574 186.292 92.9128 186.303 92.9665C186.314 93.0201 186.336 93.0709 186.368 93.1155C186.4 93.16 186.44 93.1974 186.488 93.2251C186.535 93.2527 186.587 93.2701 186.642 93.2761C186.81 93.0602 186.936 92.814 187.012 92.5509C187.03 92.4476 187.073 92.3501 187.137 92.2665C187.236 92.1829 187.361 92.1359 187.491 92.1331C188.153 92.0477 188.82 91.9979 189.488 91.9841C189.578 91.9907 189.669 91.9721 189.75 91.9304C189.938 91.8093 189.875 91.5173 189.757 91.3279C189.523 90.9575 189.168 90.6801 188.753 90.5433C188.45 90.4618 188.141 90.4104 187.828 90.3899C187.414 90.3236 186.997 90.2802 186.578 90.26C186.156 90.2406 185.739 90.3524 185.383 90.5801C185.134 90.7562 184.724 91.2497 184.925 91.5611C184.957 91.611 185.058 91.6355 185.101 91.6864C185.16 91.7555 185.16 91.8601 185.227 91.9229C185.338 92.0277 185.54 91.9944 185.629 92.1261Z" fill="#2F2E41"/>
<path d="M187.461 87.8701C187.461 87.8701 184.64 88.8674 184.889 90.2801C185.138 91.6929 185.884 93.3549 187.461 93.2718C189.037 93.1887 189.867 91.4701 189.867 91.4701L189.452 89.1167C189.452 89.1167 187.876 87.8701 187.461 87.8701Z" fill="#3F3D56"/>
<path d="M187.104 92.8571C187.104 92.8571 188.214 91.6519 188.772 92.3508C188.772 92.3508 188.747 92.3163 187.104 92.8571Z" fill="#2F2E41"/>
<path d="M189.199 123.673C187.711 123.673 185.871 123.179 184.078 121.395C179.687 117.028 175.516 116.59 175.475 116.586L175.49 116.421C175.532 116.425 179.762 116.869 184.195 121.277C186.472 123.543 188.823 123.681 190.394 123.399C191.431 123.21 192.419 122.811 193.298 122.226L193.396 122.361C192.499 122.959 191.49 123.367 190.429 123.561C190.023 123.635 189.611 123.672 189.199 123.673Z" fill="#2F2E41"/>
<path d="M177.711 120.073C178.261 120.073 178.706 119.626 178.706 119.075C178.706 118.525 178.261 118.078 177.711 118.078C177.161 118.078 176.715 118.525 176.715 119.075C176.715 119.626 177.161 120.073 177.711 120.073Z" fill="#2F2E41"/>
<path d="M184.764 124.726C185.314 124.726 185.76 124.279 185.76 123.729C185.76 123.178 185.314 122.731 184.764 122.731C184.214 122.731 183.769 123.178 183.769 123.729C183.769 124.279 184.214 124.726 184.764 124.726Z" fill="#2F2E41"/>
</svg>
