<svg width="96" height="96" viewBox="0 0 96 96" fill="none" xmlns="http://www.w3.org/2000/svg">
<g clip-path="url(#clip0_13701_3447)">
<rect width="96" height="96" rx="48" fill="#E4EBF0"/>
<path d="M0.776457 38.8106C0.347631 37.2102 1.29738 35.5652 2.89778 35.1364L37.8294 25.7765C39.4298 25.3476 41.0748 26.2974 41.5036 27.8978L55.3515 79.5789C55.7804 81.1793 54.8306 82.8244 53.2302 83.2532L18.2986 92.6131C16.6982 93.0419 15.0532 92.0921 14.6244 90.4918L0.776457 38.8106Z" fill="#0048AF"/>
<path d="M12.447 33.9957C12.447 32.3389 13.7902 30.9957 15.447 30.9957H44.0873L58.1497 45.0581V86.3545C58.1497 88.0114 56.8066 89.3545 55.1497 89.3545H15.447C13.7902 89.3545 12.447 88.0114 12.447 86.3545V33.9957Z" fill="#0085FF"/>
<path d="M44.0874 30.9957L58.1498 45.0581H47.0874C45.4305 45.0581 44.0874 43.7149 44.0874 42.0581V30.9957Z" fill="#0048AF"/>
<path fill-rule="evenodd" clip-rule="evenodd" d="M21.5 75C21.5 74.1715 22.1716 73.5 23 73.5H29C29.8284 73.5 30.5 74.1715 30.5 75C30.5 75.8284 29.8284 76.5 29 76.5H23C22.1716 76.5 21.5 75.8284 21.5 75Z" fill="#0048AF"/>
<path fill-rule="evenodd" clip-rule="evenodd" d="M21.5 59C21.5 58.1715 22.1716 57.5 23 57.5H29C29.8284 57.5 30.5 58.1715 30.5 59C30.5 59.8284 29.8284 60.5 29 60.5H23C22.1716 60.5 21.5 59.8284 21.5 59Z" fill="white"/>
<path fill-rule="evenodd" clip-rule="evenodd" d="M21.5 67C21.5 66.1715 22.1716 65.5 23 65.5H36C36.8284 65.5 37.5 66.1715 37.5 67C37.5 67.8284 36.8284 68.5 36 68.5H23C22.1716 68.5 21.5 67.8284 21.5 67Z" fill="white"/>
<path d="M64.6988 38.1376C72.2644 38.1376 78.3975 32.0626 78.3975 24.5688C78.3975 17.0749 72.2644 11 64.6988 11C57.1331 11 51 17.0749 51 24.5688C51 32.0626 57.1331 38.1376 64.6988 38.1376Z" fill="#1C9E59"/>
<path fill-rule="evenodd" clip-rule="evenodd" d="M70.0126 20.8934C70.6238 21.4526 70.6659 22.4014 70.1067 23.0126L64.8942 28.7093C63.9296 29.7636 62.3057 29.7636 61.3411 28.7093L58.8934 26.0342C58.3341 25.423 58.3762 24.4742 58.9874 23.9149C59.5986 23.3557 60.5474 23.3978 61.1067 24.009L63.1177 26.2068L67.8934 20.9874C68.4526 20.3762 69.4014 20.3341 70.0126 20.8934Z" fill="white"/>
<path d="M97 57C95.8954 57 95 56.1046 95 55C95 53.8954 95.8954 53 97 53C98.1046 53 99 53.8954 99 55C99 56.1046 98.1046 57 97 57Z" fill="#B3BEC9"/>
<path d="M89 57C87.8954 57 87 56.1046 87 55C87 53.8954 87.8954 53 89 53C90.1046 53 91 53.8954 91 55C91 56.1046 90.1046 57 89 57Z" fill="#B3BEC9"/>
<path d="M81 57C79.8954 57 79 56.1046 79 55C79 53.8954 79.8954 53 81 53C82.1046 53 83 53.8954 83 55C83 56.1046 82.1046 57 81 57Z" fill="#F84747"/>
<path d="M73 57C71.8954 57 71 56.1046 71 55C71 53.8954 71.8954 53 73 53C74.1046 53 75 53.8954 75 55C75 56.1046 74.1046 57 73 57Z" fill="#B3BEC9"/>
<path d="M97 65C95.8954 65 95 64.1046 95 63C95 61.8954 95.8954 61 97 61C98.1046 61 99 61.8954 99 63C99 64.1046 98.1046 65 97 65Z" fill="#B3BEC9"/>
<path d="M89 65C87.8954 65 87 64.1046 87 63C87 61.8954 87.8954 61 89 61C90.1046 61 91 61.8954 91 63C91 64.1046 90.1046 65 89 65Z" fill="#B3BEC9"/>
<path d="M81 65C79.8954 65 79 64.1046 79 63C79 61.8954 79.8954 61 81 61C82.1046 61 83 61.8954 83 63C83 64.1046 82.1046 65 81 65Z" fill="#B3BEC9"/>
<path d="M73 65C71.8954 65 71 64.1046 71 63C71 61.8954 71.8954 61 73 61C74.1046 61 75 61.8954 75 63C75 64.1046 74.1046 65 73 65Z" fill="#B3BEC9"/>
<path d="M97 73C95.8954 73 95 72.1046 95 71C95 69.8954 95.8954 69 97 69C98.1046 69 99 69.8954 99 71C99 72.1046 98.1046 73 97 73Z" fill="#B3BEC9"/>
<path d="M89 73C87.8954 73 87 72.1046 87 71C87 69.8954 87.8954 69 89 69C90.1046 69 91 69.8954 91 71C91 72.1046 90.1046 73 89 73Z" fill="#B3BEC9"/>
<path d="M81 73C79.8954 73 79 72.1046 79 71C79 69.8954 79.8954 69 81 69C82.1046 69 83 69.8954 83 71C83 72.1046 82.1046 73 81 73Z" fill="#B3BEC9"/>
<path d="M73 73C71.8954 73 71 72.1046 71 71C71 69.8954 71.8954 69 73 69C74.1046 69 75 69.8954 75 71C75 72.1046 74.1046 73 73 73Z" fill="#B3BEC9"/>
<path d="M97 81C95.8954 81 95 80.1046 95 79C95 77.8954 95.8954 77 97 77C98.1046 77 99 77.8954 99 79C99 80.1046 98.1046 81 97 81Z" fill="#B3BEC9"/>
<path d="M89 81C87.8954 81 87 80.1046 87 79C87 77.8954 87.8954 77 89 77C90.1046 77 91 77.8954 91 79C91 80.1046 90.1046 81 89 81Z" fill="#B3BEC9"/>
<path d="M81 81C79.8954 81 79 80.1046 79 79C79 77.8954 79.8954 77 81 77C82.1046 77 83 77.8954 83 79C83 80.1046 82.1046 81 81 81Z" fill="#B3BEC9"/>
<path d="M73 81C71.8954 81 71 80.1046 71 79C71 77.8954 71.8954 77 73 77C74.1046 77 75 77.8954 75 79C75 80.1046 74.1046 81 73 81Z" fill="#FFAE41"/>
<path d="M97 89C95.8954 89 95 88.1046 95 87C95 85.8954 95.8954 85 97 85C98.1046 85 99 85.8954 99 87C99 88.1046 98.1046 89 97 89Z" fill="#B3BEC9"/>
<path d="M89 89C87.8954 89 87 88.1046 87 87C87 85.8954 87.8954 85 89 85C90.1046 85 91 85.8954 91 87C91 88.1046 90.1046 89 89 89Z" fill="#B3BEC9"/>
<path d="M81 89C79.8954 89 79 88.1046 79 87C79 85.8954 79.8954 85 81 85C82.1046 85 83 85.8954 83 87C83 88.1046 82.1046 89 81 89Z" fill="#B3BEC9"/>
<path d="M73 89C71.8954 89 71 88.1046 71 87C71 85.8954 71.8954 85 73 85C74.1046 85 75 85.8954 75 87C75 88.1046 74.1046 89 73 89Z" fill="#B3BEC9"/>
<path d="M97 97C95.8954 97 95 96.1046 95 95C95 93.8954 95.8954 93 97 93C98.1046 93 99 93.8954 99 95C99 96.1046 98.1046 97 97 97Z" fill="#B3BEC9"/>
<path d="M89 97C87.8954 97 87 96.1046 87 95C87 93.8954 87.8954 93 89 93C90.1046 93 91 93.8954 91 95C91 96.1046 90.1046 97 89 97Z" fill="#B3BEC9"/>
<path d="M81 97C79.8954 97 79 96.1046 79 95C79 93.8954 79.8954 93 81 93C82.1046 93 83 93.8954 83 95C83 96.1046 82.1046 97 81 97Z" fill="#B3BEC9"/>
<path d="M73 97C71.8954 97 71 96.1046 71 95C71 93.8954 71.8954 93 73 93C74.1046 93 75 93.8954 75 95C75 96.1046 74.1046 97 73 97Z" fill="#B3BEC9"/>
<path d="M45.2426 65.8712C45.2426 65.3189 45.6903 64.8712 46.2426 64.8712H48.5C49.0523 64.8712 49.5 65.3189 49.5 65.8712V68.1286C49.5 68.6809 49.0523 69.1286 48.5 69.1286H46.2426C45.6903 69.1286 45.2426 68.6809 45.2426 68.1286V65.8712Z" fill="#0048AF"/>
<path d="M45.2426 58.0661C45.2426 57.5138 45.6903 57.0661 46.2426 57.0661H48.5C49.0523 57.0661 49.5 57.5138 49.5 58.0661V60.3235C49.5 60.8758 49.0523 61.3235 48.5 61.3235H46.2426C45.6903 61.3235 45.2426 60.8758 45.2426 60.3235V58.0661Z" fill="white"/>
<path d="M45.2426 73.7426C45.2426 73.1903 45.6903 72.7426 46.2426 72.7426H48.5C49.0523 72.7426 49.5 73.1903 49.5 73.7426V76C49.5 76.5523 49.0523 77 48.5 77H46.2426C45.6903 77 45.2426 76.5523 45.2426 76V73.7426Z" fill="#0048AF"/>
</g>
<defs>
<clipPath id="clip0_13701_3447">
<rect width="96" height="96" rx="48" fill="white"/>
</clipPath>
</defs>
</svg>
