<svg width="97" height="96" viewBox="0 0 97 96" fill="none" xmlns="http://www.w3.org/2000/svg">
<g clip-path="url(#clip0_13732_9536)">
<rect x="0.25" width="96" height="96" rx="48" fill="#E4EBF0"/>
<path d="M76.0133 63.4053C80.7967 63.4053 84.6743 59.5276 84.6743 54.7443C84.6743 49.9609 80.7967 46.0833 76.0133 46.0833C71.23 46.0833 67.3523 49.9609 67.3523 54.7443C67.3523 59.5276 71.23 63.4053 76.0133 63.4053Z" fill="#D4741B"/>
<path d="M20.4865 63.4053C25.2698 63.4053 29.1475 59.5276 29.1475 54.7443C29.1475 49.9609 25.2698 46.0833 20.4865 46.0833C15.7031 46.0833 11.8254 49.9609 11.8254 54.7443C11.8254 59.5276 15.7031 63.4053 20.4865 63.4053Z" fill="#D4741B"/>
<path d="M59.553 78.8968C59.553 71.5247 65.5293 65.5483 72.9015 65.5483H79.1256C86.4977 65.5483 92.474 71.5247 92.474 78.8968C92.474 86.269 86.4977 92.2453 79.1256 92.2453H72.9014C65.5293 92.2453 59.553 86.269 59.553 78.8968Z" fill="#D4741B"/>
<path d="M4.02612 78.8968C4.02612 71.5247 10.0024 65.5483 17.3746 65.5483H23.5987C30.9709 65.5483 36.9472 71.5247 36.9472 78.8968C36.9472 86.269 30.9709 92.2453 23.5987 92.2453H17.3746C10.0024 92.2453 4.02612 86.269 4.02612 78.8968Z" fill="#D4741B"/>
<path d="M48.2499 66.3675C54.4923 66.3675 59.5528 61.307 59.5528 55.0646C59.5528 48.8222 54.4923 43.7617 48.2499 43.7617C42.0075 43.7617 36.947 48.8222 36.947 55.0646C36.947 61.307 42.0075 66.3675 48.2499 66.3675Z" fill="#FFAE41"/>
<path d="M26.7686 86.5844C26.7686 76.9636 34.5678 69.1643 44.1887 69.1643H52.3113C61.9322 69.1643 69.7315 76.9636 69.7315 86.5844C69.7315 96.2053 61.9322 104.005 52.3113 104.005H44.1887C34.5678 104.005 26.7686 96.2053 26.7686 86.5844Z" fill="#FFAE41"/>
<path d="M38.6226 0.469238C37.518 0.469238 36.6226 -0.426192 36.6226 -1.53076C36.6226 -2.63533 37.518 -3.53076 38.6226 -3.53076C39.7271 -3.53076 40.6226 -2.63533 40.6226 -1.53076C40.6226 -0.426192 39.7271 0.469238 38.6226 0.469238Z" fill="#B3BEC9"/>
<path d="M38.6226 8.46924C37.518 8.46924 36.6226 7.57381 36.6226 6.46924C36.6226 5.36467 37.518 4.46924 38.6226 4.46924C39.7271 4.46924 40.6226 5.36467 40.6226 6.46924C40.6226 7.57381 39.7271 8.46924 38.6226 8.46924Z" fill="#B3BEC9"/>
<path d="M38.6226 16.4692C37.518 16.4692 36.6226 15.5738 36.6226 14.4692C36.6226 13.3647 37.518 12.4692 38.6226 12.4692C39.7271 12.4692 40.6226 13.3647 40.6226 14.4692C40.6226 15.5738 39.7271 16.4692 38.6226 16.4692Z" fill="#B3BEC9"/>
<path d="M38.6226 24.4692C37.518 24.4692 36.6226 23.5738 36.6226 22.4692C36.6226 21.3647 37.518 20.4692 38.6226 20.4692C39.7271 20.4692 40.6226 21.3647 40.6226 22.4692C40.6226 23.5738 39.7271 24.4692 38.6226 24.4692Z" fill="#F84747"/>
<path d="M38.6226 32.4692C37.518 32.4692 36.6226 31.5738 36.6226 30.4692C36.6226 29.3647 37.518 28.4692 38.6226 28.4692C39.7271 28.4692 40.6226 29.3647 40.6226 30.4692C40.6226 31.5738 39.7271 32.4692 38.6226 32.4692Z" fill="#B3BEC9"/>
<path d="M30.6226 0.469238C29.518 0.469238 28.6226 -0.426192 28.6226 -1.53076C28.6226 -2.63533 29.518 -3.53076 30.6226 -3.53076C31.7271 -3.53076 32.6226 -2.63533 32.6226 -1.53076C32.6226 -0.426192 31.7271 0.469238 30.6226 0.469238Z" fill="#B3BEC9"/>
<path d="M30.6226 8.46924C29.518 8.46924 28.6226 7.57381 28.6226 6.46924C28.6226 5.36467 29.518 4.46924 30.6226 4.46924C31.7271 4.46924 32.6226 5.36467 32.6226 6.46924C32.6226 7.57381 31.7271 8.46924 30.6226 8.46924Z" fill="#B3BEC9"/>
<path d="M30.6226 16.4692C29.518 16.4692 28.6226 15.5738 28.6226 14.4692C28.6226 13.3647 29.518 12.4692 30.6226 12.4692C31.7271 12.4692 32.6226 13.3647 32.6226 14.4692C32.6226 15.5738 31.7271 16.4692 30.6226 16.4692Z" fill="#B3BEC9"/>
<path d="M30.6226 24.4692C29.518 24.4692 28.6226 23.5738 28.6226 22.4692C28.6226 21.3647 29.518 20.4692 30.6226 20.4692C31.7271 20.4692 32.6226 21.3647 32.6226 22.4692C32.6226 23.5738 31.7271 24.4692 30.6226 24.4692Z" fill="#B3BEC9"/>
<path d="M30.6226 32.4692C29.518 32.4692 28.6226 31.5738 28.6226 30.4692C28.6226 29.3647 29.518 28.4692 30.6226 28.4692C31.7271 28.4692 32.6226 29.3647 32.6226 30.4692C32.6226 31.5738 31.7271 32.4692 30.6226 32.4692Z" fill="#B3BEC9"/>
<path d="M22.6226 0.469238C21.518 0.469238 20.6226 -0.426192 20.6226 -1.53076C20.6226 -2.63533 21.518 -3.53076 22.6226 -3.53076C23.7271 -3.53076 24.6226 -2.63533 24.6226 -1.53076C24.6226 -0.426192 23.7271 0.469238 22.6226 0.469238Z" fill="#B3BEC9"/>
<path d="M14.6226 0.469238C13.518 0.469238 12.6226 -0.426192 12.6226 -1.53076C12.6226 -2.63533 13.518 -3.53076 14.6226 -3.53076C15.7271 -3.53076 16.6226 -2.63533 16.6226 -1.53076C16.6226 -0.426192 15.7271 0.469238 14.6226 0.469238Z" fill="#B3BEC9"/>
<path d="M6.62256 0.469238C5.51799 0.469238 4.62256 -0.426192 4.62256 -1.53076C4.62256 -2.63533 5.51799 -3.53076 6.62256 -3.53076C7.72713 -3.53076 8.62256 -2.63533 8.62256 -1.53076C8.62256 -0.426192 7.72713 0.469238 6.62256 0.469238Z" fill="#B3BEC9"/>
<path d="M-1.37744 0.469238C-2.48201 0.469238 -3.37744 -0.426192 -3.37744 -1.53076C-3.37744 -2.63533 -2.48201 -3.53076 -1.37744 -3.53076C-0.272872 -3.53076 0.622559 -2.63533 0.622559 -1.53076C0.622558 -0.426192 -0.272872 0.469238 -1.37744 0.469238Z" fill="#B3BEC9"/>
<path d="M22.6226 8.46924C21.518 8.46924 20.6226 7.57381 20.6226 6.46924C20.6226 5.36467 21.518 4.46924 22.6226 4.46924C23.7271 4.46924 24.6226 5.36467 24.6226 6.46924C24.6226 7.57381 23.7271 8.46924 22.6226 8.46924Z" fill="#B3BEC9"/>
<path d="M14.6226 8.46924C13.518 8.46924 12.6226 7.57381 12.6226 6.46924C12.6226 5.36467 13.518 4.46924 14.6226 4.46924C15.7271 4.46924 16.6226 5.36467 16.6226 6.46924C16.6226 7.57381 15.7271 8.46924 14.6226 8.46924Z" fill="#B3BEC9"/>
<path d="M6.62256 8.46924C5.51799 8.46924 4.62256 7.57381 4.62256 6.46924C4.62256 5.36467 5.51799 4.46924 6.62256 4.46924C7.72713 4.46924 8.62256 5.36467 8.62256 6.46924C8.62256 7.57381 7.72713 8.46924 6.62256 8.46924Z" fill="#B3BEC9"/>
<path d="M-1.37744 8.46924C-2.48201 8.46924 -3.37744 7.57381 -3.37744 6.46924C-3.37744 5.36467 -2.48201 4.46924 -1.37744 4.46924C-0.272872 4.46924 0.622559 5.36467 0.622559 6.46924C0.622558 7.57381 -0.272872 8.46924 -1.37744 8.46924Z" fill="#B3BEC9"/>
<path d="M22.6226 16.4692C21.518 16.4692 20.6226 15.5738 20.6226 14.4692C20.6226 13.3647 21.518 12.4692 22.6226 12.4692C23.7271 12.4692 24.6226 13.3647 24.6226 14.4692C24.6226 15.5738 23.7271 16.4692 22.6226 16.4692Z" fill="#B3BEC9"/>
<path d="M14.6226 16.4692C13.518 16.4692 12.6226 15.5738 12.6226 14.4692C12.6226 13.3647 13.518 12.4692 14.6226 12.4692C15.7271 12.4692 16.6226 13.3647 16.6226 14.4692C16.6226 15.5738 15.7271 16.4692 14.6226 16.4692Z" fill="#B3BEC9"/>
<path d="M6.62256 16.4692C5.51799 16.4692 4.62256 15.5738 4.62256 14.4692C4.62256 13.3647 5.51799 12.4692 6.62256 12.4692C7.72713 12.4692 8.62256 13.3647 8.62256 14.4692C8.62256 15.5738 7.72713 16.4692 6.62256 16.4692Z" fill="#B3BEC9"/>
<path d="M-1.37744 16.4692C-2.48201 16.4692 -3.37744 15.5738 -3.37744 14.4692C-3.37744 13.3647 -2.48201 12.4692 -1.37744 12.4692C-0.272872 12.4692 0.622559 13.3647 0.622559 14.4692C0.622558 15.5738 -0.272872 16.4692 -1.37744 16.4692Z" fill="#B3BEC9"/>
<path d="M22.6226 24.4692C21.518 24.4692 20.6226 23.5738 20.6226 22.4692C20.6226 21.3647 21.518 20.4692 22.6226 20.4692C23.7271 20.4692 24.6226 21.3647 24.6226 22.4692C24.6226 23.5738 23.7271 24.4692 22.6226 24.4692Z" fill="#1C9E59"/>
<path d="M14.6226 24.4692C13.518 24.4692 12.6226 23.5738 12.6226 22.4692C12.6226 21.3647 13.518 20.4692 14.6226 20.4692C15.7271 20.4692 16.6226 21.3647 16.6226 22.4692C16.6226 23.5738 15.7271 24.4692 14.6226 24.4692Z" fill="#B3BEC9"/>
<path d="M6.62256 24.4692C5.51799 24.4692 4.62256 23.5738 4.62256 22.4692C4.62256 21.3647 5.51799 20.4692 6.62256 20.4692C7.72713 20.4692 8.62256 21.3647 8.62256 22.4692C8.62256 23.5738 7.72713 24.4692 6.62256 24.4692Z" fill="#B3BEC9"/>
<path d="M-1.37744 24.4692C-2.48201 24.4692 -3.37744 23.5738 -3.37744 22.4692C-3.37744 21.3647 -2.48201 20.4692 -1.37744 20.4692C-0.272872 20.4692 0.622559 21.3647 0.622559 22.4692C0.622558 23.5738 -0.272872 24.4692 -1.37744 24.4692Z" fill="#B3BEC9"/>
<path d="M22.6226 32.4692C21.518 32.4692 20.6226 31.5738 20.6226 30.4692C20.6226 29.3647 21.518 28.4692 22.6226 28.4692C23.7271 28.4692 24.6226 29.3647 24.6226 30.4692C24.6226 31.5738 23.7271 32.4692 22.6226 32.4692Z" fill="#B3BEC9"/>
<path d="M14.6226 32.4692C13.518 32.4692 12.6226 31.5738 12.6226 30.4692C12.6226 29.3647 13.518 28.4692 14.6226 28.4692C15.7271 28.4692 16.6226 29.3647 16.6226 30.4692C16.6226 31.5738 15.7271 32.4692 14.6226 32.4692Z" fill="#B3BEC9"/>
<path d="M6.62256 32.4692C5.51799 32.4692 4.62256 31.5738 4.62256 30.4692C4.62256 29.3647 5.51799 28.4692 6.62256 28.4692C7.72713 28.4692 8.62256 29.3647 8.62256 30.4692C8.62256 31.5738 7.72713 32.4692 6.62256 32.4692Z" fill="#B3BEC9"/>
<path d="M-1.37744 32.4692C-2.48201 32.4692 -3.37744 31.5738 -3.37744 30.4692C-3.37744 29.3647 -2.48201 28.4692 -1.37744 28.4692C-0.272872 28.4692 0.622559 29.3647 0.622559 30.4692C0.622558 31.5738 -0.272872 32.4692 -1.37744 32.4692Z" fill="#9C1EFF"/>
<path fill-rule="evenodd" clip-rule="evenodd" d="M51.5605 80.3967C51.5605 79.5683 52.2321 78.8967 53.0605 78.8967H59.0605C59.889 78.8967 60.5605 79.5683 60.5605 80.3967C60.5605 81.2252 59.889 81.8967 59.0605 81.8967H53.0605C52.2321 81.8967 51.5605 81.2252 51.5605 80.3967Z" fill="white"/>
<path fill-rule="evenodd" clip-rule="evenodd" d="M78.688 73.5581C78.688 72.7297 79.3596 72.0581 80.188 72.0581H84.188C85.0164 72.0581 85.688 72.7297 85.688 73.5581C85.688 74.3865 85.0164 75.0581 84.188 75.0581H80.188C79.3596 75.0581 78.688 74.3865 78.688 73.5581Z" fill="white"/>
<path fill-rule="evenodd" clip-rule="evenodd" d="M22.1226 73.5581C22.1226 72.7297 22.7941 72.0581 23.6226 72.0581H27.6226C28.451 72.0581 29.1226 72.7297 29.1226 73.5581C29.1226 74.3865 28.451 75.0581 27.6226 75.0581H23.6226C22.7941 75.0581 22.1226 74.3865 22.1226 73.5581Z" fill="white"/>
<path d="M63.2566 13.3009C63.9373 11.8297 66.0211 11.8297 66.7018 13.3009L69.2425 18.7919C69.5192 19.39 70.0843 19.8021 70.7366 19.8814L76.7247 20.6099C78.3291 20.805 78.9731 22.7942 77.7894 23.8986L73.3714 28.0207C72.8902 28.4697 72.6744 29.1364 72.8007 29.7836L73.961 35.7248C74.2718 37.3166 72.586 38.5459 71.1737 37.7573L65.9026 34.8139C65.3284 34.4933 64.6299 34.4933 64.0558 34.8139L58.7847 37.7573C57.3724 38.5459 55.6866 37.3166 55.9974 35.7248L57.1576 29.7836C57.284 29.1364 57.0682 28.4697 56.5869 28.0207L52.169 23.8986C50.9853 22.7942 51.6293 20.805 53.2336 20.6099L59.2218 19.8814C59.8741 19.8021 60.4391 19.39 60.7159 18.7919L63.2566 13.3009Z" fill="#9C1EFF"/>
</g>
<defs>
<clipPath id="clip0_13732_9536">
<rect x="0.25" width="96" height="96" rx="48" fill="white"/>
</clipPath>
</defs>
</svg>
