<svg width="96" height="96" viewBox="0 0 96 96" fill="none" xmlns="http://www.w3.org/2000/svg">
<g clip-path="url(#clip0_13701_3901)">
<rect width="96" height="96" rx="48" fill="#E4EBF0"/>
<path d="M95 64C93.8954 64 93 63.1046 93 62C93 60.8954 93.8954 60 95 60C96.1046 60 97 60.8954 97 62C97 63.1046 96.1046 64 95 64Z" fill="#B3BEC9"/>
<path d="M87 64C85.8954 64 85 63.1046 85 62C85 60.8954 85.8954 60 87 60C88.1046 60 89 60.8954 89 62C89 63.1046 88.1046 64 87 64Z" fill="#B3BEC9"/>
<path d="M79 64C77.8954 64 77 63.1046 77 62C77 60.8954 77.8954 60 79 60C80.1046 60 81 60.8954 81 62C81 63.1046 80.1046 64 79 64Z" fill="#B3BEC9"/>
<path d="M71 64C69.8954 64 69 63.1046 69 62C69 60.8954 69.8954 60 71 60C72.1046 60 73 60.8954 73 62C73 63.1046 72.1046 64 71 64Z" fill="#2F80ED"/>
<path d="M63 64C61.8954 64 61 63.1046 61 62C61 60.8954 61.8954 60 63 60C64.1046 60 65 60.8954 65 62C65 63.1046 64.1046 64 63 64Z" fill="#B3BEC9"/>
<path d="M95 72C93.8954 72 93 71.1046 93 70C93 68.8954 93.8954 68 95 68C96.1046 68 97 68.8954 97 70C97 71.1046 96.1046 72 95 72Z" fill="#B3BEC9"/>
<path d="M87 72C85.8954 72 85 71.1046 85 70C85 68.8954 85.8954 68 87 68C88.1046 68 89 68.8954 89 70C89 71.1046 88.1046 72 87 72Z" fill="#B3BEC9"/>
<path d="M79 72C77.8954 72 77 71.1046 77 70C77 68.8954 77.8954 68 79 68C80.1046 68 81 68.8954 81 70C81 71.1046 80.1046 72 79 72Z" fill="#B3BEC9"/>
<path d="M71 72C69.8954 72 69 71.1046 69 70C69 68.8954 69.8954 68 71 68C72.1046 68 73 68.8954 73 70C73 71.1046 72.1046 72 71 72Z" fill="#B3BEC9"/>
<path d="M63 72C61.8954 72 61 71.1046 61 70C61 68.8954 61.8954 68 63 68C64.1046 68 65 68.8954 65 70C65 71.1046 64.1046 72 63 72Z" fill="#B3BEC9"/>
<path d="M95 80C93.8954 80 93 79.1046 93 78C93 76.8954 93.8954 76 95 76C96.1046 76 97 76.8954 97 78C97 79.1046 96.1046 80 95 80Z" fill="#B3BEC9"/>
<path d="M95 88C93.8954 88 93 87.1046 93 86C93 84.8954 93.8954 84 95 84C96.1046 84 97 84.8954 97 86C97 87.1046 96.1046 88 95 88Z" fill="#B3BEC9"/>
<path d="M95 96C93.8954 96 93 95.1046 93 94C93 92.8954 93.8954 92 95 92C96.1046 92 97 92.8954 97 94C97 95.1046 96.1046 96 95 96Z" fill="#B3BEC9"/>
<path d="M87 80C85.8954 80 85 79.1046 85 78C85 76.8954 85.8954 76 87 76C88.1046 76 89 76.8954 89 78C89 79.1046 88.1046 80 87 80Z" fill="#B3BEC9"/>
<path d="M79 80C77.8954 80 77 79.1046 77 78C77 76.8954 77.8954 76 79 76C80.1046 76 81 76.8954 81 78C81 79.1046 80.1046 80 79 80Z" fill="#B3BEC9"/>
<path d="M71 80C69.8954 80 69 79.1046 69 78C69 76.8954 69.8954 76 71 76C72.1046 76 73 76.8954 73 78C73 79.1046 72.1046 80 71 80Z" fill="#B3BEC9"/>
<path d="M63 80C61.8954 80 61 79.1046 61 78C61 76.8954 61.8954 76 63 76C64.1046 76 65 76.8954 65 78C65 79.1046 64.1046 80 63 80Z" fill="#B3BEC9"/>
<path d="M87 88C85.8954 88 85 87.1046 85 86C85 84.8954 85.8954 84 87 84C88.1046 84 89 84.8954 89 86C89 87.1046 88.1046 88 87 88Z" fill="#B3BEC9"/>
<path d="M79 88C77.8954 88 77 87.1046 77 86C77 84.8954 77.8954 84 79 84C80.1046 84 81 84.8954 81 86C81 87.1046 80.1046 88 79 88Z" fill="#B3BEC9"/>
<path d="M71 88C69.8954 88 69 87.1046 69 86C69 84.8954 69.8954 84 71 84C72.1046 84 73 84.8954 73 86C73 87.1046 72.1046 88 71 88Z" fill="#B3BEC9"/>
<path d="M63 88C61.8954 88 61 87.1046 61 86C61 84.8954 61.8954 84 63 84C64.1046 84 65 84.8954 65 86C65 87.1046 64.1046 88 63 88Z" fill="#1C9E59"/>
<path d="M87 96C85.8954 96 85 95.1046 85 94C85 92.8954 85.8954 92 87 92C88.1046 92 89 92.8954 89 94C89 95.1046 88.1046 96 87 96Z" fill="#B3BEC9"/>
<path d="M79 96C77.8954 96 77 95.1046 77 94C77 92.8954 77.8954 92 79 92C80.1046 92 81 92.8954 81 94C81 95.1046 80.1046 96 79 96Z" fill="#B3BEC9"/>
<path d="M71 96C69.8954 96 69 95.1046 69 94C69 92.8954 69.8954 92 71 92C72.1046 92 73 92.8954 73 94C73 95.1046 72.1046 96 71 96Z" fill="#B3BEC9"/>
<path d="M63 96C61.8954 96 61 95.1046 61 94C61 92.8954 61.8954 92 63 92C64.1046 92 65 92.8954 65 94C65 95.1046 64.1046 96 63 96Z" fill="#B3BEC9"/>
<path d="M-6 18.9839C-6 17.327 -4.65685 15.9839 -3 15.9839H31.3022L47.881 32.5626V81.7857C47.881 83.4426 46.5378 84.7857 44.881 84.7857H-3C-4.65686 84.7857 -6 83.4426 -6 81.7857V18.9839Z" fill="#9C1EFF"/>
<path d="M31.302 15.9839L47.8808 32.5626H34.302C32.6451 32.5626 31.302 31.2195 31.302 29.5626V15.9839Z" fill="#59059B"/>
<path fill-rule="evenodd" clip-rule="evenodd" d="M-6.43456 77.9163C-4.16117 76.1115 -1.35519 73.5684 2.08329 70.1299C5.56539 66.6478 8.30538 64.1747 10.4547 62.5065C12.5548 60.8766 14.251 59.8848 15.6225 59.5891C16.3426 59.4338 17.1175 59.4391 17.8253 59.7983C18.5484 60.1653 18.9684 60.7828 19.1992 61.3866C19.6196 62.4866 19.5484 63.8996 19.4029 65.1103C19.2639 66.268 19.0131 67.53 18.7883 68.6617C18.7647 68.7807 18.7413 68.8982 18.7184 69.0141C18.5839 69.6942 18.4685 70.2992 18.3867 70.8182C18.6007 70.6231 18.8392 70.395 19.1043 70.1299C20.7498 68.4845 22.1433 67.3246 23.3496 66.5703C24.5454 65.8226 25.6739 65.3998 26.7565 65.411C29.1011 65.4352 30.2035 67.4263 30.794 68.5068C30.8767 68.658 30.9528 68.7997 31.0245 68.9331C31.2703 69.3904 31.464 69.7507 31.6886 70.0664C31.9656 70.4557 32.1281 70.5318 32.1892 70.5498C32.2205 70.5589 32.4624 70.6282 33.1047 70.2901C33.7608 69.9447 34.6791 69.2519 35.9393 67.9917L38.0607 70.113C36.709 71.4647 35.5434 72.3966 34.5022 72.9447C33.4473 73.5001 32.3786 73.7318 31.3446 73.4284C30.3404 73.1338 29.683 72.4224 29.2441 71.8054C28.8986 71.3198 28.5876 70.7392 28.3313 70.2606C28.2717 70.1492 28.215 70.0434 28.1615 69.9455C27.4536 68.6503 27.1083 68.4148 26.7255 68.4108C26.4445 68.4079 25.8893 68.5205 24.9401 69.114C24.0016 69.7009 22.7889 70.6879 21.2256 72.2512C20.512 72.9648 19.8888 73.5201 19.3453 73.9138C18.8504 74.2723 18.2305 74.6418 17.5531 74.7062C17.1683 74.7427 16.7251 74.6838 16.3107 74.4324C15.9047 74.1861 15.6611 73.8367 15.5195 73.5284C15.2647 72.9737 15.2453 72.3464 15.2598 71.8897C15.2905 70.917 15.537 69.6377 15.7754 68.4321C15.798 68.3179 15.8206 68.2038 15.8433 68.0897C16.0723 66.9355 16.2999 65.7888 16.4244 64.7525C16.5642 63.5883 16.5307 62.8545 16.4106 62.4959C16.3708 62.5 16.3195 62.5077 16.2549 62.5217C15.592 62.6646 14.3522 63.2791 12.2941 64.8764C10.2854 66.4355 7.64519 68.8106 4.20461 72.2512C0.720421 75.7354 -2.17425 78.3645 -4.56922 80.2659C-6.94545 82.1524 -8.90678 83.3852 -10.5194 83.9961C-12.108 84.598 -13.7355 84.7235 -14.9994 83.7291C-16.1695 82.8086 -16.5325 81.2865 -16.6305 79.9218C-16.8317 77.1206 -16.021 73.1343 -15.1193 69.3298C-14.8298 68.1085 -14.5292 66.899 -14.2378 65.7269C-13.59 63.1206 -12.9883 60.6999 -12.6588 58.75L-9.70072 59.2498C-10.05 61.3169 -10.6983 63.9258 -11.3614 66.5944C-11.6457 67.7385 -11.9328 68.8936 -12.2001 70.0216C-13.1225 73.9133 -13.8008 77.4441 -13.6382 79.7069C-13.5544 80.8742 -13.2723 81.2708 -13.1445 81.3713C-13.1104 81.3981 -12.7871 81.6472 -11.5822 81.1907C-10.4014 80.7434 -8.72668 79.736 -6.43456 77.9163ZM16.5235 62.4946C16.5235 62.4946 16.5219 62.4944 16.519 62.4937C16.5221 62.4942 16.5236 62.4945 16.5235 62.4946Z" fill="white"/>
<path d="M67.8984 15.58C70.1735 12.4894 74.5233 11.8282 77.6139 14.1033C80.7046 16.3784 81.3658 20.7282 79.0907 23.8188L49.3937 64.1617C48.5368 65.3256 47.3807 66.2358 46.048 66.7953L37.1387 70.5361C36.4413 70.8289 35.6838 70.2713 35.7562 69.5183L36.6808 59.8999C36.8191 58.4612 37.3446 57.0868 38.2014 55.9229L67.8984 15.58Z" fill="#FFAE41"/>
<path d="M65.4268 18.9375L76.619 27.1763L73.3494 31.618L62.1572 23.3792L65.4268 18.9375Z" fill="#DC893C"/>
<path d="M81.6866 34.3581C82.5966 33.1218 82.3322 31.382 81.096 30.4719C79.8597 29.5618 78.1197 29.8263 77.2097 31.0626L65.6754 46.7317C64.7654 47.968 65.0298 49.7079 66.2661 50.6179C67.5023 51.528 69.2423 51.2635 70.1523 50.0272L81.6866 34.3581Z" fill="#DC893C"/>
<path fill-rule="evenodd" clip-rule="evenodd" d="M14.6924 41C14.6924 40.1716 14.0208 39.5 13.1924 39.5L10 39.5C9.1716 39.5 8.50003 40.1716 8.50003 41C8.50003 41.8284 9.1716 42.5 10 42.5L13.1924 42.5C14.0208 42.5 14.6924 41.8284 14.6924 41Z" fill="#59059B"/>
<path fill-rule="evenodd" clip-rule="evenodd" d="M22.1412 47.3848C22.1412 46.5563 21.4697 45.8848 20.6412 45.8848L10.0001 45.8848C9.17163 45.8848 8.50006 46.5563 8.50006 47.3848C8.50006 48.2132 9.17163 48.8848 10.0001 48.8848L20.6412 48.8848C21.4697 48.8848 22.1412 48.2132 22.1412 47.3848Z" fill="#59059B"/>
</g>
<defs>
<clipPath id="clip0_13701_3901">
<rect width="96" height="96" rx="48" fill="white"/>
</clipPath>
</defs>
</svg>
