<svg width="96" height="96" viewBox="0 0 96 96" fill="none" xmlns="http://www.w3.org/2000/svg">
<g clip-path="url(#clip0_13701_3176)">
<rect width="96" height="96" rx="48" fill="#E4EBF0"/>
<path d="M10.3219 22.1423C10.3219 20.4855 11.665 19.1423 13.3219 19.1423H44.0222L59.0001 34.1202V78.3007C59.0001 79.9575 57.657 81.3007 56.0001 81.3007H13.3219C11.665 81.3007 10.3219 79.9575 10.3219 78.3007V22.1423Z" fill="#1C9E59"/>
<mask id="mask0_13701_3176" style="mask-type:alpha" maskUnits="userSpaceOnUse" x="10" y="19" width="50" height="63">
<path d="M10.3219 22.1423C10.3219 20.4855 11.665 19.1423 13.3219 19.1423H44.0222L59.0001 34.1202V78.3007C59.0001 79.9575 57.657 81.3007 56.0001 81.3007H13.3219C11.665 81.3007 10.3219 79.9575 10.3219 78.3007V22.1423Z" fill="#0085FF"/>
</mask>
<g mask="url(#mask0_13701_3176)">
<path fill-rule="evenodd" clip-rule="evenodd" d="M31.218 51.5879C31.218 50.7595 31.8896 50.0879 32.718 50.0879H45.718C46.5464 50.0879 47.218 50.7595 47.218 51.5879C47.218 52.4163 46.5464 53.0879 45.718 53.0879H32.718C31.8896 53.0879 31.218 52.4163 31.218 51.5879Z" fill="#196036"/>
<path fill-rule="evenodd" clip-rule="evenodd" d="M37.218 59.5879C37.218 58.7595 37.8896 58.0879 38.718 58.0879H45.718C46.5464 58.0879 47.218 58.7595 47.218 59.5879C47.218 60.4163 46.5464 61.0879 45.718 61.0879H38.718C37.8896 61.0879 37.218 60.4163 37.218 59.5879Z" fill="#196036"/>
<path fill-rule="evenodd" clip-rule="evenodd" d="M19.218 67.5879C19.218 66.7595 19.8896 66.0879 20.718 66.0879H26.718C27.5464 66.0879 28.218 66.7595 28.218 67.5879C28.218 68.4163 27.5464 69.0879 26.718 69.0879H20.718C19.8896 69.0879 19.218 68.4163 19.218 67.5879Z" fill="#196036"/>
<path fill-rule="evenodd" clip-rule="evenodd" d="M30.218 67.5879C30.218 66.7595 30.8896 66.0879 31.718 66.0879L45.718 66.0879C46.5464 66.0879 47.218 66.7595 47.218 67.5879C47.218 68.4163 46.5464 69.0879 45.718 69.0879L31.718 69.0879C30.8896 69.0879 30.218 68.4163 30.218 67.5879Z" fill="#196036"/>
<path fill-rule="evenodd" clip-rule="evenodd" d="M19.218 51.5879C19.218 50.7595 19.8896 50.0879 20.718 50.0879H26.718C27.5464 50.0879 28.218 50.7595 28.218 51.5879C28.218 52.4163 27.5464 53.0879 26.718 53.0879H20.718C19.8896 53.0879 19.218 52.4163 19.218 51.5879Z" fill="white"/>
<path fill-rule="evenodd" clip-rule="evenodd" d="M19.218 59.5879C19.218 58.7595 19.8896 58.0879 20.718 58.0879H33.718C34.5464 58.0879 35.218 58.7595 35.218 59.5879C35.218 60.4163 34.5464 61.0879 33.718 61.0879H20.718C19.8896 61.0879 19.218 60.4163 19.218 59.5879Z" fill="white"/>
</g>
<path d="M44.0221 19.1423L59 34.1202H47.0221C45.3652 34.1202 44.0221 32.7771 44.0221 31.1202V19.1423Z" fill="#196036"/>
<path fill-rule="evenodd" clip-rule="evenodd" d="M11.3185 20.139C10.6573 20.8002 10.6573 21.8722 11.3185 22.5334L18.092 29.3069C18.7532 29.9681 19.8252 29.9681 20.4864 29.3069C21.1475 28.6457 21.1475 27.5737 20.4864 26.9125L13.7128 20.139C13.0517 19.4778 11.9797 19.4778 11.3185 20.139ZM9.19716 24.6547C7.3644 22.8219 7.36441 19.8504 9.19716 18.0177C11.0299 16.1849 14.0014 16.1849 15.8342 18.0177L22.6077 24.7912C24.4404 26.624 24.4404 29.5954 22.6077 31.4282C20.7749 33.2609 17.8034 33.261 15.9707 31.4282L9.19716 24.6547Z" fill="#196036"/>
<path d="M69.0217 5.2998C70.1263 5.2998 71.0217 4.40437 71.0217 3.2998C71.0217 2.19524 70.1263 1.2998 69.0217 1.2998C67.9172 1.2998 67.0217 2.19524 67.0217 3.2998C67.0217 4.40437 67.9172 5.2998 69.0217 5.2998Z" fill="#B3BEC9"/>
<path d="M69.0217 13.2998C70.1263 13.2998 71.0217 12.4044 71.0217 11.2998C71.0217 10.1952 70.1263 9.2998 69.0217 9.2998C67.9172 9.2998 67.0217 10.1952 67.0217 11.2998C67.0217 12.4044 67.9172 13.2998 69.0217 13.2998Z" fill="#9C1EFF"/>
<path d="M69.0217 21.2998C70.1263 21.2998 71.0217 20.4044 71.0217 19.2998C71.0217 18.1952 70.1263 17.2998 69.0217 17.2998C67.9172 17.2998 67.0217 18.1952 67.0217 19.2998C67.0217 20.4044 67.9172 21.2998 69.0217 21.2998Z" fill="#B3BEC9"/>
<path d="M69.0217 29.2998C70.1263 29.2998 71.0217 28.4044 71.0217 27.2998C71.0217 26.1952 70.1263 25.2998 69.0217 25.2998C67.9172 25.2998 67.0217 26.1952 67.0217 27.2998C67.0217 28.4044 67.9172 29.2998 69.0217 29.2998Z" fill="#B3BEC9"/>
<path d="M69.0217 37.2998C70.1263 37.2998 71.0217 36.4044 71.0217 35.2998C71.0217 34.1952 70.1263 33.2998 69.0217 33.2998C67.9172 33.2998 67.0217 34.1952 67.0217 35.2998C67.0217 36.4044 67.9172 37.2998 69.0217 37.2998Z" fill="#B3BEC9"/>
<path d="M77.0217 5.2998C78.1263 5.2998 79.0217 4.40437 79.0217 3.2998C79.0217 2.19524 78.1263 1.2998 77.0217 1.2998C75.9172 1.2998 75.0217 2.19524 75.0217 3.2998C75.0217 4.40437 75.9172 5.2998 77.0217 5.2998Z" fill="#B3BEC9"/>
<path d="M77.0217 13.2998C78.1263 13.2998 79.0217 12.4044 79.0217 11.2998C79.0217 10.1952 78.1263 9.2998 77.0217 9.2998C75.9172 9.2998 75.0217 10.1952 75.0217 11.2998C75.0217 12.4044 75.9172 13.2998 77.0217 13.2998Z" fill="#B3BEC9"/>
<path d="M77.0217 21.2998C78.1263 21.2998 79.0217 20.4044 79.0217 19.2998C79.0217 18.1952 78.1263 17.2998 77.0217 17.2998C75.9172 17.2998 75.0217 18.1952 75.0217 19.2998C75.0217 20.4044 75.9172 21.2998 77.0217 21.2998Z" fill="#B3BEC9"/>
<path d="M77.0217 29.2998C78.1263 29.2998 79.0217 28.4044 79.0217 27.2998C79.0217 26.1952 78.1263 25.2998 77.0217 25.2998C75.9172 25.2998 75.0217 26.1952 75.0217 27.2998C75.0217 28.4044 75.9172 29.2998 77.0217 29.2998Z" fill="#B3BEC9"/>
<path d="M77.0217 37.2998C78.1263 37.2998 79.0217 36.4044 79.0217 35.2998C79.0217 34.1952 78.1263 33.2998 77.0217 33.2998C75.9172 33.2998 75.0217 34.1952 75.0217 35.2998C75.0217 36.4044 75.9172 37.2998 77.0217 37.2998Z" fill="#F84747"/>
<path d="M85.0217 5.2998C86.1263 5.2998 87.0217 4.40437 87.0217 3.2998C87.0217 2.19524 86.1263 1.2998 85.0217 1.2998C83.9172 1.2998 83.0217 2.19524 83.0217 3.2998C83.0217 4.40437 83.9172 5.2998 85.0217 5.2998Z" fill="#B3BEC9"/>
<path d="M93.0217 5.2998C94.1263 5.2998 95.0217 4.40437 95.0217 3.2998C95.0217 2.19524 94.1263 1.2998 93.0217 1.2998C91.9172 1.2998 91.0217 2.19524 91.0217 3.2998C91.0217 4.40437 91.9172 5.2998 93.0217 5.2998Z" fill="#B3BEC9"/>
<path d="M85.0217 13.2998C86.1263 13.2998 87.0217 12.4044 87.0217 11.2998C87.0217 10.1952 86.1263 9.2998 85.0217 9.2998C83.9172 9.2998 83.0217 10.1952 83.0217 11.2998C83.0217 12.4044 83.9172 13.2998 85.0217 13.2998Z" fill="#B3BEC9"/>
<path d="M93.0217 13.2998C94.1263 13.2998 95.0217 12.4044 95.0217 11.2998C95.0217 10.1952 94.1263 9.2998 93.0217 9.2998C91.9172 9.2998 91.0217 10.1952 91.0217 11.2998C91.0217 12.4044 91.9172 13.2998 93.0217 13.2998Z" fill="#B3BEC9"/>
<path d="M85.0217 21.2998C86.1263 21.2998 87.0217 20.4044 87.0217 19.2998C87.0217 18.1952 86.1263 17.2998 85.0217 17.2998C83.9172 17.2998 83.0217 18.1952 83.0217 19.2998C83.0217 20.4044 83.9172 21.2998 85.0217 21.2998Z" fill="#B3BEC9"/>
<path d="M93.0217 21.2998C94.1263 21.2998 95.0217 20.4044 95.0217 19.2998C95.0217 18.1952 94.1263 17.2998 93.0217 17.2998C91.9172 17.2998 91.0217 18.1952 91.0217 19.2998C91.0217 20.4044 91.9172 21.2998 93.0217 21.2998Z" fill="#B3BEC9"/>
<path d="M85.0217 29.2998C86.1263 29.2998 87.0217 28.4044 87.0217 27.2998C87.0217 26.1952 86.1263 25.2998 85.0217 25.2998C83.9172 25.2998 83.0217 26.1952 83.0217 27.2998C83.0217 28.4044 83.9172 29.2998 85.0217 29.2998Z" fill="#B3BEC9"/>
<path d="M93.0217 29.2998C94.1263 29.2998 95.0217 28.4044 95.0217 27.2998C95.0217 26.1952 94.1263 25.2998 93.0217 25.2998C91.9172 25.2998 91.0217 26.1952 91.0217 27.2998C91.0217 28.4044 91.9172 29.2998 93.0217 29.2998Z" fill="#B3BEC9"/>
<path d="M85.0217 37.2998C86.1263 37.2998 87.0217 36.4044 87.0217 35.2998C87.0217 34.1952 86.1263 33.2998 85.0217 33.2998C83.9172 33.2998 83.0217 34.1952 83.0217 35.2998C83.0217 36.4044 83.9172 37.2998 85.0217 37.2998Z" fill="#B3BEC9"/>
<path d="M93.0217 37.2998C94.1263 37.2998 95.0217 36.4044 95.0217 35.2998C95.0217 34.1952 94.1263 33.2998 93.0217 33.2998C91.9172 33.2998 91.0217 34.1952 91.0217 35.2998C91.0217 36.4044 91.9172 37.2998 93.0217 37.2998Z" fill="#B3BEC9"/>
<rect x="62.14" y="53.6216" width="17.8871" height="16.5643" fill="white"/>
<g clip-path="url(#clip1_13701_3176)">
<path d="M61.4592 70.1852C57.3516 70.1852 54.0217 66.8964 54.0217 62.8395C54.0217 59.0442 56.9361 55.9211 60.6751 55.5342C60.4935 54.8512 60.3967 54.1343 60.3967 53.3951C60.3967 48.7586 64.2023 45 68.8967 45C72.8893 45 76.2389 47.7187 77.1513 51.3839C77.5789 51.3261 78.0155 51.2963 78.4592 51.2963C83.7404 51.2963 88.0217 55.5247 88.0217 60.7407C88.0217 65.9568 83.7404 70.1852 78.4592 70.1852H73.1467V62.6595L75.8941 65.3729C76.724 66.1926 78.0695 66.1926 78.8993 65.3729C79.7292 64.5533 79.7292 63.2245 78.8993 62.4048L72.5243 56.1085C71.6945 55.2889 70.349 55.2889 69.5191 56.1085L63.1441 62.4048C62.3143 63.2245 62.3143 64.5533 63.1441 65.3729C63.974 66.1926 65.3195 66.1926 66.1493 65.3729L68.8967 62.6595L68.8967 70.1852H61.4592Z" fill="#FFAE41"/>
<path d="M68.8967 70.1852H73.1467L73.1467 76.9012C73.1467 78.0604 72.1953 79 71.0217 79C69.8481 79 68.8967 78.0604 68.8967 76.9012L68.8967 70.1852Z" fill="#FFAE41"/>
</g>
</g>
<defs>
<clipPath id="clip0_13701_3176">
<rect width="96" height="96" rx="48" fill="white"/>
</clipPath>
<clipPath id="clip1_13701_3176">
<rect width="34" height="34" fill="white" transform="translate(54.0217 45)"/>
</clipPath>
</defs>
</svg>
