<svg width="350" height="350" viewBox="0 0 350 350" fill="none" xmlns="http://www.w3.org/2000/svg">
<path d="M79.9751 114.182C89.635 114.182 97.4659 106.351 97.4659 96.6912C97.4659 87.0313 89.635 79.2004 79.9751 79.2004C70.3153 79.2004 62.4844 87.0313 62.4844 96.6912C62.4844 106.351 70.3153 114.182 79.9751 114.182Z" fill="#FF6584"/>
<path d="M165.075 162.315C165.075 203.585 140.54 217.995 110.275 217.995C80.0102 217.995 55.4756 203.585 55.4756 162.315C55.4756 121.044 110.275 68.5417 110.275 68.5417C110.275 68.5417 165.075 121.044 165.075 162.315Z" fill="#F2F2F2"/>
<path d="M108.278 211.682L108.839 177.142L132.196 134.412L108.927 171.724L109.179 156.194L125.277 125.279L109.246 152.084L109.7 124.152L126.938 99.5395L109.771 119.759L110.055 68.5417L108.273 136.345L108.419 133.548L90.894 106.722L108.139 138.917L106.506 170.112L106.457 169.284L86.2529 141.054L106.396 172.209L106.192 176.111L106.155 176.17L106.172 176.49L102.029 255.635H107.564L108.228 214.755L128.321 183.676L108.278 211.682Z" fill="#3F3D56"/>
<path d="M328.125 179.218C328.125 213 308.042 224.795 283.269 224.795C258.496 224.795 238.413 213 238.413 179.218C238.413 145.436 283.269 102.46 283.269 102.46C283.269 102.46 328.125 145.436 328.125 179.218Z" fill="#F2F2F2"/>
<path d="M281.635 219.627L282.094 191.355L301.212 156.378L282.166 186.92L282.372 174.208L295.549 148.902L282.427 170.843L282.799 147.98L296.908 127.833L282.857 144.384L283.089 102.46L281.63 157.96L281.75 155.671L267.405 133.712L281.52 160.066L280.184 185.601L280.144 184.923L263.606 161.815L280.094 187.317L279.926 190.511L279.897 190.559L279.91 190.821L276.519 255.605H281.05L281.594 222.143L298.041 196.703L281.635 219.627Z" fill="#3F3D56"/>
<path d="M173.441 262.174C257.149 262.174 325.008 258.743 325.008 254.512C325.008 250.281 257.149 246.85 173.441 246.85C89.7336 246.85 21.875 250.281 21.875 254.512C21.875 258.743 89.7336 262.174 173.441 262.174Z" fill="#3F3D56"/>
<path d="M265.774 268.482C280.111 268.482 291.733 267.895 291.733 267.17C291.733 266.445 280.111 265.858 265.774 265.858C251.437 265.858 239.814 266.445 239.814 267.17C239.814 267.895 251.437 268.482 265.774 268.482Z" fill="#3F3D56"/>
<path d="M171.836 281.141C186.173 281.141 197.796 280.553 197.796 279.829C197.796 279.104 186.173 278.516 171.836 278.516C157.499 278.516 145.876 279.104 145.876 279.829C145.876 280.553 157.499 281.141 171.836 281.141Z" fill="#3F3D56"/>
<path d="M100.568 272.213C133.323 272.213 159.876 270.871 159.876 269.215C159.876 267.56 133.323 266.217 100.568 266.217C67.8126 266.217 41.2593 267.56 41.2593 269.215C41.2593 270.871 67.8126 272.213 100.568 272.213Z" fill="#3F3D56"/>
<path d="M48.4075 244.89C60.3315 244.89 69.9977 235.223 69.9977 223.299C69.9977 211.375 60.3315 201.709 48.4075 201.709C36.4836 201.709 26.8174 211.375 26.8174 223.299C26.8174 235.223 36.4836 244.89 48.4075 244.89Z" fill="#2F2E41"/>
<path d="M44.9282 240.204L38.3696 240.126L38.2312 251.877L44.7897 251.954L44.9282 240.204Z" fill="#2F2E41"/>
<path d="M58.0454 240.358L51.4868 240.281L51.3484 252.032L57.9069 252.109L58.0454 240.358Z" fill="#2F2E41"/>
<path d="M49.1612 252.143C49.1745 251.011 46.7383 250.065 43.7198 250.029C40.7013 249.994 38.2435 250.882 38.2302 252.014C38.2169 253.146 40.653 254.093 43.6715 254.128C46.69 254.164 49.1478 253.275 49.1612 252.143Z" fill="#2F2E41"/>
<path d="M62.2818 252.024C62.2951 250.892 59.8589 249.945 56.8404 249.91C53.8219 249.874 51.3641 250.763 51.3508 251.895C51.3375 253.027 53.7736 253.973 56.7921 254.009C59.8106 254.045 62.2684 253.156 62.2818 252.024Z" fill="#2F2E41"/>
<path d="M49.0191 225.219C53.0943 225.219 56.398 221.916 56.398 217.84C56.398 213.765 53.0943 210.461 49.0191 210.461C44.9438 210.461 41.6401 213.765 41.6401 217.84C41.6401 221.916 44.9438 225.219 49.0191 225.219Z" fill="white"/>
<path d="M49.0192 220.3C50.3776 220.3 51.4789 219.199 51.4789 217.84C51.4789 216.482 50.3776 215.381 49.0192 215.381C47.6608 215.381 46.5596 216.482 46.5596 217.84C46.5596 219.199 47.6608 220.3 49.0192 220.3Z" fill="#3F3D56"/>
<path d="M27.7026 202.976C26.0514 195.149 31.7166 187.326 40.3562 185.503C48.9958 183.681 57.3381 188.549 58.9893 196.376C60.6405 204.203 54.8958 207.015 46.2562 208.838C37.6166 210.66 29.3538 210.803 27.7026 202.976Z" fill="#6C63FF"/>
<path d="M81.3405 235.344C81.3405 250.396 72.3929 255.651 61.3546 255.651C61.0989 255.651 60.8436 255.648 60.5887 255.643C60.0772 255.632 59.5707 255.607 59.0702 255.573C49.1083 254.868 41.3687 249.342 41.3687 235.344C41.3687 220.857 59.8812 202.577 61.2718 201.224L61.2742 201.222C61.3278 201.169 61.3546 201.144 61.3546 201.144C61.3546 201.144 81.3405 220.292 81.3405 235.344Z" fill="#6C63FF"/>
<path d="M60.6278 253.349L67.9376 243.135L60.6096 254.47L60.5901 255.643C60.0787 255.632 59.5721 255.607 59.0716 255.573L59.8595 240.514L59.8534 240.397L59.8668 240.375L59.9411 238.953L52.5947 227.59L59.9642 237.886L59.9813 238.188L60.5767 226.81L54.2873 215.068L60.6534 224.813L61.2732 201.224L61.2756 201.144V201.222L61.1721 219.823L67.4335 212.449L61.1466 221.426L60.981 231.613L66.8271 221.836L60.9566 233.112L60.8641 238.775L69.3514 225.168L60.8324 240.752L60.6278 253.349Z" fill="#3F3D56"/>
<path d="M216.592 244.656C228.516 244.656 238.182 234.989 238.182 223.066C238.182 211.142 228.516 201.475 216.592 201.475C204.668 201.475 195.002 211.142 195.002 223.066C195.002 234.989 204.668 244.656 216.592 244.656Z" fill="#2F2E41"/>
<path d="M218.434 240.226L212.165 242.153L215.617 253.386L221.886 251.459L218.434 240.226Z" fill="#2F2E41"/>
<path d="M230.975 236.374L224.705 238.3L228.157 249.533L234.427 247.607L230.975 236.374Z" fill="#2F2E41"/>
<path d="M221.485 253.87C224.37 252.983 226.44 251.387 226.107 250.305C225.775 249.223 223.166 249.064 220.28 249.951C217.395 250.838 215.325 252.434 215.658 253.516C215.99 254.598 218.599 254.757 221.485 253.87Z" fill="#2F2E41"/>
<path d="M233.944 249.755C236.83 248.868 238.899 247.272 238.567 246.19C238.234 245.108 235.625 244.949 232.74 245.836C229.854 246.723 227.785 248.319 228.117 249.401C228.45 250.483 231.059 250.642 233.944 249.755Z" fill="#2F2E41"/>
<path d="M215.51 225.059C219.585 225.059 222.889 221.756 222.889 217.68C222.889 213.605 219.585 210.302 215.51 210.302C211.435 210.302 208.131 213.605 208.131 217.68C208.131 221.756 211.435 225.059 215.51 225.059Z" fill="white"/>
<path d="M215.509 220.14C216.868 220.14 217.969 219.039 217.969 217.681C217.969 216.322 216.868 215.221 215.509 215.221C214.151 215.221 213.05 216.322 213.05 217.681C213.05 219.039 214.151 220.14 215.509 220.14Z" fill="#3F3D56"/>
<path d="M190.675 210.026C186.715 203.075 189.725 193.897 197.397 189.526C205.069 185.156 214.498 187.247 218.458 194.198C222.418 201.148 217.805 205.579 210.133 209.949C202.461 214.32 194.635 216.977 190.675 210.026Z" fill="#6C63FF"/>
<path d="M178.088 232.587C178.088 246.404 169.874 251.229 159.742 251.229C159.507 251.229 159.273 251.226 159.039 251.221C158.569 251.211 158.104 251.188 157.645 251.157C148.5 250.51 141.396 245.437 141.396 232.587C141.396 219.289 158.389 202.509 159.666 201.267L159.668 201.265C159.717 201.217 159.742 201.193 159.742 201.193C159.742 201.193 178.088 218.771 178.088 232.587Z" fill="#6C63FF"/>
<path d="M159.072 249.115L165.782 239.739L159.055 250.144L159.038 251.221C158.568 251.211 158.103 251.188 157.644 251.157L158.367 237.334L158.361 237.226L158.374 237.206L158.442 235.901L151.698 225.469L158.463 234.921L158.479 235.199L159.025 224.754L153.252 213.975L159.096 222.921L159.665 201.267L159.667 201.193V201.265L159.572 218.34L165.32 211.571L159.548 219.811L159.396 229.163L164.763 220.188L159.374 230.539L159.289 235.737L167.08 223.246L159.26 237.551L159.072 249.115Z" fill="#3F3D56"/>
<path d="M250.237 238.35C250.237 253.402 241.289 258.658 230.251 258.658C229.995 258.658 229.74 258.655 229.485 258.649C228.974 258.638 228.467 258.614 227.967 258.58C218.005 257.875 210.265 252.349 210.265 238.35C210.265 223.864 228.778 205.584 230.168 204.231L230.171 204.228C230.224 204.176 230.251 204.15 230.251 204.15C230.251 204.15 250.237 223.299 250.237 238.35Z" fill="#6C63FF"/>
<path d="M229.523 256.355L236.833 246.141L229.505 257.477L229.486 258.649C228.974 258.638 228.468 258.614 227.967 258.58L228.755 243.521L228.749 243.404L228.762 243.382L228.837 241.96L221.49 230.596L228.86 240.893L228.877 241.195L229.472 229.817L223.183 218.075L229.549 227.82L230.169 204.231L230.171 204.15V204.228L230.068 222.83L236.329 215.455L230.042 224.432L229.876 234.619L235.723 224.843L229.852 236.118L229.76 241.782L238.247 228.174L229.728 243.758L229.523 256.355Z" fill="#3F3D56"/>
<path d="M217.963 235.991C218.766 234.299 215.049 230.857 209.662 228.303C204.275 225.748 199.258 225.047 198.456 226.739C197.654 228.43 201.371 231.872 206.758 234.427C212.144 236.981 217.161 237.682 217.963 235.991Z" fill="#2F2E41"/>
<path d="M51.7938 234.014C52.4902 232.277 48.5685 229.07 43.0345 226.852C37.5005 224.634 32.4498 224.244 31.7535 225.982C31.0572 227.719 34.9789 230.925 40.5128 233.143C46.0468 235.362 51.0975 235.751 51.7938 234.014Z" fill="#2F2E41"/>
</svg>
