<svg width="200" height="200" viewBox="0 0 200 200" fill="none" xmlns="http://www.w3.org/2000/svg">
<g clip-path="url(#clip0_10387_55515)">
<rect width="200" height="200" rx="100" fill="#E4EBF0"/>
<path d="M19.007 75.8154C19.007 72.3636 21.8052 69.5654 25.257 69.5654H81.3327L109.033 97.2658V178.272C109.033 181.724 106.235 184.522 102.783 184.522H25.257C21.8052 184.522 19.007 181.724 19.007 178.272V75.8154Z" fill="#0085FF"/>
<path d="M81.3325 69.5654L109.033 97.2658H87.5825C84.1307 97.2658 81.3325 94.4676 81.3325 91.0158V69.5654Z" fill="#0048AF"/>
<path d="M18.8884 77.7977C16.5823 75.4916 16.5823 71.7526 18.8884 69.4464V69.4464C21.1946 67.1402 24.9336 67.1402 27.2398 69.4464L39.7668 81.9734C42.073 84.2796 42.073 88.0186 39.7668 90.3248V90.3248C37.4607 92.6309 33.7216 92.6309 31.4155 90.3248L18.8884 77.7977Z" stroke="#0048AF" stroke-width="6.25"/>
<path d="M36.7225 128.619H64.2806" stroke="white" stroke-width="6.25" stroke-linecap="round"/>
<path d="M36.9056 113.356H49.8515" stroke="white" stroke-width="6.25" stroke-linecap="round"/>
<path d="M36.7225 144.366H50.5016" stroke="#0048AF" stroke-width="6.25" stroke-linecap="round"/>
<path d="M36.7225 160.113H60.3437" stroke="#0048AF" stroke-width="6.25" stroke-linecap="round"/>
<rect x="83.9651" y="139.954" width="7.87373" height="7.87373" rx="2.08333" fill="#0048AF"/>
<rect x="83.9651" y="124.683" width="7.87373" height="7.87373" rx="2.08333" fill="white"/>
<rect x="83.9651" y="156.177" width="7.87373" height="7.87373" rx="2.08333" fill="#0048AF"/>
<circle cx="199.089" cy="108.23" r="4.16667" transform="rotate(90 199.089 108.23)" fill="#B3BEC9"/>
<circle cx="182.422" cy="108.23" r="4.16667" transform="rotate(90 182.422 108.23)" fill="#B3BEC9"/>
<circle cx="165.755" cy="108.23" r="4.16667" transform="rotate(90 165.755 108.23)" fill="#B3BEC9"/>
<circle cx="149.089" cy="108.23" r="4.16667" transform="rotate(90 149.089 108.23)" fill="#FFAE41"/>
<circle cx="132.422" cy="108.23" r="4.16667" transform="rotate(90 132.422 108.23)" fill="#B3BEC9"/>
<circle cx="199.089" cy="124.897" r="4.16667" transform="rotate(90 199.089 124.897)" fill="#B3BEC9"/>
<circle cx="182.422" cy="124.897" r="4.16667" transform="rotate(90 182.422 124.897)" fill="#B3BEC9"/>
<circle cx="165.755" cy="124.897" r="4.16667" transform="rotate(90 165.755 124.897)" fill="#B3BEC9"/>
<circle cx="149.089" cy="124.897" r="4.16667" transform="rotate(90 149.089 124.897)" fill="#B3BEC9"/>
<circle cx="132.422" cy="124.897" r="4.16667" transform="rotate(90 132.422 124.897)" fill="#B3BEC9"/>
<circle cx="199.089" cy="141.563" r="4.16667" transform="rotate(90 199.089 141.563)" fill="#B3BEC9"/>
<circle cx="199.089" cy="158.23" r="4.16667" transform="rotate(90 199.089 158.23)" fill="#B3BEC9"/>
<circle cx="199.089" cy="174.897" r="4.16667" transform="rotate(90 199.089 174.897)" fill="#B3BEC9"/>
<circle cx="199.089" cy="191.563" r="4.16667" transform="rotate(90 199.089 191.563)" fill="#B3BEC9"/>
<circle cx="182.422" cy="141.563" r="4.16667" transform="rotate(90 182.422 141.563)" fill="#B3BEC9"/>
<circle cx="165.755" cy="141.563" r="4.16667" transform="rotate(90 165.755 141.563)" fill="#B3BEC9"/>
<circle cx="149.089" cy="141.563" r="4.16667" transform="rotate(90 149.089 141.563)" fill="#B3BEC9"/>
<circle cx="132.422" cy="141.563" r="4.16667" transform="rotate(90 132.422 141.563)" fill="#B3BEC9"/>
<circle cx="182.422" cy="158.23" r="4.16667" transform="rotate(90 182.422 158.23)" fill="#B3BEC9"/>
<circle cx="165.755" cy="158.23" r="4.16667" transform="rotate(90 165.755 158.23)" fill="#B3BEC9"/>
<circle cx="149.089" cy="158.23" r="4.16667" transform="rotate(90 149.089 158.23)" fill="#B3BEC9"/>
<circle cx="132.422" cy="158.23" r="4.16667" transform="rotate(90 132.422 158.23)" fill="#1C9E59"/>
<circle cx="182.422" cy="174.897" r="4.16667" transform="rotate(90 182.422 174.897)" fill="#B3BEC9"/>
<circle cx="165.755" cy="174.897" r="4.16667" transform="rotate(90 165.755 174.897)" fill="#B3BEC9"/>
<circle cx="149.089" cy="174.897" r="4.16667" transform="rotate(90 149.089 174.897)" fill="#B3BEC9"/>
<circle cx="132.422" cy="174.897" r="4.16667" transform="rotate(90 132.422 174.897)" fill="#B3BEC9"/>
<circle cx="182.422" cy="191.563" r="4.16667" transform="rotate(90 182.422 191.563)" fill="#B3BEC9"/>
<circle cx="165.755" cy="191.563" r="4.16667" transform="rotate(90 165.755 191.563)" fill="#B3BEC9"/>
<circle cx="149.089" cy="191.563" r="4.16667" transform="rotate(90 149.089 191.563)" fill="#B3BEC9"/>
<circle cx="132.422" cy="191.563" r="4.16667" transform="rotate(90 132.422 191.563)" fill="#B3BEC9"/>
<rect x="91.8391" y="83.0176" width="54.1667" height="88.0209" rx="27.0833" transform="rotate(-90 91.8391 83.0176)" fill="#F84747"/>
<path d="M107.073 66.9378V56.7403M107.073 56.7403V44.9326H116.448C118.75 44.9326 120.615 46.7981 120.615 49.0993V52.5736C120.615 54.8748 118.75 56.7403 116.448 56.7403H107.073Z" stroke="white" stroke-width="6.25" stroke-linecap="square" stroke-linejoin="round"/>
<path d="M154.469 66.9378V56.7403M164.626 44.9326H154.469V56.7403M164.626 56.7403H154.469" stroke="white" stroke-width="6.25" stroke-linecap="square" stroke-linejoin="round"/>
<path d="M138.063 44.9326H130.771V66.9378H138.063C141.515 66.9378 144.313 64.1396 144.313 60.6878V51.1826C144.313 47.7308 141.515 44.9326 138.063 44.9326Z" stroke="white" stroke-width="6.25" stroke-linecap="square" stroke-linejoin="round"/>
</g>
<defs>
<clipPath id="clip0_10387_55515">
<rect width="200" height="200" rx="100" fill="white"/>
</clipPath>
</defs>
</svg>
