<svg width="24" height="22" viewBox="0 0 24 22" fill="none" xmlns="http://www.w3.org/2000/svg">
<path fill-rule="evenodd" clip-rule="evenodd" d="M19.8801 21.0503C22.4046 18.8504 24 15.6115 24 12C24 5.37258 18.6274 0 12 0C5.37258 0 0 5.37258 0 12C0 15.6115 1.59539 18.8504 4.11986 21.0503C4.77672 18.1241 8.05487 15.9 12 15.9C15.9451 15.9 19.2233 18.1241 19.8801 21.0503ZM12 14C14.4546 14 16.4444 11.9853 16.4444 9.5C16.4444 7.01472 14.4546 5 12 5C9.5454 5 7.55556 7.01472 7.55556 9.5C7.55556 11.9853 9.5454 14 12 14Z" fill="white"/>
</svg>
