<svg width="200" height="200" viewBox="0 0 200 200" fill="none" xmlns="http://www.w3.org/2000/svg">
<g clip-path="url(#clip0_12786_11456)">
<rect width="200" height="200" rx="100" fill="#E4EBF0"/>
<path d="M164.062 36.1602C173.973 36.1602 182.007 44.1945 182.007 54.1053V144.206C182.007 154.117 173.973 162.152 164.062 162.152H37.8123C27.9015 162.152 19.8672 154.117 19.8672 144.206V54.1053C19.8672 44.1945 27.9015 36.1602 37.8123 36.1602H164.062Z" fill="#881818"/>
<path d="M182.008 61.6055V148.693C182.008 156.127 175.982 162.152 168.549 162.152H33.326C25.8929 162.152 19.8672 156.127 19.8672 148.693V61.6055H182.008Z" fill="#F84343"/>
<circle cx="34.8994" cy="49.0254" r="4.57911" fill="#F84343"/>
<circle cx="48.544" cy="49.0254" r="4.57911" fill="#FFB53D"/>
<circle cx="62.1885" cy="49.0254" r="4.57911" fill="#1C9E59"/>
<path d="M189.707 85.3896C199.618 85.3896 207.653 93.424 207.653 103.335V193.436C207.653 203.347 199.618 211.381 189.707 211.381H63.4578C53.547 211.381 45.5127 203.347 45.5127 193.436V103.335C45.5127 93.424 53.547 85.3896 63.4578 85.3896H189.707Z" fill="#F4F6F8"/>
<path d="M207.653 110.835V197.923C207.653 205.356 201.628 211.382 194.194 211.382H58.9715C51.5384 211.382 45.5127 205.356 45.5127 197.923V110.835H207.653Z" fill="white"/>
<circle cx="60.5449" cy="98.2549" r="4.57911" fill="#F84343"/>
<circle cx="74.1895" cy="98.2549" r="4.57911" fill="#FFB53D"/>
<circle cx="87.834" cy="98.2549" r="4.57911" fill="#1C9E59"/>
<rect x="75.4248" y="135.417" width="110.651" height="33.1964" rx="10.2455" fill="#CAE6D3"/>
<path d="M87.9259 157.516V145.594H90.0856V155.705H95.3364V157.516H87.9259ZM101.018 157.69C100.145 157.69 99.388 157.498 98.7477 157.114C98.1073 156.73 97.6106 156.192 97.2574 155.501C96.9081 154.811 96.7335 154.003 96.7335 153.08C96.7335 152.156 96.9081 151.347 97.2574 150.652C97.6106 149.958 98.1073 149.418 98.7477 149.034C99.388 148.65 100.145 148.458 101.018 148.458C101.891 148.458 102.648 148.65 103.288 149.034C103.929 149.418 104.423 149.958 104.773 150.652C105.126 151.347 105.302 152.156 105.302 153.08C105.302 154.003 105.126 154.811 104.773 155.501C104.423 156.192 103.929 156.73 103.288 157.114C102.648 157.498 101.891 157.69 101.018 157.69ZM101.03 156.002C101.503 156.002 101.899 155.872 102.217 155.612C102.535 155.348 102.772 154.995 102.927 154.553C103.086 154.11 103.166 153.617 103.166 153.074C103.166 152.527 103.086 152.032 102.927 151.59C102.772 151.143 102.535 150.788 102.217 150.524C101.899 150.26 101.503 150.128 101.03 150.128C100.545 150.128 100.141 150.26 99.8188 150.524C99.5006 150.788 99.2619 151.143 99.1028 151.59C98.9475 152.032 98.8699 152.527 98.8699 153.074C98.8699 153.617 98.9475 154.11 99.1028 154.553C99.2619 154.995 99.5006 155.348 99.8188 155.612C100.141 155.872 100.545 156.002 101.03 156.002ZM110.98 161.055C110.223 161.055 109.573 160.952 109.03 160.746C108.486 160.545 108.05 160.273 107.72 159.931C107.39 159.59 107.161 159.212 107.033 158.796L108.931 158.336C109.016 158.511 109.14 158.684 109.303 158.855C109.466 159.029 109.685 159.173 109.961 159.285C110.24 159.402 110.592 159.46 111.015 159.46C111.612 159.46 112.107 159.314 112.499 159.023C112.891 158.736 113.087 158.263 113.087 157.603V155.909H112.982C112.874 156.126 112.714 156.349 112.505 156.578C112.299 156.807 112.026 156.999 111.684 157.155C111.346 157.31 110.921 157.388 110.409 157.388C109.722 157.388 109.099 157.227 108.541 156.904C107.986 156.578 107.543 156.093 107.213 155.449C106.887 154.801 106.724 153.99 106.724 153.016C106.724 152.034 106.887 151.205 107.213 150.53C107.543 149.851 107.988 149.337 108.546 148.987C109.105 148.634 109.728 148.458 110.415 148.458C110.939 148.458 111.37 148.547 111.707 148.725C112.049 148.9 112.32 149.112 112.522 149.36C112.724 149.604 112.877 149.835 112.982 150.053H113.099V148.574H115.177V157.661C115.177 158.426 114.994 159.058 114.63 159.559C114.265 160.06 113.766 160.434 113.134 160.682C112.501 160.931 111.783 161.055 110.98 161.055ZM110.997 155.734C111.443 155.734 111.824 155.626 112.138 155.408C112.452 155.191 112.691 154.879 112.854 154.471C113.017 154.064 113.099 153.575 113.099 153.004C113.099 152.441 113.017 151.949 112.854 151.526C112.695 151.103 112.458 150.775 112.144 150.542C111.833 150.305 111.451 150.187 110.997 150.187C110.528 150.187 110.136 150.309 109.821 150.553C109.507 150.798 109.27 151.134 109.111 151.56C108.952 151.983 108.872 152.465 108.872 153.004C108.872 153.551 108.952 154.031 109.111 154.442C109.274 154.849 109.513 155.168 109.827 155.397C110.145 155.622 110.535 155.734 110.997 155.734ZM117.336 157.516V148.574H119.444V157.516H117.336ZM118.396 147.305C118.062 147.305 117.775 147.194 117.534 146.973C117.294 146.748 117.173 146.478 117.173 146.164C117.173 145.846 117.294 145.576 117.534 145.355C117.775 145.13 118.062 145.017 118.396 145.017C118.734 145.017 119.021 145.13 119.258 145.355C119.498 145.576 119.618 145.846 119.618 146.164C119.618 146.478 119.498 146.748 119.258 146.973C119.021 147.194 118.734 147.305 118.396 147.305ZM123.718 152.276V157.516H121.611V148.574H123.625V150.093H123.73C123.935 149.593 124.263 149.195 124.714 148.9C125.168 148.605 125.728 148.458 126.396 148.458C127.013 148.458 127.55 148.59 128.008 148.854C128.47 149.117 128.827 149.5 129.079 150C129.336 150.501 129.462 151.108 129.458 151.822V157.516H127.351V152.148C127.351 151.551 127.195 151.083 126.885 150.745C126.578 150.408 126.153 150.239 125.61 150.239C125.241 150.239 124.913 150.321 124.626 150.484C124.343 150.643 124.12 150.874 123.957 151.176C123.798 151.479 123.718 151.846 123.718 152.276ZM135.759 157.516V145.594H140.23C141.146 145.594 141.914 145.764 142.535 146.106C143.16 146.447 143.632 146.917 143.95 147.515C144.272 148.108 144.433 148.784 144.433 149.54C144.433 150.305 144.272 150.984 143.95 151.578C143.628 152.172 143.152 152.639 142.524 152.981C141.895 153.318 141.121 153.487 140.201 153.487H137.238V151.712H139.91C140.446 151.712 140.884 151.619 141.226 151.432C141.567 151.246 141.819 150.99 141.982 150.664C142.149 150.338 142.233 149.963 142.233 149.54C142.233 149.117 142.149 148.745 141.982 148.423C141.819 148.101 141.565 147.85 141.22 147.672C140.878 147.489 140.438 147.398 139.898 147.398H137.919V157.516H135.759ZM148.629 157.696C148.062 157.696 147.552 157.595 147.098 157.393C146.648 157.188 146.291 156.885 146.027 156.485C145.767 156.086 145.637 155.593 145.637 155.007C145.637 154.502 145.73 154.085 145.916 153.755C146.102 153.425 146.357 153.161 146.679 152.963C147.001 152.765 147.364 152.616 147.767 152.515C148.175 152.41 148.596 152.335 149.03 152.288C149.554 152.234 149.979 152.185 150.305 152.143C150.631 152.096 150.868 152.026 151.016 151.933C151.167 151.836 151.243 151.687 151.243 151.485V151.45C151.243 151.011 151.113 150.672 150.853 150.431C150.593 150.191 150.218 150.07 149.729 150.07C149.213 150.07 148.803 150.183 148.501 150.408C148.202 150.633 148 150.899 147.895 151.205L145.928 150.926C146.083 150.383 146.339 149.929 146.696 149.564C147.053 149.195 147.49 148.92 148.006 148.737C148.522 148.551 149.093 148.458 149.717 148.458C150.148 148.458 150.577 148.508 151.004 148.609C151.431 148.71 151.821 148.877 152.174 149.11C152.527 149.339 152.81 149.651 153.024 150.047C153.241 150.443 153.35 150.938 153.35 151.531V157.516H151.324V156.287H151.254C151.126 156.536 150.946 156.769 150.713 156.986C150.484 157.199 150.195 157.372 149.845 157.504C149.5 157.632 149.095 157.696 148.629 157.696ZM149.176 156.148C149.599 156.148 149.966 156.064 150.276 155.897C150.587 155.727 150.825 155.501 150.992 155.222C151.163 154.943 151.248 154.638 151.248 154.308V153.254C151.182 153.309 151.07 153.359 150.911 153.406C150.756 153.452 150.581 153.493 150.387 153.528C150.193 153.563 150.001 153.594 149.811 153.621C149.62 153.648 149.455 153.672 149.316 153.691C149.001 153.734 148.72 153.804 148.472 153.901C148.223 153.998 148.027 154.133 147.884 154.308C147.74 154.479 147.668 154.7 147.668 154.972C147.668 155.36 147.81 155.653 148.093 155.851C148.377 156.049 148.737 156.148 149.176 156.148ZM159.357 161.055C158.601 161.055 157.951 160.952 157.407 160.746C156.864 160.545 156.427 160.273 156.098 159.931C155.768 159.59 155.539 159.212 155.411 158.796L157.308 158.336C157.394 158.511 157.518 158.684 157.681 158.855C157.844 159.029 158.063 159.173 158.339 159.285C158.618 159.402 158.969 159.46 159.392 159.46C159.99 159.46 160.485 159.314 160.877 159.023C161.269 158.736 161.465 158.263 161.465 157.603V155.909H161.36C161.251 156.126 161.092 156.349 160.883 156.578C160.677 156.807 160.403 156.999 160.062 157.155C159.724 157.31 159.299 157.388 158.787 157.388C158.1 157.388 157.477 157.227 156.918 156.904C156.363 156.578 155.921 156.093 155.591 155.449C155.265 154.801 155.102 153.99 155.102 153.016C155.102 152.034 155.265 151.205 155.591 150.53C155.921 149.851 156.365 149.337 156.924 148.987C157.483 148.634 158.106 148.458 158.793 148.458C159.317 148.458 159.747 148.547 160.085 148.725C160.427 148.9 160.698 149.112 160.9 149.36C161.102 149.604 161.255 149.835 161.36 150.053H161.476V148.574H163.555V157.661C163.555 158.426 163.372 159.058 163.007 159.559C162.643 160.06 162.144 160.434 161.511 160.682C160.879 160.931 160.161 161.055 159.357 161.055ZM159.375 155.734C159.821 155.734 160.202 155.626 160.516 155.408C160.83 155.191 161.069 154.879 161.232 154.471C161.395 154.064 161.476 153.575 161.476 153.004C161.476 152.441 161.395 151.949 161.232 151.526C161.073 151.103 160.836 150.775 160.522 150.542C160.211 150.305 159.829 150.187 159.375 150.187C158.905 150.187 158.513 150.309 158.199 150.553C157.885 150.798 157.648 151.134 157.489 151.56C157.33 151.983 157.25 152.465 157.25 153.004C157.25 153.551 157.33 154.031 157.489 154.442C157.652 154.849 157.89 155.168 158.205 155.397C158.523 155.622 158.913 155.734 159.375 155.734ZM169.673 157.69C168.776 157.69 168.002 157.504 167.35 157.131C166.702 156.755 166.203 156.223 165.854 155.536C165.505 154.846 165.33 154.033 165.33 153.097C165.33 152.178 165.505 151.37 165.854 150.676C166.207 149.977 166.7 149.434 167.333 149.046C167.965 148.654 168.708 148.458 169.562 148.458C170.113 148.458 170.633 148.547 171.122 148.725C171.615 148.9 172.05 149.172 172.426 149.54C172.807 149.909 173.105 150.379 173.323 150.949C173.54 151.516 173.649 152.191 173.649 152.975V153.621H166.32V152.201H171.629C171.625 151.797 171.538 151.438 171.367 151.124C171.196 150.806 170.957 150.555 170.651 150.373C170.348 150.191 169.995 150.099 169.591 150.099C169.16 150.099 168.782 150.204 168.456 150.414C168.13 150.619 167.876 150.891 167.694 151.229C167.515 151.562 167.424 151.929 167.42 152.329V153.569C167.42 154.089 167.515 154.535 167.705 154.908C167.895 155.276 168.161 155.56 168.503 155.758C168.844 155.952 169.244 156.049 169.702 156.049C170.008 156.049 170.286 156.006 170.534 155.921C170.783 155.831 170.998 155.701 171.18 155.531C171.363 155.36 171.501 155.148 171.594 154.896L173.561 155.117C173.437 155.637 173.2 156.091 172.851 156.479C172.506 156.864 172.063 157.162 171.524 157.376C170.984 157.585 170.367 157.69 169.673 157.69Z" fill="#1A4729"/>
<path d="M37.2735 81.9697C13.0151 106.228 13.5253 152.015 59.069 152.015" stroke="#881818" stroke-width="6.25" stroke-linecap="round"/>
<path d="M54.7988 142.402L64.4118 152.015L54.7988 161.628" stroke="#881818" stroke-width="6.25" stroke-linecap="round" stroke-linejoin="round"/>
</g>
<defs>
<clipPath id="clip0_12786_11456">
<rect width="200" height="200" rx="100" fill="white"/>
</clipPath>
</defs>
</svg>
