<svg width="108" height="214" viewBox="0 0 108 214" fill="none" xmlns="http://www.w3.org/2000/svg">
<path d="M106.928 48.8184H105.418C104.971 48.8184 104.609 49.1809 104.609 49.6281V73.8279C104.609 74.2751 104.971 74.6376 105.418 74.6376H106.928C107.374 74.6376 107.736 74.2751 107.736 73.8279V49.6281C107.736 49.1809 107.374 48.8184 106.928 48.8184Z" fill="#3A3768"/>
<path d="M1.65084 28.5889H1.51322C1.0669 28.5889 0.705078 28.9514 0.705078 29.3986V36.2795C0.705078 36.7267 1.0669 37.0892 1.51322 37.0892H1.65084C2.09717 37.0892 2.45899 36.7267 2.45899 36.2795V29.3986C2.45899 28.9514 2.09717 28.5889 1.65084 28.5889Z" fill="#3A3768"/>
<path d="M1.8097 44.1543H1.44974C1.00342 44.1543 0.641602 44.5168 0.641602 44.964V58.1388C0.641602 58.586 1.00342 58.9486 1.44974 58.9486H1.8097C2.25602 58.9486 2.61784 58.586 2.61784 58.1388V44.964C2.61784 44.5168 2.25602 44.1543 1.8097 44.1543Z" fill="#3A3768"/>
<path d="M1.74665 64.125H1.48197C1.03565 64.125 0.673828 64.4875 0.673828 64.9347V78.2368C0.673828 78.684 1.03565 79.0466 1.48197 79.0466H1.74665C2.19297 79.0466 2.55478 78.684 2.55478 78.2368V64.9347C2.55478 64.4875 2.19297 64.125 1.74665 64.125Z" fill="#3A3768"/>
<path d="M92.5375 0.5H15.4569C7.85766 0.5 1.69727 6.67244 1.69727 14.2865V199.713C1.69727 207.328 7.85766 213.5 15.4569 213.5H92.5375C100.137 213.5 106.297 207.328 106.297 199.713V14.2865C106.297 6.67244 100.137 0.5 92.5375 0.5Z" fill="#3A3768"/>
<path d="M91.5416 6.0332H79.543V7.47939C79.543 8.37959 79.366 9.27096 79.022 10.1026C78.6781 10.9342 78.174 11.6898 77.5386 12.3262C76.9031 12.9625 76.1488 13.4672 75.3186 13.8114C74.4884 14.1556 73.5987 14.3325 72.7002 14.332H34.5411C33.6426 14.3325 32.7529 14.1556 31.9227 13.8114C31.0926 13.4672 30.3382 12.9625 29.7027 12.3262C29.0673 11.6898 28.5632 10.9342 28.2193 10.1026C27.8753 9.27096 27.6983 8.37959 27.6983 7.47939V6.0332H16.4655C14.2623 6.0332 12.1493 6.91014 10.5914 8.47111C9.03344 10.0321 8.1582 12.1492 8.1582 14.3567V199.628C8.1582 201.836 9.03344 203.953 10.5914 205.514C12.1493 207.075 14.2623 207.952 16.4655 207.952H91.5416C93.7449 207.952 95.8578 207.075 97.4157 205.514C98.9737 203.953 99.8489 201.836 99.8489 199.628V14.3709C99.8508 13.2766 99.6373 12.1928 99.2206 11.1813C98.804 10.1698 98.1923 9.25052 97.4207 8.47611C96.6492 7.7017 95.7328 7.08733 94.724 6.66815C93.7151 6.24897 92.6337 6.0332 91.5416 6.0332Z" fill="#2F80ED"/>
<path d="M57.1481 6.86035H45.273C44.5187 6.86035 43.9072 7.473 43.9072 8.22875V8.46212C43.9072 9.21786 44.5187 9.83051 45.273 9.83051H57.1481C57.9023 9.83051 58.5138 9.21786 58.5138 8.46212V8.22875C58.5138 7.473 57.9023 6.86035 57.1481 6.86035Z" fill="#E6E8EC"/>
<path d="M62.407 10.0324C63.3367 10.0324 64.0903 9.27731 64.0903 8.34581C64.0903 7.41431 63.3367 6.65918 62.407 6.65918C61.4773 6.65918 60.7236 7.41431 60.7236 8.34581C60.7236 9.27731 61.4773 10.0324 62.407 10.0324Z" fill="#E6E8EC"/>
<path d="M54.6358 129.441C65.5639 129.441 74.4229 120.564 74.4229 109.615C74.4229 98.6654 65.5639 89.7891 54.6358 89.7891C43.7076 89.7891 34.8486 98.6654 34.8486 109.615C34.8486 120.564 43.7076 129.441 54.6358 129.441Z" fill="white"/>
<path d="M80.634 107.001C80.634 112.242 79.083 117.365 76.177 121.723C73.271 126.08 69.1407 129.477 64.3082 131.482C59.4758 133.488 54.1583 134.012 49.0282 132.99C43.8981 131.968 39.1858 129.444 35.4872 125.738C31.7886 122.032 29.2698 117.311 28.2494 112.171C27.2289 107.03 27.7527 101.703 29.7543 96.8607C31.756 92.0188 35.1457 87.8803 39.4948 84.9687C43.8439 82.057 48.957 80.5029 54.1876 80.5029C61.2016 80.5029 67.9284 83.2947 72.888 88.2641C77.8477 93.2334 80.634 99.9733 80.634 107.001ZM51.1315 121.028L70.7493 101.372C70.908 101.213 71.034 101.025 71.1199 100.817C71.2059 100.61 71.2501 100.387 71.2501 100.163C71.2501 99.9379 71.2059 99.7155 71.1199 99.508C71.034 99.3004 70.908 99.112 70.7493 98.9533L68.3354 96.5524C68.1774 96.3935 67.9896 96.2673 67.7827 96.1812C67.5759 96.0952 67.3542 96.0509 67.1303 96.0509C66.9063 96.0509 66.6846 96.0952 66.4778 96.1812C66.271 96.2673 66.0831 96.3935 65.9251 96.5524L49.9246 112.584L42.4537 105.081C42.133 104.761 41.699 104.582 41.2467 104.582C40.7944 104.582 40.3605 104.761 40.0398 105.081L37.626 107.514C37.307 107.835 37.128 108.27 37.128 108.723C37.128 109.176 37.307 109.611 37.626 109.932L48.7177 121.042C48.876 121.201 49.0641 121.327 49.2712 121.414C49.4783 121.5 49.7003 121.544 49.9246 121.544C50.1488 121.544 50.3708 121.5 50.5779 121.414C50.785 121.327 50.9731 121.201 51.1315 121.042V121.028Z" fill="#3ACC6C"/>
</svg>
