<svg width="350" height="350" viewBox="0 0 350 350" fill="none" xmlns="http://www.w3.org/2000/svg">
<path d="M176.557 157.028H174.386C173.744 157.028 173.224 157.549 173.224 158.192V192.986C173.224 193.629 173.744 194.15 174.386 194.15H176.557C177.199 194.15 177.719 193.629 177.719 192.986V158.192C177.719 157.549 177.199 157.028 176.557 157.028Z" fill="#3A3768"/>
<path d="M176.021 169.968H175.823C175.181 169.968 174.661 170.489 174.661 171.132V181.025C174.661 181.668 175.181 182.189 175.823 182.189H176.021C176.663 182.189 177.183 181.668 177.183 181.025V171.132C177.183 170.489 176.663 169.968 176.021 169.968Z" fill="#3A3768"/>
<path d="M176.341 165.654H175.823C175.181 165.654 174.661 166.176 174.661 166.819V185.761C174.661 186.404 175.181 186.925 175.823 186.925H176.341C176.982 186.925 177.503 186.404 177.503 185.761V166.819C177.503 166.176 176.982 165.654 176.341 165.654Z" fill="#3A3768"/>
<path d="M176.205 165.654H175.824C175.182 165.654 174.662 166.176 174.662 166.819V185.944C174.662 186.587 175.182 187.108 175.824 187.108H176.205C176.846 187.108 177.367 186.587 177.367 185.944V166.819C177.367 166.176 176.846 165.654 176.205 165.654Z" fill="#3A3768"/>
<path d="M230.505 21.875H119.679C108.753 21.875 99.896 30.7497 99.896 41.6972V308.303C99.896 319.25 108.753 328.125 119.679 328.125H230.505C241.432 328.125 250.289 319.25 250.289 308.303V41.6972C250.289 30.7497 241.432 21.875 230.505 21.875Z" fill="#3A3768"/>
<path d="M230.126 32.0834H212.855V34.1358C212.855 35.4134 212.601 36.6784 212.106 37.8586C211.611 39.0389 210.885 40.1112 209.97 41.0143C209.056 41.9175 207.97 42.6337 206.775 43.1222C205.58 43.6106 204.299 43.8617 203.006 43.861H148.08C146.787 43.8617 145.506 43.6106 144.311 43.1222C143.116 42.6337 142.03 41.9175 141.116 41.0143C140.201 40.1112 139.475 39.0389 138.98 37.8586C138.485 36.6784 138.23 35.4134 138.23 34.1358V32.0834H122.062C118.891 32.0834 115.849 33.3279 113.607 35.5433C111.364 37.7586 110.104 40.7632 110.104 43.8961V306.833C110.104 309.966 111.364 312.971 113.607 315.186C115.849 317.401 118.891 318.646 122.062 318.646H230.126C233.297 318.646 236.339 317.401 238.581 315.186C240.824 312.971 242.084 309.966 242.084 306.833V43.9162C242.086 42.3633 241.779 40.825 241.179 39.3895C240.58 37.954 239.699 36.6494 238.589 35.5503C237.478 34.4513 236.159 33.5794 234.707 32.9845C233.255 32.3896 231.698 32.0834 230.126 32.0834V32.0834Z" fill="#2F80ED"/>
<path d="M183.634 174.281H166.56C165.476 174.281 164.597 175.162 164.597 176.249V176.584C164.597 177.671 165.476 178.552 166.56 178.552H183.634C184.719 178.552 185.598 177.671 185.598 176.584V176.249C185.598 175.162 184.719 174.281 183.634 174.281Z" fill="#E6E8EC"/>
<path d="M175.644 177.693C176.981 177.693 178.064 176.608 178.064 175.268C178.064 173.929 176.981 172.843 175.644 172.843C174.307 172.843 173.224 173.929 173.224 175.268C173.224 176.608 174.307 177.693 175.644 177.693Z" fill="#E6E8EC"/>
<path d="M175.793 203.974C191.505 203.974 204.243 191.212 204.243 175.469C204.243 159.725 191.505 146.963 175.793 146.963C160.081 146.963 147.343 159.725 147.343 175.469C147.343 191.212 160.081 203.974 175.793 203.974Z" fill="white"/>
<path d="M213.327 176.435C213.327 183.97 211.097 191.336 206.919 197.602C202.741 203.867 196.802 208.75 189.854 211.634C182.906 214.517 175.261 215.272 167.885 213.802C160.509 212.332 153.733 208.703 148.415 203.375C143.098 198.047 139.476 191.258 138.009 183.868C136.542 176.477 137.295 168.817 140.173 161.855C143.051 154.894 147.924 148.943 154.178 144.757C160.431 140.571 167.782 138.336 175.303 138.336C185.387 138.336 195.059 142.35 202.19 149.495C209.321 156.64 213.327 166.331 213.327 176.435ZM170.909 196.603L199.115 168.342C199.343 168.113 199.524 167.842 199.648 167.544C199.772 167.246 199.835 166.926 199.835 166.603C199.835 166.28 199.772 165.96 199.648 165.662C199.524 165.363 199.343 165.092 199.115 164.864L195.644 161.412C195.417 161.184 195.147 161.002 194.85 160.878C194.552 160.755 194.234 160.691 193.912 160.691C193.59 160.691 193.271 160.755 192.973 160.878C192.676 161.002 192.406 161.184 192.179 161.412L169.173 184.463L158.432 173.675C157.971 173.215 157.347 172.957 156.696 172.957C156.046 172.957 155.422 173.215 154.961 173.675L151.491 177.172C151.032 177.634 150.775 178.259 150.775 178.911C150.775 179.563 151.032 180.188 151.491 180.65L167.438 196.623C167.666 196.852 167.936 197.034 168.234 197.157C168.532 197.281 168.851 197.345 169.173 197.345C169.496 197.345 169.815 197.281 170.113 197.157C170.411 197.034 170.681 196.852 170.909 196.623V196.603Z" fill="#3ACC6C"/>
</svg>
