<svg width="200" height="200" viewBox="0 0 200 200" fill="none" xmlns="http://www.w3.org/2000/svg">
<g clip-path="url(#clip0_12786_11537)">
<rect width="200" height="200" rx="100" fill="#E4EBF0"/>
<path d="M83.6143 53.1172C83.6143 39.3101 94.8071 28.1172 108.614 28.1172H186.783C200.59 28.1172 211.783 39.3101 211.783 53.1172V235.012C211.783 248.819 200.59 260.012 186.783 260.012H108.614C94.8071 260.012 83.6143 248.819 83.6143 235.012V53.1172Z" fill="#0085FF"/>
<path d="M93.2783 57.2851C93.2783 46.9298 101.673 38.5352 112.028 38.5352H183.373C193.729 38.5352 202.123 46.9298 202.123 57.2852V224.212C202.123 231.115 196.527 236.712 189.623 236.712H105.778C98.8748 236.712 93.2783 231.115 93.2783 224.212V57.2851Z" fill="#00347C"/>
<rect x="122.172" y="51.3516" width="51.0598" height="12.1073" rx="6.05367" fill="#0085FF"/>
<rect x="164.823" y="55.1289" width="4.74663" height="4.55165" rx="2.27583" fill="white"/>
<path d="M26.3818 95.5C26.3818 84.1782 35.56 75 46.8818 75H162.266C173.587 75 182.766 84.1782 182.766 95.5V128.64C182.766 139.962 173.587 149.14 162.266 149.14H54.2385C51.2138 149.14 48.2918 150.236 46.0141 152.226L36.744 160.326C32.7019 163.857 26.3818 160.987 26.3818 155.619V95.5Z" fill="white"/>
<rect x="39.3779" y="95.834" width="130.393" height="33.1964" rx="10.2455" fill="#CAE6D3"/>
<path d="M50.2811 117.933H47.9759L52.173 106.011H54.8392L59.0422 117.933H56.7369L53.5527 108.456H53.4595L50.2811 117.933ZM50.3568 113.258H56.6438V114.993H50.3568V113.258ZM66.2183 114.172V108.991H68.3256V117.933H66.2824V116.343H66.1892C65.9874 116.844 65.6556 117.253 65.1938 117.572C64.7359 117.89 64.1712 118.049 63.4998 118.049C62.9138 118.049 62.3957 117.919 61.9455 117.659C61.4992 117.395 61.1499 117.013 60.8977 116.512C60.6454 116.008 60.5193 115.398 60.5193 114.684V108.991H62.6266V114.358C62.6266 114.925 62.7818 115.375 63.0923 115.709C63.4028 116.043 63.8103 116.21 64.3148 116.21C64.6252 116.21 64.926 116.134 65.2171 115.982C65.5081 115.831 65.7468 115.606 65.9331 115.307C66.1233 115.005 66.2183 114.626 66.2183 114.172ZM74.9575 108.991V110.621H69.8174V108.991H74.9575ZM71.0864 106.849H73.1937V115.243C73.1937 115.526 73.2364 115.744 73.3218 115.895C73.411 116.043 73.5275 116.144 73.671 116.198C73.8146 116.252 73.9737 116.279 74.1484 116.279C74.2803 116.279 74.4006 116.27 74.5093 116.25C74.6219 116.231 74.7072 116.213 74.7654 116.198L75.1205 117.845C75.008 117.884 74.8469 117.927 74.6374 117.973C74.4317 118.02 74.1794 118.047 73.8806 118.055C73.3528 118.07 72.8774 117.991 72.4544 117.816C72.0314 117.638 71.6957 117.362 71.4473 116.99C71.2028 116.617 71.0825 116.151 71.0864 115.592V106.849ZM79.0193 112.693V117.933H76.912V106.011H78.9728V110.51H79.0776C79.2871 110.006 79.6112 109.608 80.0497 109.317C80.4921 109.022 81.0549 108.875 81.7379 108.875C82.3588 108.875 82.9002 109.005 83.362 109.265C83.8238 109.525 84.1809 109.905 84.4331 110.406C84.6893 110.906 84.8173 111.518 84.8173 112.239V117.933H82.71V112.565C82.71 111.964 82.5548 111.496 82.2443 111.162C81.9378 110.825 81.507 110.656 80.952 110.656C80.5795 110.656 80.2457 110.738 79.9508 110.901C79.6597 111.06 79.4307 111.291 79.2638 111.593C79.1008 111.896 79.0193 112.263 79.0193 112.693ZM90.9239 118.107C90.0274 118.107 89.2532 117.921 88.6012 117.548C87.9531 117.172 87.4544 116.64 87.1051 115.953C86.7558 115.263 86.5812 114.45 86.5812 113.514C86.5812 112.594 86.7558 111.787 87.1051 111.093C87.4583 110.394 87.9511 109.851 88.5837 109.463C89.2163 109.071 89.9595 108.875 90.8133 108.875C91.3644 108.875 91.8844 108.964 92.3734 109.142C92.8662 109.317 93.3009 109.589 93.6773 109.957C94.0577 110.326 94.3565 110.796 94.5738 111.366C94.7912 111.933 94.8998 112.608 94.8998 113.392V114.038H87.5708V112.618H92.8798C92.8759 112.214 92.7886 111.855 92.6179 111.541C92.4471 111.223 92.2084 110.972 91.9019 110.79C91.5991 110.607 91.246 110.516 90.8424 110.516C90.4116 110.516 90.0332 110.621 89.7072 110.831C89.3812 111.036 89.127 111.308 88.9446 111.646C88.7661 111.979 88.6749 112.346 88.671 112.746V113.986C88.671 114.506 88.7661 114.952 88.9563 115.325C89.1464 115.693 89.4123 115.977 89.7538 116.175C90.0953 116.369 90.495 116.466 90.953 116.466C91.2596 116.466 91.5371 116.423 91.7854 116.338C92.0338 116.248 92.2492 116.118 92.4316 115.948C92.614 115.777 92.7518 115.565 92.8449 115.313L94.8125 115.534C94.6883 116.054 94.4516 116.508 94.1023 116.896C93.7569 117.281 93.3145 117.579 92.775 117.793C92.2356 118.002 91.6186 118.107 90.9239 118.107ZM98.7899 112.693V117.933H96.6826V108.991H98.6967V110.51H98.8015C99.0072 110.01 99.3351 109.612 99.7853 109.317C100.239 109.022 100.8 108.875 101.468 108.875C102.085 108.875 102.622 109.007 103.08 109.271C103.542 109.534 103.899 109.917 104.151 110.417C104.407 110.918 104.534 111.525 104.53 112.239V117.933H102.422V112.565C102.422 111.968 102.267 111.5 101.957 111.162C101.65 110.825 101.225 110.656 100.682 110.656C100.313 110.656 99.9852 110.738 99.698 110.901C99.4147 111.06 99.1916 111.291 99.0286 111.593C98.8694 111.896 98.7899 112.263 98.7899 112.693ZM111.137 108.991V110.621H105.997V108.991H111.137ZM107.266 106.849H109.373V115.243C109.373 115.526 109.416 115.744 109.501 115.895C109.59 116.043 109.707 116.144 109.85 116.198C109.994 116.252 110.153 116.279 110.328 116.279C110.46 116.279 110.58 116.27 110.689 116.25C110.801 116.231 110.887 116.213 110.945 116.198L111.3 117.845C111.187 117.884 111.026 117.927 110.817 117.973C110.611 118.02 110.359 118.047 110.06 118.055C109.532 118.07 109.057 117.991 108.634 117.816C108.211 117.638 107.875 117.362 107.627 116.99C107.382 116.617 107.262 116.151 107.266 115.592V106.849ZM112.899 117.933V108.991H115.007V117.933H112.899ZM113.959 107.722C113.625 107.722 113.338 107.611 113.097 107.39C112.857 107.165 112.736 106.895 112.736 106.581C112.736 106.263 112.857 105.993 113.097 105.772C113.338 105.547 113.625 105.434 113.959 105.434C114.296 105.434 114.584 105.547 114.82 105.772C115.061 105.993 115.181 106.263 115.181 106.581C115.181 106.895 115.061 107.165 114.82 107.39C114.584 107.611 114.296 107.722 113.959 107.722ZM121.074 118.107C120.181 118.107 119.415 117.911 118.774 117.519C118.138 117.127 117.647 116.586 117.302 115.895C116.96 115.2 116.789 114.401 116.789 113.497C116.789 112.589 116.964 111.787 117.313 111.093C117.662 110.394 118.155 109.851 118.792 109.463C119.432 109.071 120.189 108.875 121.062 108.875C121.788 108.875 122.43 109.009 122.989 109.276C123.552 109.54 124 109.915 124.334 110.4C124.667 110.881 124.858 111.444 124.904 112.088H122.89C122.809 111.657 122.614 111.298 122.308 111.011C122.005 110.72 121.6 110.575 121.091 110.575C120.66 110.575 120.282 110.691 119.956 110.924C119.63 111.153 119.376 111.483 119.193 111.913C119.015 112.344 118.926 112.86 118.926 113.462C118.926 114.071 119.015 114.595 119.193 115.034C119.372 115.468 119.622 115.804 119.944 116.041C120.27 116.274 120.653 116.39 121.091 116.39C121.402 116.39 121.679 116.332 121.924 116.215C122.172 116.095 122.38 115.922 122.547 115.697C122.713 115.472 122.828 115.199 122.89 114.876H124.904C124.854 115.509 124.667 116.07 124.345 116.559C124.023 117.044 123.585 117.424 123.03 117.7C122.475 117.971 121.823 118.107 121.074 118.107ZM129.208 118.113C128.641 118.113 128.131 118.012 127.677 117.81C127.226 117.605 126.869 117.302 126.605 116.902C126.345 116.503 126.215 116.01 126.215 115.424C126.215 114.919 126.309 114.502 126.495 114.172C126.681 113.842 126.935 113.578 127.257 113.38C127.58 113.182 127.942 113.033 128.346 112.932C128.754 112.827 129.175 112.752 129.609 112.705C130.133 112.651 130.558 112.602 130.884 112.56C131.21 112.513 131.447 112.443 131.594 112.35C131.746 112.253 131.821 112.104 131.821 111.902V111.867C131.821 111.428 131.691 111.089 131.431 110.848C131.171 110.607 130.797 110.487 130.308 110.487C129.792 110.487 129.382 110.6 129.079 110.825C128.781 111.05 128.579 111.316 128.474 111.622L126.506 111.343C126.662 110.8 126.918 110.346 127.275 109.981C127.632 109.612 128.069 109.337 128.585 109.154C129.101 108.968 129.671 108.875 130.296 108.875C130.727 108.875 131.156 108.925 131.583 109.026C132.01 109.127 132.4 109.294 132.753 109.527C133.106 109.756 133.389 110.068 133.603 110.464C133.82 110.86 133.929 111.355 133.929 111.948V117.933H131.903V116.704H131.833C131.705 116.953 131.524 117.186 131.292 117.403C131.063 117.616 130.773 117.789 130.424 117.921C130.079 118.049 129.673 118.113 129.208 118.113ZM129.755 116.565C130.178 116.565 130.545 116.481 130.855 116.314C131.165 116.144 131.404 115.918 131.571 115.639C131.742 115.36 131.827 115.055 131.827 114.725V113.671C131.761 113.726 131.649 113.776 131.49 113.823C131.334 113.869 131.16 113.91 130.966 113.945C130.772 113.98 130.579 114.011 130.389 114.038C130.199 114.065 130.034 114.089 129.894 114.108C129.58 114.151 129.299 114.221 129.05 114.318C128.802 114.415 128.606 114.55 128.462 114.725C128.319 114.896 128.247 115.117 128.247 115.389C128.247 115.777 128.389 116.07 128.672 116.268C128.955 116.466 129.316 116.565 129.755 116.565ZM140.512 108.991V110.621H135.372V108.991H140.512ZM136.641 106.849H138.749V115.243C138.749 115.526 138.791 115.744 138.877 115.895C138.966 116.043 139.082 116.144 139.226 116.198C139.37 116.252 139.529 116.279 139.703 116.279C139.835 116.279 139.956 116.27 140.064 116.25C140.177 116.231 140.262 116.213 140.32 116.198L140.675 117.845C140.563 117.884 140.402 117.927 140.192 117.973C139.987 118.02 139.734 118.047 139.436 118.055C138.908 118.07 138.432 117.991 138.009 117.816C137.586 117.638 137.251 117.362 137.002 116.99C136.758 116.617 136.637 116.151 136.641 115.592V106.849ZM146.137 118.107C145.241 118.107 144.467 117.921 143.815 117.548C143.167 117.172 142.668 116.64 142.319 115.953C141.969 115.263 141.795 114.45 141.795 113.514C141.795 112.594 141.969 111.787 142.319 111.093C142.672 110.394 143.165 109.851 143.797 109.463C144.43 109.071 145.173 108.875 146.027 108.875C146.578 108.875 147.098 108.964 147.587 109.142C148.08 109.317 148.514 109.589 148.891 109.957C149.271 110.326 149.57 110.796 149.787 111.366C150.005 111.933 150.113 112.608 150.113 113.392V114.038H142.784V112.618H148.093C148.089 112.214 148.002 111.855 147.831 111.541C147.661 111.223 147.422 110.972 147.115 110.79C146.813 110.607 146.459 110.516 146.056 110.516C145.625 110.516 145.247 110.621 144.921 110.831C144.595 111.036 144.34 111.308 144.158 111.646C143.98 111.979 143.888 112.346 143.884 112.746V113.986C143.884 114.506 143.98 114.952 144.17 115.325C144.36 115.693 144.626 115.977 144.967 116.175C145.309 116.369 145.708 116.466 146.166 116.466C146.473 116.466 146.75 116.423 146.999 116.338C147.247 116.248 147.463 116.118 147.645 115.948C147.827 115.777 147.965 115.565 148.058 115.313L150.026 115.534C149.902 116.054 149.665 116.508 149.316 116.896C148.97 117.281 148.528 117.579 147.988 117.793C147.449 118.002 146.832 118.107 146.137 118.107ZM155.214 118.09C154.512 118.09 153.883 117.909 153.328 117.548C152.773 117.187 152.335 116.664 152.012 115.977C151.69 115.29 151.529 114.455 151.529 113.474C151.529 112.48 151.692 111.642 152.018 110.959C152.348 110.272 152.793 109.754 153.351 109.404C153.91 109.051 154.533 108.875 155.22 108.875C155.744 108.875 156.175 108.964 156.512 109.142C156.85 109.317 157.118 109.529 157.316 109.777C157.514 110.021 157.667 110.252 157.776 110.47H157.863V106.011H159.976V117.933H157.904V116.524H157.776C157.667 116.741 157.51 116.972 157.304 117.217C157.098 117.457 156.827 117.663 156.489 117.834C156.151 118.004 155.726 118.09 155.214 118.09ZM155.802 116.361C156.248 116.361 156.629 116.241 156.943 116C157.257 115.755 157.496 115.416 157.659 114.981C157.822 114.547 157.904 114.04 157.904 113.462C157.904 112.884 157.822 112.381 157.659 111.954C157.5 111.527 157.263 111.195 156.949 110.959C156.638 110.722 156.256 110.604 155.802 110.604C155.333 110.604 154.941 110.726 154.626 110.97C154.312 111.215 154.075 111.552 153.916 111.983C153.757 112.414 153.677 112.907 153.677 113.462C153.677 114.021 153.757 114.519 153.916 114.958C154.079 115.393 154.318 115.736 154.632 115.988C154.95 116.237 155.34 116.361 155.802 116.361Z" fill="#1A4729"/>
<path d="M58.1375 86.3813C70.4127 86.3813 80.3638 76.4303 80.3638 64.155C80.3638 51.8798 70.4127 41.9287 58.1375 41.9287C45.8622 41.9287 35.9111 51.8798 35.9111 64.155C35.9111 76.4303 45.8622 86.3813 58.1375 86.3813Z" fill="#1C9E59"/>
<path fill-rule="evenodd" clip-rule="evenodd" d="M67.214 58.217C68.2203 59.1377 68.2896 60.6998 67.3689 61.706L58.7871 71.0851C57.199 72.8208 54.5255 72.8208 52.9374 71.0851L48.9074 66.6808C47.9867 65.6745 48.056 64.1124 49.0623 63.1917C50.0685 62.2709 51.6306 62.3403 52.5514 63.3465L55.8622 66.965L63.7249 58.3718C64.6456 57.3656 66.2078 57.2962 67.214 58.217Z" fill="white"/>
</g>
<defs>
<clipPath id="clip0_12786_11537">
<rect width="200" height="200" rx="100" fill="white"/>
</clipPath>
</defs>
</svg>
