<svg width="200" height="200" viewBox="0 0 200 200" fill="none" xmlns="http://www.w3.org/2000/svg">
<g clip-path="url(#clip0_10536_60388)">
<rect width="200" height="200" rx="100" fill="#E4EBF0"/>
<path d="M97.3684 150C97.3684 138.546 39.4737 128.106 39.4737 106.244C39.4737 84.3805 125.987 85.4244 131.25 85.4244V91.6741C125.987 91.6741 91.8939 95.8263 91.8939 102.09C91.8939 113.548 179.167 115.625 179.167 163.542C179.167 185.417 131.25 218.75 131.25 218.75H-22.9167C-22.9167 218.75 97.3684 173.962 97.3684 150Z" fill="#9C1EFF"/>
<path d="M163.725 95.8886L157.572 109.562C156.952 110.94 157.96 112.5 159.472 112.5H171.778C173.29 112.5 174.298 110.94 173.678 109.562L167.525 95.8886C166.788 94.2507 164.462 94.2507 163.725 95.8886Z" fill="#59059B"/>
<path d="M151.225 95.8886L145.072 109.562C144.452 110.94 145.46 112.5 146.972 112.5H159.278C160.79 112.5 161.798 110.94 161.178 109.562L155.025 95.8886C154.288 94.2507 151.962 94.2507 151.225 95.8886Z" fill="#9C1EFF"/>
<path d="M44.9752 143.805L38.8223 157.478C38.2019 158.857 39.2103 160.417 40.7221 160.417H53.028C54.5398 160.417 55.5482 158.857 54.9279 157.478L48.7749 143.805C48.0379 142.167 45.7123 142.167 44.9752 143.805Z" fill="#59059B"/>
<path d="M57.4752 143.805L51.3223 157.478C50.7019 158.857 51.7103 160.417 53.2221 160.417H65.528C67.0398 160.417 68.0482 158.857 67.4279 157.478L61.2749 143.805C60.5379 142.167 58.2123 142.167 57.4752 143.805Z" fill="#9C1EFF"/>
<path fill-rule="evenodd" clip-rule="evenodd" d="M143.147 43.8598C143.147 57.6756 120.121 79.1668 120.121 79.1668C120.121 79.1668 97.0942 58.4431 97.0942 43.8598C97.0942 31.1427 107.403 20.8335 120.121 20.8335C132.838 20.8335 143.147 31.1427 143.147 43.8598ZM127.796 43.8597C127.796 48.0988 124.36 51.5352 120.121 51.5352C115.881 51.5352 112.445 48.0988 112.445 43.8597C112.445 39.6207 115.881 36.1843 120.121 36.1843C124.36 36.1843 127.796 39.6207 127.796 43.8597Z" fill="#F84747"/>
<path d="M75 16.6663C72.6988 16.6663 70.8334 14.8009 70.8334 12.4997C70.8334 10.1985 72.6988 8.33301 75 8.33301C77.3012 8.33301 79.1667 10.1985 79.1667 12.4997C79.1667 14.8009 77.3012 16.6663 75 16.6663Z" fill="#B3BEC9"/>
<path d="M75 33.3333C72.6988 33.3333 70.8334 31.4679 70.8334 29.1667C70.8334 26.8655 72.6988 25 75 25C77.3012 25 79.1667 26.8655 79.1667 29.1667C79.1667 31.4679 77.3012 33.3333 75 33.3333Z" fill="#FFAE41"/>
<path d="M75 49.9998C72.6988 49.9998 70.8334 48.1344 70.8334 45.8332C70.8334 43.532 72.6988 41.6665 75 41.6665C77.3012 41.6665 79.1667 43.532 79.1667 45.8332C79.1667 48.1344 77.3012 49.9998 75 49.9998Z" fill="#B3BEC9"/>
<path d="M75 66.6663C72.6988 66.6663 70.8334 64.8009 70.8334 62.4997C70.8334 60.1985 72.6988 58.333 75 58.333C77.3012 58.333 79.1667 60.1985 79.1667 62.4997C79.1667 64.8009 77.3012 66.6663 75 66.6663Z" fill="#B3BEC9"/>
<path d="M58.3333 16.6663C56.0321 16.6663 54.1667 14.8009 54.1667 12.4997C54.1667 10.1985 56.0321 8.33301 58.3333 8.33301C60.6345 8.33301 62.5 10.1985 62.5 12.4997C62.5 14.8009 60.6345 16.6663 58.3333 16.6663Z" fill="#B3BEC9"/>
<path d="M58.3333 33.3333C56.0321 33.3333 54.1667 31.4679 54.1667 29.1667C54.1667 26.8655 56.0321 25 58.3333 25C60.6345 25 62.5 26.8655 62.5 29.1667C62.5 31.4679 60.6345 33.3333 58.3333 33.3333Z" fill="#B3BEC9"/>
<path d="M58.3333 49.9998C56.0321 49.9998 54.1667 48.1344 54.1667 45.8332C54.1667 43.532 56.0321 41.6665 58.3333 41.6665C60.6345 41.6665 62.5 43.532 62.5 45.8332C62.5 48.1344 60.6345 49.9998 58.3333 49.9998Z" fill="#B3BEC9"/>
<path d="M58.3333 66.6663C56.0321 66.6663 54.1667 64.8009 54.1667 62.4997C54.1667 60.1985 56.0321 58.333 58.3333 58.333C60.6345 58.333 62.5 60.1985 62.5 62.4997C62.5 64.8009 60.6345 66.6663 58.3333 66.6663Z" fill="#B3BEC9"/>
<path d="M41.6666 16.6663C39.3655 16.6663 37.5 14.8009 37.5 12.4997C37.5 10.1985 39.3655 8.33301 41.6666 8.33301C43.9678 8.33301 45.8333 10.1985 45.8333 12.4997C45.8333 14.8009 43.9678 16.6663 41.6666 16.6663Z" fill="#B3BEC9"/>
<path d="M25 16.6663C22.6988 16.6663 20.8334 14.8009 20.8334 12.4997C20.8334 10.1985 22.6988 8.33301 25 8.33301C27.3012 8.33301 29.1667 10.1985 29.1667 12.4997C29.1667 14.8009 27.3012 16.6663 25 16.6663Z" fill="#B3BEC9"/>
<path d="M8.33333 16.6663C6.03215 16.6663 4.16667 14.8009 4.16667 12.4997C4.16667 10.1985 6.03215 8.33301 8.33333 8.33301C10.6345 8.33301 12.5 10.1985 12.5 12.4997C12.5 14.8009 10.6345 16.6663 8.33333 16.6663Z" fill="#B3BEC9"/>
<path d="M41.6666 33.3333C39.3655 33.3333 37.5 31.4679 37.5 29.1667C37.5 26.8655 39.3655 25 41.6666 25C43.9678 25 45.8333 26.8655 45.8333 29.1667C45.8333 31.4679 43.9678 33.3333 41.6666 33.3333Z" fill="#B3BEC9"/>
<path d="M25 33.3333C22.6988 33.3333 20.8334 31.4679 20.8334 29.1667C20.8334 26.8655 22.6988 25 25 25C27.3012 25 29.1667 26.8655 29.1667 29.1667C29.1667 31.4679 27.3012 33.3333 25 33.3333Z" fill="#B3BEC9"/>
<path d="M8.33333 33.3333C6.03215 33.3333 4.16667 31.4679 4.16667 29.1667C4.16667 26.8655 6.03215 25 8.33333 25C10.6345 25 12.5 26.8655 12.5 29.1667C12.5 31.4679 10.6345 33.3333 8.33333 33.3333Z" fill="#B3BEC9"/>
<path d="M41.6666 49.9998C39.3655 49.9998 37.5 48.1344 37.5 45.8332C37.5 43.532 39.3655 41.6665 41.6666 41.6665C43.9678 41.6665 45.8333 43.532 45.8333 45.8332C45.8333 48.1344 43.9678 49.9998 41.6666 49.9998Z" fill="#B3BEC9"/>
<path d="M25 49.9998C22.6988 49.9998 20.8334 48.1344 20.8334 45.8332C20.8334 43.532 22.6988 41.6665 25 41.6665C27.3012 41.6665 29.1667 43.532 29.1667 45.8332C29.1667 48.1344 27.3012 49.9998 25 49.9998Z" fill="#B3BEC9"/>
<path d="M8.33333 49.9998C6.03215 49.9998 4.16667 48.1344 4.16667 45.8332C4.16667 43.532 6.03215 41.6665 8.33333 41.6665C10.6345 41.6665 12.5 43.532 12.5 45.8332C12.5 48.1344 10.6345 49.9998 8.33333 49.9998Z" fill="#B3BEC9"/>
<path d="M41.6666 66.6663C39.3655 66.6663 37.5 64.8009 37.5 62.4997C37.5 60.1985 39.3655 58.333 41.6666 58.333C43.9678 58.333 45.8333 60.1985 45.8333 62.4997C45.8333 64.8009 43.9678 66.6663 41.6666 66.6663Z" fill="#1C9E59"/>
<path d="M25 66.6663C22.6988 66.6663 20.8334 64.8009 20.8334 62.4997C20.8334 60.1985 22.6988 58.333 25 58.333C27.3012 58.333 29.1667 60.1985 29.1667 62.4997C29.1667 64.8009 27.3012 66.6663 25 66.6663Z" fill="#B3BEC9"/>
<path d="M8.33333 66.6663C6.03215 66.6663 4.16667 64.8009 4.16667 62.4997C4.16667 60.1985 6.03215 58.333 8.33333 58.333C10.6345 58.333 12.5 60.1985 12.5 62.4997C12.5 64.8009 10.6345 66.6663 8.33333 66.6663Z" fill="#B3BEC9"/>
<path fill-rule="evenodd" clip-rule="evenodd" d="M139.477 152.083C139.477 150.358 140.876 148.958 142.602 148.958L149.253 148.958C150.978 148.958 152.378 150.358 152.378 152.083C152.378 153.809 150.978 155.208 149.253 155.208L142.602 155.208C140.876 155.208 139.477 153.809 139.477 152.083Z" fill="white"/>
<path fill-rule="evenodd" clip-rule="evenodd" d="M53.125 106.25C53.125 104.524 54.5241 103.125 56.25 103.125L62.9007 103.125C64.6266 103.125 66.0257 104.524 66.0257 106.25C66.0257 107.976 64.6266 109.375 62.9007 109.375L56.25 109.375C54.5241 109.375 53.125 107.976 53.125 106.25Z" fill="#59059B"/>
<path fill-rule="evenodd" clip-rule="evenodd" d="M123.958 165.385C123.958 163.659 125.357 162.26 127.083 162.26L149.252 162.26C150.978 162.26 152.377 163.659 152.377 165.385C152.377 167.111 150.978 168.51 149.252 168.51L127.083 168.51C125.357 168.51 123.958 167.111 123.958 165.385Z" fill="white"/>
</g>
<defs>
<clipPath id="clip0_10536_60388">
<rect width="200" height="200" rx="100" fill="white"/>
</clipPath>
</defs>
</svg>
