<svg width="96" height="96" viewBox="0 0 96 96" fill="none" xmlns="http://www.w3.org/2000/svg">
<g clip-path="url(#clip0_15914_3955)">
<rect width="96" height="96" rx="48" fill="#E4EBF0"/>
<path d="M55.2178 68.724L19.6038 87.9876C15.5929 90.1571 14.1637 95.2092 16.4437 99.1583C18.9005 103.414 24.5502 104.518 28.4283 101.501L56.1922 79.9L57.8567 79.8001C60.6814 79.6306 63.3445 78.4257 65.3365 76.4158L67.6828 74.0486L75.6817 72.0461C76.5941 71.8177 77.2144 70.9718 77.1581 70.033C77.1077 69.1932 76.5255 68.4799 75.7129 68.2621L72.4447 67.3864L77.6363 62.8239L83.8678 57.9324C84.6182 57.3434 84.8213 56.2923 84.3443 55.4661L83.8201 54.5582L84.8373 53.0175C85.2374 52.4116 85.2608 51.6317 84.8977 51.0029L84.1346 49.6812L84.9979 48.3737C85.4742 47.6523 85.4087 46.7014 84.8381 46.0521L84.6385 45.8249C84.0012 45.0997 82.9239 44.9617 82.1243 45.5028L68.8538 54.4827C68.1316 54.9714 67.4674 55.5406 66.8739 56.1794L55.2178 68.724Z" fill="#FFB53D"/>
<path d="M42.7372 90.3844L35.3496 77.9733L50.3703 84.4731L42.7372 90.3844Z" fill="#D4741B"/>
<path d="M40.7812 68.724L76.3952 87.9876C80.4062 90.1571 81.8353 95.2092 79.5553 99.1583C77.0986 103.414 71.4488 104.518 67.5708 101.501L39.8068 79.9L38.1423 79.8001C35.3176 79.6306 32.6546 78.4257 30.6625 76.4158L28.3163 74.0486L20.3173 72.0461C19.4049 71.8177 18.7846 70.9718 18.841 70.033C18.8914 69.1932 19.4735 68.4799 20.2861 68.2621L23.5543 67.3864L18.3628 62.8239L12.1312 57.9324C11.3808 57.3434 11.1778 56.2923 11.6547 55.4661L12.1789 54.5582L11.1617 53.0175C10.7616 52.4116 10.7383 51.6317 11.1013 51.0029L11.8644 49.6812L11.0011 48.3737C10.5248 47.6523 10.5903 46.7014 11.1609 46.0521L11.3605 45.8249C11.9979 45.0997 13.0751 44.9617 13.8747 45.5028L27.1452 54.4827C27.8674 54.9714 28.5316 55.5406 29.1251 56.1794L40.7812 68.724Z" fill="#FFB53D"/>
<path d="M47.3949 63.5603C57.8556 63.5603 66.3357 55.0802 66.3357 44.6195C66.3357 34.1588 57.8556 25.6787 47.3949 25.6787C36.9342 25.6787 28.4541 34.1588 28.4541 44.6195C28.4541 55.0802 36.9342 63.5603 47.3949 63.5603Z" fill="#FFB53D"/>
<path d="M41.3046 53.4134C41.3046 52.5138 42.1256 51.7848 43.1373 51.7848L51.8695 51.7848C52.8818 51.7848 53.7021 52.5138 53.7021 53.4134C53.7021 54.3129 52.8812 55.042 51.8695 55.042L43.1373 55.042C42.1256 55.0425 41.3046 54.3135 41.3046 53.4134Z" fill="white"/>
<path d="M37.2969 40.8828L42.3951 43.981L37.2969 46.0792" stroke="white" stroke-width="2.7" stroke-linecap="round" stroke-linejoin="round"/>
<path d="M57.4932 40.8828L52.395 43.981L57.4932 46.0792" stroke="white" stroke-width="2.7" stroke-linecap="round" stroke-linejoin="round"/>
<path d="M70.9941 -0.321411C70.9941 0.783158 70.0987 1.67859 68.9941 1.67859C67.8896 1.67859 66.9941 0.783158 66.9941 -0.321411C66.9941 -1.42598 67.8896 -2.32141 68.9941 -2.32141C70.0987 -2.32141 70.9941 -1.42598 70.9941 -0.321411Z" fill="#B3BEC9"/>
<path d="M70.9941 7.67859C70.9941 8.78316 70.0987 9.67859 68.9941 9.67859C67.8896 9.67859 66.9941 8.78316 66.9941 7.67859C66.9941 6.57402 67.8896 5.67859 68.9941 5.67859C70.0987 5.67859 70.9941 6.57402 70.9941 7.67859Z" fill="#B3BEC9"/>
<path d="M70.9941 15.6786C70.9941 16.7832 70.0987 17.6786 68.9941 17.6786C67.8896 17.6786 66.9941 16.7832 66.9941 15.6786C66.9941 14.574 67.8896 13.6786 68.9941 13.6786C70.0987 13.6786 70.9941 14.574 70.9941 15.6786Z" fill="#B3BEC9"/>
<path d="M70.9941 23.6786C70.9941 24.7832 70.0987 25.6786 68.9941 25.6786C67.8896 25.6786 66.9941 24.7832 66.9941 23.6786C66.9941 22.574 67.8896 21.6786 68.9941 21.6786C70.0987 21.6786 70.9941 22.574 70.9941 23.6786Z" fill="#1C9E59"/>
<path d="M70.9941 31.6786C70.9941 32.7832 70.0987 33.6786 68.9941 33.6786C67.8896 33.6786 66.9941 32.7832 66.9941 31.6786C66.9941 30.574 67.8896 29.6786 68.9941 29.6786C70.0987 29.6786 70.9941 30.574 70.9941 31.6786Z" fill="#B3BEC9"/>
<path d="M78.9941 -0.321411C78.9941 0.783158 78.0987 1.67859 76.9941 1.67859C75.8896 1.67859 74.9941 0.783158 74.9941 -0.321411C74.9941 -1.42598 75.8896 -2.32141 76.9941 -2.32141C78.0987 -2.32141 78.9941 -1.42598 78.9941 -0.321411Z" fill="#B3BEC9"/>
<path d="M78.9941 7.67859C78.9941 8.78316 78.0987 9.67859 76.9941 9.67859C75.8896 9.67859 74.9941 8.78316 74.9941 7.67859C74.9941 6.57402 75.8896 5.67859 76.9941 5.67859C78.0987 5.67859 78.9941 6.57402 78.9941 7.67859Z" fill="#B3BEC9"/>
<path d="M78.9941 15.6786C78.9941 16.7832 78.0987 17.6786 76.9941 17.6786C75.8896 17.6786 74.9941 16.7832 74.9941 15.6786C74.9941 14.574 75.8896 13.6786 76.9941 13.6786C78.0987 13.6786 78.9941 14.574 78.9941 15.6786Z" fill="#B3BEC9"/>
<path d="M78.9941 23.6786C78.9941 24.7832 78.0987 25.6786 76.9941 25.6786C75.8896 25.6786 74.9941 24.7832 74.9941 23.6786C74.9941 22.574 75.8896 21.6786 76.9941 21.6786C78.0987 21.6786 78.9941 22.574 78.9941 23.6786Z" fill="#B3BEC9"/>
<path d="M78.9941 31.6786C78.9941 32.7832 78.0987 33.6786 76.9941 33.6786C75.8896 33.6786 74.9941 32.7832 74.9941 31.6786C74.9941 30.574 75.8896 29.6786 76.9941 29.6786C78.0987 29.6786 78.9941 30.574 78.9941 31.6786Z" fill="#B3BEC9"/>
<path d="M86.9941 -0.321411C86.9941 0.783158 86.0987 1.67859 84.9941 1.67859C83.8896 1.67859 82.9941 0.783158 82.9941 -0.321411C82.9941 -1.42598 83.8896 -2.32141 84.9941 -2.32141C86.0987 -2.32141 86.9941 -1.42598 86.9941 -0.321411Z" fill="#B3BEC9"/>
<path d="M94.9941 -0.321411C94.9941 0.783158 94.0987 1.67859 92.9941 1.67859C91.8896 1.67859 90.9941 0.783158 90.9941 -0.321411C90.9941 -1.42598 91.8896 -2.32141 92.9941 -2.32141C94.0987 -2.32141 94.9941 -1.42598 94.9941 -0.321411Z" fill="#B3BEC9"/>
<path d="M86.9941 7.67859C86.9941 8.78316 86.0987 9.67859 84.9941 9.67859C83.8896 9.67859 82.9941 8.78316 82.9941 7.67859C82.9941 6.57402 83.8896 5.67859 84.9941 5.67859C86.0987 5.67859 86.9941 6.57402 86.9941 7.67859Z" fill="#B3BEC9"/>
<path d="M86.9941 15.6786C86.9941 16.7832 86.0987 17.6786 84.9941 17.6786C83.8896 17.6786 82.9941 16.7832 82.9941 15.6786C82.9941 14.574 83.8896 13.6786 84.9941 13.6786C86.0987 13.6786 86.9941 14.574 86.9941 15.6786Z" fill="#B3BEC9"/>
<path d="M86.9941 23.6786C86.9941 24.7832 86.0987 25.6786 84.9941 25.6786C83.8896 25.6786 82.9941 24.7832 82.9941 23.6786C82.9941 22.574 83.8896 21.6786 84.9941 21.6786C86.0987 21.6786 86.9941 22.574 86.9941 23.6786Z" fill="#B3BEC9"/>
<path d="M86.9941 31.6786C86.9941 32.7832 86.0987 33.6786 84.9941 33.6786C83.8896 33.6786 82.9941 32.7832 82.9941 31.6786C82.9941 30.574 83.8896 29.6786 84.9941 29.6786C86.0987 29.6786 86.9941 30.574 86.9941 31.6786Z" fill="#B3BEC9"/>
<path d="M94.9941 7.67859C94.9941 8.78316 94.0987 9.67859 92.9941 9.67859C91.8896 9.67859 90.9941 8.78316 90.9941 7.67859C90.9941 6.57402 91.8896 5.67859 92.9941 5.67859C94.0987 5.67859 94.9941 6.57402 94.9941 7.67859Z" fill="#B3BEC9"/>
<path d="M94.9941 15.6786C94.9941 16.7832 94.0987 17.6786 92.9941 17.6786C91.8896 17.6786 90.9941 16.7832 90.9941 15.6786C90.9941 14.574 91.8896 13.6786 92.9941 13.6786C94.0987 13.6786 94.9941 14.574 94.9941 15.6786Z" fill="#B3BEC9"/>
<path d="M94.9941 23.6786C94.9941 24.7832 94.0987 25.6786 92.9941 25.6786C91.8896 25.6786 90.9941 24.7832 90.9941 23.6786C90.9941 22.574 91.8896 21.6786 92.9941 21.6786C94.0987 21.6786 94.9941 22.574 94.9941 23.6786Z" fill="#B3BEC9"/>
<path d="M94.9941 31.6786C94.9941 32.7832 94.0987 33.6786 92.9941 33.6786C91.8896 33.6786 90.9941 32.7832 90.9941 31.6786C90.9941 30.574 91.8896 29.6786 92.9941 29.6786C94.0987 29.6786 94.9941 30.574 94.9941 31.6786Z" fill="#0085FF"/>
<path d="M36.5966 24.2771C31.0766 24.2771 25.5566 30.2387 25.5566 34.8755C25.5566 30.2387 20.0366 24.2771 14.5166 24.2771C20.0366 24.2771 25.5566 18.9779 25.5566 13.6787C25.5566 18.9779 31.0766 24.2771 36.5966 24.2771Z" fill="#F84747"/>
</g>
<defs>
<clipPath id="clip0_15914_3955">
<rect width="96" height="96" rx="48" fill="white"/>
</clipPath>
</defs>
</svg>
