<svg width="18" height="20" viewBox="0 0 18 20" fill="none" xmlns="http://www.w3.org/2000/svg">
<circle cx="9" cy="9" r="8.5" stroke="#333333"/>
<path d="M8.22094 11.64C8.22094 11.2027 8.29027 10.8187 8.42894 10.488C8.57827 10.1573 8.7596 9.87467 8.97294 9.64C9.18627 9.40533 9.4636 9.13867 9.80494 8.84C10.2636 8.43467 10.5996 8.08267 10.8129 7.784C11.0369 7.47467 11.1489 7.10133 11.1489 6.664C11.1489 6.07733 10.9196 5.608 10.4609 5.256C10.0023 4.89333 9.37294 4.712 8.57294 4.712C7.25027 4.712 6.2316 5.144 5.51694 6.008L4.66894 5.368C5.5756 4.25867 6.9036 3.704 8.65294 3.704C9.77294 3.704 10.6636 3.95467 11.3249 4.456C11.9969 4.95733 12.3329 5.63467 12.3329 6.488C12.3329 6.92533 12.2583 7.31467 12.1089 7.656C11.9703 7.98667 11.7943 8.26933 11.5809 8.504C11.3783 8.73867 11.1063 9.01067 10.7649 9.32C10.3063 9.736 9.96494 10.1093 9.74094 10.44C9.51694 10.76 9.40494 11.16 9.40494 11.64H8.22094ZM8.81294 15.08C8.57827 15.08 8.38094 15 8.22094 14.84C8.06094 14.6693 7.98094 14.472 7.98094 14.248C7.98094 14.0133 8.06094 13.8213 8.22094 13.672C8.38094 13.512 8.57827 13.432 8.81294 13.432C9.05827 13.432 9.26094 13.512 9.42094 13.672C9.58094 13.8213 9.66094 14.0133 9.66094 14.248C9.66094 14.472 9.5756 14.6693 9.40494 14.84C9.24494 15 9.0476 15.08 8.81294 15.08Z" fill="black"/>
</svg>
