<svg width="24" height="25" viewBox="0 0 24 25" fill="none" xmlns="http://www.w3.org/2000/svg">
<g clip-path="url(#clip0_20278_3399)">
<path d="M15.75 18.8999C16.2 17.4046 17.1328 16.1296 18.0563 14.8593C18.3 14.5265 18.5438 14.1937 18.7781 13.8562C19.7063 12.5202 20.25 10.903 20.25 9.15459C20.25 4.59365 16.5562 0.899902 12 0.899902C7.44375 0.899902 3.75 4.59365 3.75 9.1499C3.75 10.8983 4.29375 12.5202 5.22188 13.8515C5.45625 14.189 5.7 14.5218 5.94375 14.8546C6.87187 16.1249 7.80469 17.4046 8.25 18.8952H15.75V18.8999ZM12 24.8999C14.0719 24.8999 15.75 23.2218 15.75 21.1499V20.3999H8.25V21.1499C8.25 23.2218 9.92812 24.8999 12 24.8999ZM8.25 9.1499C8.25 9.5624 7.9125 9.8999 7.5 9.8999C7.0875 9.8999 6.75 9.5624 6.75 9.1499C6.75 6.24834 9.09844 3.8999 12 3.8999C12.4125 3.8999 12.75 4.2374 12.75 4.6499C12.75 5.0624 12.4125 5.3999 12 5.3999C9.92812 5.3999 8.25 7.07803 8.25 9.1499Z" fill="#0085FF"/>
</g>
<defs>
<clipPath id="clip0_20278_3399">
<rect width="24" height="24" fill="white" transform="translate(0 0.899902)"/>
</clipPath>
</defs>
</svg>
