<svg width="200" height="200" viewBox="0 0 200 200" fill="none" xmlns="http://www.w3.org/2000/svg">
<g clip-path="url(#clip0_11908_5592)">
<rect width="200" height="200" rx="100" fill="#E4EBF0"/>
<path d="M35.8892 48.6616C31.9822 50.9173 30.5787 55.8719 32.7224 59.8414L62.5772 115.127C62.7675 115.479 62.6429 115.919 62.296 116.119C61.9502 116.319 61.5085 116.209 61.2975 115.87L35.3081 74.1231C32.9207 70.2882 27.9221 69.0375 24.0101 71.2961C20.0978 73.5549 18.6816 78.5092 20.8091 82.4942L43.991 125.918C44.1661 126.246 44.0496 126.654 43.7276 126.84C43.4167 127.019 43.0201 126.93 42.816 126.635L25.6749 101.85C23.5796 98.6499 19.3502 97.6431 16.0379 99.5554C12.5894 101.546 11.4077 105.956 13.3988 109.405C33.373 144.001 61.0288 202.591 104.806 177.316C133.002 161.037 121.005 122.75 123.828 95.8311C124.405 90.3251 120.41 85.3936 114.904 84.8161C109.398 84.2384 104.466 88.2339 103.889 93.7397L102.823 103.905L76.0652 57.5597C73.7344 53.5226 68.5722 52.1394 64.5352 54.4701C60.6103 56.7361 59.1756 61.6968 61.2843 65.7081L81.5808 104.311C81.7303 104.595 81.6179 104.947 81.331 105.092C81.0657 105.226 80.742 105.136 80.5842 104.884L47.1543 51.5092C44.7883 47.6679 39.7958 46.4061 35.8892 48.6616Z" fill="#FFAE41"/>
<path d="M62.1653 157.036C66.6644 163.619 73.3574 167.808 80.5967 169.294M89.824 169.719C91.105 169.576 92.3819 169.349 93.646 169.035" stroke="white" stroke-width="6.25" stroke-linecap="round"/>
<path d="M103.726 140.919C95.0323 132.225 99.5331 112.653 102.87 103.954C102.87 103.954 92.9445 122.949 72.0662 131.677C78.9116 131.677 91.9178 129.11 103.726 140.919Z" fill="#D4741B"/>
<path d="M197.68 12.4998C195.379 12.4998 193.514 10.6344 193.514 8.33317C193.514 6.03198 195.379 4.1665 197.68 4.1665C199.982 4.1665 201.847 6.03198 201.847 8.33317C201.847 10.6344 199.982 12.4998 197.68 12.4998Z" fill="#B3BEC9"/>
<path d="M197.68 29.1668C195.379 29.1668 193.514 27.3013 193.514 25.0002C193.514 22.699 195.379 20.8335 197.68 20.8335C199.982 20.8335 201.847 22.699 201.847 25.0002C201.847 27.3013 199.982 29.1668 197.68 29.1668Z" fill="#B3BEC9"/>
<path d="M197.68 45.8333C195.379 45.8333 193.514 43.9679 193.514 41.6667C193.514 39.3655 195.379 37.5 197.68 37.5C199.982 37.5 201.847 39.3655 201.847 41.6667C201.847 43.9679 199.982 45.8333 197.68 45.8333Z" fill="#B3BEC9"/>
<path d="M197.68 62.4998C195.379 62.4998 193.514 60.6344 193.514 58.3332C193.514 56.032 195.379 54.1665 197.68 54.1665C199.982 54.1665 201.847 56.032 201.847 58.3332C201.847 60.6344 199.982 62.4998 197.68 62.4998Z" fill="#B3BEC9"/>
<path d="M181.014 12.4998C178.713 12.4998 176.847 10.6344 176.847 8.33317C176.847 6.03198 178.713 4.1665 181.014 4.1665C183.315 4.1665 185.18 6.03198 185.18 8.33317C185.18 10.6344 183.315 12.4998 181.014 12.4998Z" fill="#B3BEC9"/>
<path d="M181.014 29.1668C178.713 29.1668 176.847 27.3013 176.847 25.0002C176.847 22.699 178.713 20.8335 181.014 20.8335C183.315 20.8335 185.18 22.699 185.18 25.0002C185.18 27.3013 183.315 29.1668 181.014 29.1668Z" fill="#B3BEC9"/>
<path d="M181.014 45.8333C178.713 45.8333 176.847 43.9679 176.847 41.6667C176.847 39.3655 178.713 37.5 181.014 37.5C183.315 37.5 185.18 39.3655 185.18 41.6667C185.18 43.9679 183.315 45.8333 181.014 45.8333Z" fill="#B3BEC9"/>
<path d="M181.014 62.4998C178.713 62.4998 176.847 60.6344 176.847 58.3332C176.847 56.032 178.713 54.1665 181.014 54.1665C183.315 54.1665 185.18 56.032 185.18 58.3332C185.18 60.6344 183.315 62.4998 181.014 62.4998Z" fill="#B3BEC9"/>
<path d="M164.347 12.4998C162.046 12.4998 160.18 10.6344 160.18 8.33317C160.18 6.03198 162.046 4.1665 164.347 4.1665C166.648 4.1665 168.514 6.03198 168.514 8.33317C168.514 10.6344 166.648 12.4998 164.347 12.4998Z" fill="#B3BEC9"/>
<path d="M147.68 12.4998C145.379 12.4998 143.514 10.6344 143.514 8.33317C143.514 6.03198 145.379 4.1665 147.68 4.1665C149.982 4.1665 151.847 6.03198 151.847 8.33317C151.847 10.6344 149.982 12.4998 147.68 12.4998Z" fill="#B3BEC9"/>
<path d="M131.014 12.4998C128.713 12.4998 126.847 10.6344 126.847 8.33317C126.847 6.03198 128.713 4.1665 131.014 4.1665C133.315 4.1665 135.18 6.03198 135.18 8.33317C135.18 10.6344 133.315 12.4998 131.014 12.4998Z" fill="#B3BEC9"/>
<path d="M114.347 12.4998C112.046 12.4998 110.18 10.6344 110.18 8.33317C110.18 6.03198 112.046 4.1665 114.347 4.1665C116.648 4.1665 118.514 6.03198 118.514 8.33317C118.514 10.6344 116.648 12.4998 114.347 12.4998Z" fill="#B3BEC9"/>
<path d="M164.347 29.1668C162.046 29.1668 160.18 27.3013 160.18 25.0002C160.18 22.699 162.046 20.8335 164.347 20.8335C166.648 20.8335 168.514 22.699 168.514 25.0002C168.514 27.3013 166.648 29.1668 164.347 29.1668Z" fill="#B3BEC9"/>
<path d="M147.68 29.1668C145.379 29.1668 143.514 27.3013 143.514 25.0002C143.514 22.699 145.379 20.8335 147.68 20.8335C149.982 20.8335 151.847 22.699 151.847 25.0002C151.847 27.3013 149.982 29.1668 147.68 29.1668Z" fill="#B3BEC9"/>
<path d="M131.014 29.1668C128.713 29.1668 126.847 27.3013 126.847 25.0002C126.847 22.699 128.713 20.8335 131.014 20.8335C133.315 20.8335 135.18 22.699 135.18 25.0002C135.18 27.3013 133.315 29.1668 131.014 29.1668Z" fill="#B3BEC9"/>
<path d="M114.347 29.1668C112.046 29.1668 110.18 27.3013 110.18 25.0002C110.18 22.699 112.046 20.8335 114.347 20.8335C116.648 20.8335 118.514 22.699 118.514 25.0002C118.514 27.3013 116.648 29.1668 114.347 29.1668Z" fill="#B3BEC9"/>
<path d="M164.347 45.8333C162.046 45.8333 160.18 43.9679 160.18 41.6667C160.18 39.3655 162.046 37.5 164.347 37.5C166.648 37.5 168.514 39.3655 168.514 41.6667C168.514 43.9679 166.648 45.8333 164.347 45.8333Z" fill="#B3BEC9"/>
<path d="M147.68 45.8333C145.379 45.8333 143.514 43.9679 143.514 41.6667C143.514 39.3655 145.379 37.5 147.68 37.5C149.982 37.5 151.847 39.3655 151.847 41.6667C151.847 43.9679 149.982 45.8333 147.68 45.8333Z" fill="#B3BEC9"/>
<path d="M131.014 45.8333C128.713 45.8333 126.847 43.9679 126.847 41.6667C126.847 39.3655 128.713 37.5 131.014 37.5C133.315 37.5 135.18 39.3655 135.18 41.6667C135.18 43.9679 133.315 45.8333 131.014 45.8333Z" fill="#B3BEC9"/>
<path d="M114.347 45.8333C112.046 45.8333 110.18 43.9679 110.18 41.6667C110.18 39.3655 112.046 37.5 114.347 37.5C116.648 37.5 118.514 39.3655 118.514 41.6667C118.514 43.9679 116.648 45.8333 114.347 45.8333Z" fill="#1C9E59"/>
<path d="M164.347 62.4998C162.046 62.4998 160.18 60.6344 160.18 58.3332C160.18 56.032 162.046 54.1665 164.347 54.1665C166.648 54.1665 168.514 56.032 168.514 58.3332C168.514 60.6344 166.648 62.4998 164.347 62.4998Z" fill="#B3BEC9"/>
<path d="M147.68 62.4998C145.379 62.4998 143.514 60.6344 143.514 58.3332C143.514 56.032 145.379 54.1665 147.68 54.1665C149.982 54.1665 151.847 56.032 151.847 58.3332C151.847 60.6344 149.982 62.4998 147.68 62.4998Z" fill="#9C1EFF"/>
<path d="M131.014 62.4998C128.713 62.4998 126.847 60.6344 126.847 58.3332C126.847 56.032 128.713 54.1665 131.014 54.1665C133.315 54.1665 135.18 56.032 135.18 58.3332C135.18 60.6344 133.315 62.4998 131.014 62.4998Z" fill="#B3BEC9"/>
<path d="M114.347 62.4998C112.046 62.4998 110.18 60.6344 110.18 58.3332C110.18 56.032 112.046 54.1665 114.347 54.1665C116.648 54.1665 118.514 56.032 118.514 58.3332C118.514 60.6344 116.648 62.4998 114.347 62.4998Z" fill="#B3BEC9"/>
<path d="M134.55 79.9616C134.55 77.6604 136.416 75.7949 138.717 75.7949H181.644C183.945 75.7949 185.811 77.6604 185.811 79.9616V105.679C185.811 107.98 183.945 109.846 181.644 109.846H161.981C161.484 109.846 161.003 110.023 160.626 110.347L152.031 117.704C150.679 118.862 148.593 117.901 148.593 116.122V111.929C148.593 110.779 147.66 109.846 146.51 109.846H138.717C136.416 109.846 134.55 107.98 134.55 105.679V79.9616Z" fill="#F84747"/>
<path fill-rule="evenodd" clip-rule="evenodd" d="M147.365 90.7983C148.516 90.7983 149.449 91.7311 149.449 92.8817V95.0175C149.449 96.1681 148.516 97.1009 147.365 97.1009C146.215 97.1009 145.282 96.1681 145.282 95.0175V92.8817C145.282 91.7311 146.215 90.7983 147.365 90.7983Z" fill="white"/>
<path fill-rule="evenodd" clip-rule="evenodd" d="M160.181 90.7983C161.331 90.7983 162.264 91.7311 162.264 92.8817V95.0175C162.264 96.1681 161.331 97.1009 160.181 97.1009C159.03 97.1009 158.097 96.1681 158.097 95.0175V92.8817C158.097 91.7311 159.03 90.7983 160.181 90.7983Z" fill="white"/>
<path fill-rule="evenodd" clip-rule="evenodd" d="M172.996 90.7983C174.146 90.7983 175.079 91.7311 175.079 92.8817V95.0175C175.079 96.1681 174.146 97.1009 172.996 97.1009C171.845 97.1009 170.912 96.1681 170.912 95.0175V92.8817C170.912 91.7311 171.845 90.7983 172.996 90.7983Z" fill="white"/>
</g>
<defs>
<clipPath id="clip0_11908_5592">
<rect width="200" height="200" rx="100" fill="white"/>
</clipPath>
</defs>
</svg>
