<svg width="32" height="32" viewBox="0 0 32 32" fill="none" xmlns="http://www.w3.org/2000/svg">
<circle cx="16" cy="16" r="16" fill="white"/>
<path d="M20 8H22C22.5304 8 23.0391 8.21071 23.4142 8.58579C23.7893 8.96086 24 9.46957 24 10V17M12 8H10C9.46957 8 8.96086 8.21071 8.58579 8.58579C8.21071 8.96086 8 9.46957 8 10V24C8 24.5304 8.21071 25.0391 8.58579 25.4142C8.96086 25.7893 9.46957 26 10 26H16" stroke="black" stroke-width="2" stroke-linecap="round" stroke-linejoin="round"/>
<path d="M19 6H13C12.4477 6 12 6.44772 12 7V9C12 9.55228 12.4477 10 13 10H19C19.5523 10 20 9.55228 20 9V7C20 6.44772 19.5523 6 19 6Z" stroke="black" stroke-width="2" stroke-linecap="round" stroke-linejoin="round"/>
<circle cx="16.395" cy="17.8707" r="4.16815" stroke="black" stroke-width="2"/>
<path d="M19.3608 20.8373L23.3493 24.8258" stroke="black" stroke-width="2" stroke-linecap="round"/>
</svg>
