<svg width="24" height="24" viewBox="0 0 28 28" fill="none" xmlns="http://www.w3.org/2000/svg">
<path d="M12.667 17.9998H15.3337V20.6665H12.667V17.9998ZM12.667 7.33317H15.3337V15.3332H12.667V7.33317ZM13.987 0.666504C6.62699 0.666504 0.666992 6.63984 0.666992 13.9998C0.666992 21.3598 6.62699 27.3332 13.987 27.3332C21.3603 27.3332 27.3337 21.3598 27.3337 13.9998C27.3337 6.63984 21.3603 0.666504 13.987 0.666504ZM14.0003 24.6665C8.10699 24.6665 3.33366 19.8932 3.33366 13.9998C3.33366 8.1065 8.10699 3.33317 14.0003 3.33317C19.8937 3.33317 24.667 8.1065 24.667 13.9998C24.667 19.8932 19.8937 24.6665 14.0003 24.6665Z" fill="#F2994A"/>
</svg>
