<svg width="20" height="21" viewBox="0 0 20 21" fill="none" xmlns="http://www.w3.org/2000/svg">
<path d="M9.99 0.271484C4.47 0.271484 0 4.75148 0 10.2715C0 15.7915 4.47 20.2715 9.99 20.2715C15.52 20.2715 20 15.7915 20 10.2715C20 4.75148 15.52 0.271484 9.99 0.271484ZM10 18.2715C5.58 18.2715 2 14.6915 2 10.2715C2 5.85148 5.58 2.27148 10 2.27148C14.42 2.27148 18 5.85148 18 10.2715C18 14.6915 14.42 18.2715 10 18.2715ZM10.5 5.27148H9V11.2715L14.25 14.4215L15 13.1915L10.5 10.5215V5.27148Z" fill="#F2994A"/>
</svg>
