<svg width="48" height="49" viewBox="0 0 48 49" fill="none" xmlns="http://www.w3.org/2000/svg">
<rect y="0.5" width="48" height="48" rx="8" fill="#BD8A00"/>
<path fill-rule="evenodd" clip-rule="evenodd" d="M22.7293 15.2547C23.294 14.2484 24.706 14.2484 25.2707 15.2547L34.8012 32.2358C35.366 33.2421 34.66 34.5 33.5305 34.5H14.4695C13.34 34.5 12.634 33.2421 13.1988 32.2359L22.7293 15.2547ZM24 24.5C24.5523 24.5 25 24.9477 25 25.5V30.5C25 31.0523 24.5523 31.5 24 31.5C23.4477 31.5 23 31.0523 23 30.5V25.5C23 24.9477 23.4477 24.5 24 24.5ZM25 21.5C25 20.9477 24.5523 20.5 24 20.5C23.4477 20.5 23 20.9477 23 21.5V22.5C23 23.0523 23.4477 23.5 24 23.5C24.5523 23.5 25 23.0523 25 22.5V21.5Z" fill="white"/>
</svg>
