<svg width="96" height="96" viewBox="0 0 96 96" fill="none" xmlns="http://www.w3.org/2000/svg">
<g clip-path="url(#clip0_10915_10326)">
<rect width="96" height="96" rx="48" fill="#E4EBF0"/>
<circle cx="95" cy="62" r="2" transform="rotate(90 95 62)" fill="#B3BEC9"/>
<circle cx="87" cy="62" r="2" transform="rotate(90 87 62)" fill="#B3BEC9"/>
<circle cx="79" cy="62" r="2" transform="rotate(90 79 62)" fill="#B3BEC9"/>
<circle cx="71" cy="62" r="2" transform="rotate(90 71 62)" fill="#2F80ED"/>
<circle cx="63" cy="62" r="2" transform="rotate(90 63 62)" fill="#B3BEC9"/>
<circle cx="95" cy="70" r="2" transform="rotate(90 95 70)" fill="#B3BEC9"/>
<circle cx="87" cy="70" r="2" transform="rotate(90 87 70)" fill="#B3BEC9"/>
<circle cx="79" cy="70" r="2" transform="rotate(90 79 70)" fill="#B3BEC9"/>
<circle cx="71" cy="70" r="2" transform="rotate(90 71 70)" fill="#B3BEC9"/>
<circle cx="63" cy="70" r="2" transform="rotate(90 63 70)" fill="#B3BEC9"/>
<circle cx="95" cy="78" r="2" transform="rotate(90 95 78)" fill="#B3BEC9"/>
<circle cx="95" cy="86" r="2" transform="rotate(90 95 86)" fill="#B3BEC9"/>
<circle cx="95" cy="94" r="2" transform="rotate(90 95 94)" fill="#B3BEC9"/>
<circle cx="87" cy="78" r="2" transform="rotate(90 87 78)" fill="#B3BEC9"/>
<circle cx="79" cy="78" r="2" transform="rotate(90 79 78)" fill="#B3BEC9"/>
<circle cx="71" cy="78" r="2" transform="rotate(90 71 78)" fill="#B3BEC9"/>
<circle cx="63" cy="78" r="2" transform="rotate(90 63 78)" fill="#B3BEC9"/>
<circle cx="87" cy="86" r="2" transform="rotate(90 87 86)" fill="#B3BEC9"/>
<circle cx="79" cy="86" r="2" transform="rotate(90 79 86)" fill="#B3BEC9"/>
<circle cx="71" cy="86" r="2" transform="rotate(90 71 86)" fill="#B3BEC9"/>
<circle cx="63" cy="86" r="2" transform="rotate(90 63 86)" fill="#1C9E59"/>
<circle cx="87" cy="94" r="2" transform="rotate(90 87 94)" fill="#B3BEC9"/>
<circle cx="79" cy="94" r="2" transform="rotate(90 79 94)" fill="#B3BEC9"/>
<circle cx="71" cy="94" r="2" transform="rotate(90 71 94)" fill="#B3BEC9"/>
<circle cx="63" cy="94" r="2" transform="rotate(90 63 94)" fill="#B3BEC9"/>
<path d="M-6 19C-6 17.3431 -4.65685 16 -3 16H31.3022L47.881 32.5788V81.8018C47.881 83.4587 46.5378 84.8018 44.881 84.8018H-3C-4.65686 84.8018 -6 83.4587 -6 81.8018V19Z" fill="#9C1EFF"/>
<path d="M31.302 16L47.8808 32.5788H34.302C32.6451 32.5788 31.302 31.2356 31.302 29.5788V16Z" fill="#59059B"/>
<path fill-rule="evenodd" clip-rule="evenodd" d="M-6.43456 77.9163C-4.16117 76.1115 -1.35519 73.5684 2.08329 70.1299C5.56539 66.6478 8.30538 64.1747 10.4547 62.5065C12.5548 60.8766 14.251 59.8848 15.6225 59.5891C16.3426 59.4338 17.1175 59.4391 17.8253 59.7983C18.5484 60.1653 18.9684 60.7828 19.1992 61.3866C19.6196 62.4866 19.5484 63.8996 19.4029 65.1103C19.2639 66.268 19.0131 67.53 18.7883 68.6617C18.7647 68.7807 18.7413 68.8982 18.7184 69.0141C18.5839 69.6942 18.4685 70.2992 18.3867 70.8182C18.6007 70.6231 18.8392 70.395 19.1043 70.1299C20.7498 68.4845 22.1433 67.3246 23.3496 66.5703C24.5454 65.8226 25.6739 65.3998 26.7565 65.411C29.1011 65.4352 30.2035 67.4263 30.794 68.5068C30.8767 68.658 30.9528 68.7997 31.0245 68.9331C31.2703 69.3904 31.464 69.7507 31.6886 70.0664C31.9656 70.4557 32.1281 70.5318 32.1892 70.5498C32.2205 70.5589 32.4624 70.6282 33.1047 70.2901C33.7608 69.9447 34.6791 69.2519 35.9393 67.9917L38.0607 70.113C36.709 71.4647 35.5434 72.3966 34.5022 72.9447C33.4473 73.5001 32.3786 73.7318 31.3446 73.4284C30.3404 73.1338 29.683 72.4224 29.2441 71.8054C28.8986 71.3198 28.5876 70.7392 28.3313 70.2606C28.2717 70.1492 28.215 70.0434 28.1615 69.9455C27.4536 68.6503 27.1083 68.4148 26.7255 68.4108C26.4445 68.4079 25.8893 68.5205 24.9401 69.114C24.0016 69.7009 22.7889 70.6879 21.2256 72.2512C20.512 72.9648 19.8888 73.5201 19.3453 73.9138C18.8504 74.2723 18.2305 74.6418 17.5531 74.7062C17.1683 74.7427 16.7251 74.6838 16.3107 74.4324C15.9047 74.1861 15.6611 73.8367 15.5195 73.5284C15.2647 72.9737 15.2453 72.3464 15.2598 71.8897C15.2905 70.917 15.537 69.6377 15.7754 68.4321C15.798 68.3179 15.8206 68.2038 15.8433 68.0897C16.0723 66.9355 16.2999 65.7888 16.4244 64.7525C16.5642 63.5883 16.5307 62.8545 16.4106 62.4959C16.3708 62.5 16.3195 62.5077 16.2549 62.5217C15.592 62.6646 14.3522 63.2791 12.2941 64.8764C10.2854 66.4355 7.64519 68.8106 4.20461 72.2512C0.720421 75.7354 -2.17425 78.3645 -4.56922 80.2659C-6.94545 82.1524 -8.90678 83.3852 -10.5194 83.9961C-12.108 84.598 -13.7355 84.7235 -14.9994 83.7291C-16.1695 82.8086 -16.5325 81.2865 -16.6305 79.9218C-16.8317 77.1206 -16.021 73.1343 -15.1193 69.3298C-14.8298 68.1085 -14.5292 66.899 -14.2378 65.7269C-13.59 63.1206 -12.9883 60.6999 -12.6588 58.75L-9.70072 59.2498C-10.05 61.3169 -10.6983 63.9258 -11.3614 66.5944C-11.6457 67.7385 -11.9328 68.8936 -12.2001 70.0216C-13.1225 73.9133 -13.8008 77.4441 -13.6382 79.7069C-13.5544 80.8742 -13.2723 81.2708 -13.1445 81.3713C-13.1104 81.3981 -12.7871 81.6472 -11.5822 81.1907C-10.4014 80.7434 -8.72668 79.736 -6.43456 77.9163ZM16.5235 62.4946C16.5235 62.4946 16.5219 62.4944 16.519 62.4937C16.5221 62.4942 16.5236 62.4945 16.5235 62.4946Z" fill="white"/>
<path d="M67.8984 15.5961C70.1735 12.5055 74.5233 11.8443 77.6139 14.1194C80.7046 16.3945 81.3658 20.7443 79.0907 23.8349L49.3937 64.1778C48.5368 65.3418 47.3807 66.2519 46.048 66.8114L37.1387 70.5522C36.4413 70.845 35.6838 70.2874 35.7562 69.5345L36.6808 59.916C36.8191 58.4773 37.3446 57.103 38.2014 55.939L67.8984 15.5961Z" fill="#FFAE41"/>
<rect x="65.4268" y="18.9541" width="13.8976" height="5.5153" transform="rotate(36.3574 65.4268 18.9541)" fill="#DC893C"/>
<path d="M81.6865 34.3743C82.5965 33.1381 82.3321 31.3982 81.0959 30.4881C79.8596 29.5781 78.1197 29.8425 77.2096 31.0788L65.6754 46.7478C64.7653 47.9841 65.0298 49.724 66.2661 50.634C67.5023 51.5441 69.2422 51.2796 70.1523 50.0433L81.6865 34.3743Z" fill="#DC893C"/>
<path fill-rule="evenodd" clip-rule="evenodd" d="M14.6924 41C14.6924 40.1716 14.0208 39.5 13.1924 39.5L10 39.5C9.1716 39.5 8.50003 40.1716 8.50003 41C8.50003 41.8284 9.1716 42.5 10 42.5L13.1924 42.5C14.0208 42.5 14.6924 41.8284 14.6924 41Z" fill="#59059B"/>
<path fill-rule="evenodd" clip-rule="evenodd" d="M22.1412 47.3848C22.1412 46.5563 21.4697 45.8848 20.6412 45.8848L10.0001 45.8848C9.17163 45.8848 8.50006 46.5563 8.50006 47.3848C8.50006 48.2132 9.17163 48.8848 10.0001 48.8848L20.6412 48.8848C21.4697 48.8848 22.1412 48.2132 22.1412 47.3848Z" fill="#59059B"/>
</g>
<defs>
<clipPath id="clip0_10915_10326">
<rect width="96" height="96" rx="48" fill="white"/>
</clipPath>
</defs>
</svg>
