<svg width="23" height="22" viewBox="0 0 23 22" fill="none" xmlns="http://www.w3.org/2000/svg">
<path fill-rule="evenodd" clip-rule="evenodd" d="M10.7617 0.305805C11.1695 -0.101935 11.8305 -0.101935 12.2383 0.305806L22.1942 10.2617C22.6019 10.6695 22.6019 11.3305 22.1942 11.7383L12.2383 21.6942C11.8305 22.1019 11.1695 22.1019 10.7617 21.6942L0.805805 11.7383C0.398065 11.3305 0.398065 10.6695 0.805806 10.2617L10.7617 0.305805ZM11.5 11C12.0523 11 12.5 11.4477 12.5 12V16C12.5 16.5523 12.0523 17 11.5 17C10.9477 17 10.5 16.5523 10.5 16V12C10.5 11.4477 10.9477 11 11.5 11ZM12.5 7C12.5 6.44771 12.0523 6 11.5 6C10.9477 6 10.5 6.44771 10.5 7V8C10.5 8.55228 10.9477 9 11.5 9C12.0523 9 12.5 8.55228 12.5 8V7Z" fill="#EBA210"/>
</svg>
