<svg width="96" height="96" viewBox="0 0 96 96" fill="none" xmlns="http://www.w3.org/2000/svg">
<g clip-path="url(#clip0_10915_12267)">
<rect width="96" height="96" rx="48" fill="#E4EBF0"/>
<rect x="-19" y="45.5996" width="68" height="48" rx="2" transform="rotate(-15 -19 45.5996)" fill="#DC893C"/>
<rect x="-9" y="39" width="68" height="48" rx="2" fill="#FFAE41"/>
<rect x="-9" y="50" width="68" height="10" fill="#DC893C"/>
<path fill-rule="evenodd" clip-rule="evenodd" d="M35.5 69C35.5 68.1716 36.1716 67.5 37 67.5L51 67.5C51.8284 67.5 52.5 68.1716 52.5 69C52.5 69.8284 51.8284 70.5 51 70.5L37 70.5C36.1716 70.5 35.5 69.8284 35.5 69Z" fill="white"/>
<path fill-rule="evenodd" clip-rule="evenodd" d="M44.5 75C44.5 74.1716 45.1716 73.5 46 73.5L51 73.5C51.8284 73.5 52.5 74.1716 52.5 75C52.5 75.8284 51.8284 76.5 51 76.5L46 76.5C45.1716 76.5 44.5 75.8284 44.5 75Z" fill="white"/>
<path d="M64.5 37C71.9558 37 78 30.9558 78 23.5C78 16.0442 71.9558 10 64.5 10C57.0442 10 51 16.0442 51 23.5C51 30.9558 57.0442 37 64.5 37Z" fill="#1C9E59"/>
<circle cx="71" cy="92" r="2" transform="rotate(-90 71 92)" fill="#B3BEC9"/>
<circle cx="79" cy="92" r="2" transform="rotate(-90 79 92)" fill="#B3BEC9"/>
<circle cx="87" cy="92" r="2" transform="rotate(-90 87 92)" fill="#F84747"/>
<circle cx="95" cy="92" r="2" transform="rotate(-90 95 92)" fill="#B3BEC9"/>
<circle cx="71" cy="84" r="2" transform="rotate(-90 71 84)" fill="#0085FF"/>
<circle cx="71" cy="76" r="2" transform="rotate(-90 71 76)" fill="#B3BEC9"/>
<circle cx="71" cy="68" r="2" transform="rotate(-90 71 68)" fill="#B3BEC9"/>
<circle cx="71" cy="60" r="2" transform="rotate(-90 71 60)" fill="#B3BEC9"/>
<circle cx="71" cy="52" r="2" transform="rotate(-90 71 52)" fill="#B3BEC9"/>
<circle cx="71" cy="44" r="2" transform="rotate(-90 71 44)" fill="#B3BEC9"/>
<circle cx="79" cy="84" r="2" transform="rotate(-90 79 84)" fill="#B3BEC9"/>
<circle cx="79" cy="76" r="2" transform="rotate(-90 79 76)" fill="#B3BEC9"/>
<circle cx="79" cy="68" r="2" transform="rotate(-90 79 68)" fill="#B3BEC9"/>
<circle cx="79" cy="60" r="2" transform="rotate(-90 79 60)" fill="#B3BEC9"/>
<circle cx="79" cy="52" r="2" transform="rotate(-90 79 52)" fill="#B3BEC9"/>
<circle cx="79" cy="44" r="2" transform="rotate(-90 79 44)" fill="#B3BEC9"/>
<circle cx="87" cy="84" r="2" transform="rotate(-90 87 84)" fill="#B3BEC9"/>
<circle cx="95" cy="84" r="2" transform="rotate(-90 95 84)" fill="#B3BEC9"/>
<circle cx="87" cy="76" r="2" transform="rotate(-90 87 76)" fill="#B3BEC9"/>
<circle cx="95" cy="76" r="2" transform="rotate(-90 95 76)" fill="#B3BEC9"/>
<circle cx="87" cy="68" r="2" transform="rotate(-90 87 68)" fill="#B3BEC9"/>
<circle cx="95" cy="68" r="2" transform="rotate(-90 95 68)" fill="#B3BEC9"/>
<circle cx="87" cy="60" r="2" transform="rotate(-90 87 60)" fill="#B3BEC9"/>
<circle cx="95" cy="60" r="2" transform="rotate(-90 95 60)" fill="#B3BEC9"/>
<circle cx="87" cy="52" r="2" transform="rotate(-90 87 52)" fill="#B3BEC9"/>
<circle cx="95" cy="52" r="2" transform="rotate(-90 95 52)" fill="#B3BEC9"/>
<circle cx="87" cy="44" r="2" transform="rotate(-90 87 44)" fill="#9C1EFF"/>
<circle cx="95" cy="44" r="2" transform="rotate(-90 95 44)" fill="#B3BEC9"/>
<path fill-rule="evenodd" clip-rule="evenodd" d="M64.5 14.5C65.3284 14.5 66 15.1716 66 16V16.7059H67.4118C69.1174 16.7059 70.5 18.0885 70.5 19.7941C70.5 20.6225 69.8284 21.2941 69 21.2941C68.1716 21.2941 67.5 20.6225 67.5 19.7941C67.5 19.7454 67.4605 19.7059 67.4118 19.7059H62C61.7239 19.7059 61.5 19.9297 61.5 20.2059V21.5C61.5 21.7761 61.7239 22 62 22H67C68.933 22 70.5 23.567 70.5 25.5V26.7941C70.5 28.7271 68.933 30.2941 67 30.2941H66V30.9996L64.5 31L63 31V30.2941H61.5882C59.8826 30.2941 58.5 28.9115 58.5 27.2059C58.5 26.3775 59.1716 25.7059 60 25.7059C60.8284 25.7059 61.5 26.3775 61.5 27.2059C61.5 27.2546 61.5395 27.2941 61.5882 27.2941H64.4958C64.4972 27.2941 64.4986 27.2941 64.5 27.2941C64.5014 27.2941 64.5028 27.2941 64.5042 27.2941H67C67.2761 27.2941 67.5 27.0703 67.5 26.7941V25.5C67.5 25.2239 67.2761 25 67 25H62C60.067 25 58.5 23.433 58.5 21.5V20.2059C58.5 18.2729 60.067 16.7059 62 16.7059H63V16C63 15.1716 63.6716 14.5 64.5 14.5ZM64.5 31L63 31C63 31.8284 63.6716 32.5 64.5 32.5C65.3284 32.5 66 31.828 66 30.9996L64.5 31Z" fill="white"/>
</g>
<defs>
<clipPath id="clip0_10915_12267">
<rect width="96" height="96" rx="48" fill="white"/>
</clipPath>
</defs>
</svg>
