<svg width="96" height="96" viewBox="0 0 96 96" fill="none" xmlns="http://www.w3.org/2000/svg">
<g opacity="0.5">
<g clip-path="url(#clip0_10952_5443)">
<rect width="96" height="96" rx="48" fill="#E4EBF0"/>
<path d="M0.776457 38.8109C0.347631 37.2105 1.29738 35.5655 2.89778 35.1366L37.8294 25.7767C39.4298 25.3479 41.0748 26.2977 41.5036 27.8981L55.3515 79.5792C55.7804 81.1796 54.8306 82.8246 53.2302 83.2535L18.2986 92.6133C16.6982 93.0422 15.0532 92.0924 14.6244 90.492L0.776457 38.8109Z" fill="#196036"/>
<path d="M12.447 33.9961C12.447 32.3392 13.7902 30.9961 15.447 30.9961H44.0873L58.1497 45.0585V86.3549C58.1497 88.0118 56.8066 89.3549 55.1497 89.3549H15.447C13.7902 89.3549 12.447 88.0118 12.447 86.3549V33.9961Z" fill="#1C9E59"/>
<path d="M44.0874 30.9961L58.1498 45.0585H47.0874C45.4305 45.0585 44.0874 43.7153 44.0874 42.0585V30.9961Z" fill="#196036"/>
<path fill-rule="evenodd" clip-rule="evenodd" d="M33.5 59C33.5 58.1716 34.1716 57.5 35 57.5H48C48.8284 57.5 49.5 58.1716 49.5 59C49.5 59.8284 48.8284 60.5 48 60.5H35C34.1716 60.5 33.5 59.8284 33.5 59Z" fill="#196036"/>
<path fill-rule="evenodd" clip-rule="evenodd" d="M39.5 67C39.5 66.1716 40.1716 65.5 41 65.5H48C48.8284 65.5 49.5 66.1716 49.5 67C49.5 67.8284 48.8284 68.5 48 68.5H41C40.1716 68.5 39.5 67.8284 39.5 67Z" fill="#196036"/>
<path fill-rule="evenodd" clip-rule="evenodd" d="M21.5 75C21.5 74.1716 22.1716 73.5 23 73.5H29C29.8284 73.5 30.5 74.1716 30.5 75C30.5 75.8284 29.8284 76.5 29 76.5H23C22.1716 76.5 21.5 75.8284 21.5 75Z" fill="#196036"/>
<path fill-rule="evenodd" clip-rule="evenodd" d="M32.5 75C32.5 74.1716 33.1716 73.5 34 73.5L48 73.5C48.8284 73.5 49.5 74.1716 49.5 75C49.5 75.8284 48.8284 76.5 48 76.5L34 76.5C33.1716 76.5 32.5 75.8284 32.5 75Z" fill="#196036"/>
<path fill-rule="evenodd" clip-rule="evenodd" d="M21.5 59C21.5 58.1716 22.1716 57.5 23 57.5H29C29.8284 57.5 30.5 58.1716 30.5 59C30.5 59.8284 29.8284 60.5 29 60.5H23C22.1716 60.5 21.5 59.8284 21.5 59Z" fill="white"/>
<path fill-rule="evenodd" clip-rule="evenodd" d="M21.5 67C21.5 66.1716 22.1716 65.5 23 65.5H36C36.8284 65.5 37.5 66.1716 37.5 67C37.5 67.8284 36.8284 68.5 36 68.5H23C22.1716 68.5 21.5 67.8284 21.5 67Z" fill="white"/>
<path d="M64.6988 38.1376C72.2644 38.1376 78.3975 32.0626 78.3975 24.5688C78.3975 17.0749 72.2644 11 64.6988 11C57.1331 11 51 17.0749 51 24.5688C51 32.0626 57.1331 38.1376 64.6988 38.1376Z" fill="#2F80ED"/>
<path fill-rule="evenodd" clip-rule="evenodd" d="M70.0126 20.8934C70.6238 21.4526 70.6659 22.4014 70.1067 23.0126L64.8942 28.7093C63.9296 29.7636 62.3057 29.7636 61.3411 28.7093L58.8934 26.0342C58.3341 25.423 58.3762 24.4742 58.9874 23.9149C59.5986 23.3557 60.5474 23.3978 61.1067 24.009L63.1177 26.2068L67.8934 20.9874C68.4526 20.3762 69.4014 20.3341 70.0126 20.8934Z" fill="white"/>
<circle cx="97" cy="55" r="2" transform="rotate(90 97 55)" fill="#B3BEC9"/>
<circle cx="89" cy="55" r="2" transform="rotate(90 89 55)" fill="#B3BEC9"/>
<circle cx="81" cy="55" r="2" transform="rotate(90 81 55)" fill="#F84747"/>
<circle cx="73" cy="55" r="2" transform="rotate(90 73 55)" fill="#B3BEC9"/>
<circle cx="97" cy="63" r="2" transform="rotate(90 97 63)" fill="#B3BEC9"/>
<circle cx="89" cy="63" r="2" transform="rotate(90 89 63)" fill="#B3BEC9"/>
<circle cx="81" cy="63" r="2" transform="rotate(90 81 63)" fill="#B3BEC9"/>
<circle cx="73" cy="63" r="2" transform="rotate(90 73 63)" fill="#B3BEC9"/>
<circle cx="97" cy="71" r="2" transform="rotate(90 97 71)" fill="#B3BEC9"/>
<circle cx="89" cy="71" r="2" transform="rotate(90 89 71)" fill="#B3BEC9"/>
<circle cx="81" cy="71" r="2" transform="rotate(90 81 71)" fill="#B3BEC9"/>
<circle cx="73" cy="71" r="2" transform="rotate(90 73 71)" fill="#B3BEC9"/>
<circle cx="97" cy="79" r="2" transform="rotate(90 97 79)" fill="#B3BEC9"/>
<circle cx="89" cy="79" r="2" transform="rotate(90 89 79)" fill="#B3BEC9"/>
<circle cx="81" cy="79" r="2" transform="rotate(90 81 79)" fill="#B3BEC9"/>
<circle cx="73" cy="79" r="2" transform="rotate(90 73 79)" fill="#9C1EFF"/>
<circle cx="97" cy="87" r="2" transform="rotate(90 97 87)" fill="#B3BEC9"/>
<circle cx="89" cy="87" r="2" transform="rotate(90 89 87)" fill="#B3BEC9"/>
<circle cx="81" cy="87" r="2" transform="rotate(90 81 87)" fill="#B3BEC9"/>
<circle cx="73" cy="87" r="2" transform="rotate(90 73 87)" fill="#B3BEC9"/>
<circle cx="97" cy="95" r="2" transform="rotate(90 97 95)" fill="#B3BEC9"/>
<circle cx="89" cy="95" r="2" transform="rotate(90 89 95)" fill="#B3BEC9"/>
<circle cx="81" cy="95" r="2" transform="rotate(90 81 95)" fill="#B3BEC9"/>
<circle cx="73" cy="95" r="2" transform="rotate(90 73 95)" fill="#B3BEC9"/>
</g>
</g>
<defs>
<clipPath id="clip0_10952_5443">
<rect width="96" height="96" rx="48" fill="white"/>
</clipPath>
</defs>
</svg>
