<svg width="120" height="122" viewBox="0 0 120 122" fill="none" xmlns="http://www.w3.org/2000/svg">
<rect width="120" height="122" rx="5" fill="white"/>
<g style="mix-blend-mode:luminosity" opacity="0.5" filter="url(#filter0_d_10502_53555)">
<g clip-path="url(#clip0_10502_53555)">
<rect x="12" y="13" width="96" height="96" rx="48" fill="#E4EBF0"/>
<path d="M12.7765 51.8104C12.3476 50.21 13.2974 48.565 14.8978 48.1361L49.8294 38.7762C51.4298 38.3474 53.0748 39.2972 53.5036 40.8976L67.3515 92.5787C67.7804 94.1791 66.8306 95.8241 65.2302 96.253L30.2986 105.613C28.6982 106.042 27.0532 105.092 26.6244 103.492L12.7765 51.8104Z" fill="#196036"/>
<path d="M24.447 46.9956C24.447 45.3388 25.7902 43.9956 27.447 43.9956H56.0873L70.1497 58.058V99.3544C70.1497 101.011 68.8066 102.354 67.1497 102.354H27.447C25.7902 102.354 24.447 101.011 24.447 99.3544V46.9956Z" fill="#1C9E59"/>
<path d="M56.0874 43.9956L70.1498 58.058H59.0874C57.4305 58.058 56.0874 56.7148 56.0874 55.058V43.9956Z" fill="#196036"/>
<path fill-rule="evenodd" clip-rule="evenodd" d="M45.5 72C45.5 71.1716 46.1716 70.5 47 70.5H60C60.8284 70.5 61.5 71.1716 61.5 72C61.5 72.8284 60.8284 73.5 60 73.5H47C46.1716 73.5 45.5 72.8284 45.5 72Z" fill="#196036"/>
<path fill-rule="evenodd" clip-rule="evenodd" d="M51.5 80C51.5 79.1716 52.1716 78.5 53 78.5H60C60.8284 78.5 61.5 79.1716 61.5 80C61.5 80.8284 60.8284 81.5 60 81.5H53C52.1716 81.5 51.5 80.8284 51.5 80Z" fill="#196036"/>
<path fill-rule="evenodd" clip-rule="evenodd" d="M33.5 88C33.5 87.1716 34.1716 86.5 35 86.5H41C41.8284 86.5 42.5 87.1716 42.5 88C42.5 88.8284 41.8284 89.5 41 89.5H35C34.1716 89.5 33.5 88.8284 33.5 88Z" fill="#196036"/>
<path fill-rule="evenodd" clip-rule="evenodd" d="M44.5 88C44.5 87.1716 45.1716 86.5 46 86.5L60 86.5C60.8284 86.5 61.5 87.1716 61.5 88C61.5 88.8284 60.8284 89.5 60 89.5L46 89.5C45.1716 89.5 44.5 88.8284 44.5 88Z" fill="#196036"/>
<path fill-rule="evenodd" clip-rule="evenodd" d="M33.5 72C33.5 71.1716 34.1716 70.5 35 70.5H41C41.8284 70.5 42.5 71.1716 42.5 72C42.5 72.8284 41.8284 73.5 41 73.5H35C34.1716 73.5 33.5 72.8284 33.5 72Z" fill="white"/>
<path fill-rule="evenodd" clip-rule="evenodd" d="M33.5 80C33.5 79.1716 34.1716 78.5 35 78.5H48C48.8284 78.5 49.5 79.1716 49.5 80C49.5 80.8284 48.8284 81.5 48 81.5H35C34.1716 81.5 33.5 80.8284 33.5 80Z" fill="white"/>
<path d="M76.6988 51.1376C84.2644 51.1376 90.3975 45.0626 90.3975 37.5688C90.3975 30.0749 84.2644 24 76.6988 24C69.1331 24 63 30.0749 63 37.5688C63 45.0626 69.1331 51.1376 76.6988 51.1376Z" fill="#2F80ED"/>
<path fill-rule="evenodd" clip-rule="evenodd" d="M82.0126 33.8934C82.6238 34.4526 82.6659 35.4014 82.1067 36.0126L76.8942 41.7093C75.9296 42.7636 74.3057 42.7636 73.3411 41.7093L70.8934 39.0342C70.3341 38.423 70.3762 37.4742 70.9874 36.9149C71.5986 36.3557 72.5474 36.3978 73.1067 37.009L75.1177 39.2068L79.8934 33.9874C80.4526 33.3762 81.4014 33.3341 82.0126 33.8934Z" fill="white"/>
<circle cx="109" cy="68" r="2" transform="rotate(90 109 68)" fill="#B3BEC9"/>
<circle cx="101" cy="68" r="2" transform="rotate(90 101 68)" fill="#B3BEC9"/>
<circle cx="93" cy="68" r="2" transform="rotate(90 93 68)" fill="#F84747"/>
<circle cx="85" cy="68" r="2" transform="rotate(90 85 68)" fill="#B3BEC9"/>
<circle cx="109" cy="76" r="2" transform="rotate(90 109 76)" fill="#B3BEC9"/>
<circle cx="101" cy="76" r="2" transform="rotate(90 101 76)" fill="#B3BEC9"/>
<circle cx="93" cy="76" r="2" transform="rotate(90 93 76)" fill="#B3BEC9"/>
<circle cx="85" cy="76" r="2" transform="rotate(90 85 76)" fill="#B3BEC9"/>
<circle cx="109" cy="84" r="2" transform="rotate(90 109 84)" fill="#B3BEC9"/>
<circle cx="101" cy="84" r="2" transform="rotate(90 101 84)" fill="#B3BEC9"/>
<circle cx="93" cy="84" r="2" transform="rotate(90 93 84)" fill="#B3BEC9"/>
<circle cx="85" cy="84" r="2" transform="rotate(90 85 84)" fill="#B3BEC9"/>
<circle cx="109" cy="92" r="2" transform="rotate(90 109 92)" fill="#B3BEC9"/>
<circle cx="101" cy="92" r="2" transform="rotate(90 101 92)" fill="#B3BEC9"/>
<circle cx="93" cy="92" r="2" transform="rotate(90 93 92)" fill="#B3BEC9"/>
<circle cx="85" cy="92" r="2" transform="rotate(90 85 92)" fill="#9C1EFF"/>
<circle cx="109" cy="100" r="2" transform="rotate(90 109 100)" fill="#B3BEC9"/>
<circle cx="101" cy="100" r="2" transform="rotate(90 101 100)" fill="#B3BEC9"/>
<circle cx="93" cy="100" r="2" transform="rotate(90 93 100)" fill="#B3BEC9"/>
<circle cx="85" cy="100" r="2" transform="rotate(90 85 100)" fill="#B3BEC9"/>
<circle cx="109" cy="108" r="2" transform="rotate(90 109 108)" fill="#B3BEC9"/>
<circle cx="101" cy="108" r="2" transform="rotate(90 101 108)" fill="#B3BEC9"/>
<circle cx="93" cy="108" r="2" transform="rotate(90 93 108)" fill="#B3BEC9"/>
<circle cx="85" cy="108" r="2" transform="rotate(90 85 108)" fill="#B3BEC9"/>
</g>
</g>
<defs>
<filter id="filter0_d_10502_53555" x="8" y="13" width="104" height="104" filterUnits="userSpaceOnUse" color-interpolation-filters="sRGB">
<feFlood flood-opacity="0" result="BackgroundImageFix"/>
<feColorMatrix in="SourceAlpha" type="matrix" values="0 0 0 0 0 0 0 0 0 0 0 0 0 0 0 0 0 0 127 0" result="hardAlpha"/>
<feOffset dy="4"/>
<feGaussianBlur stdDeviation="2"/>
<feComposite in2="hardAlpha" operator="out"/>
<feColorMatrix type="matrix" values="0 0 0 0 0 0 0 0 0 0 0 0 0 0 0 0 0 0 0.25 0"/>
<feBlend mode="normal" in2="BackgroundImageFix" result="effect1_dropShadow_10502_53555"/>
<feBlend mode="normal" in="SourceGraphic" in2="effect1_dropShadow_10502_53555" result="shape"/>
</filter>
<clipPath id="clip0_10502_53555">
<rect x="12" y="13" width="96" height="96" rx="48" fill="white"/>
</clipPath>
</defs>
</svg>
