<svg width="200" height="200" viewBox="0 0 200 200" fill="none" xmlns="http://www.w3.org/2000/svg">
<g clip-path="url(#clip0_13666_7573)">
<rect width="200" height="200" rx="100" fill="#E4EBF0"/>
<path d="M97.9167 4.16683C95.6155 4.16683 93.75 2.30135 93.75 0.000162237C93.75 -2.30102 95.6155 -4.1665 97.9167 -4.1665C100.218 -4.1665 102.083 -2.30102 102.083 0.000162601C102.083 2.30135 100.218 4.16683 97.9167 4.16683Z" fill="#B3BEC9"/>
<path d="M97.9167 20.8333C95.6155 20.8333 93.75 18.9679 93.75 16.6667C93.75 14.3655 95.6155 12.5 97.9167 12.5C100.218 12.5 102.083 14.3655 102.083 16.6667C102.083 18.9679 100.218 20.8333 97.9167 20.8333Z" fill="#1C9E59"/>
<path d="M97.9167 37.4998C95.6155 37.4998 93.75 35.6344 93.75 33.3332C93.75 31.032 95.6155 29.1665 97.9167 29.1665C100.218 29.1665 102.083 31.032 102.083 33.3332C102.083 35.6344 100.218 37.4998 97.9167 37.4998Z" fill="#B3BEC9"/>
<path d="M97.9167 54.1668C95.6155 54.1668 93.75 52.3013 93.75 50.0002C93.75 47.699 95.6155 45.8335 97.9167 45.8335C100.218 45.8335 102.083 47.699 102.083 50.0002C102.083 52.3013 100.218 54.1668 97.9167 54.1668Z" fill="#B3BEC9"/>
<path d="M81.25 4.16683C78.9488 4.16683 77.0833 2.30135 77.0833 0.000162237C77.0833 -2.30102 78.9488 -4.1665 81.25 -4.1665C83.5511 -4.1665 85.4166 -2.30102 85.4166 0.000162601C85.4166 2.30135 83.5511 4.16683 81.25 4.16683Z" fill="#B3BEC9"/>
<path d="M81.25 20.8333C78.9488 20.8333 77.0833 18.9679 77.0833 16.6667C77.0833 14.3655 78.9488 12.5 81.25 12.5C83.5511 12.5 85.4166 14.3655 85.4166 16.6667C85.4166 18.9679 83.5511 20.8333 81.25 20.8333Z" fill="#B3BEC9"/>
<path d="M81.25 37.4998C78.9488 37.4998 77.0833 35.6344 77.0833 33.3332C77.0833 31.032 78.9488 29.1665 81.25 29.1665C83.5511 29.1665 85.4166 31.032 85.4166 33.3332C85.4166 35.6344 83.5511 37.4998 81.25 37.4998Z" fill="#B3BEC9"/>
<path d="M81.25 54.1668C78.9488 54.1668 77.0833 52.3013 77.0833 50.0002C77.0833 47.699 78.9488 45.8335 81.25 45.8335C83.5511 45.8335 85.4166 47.699 85.4166 50.0002C85.4166 52.3013 83.5511 54.1668 81.25 54.1668Z" fill="#B3BEC9"/>
<path d="M64.5833 4.16683C62.2821 4.16683 60.4167 2.30135 60.4167 0.000162237C60.4167 -2.30102 62.2821 -4.1665 64.5833 -4.1665C66.8845 -4.1665 68.75 -2.30102 68.75 0.000162601C68.75 2.30135 66.8845 4.16683 64.5833 4.16683Z" fill="#B3BEC9"/>
<path d="M47.9167 4.16683C45.6155 4.16683 43.75 2.30135 43.75 0.000162237C43.75 -2.30102 45.6155 -4.1665 47.9167 -4.1665C50.2179 -4.1665 52.0834 -2.30102 52.0834 0.000162601C52.0834 2.30135 50.2179 4.16683 47.9167 4.16683Z" fill="#B3BEC9"/>
<path d="M31.25 4.16683C28.9488 4.16683 27.0833 2.30135 27.0833 0.000162237C27.0833 -2.30102 28.9488 -4.1665 31.25 -4.1665C33.5511 -4.1665 35.4166 -2.30102 35.4166 0.000162601C35.4166 2.30135 33.5511 4.16683 31.25 4.16683Z" fill="#B3BEC9"/>
<path d="M14.5833 4.16683C12.2821 4.16683 10.4167 2.30135 10.4167 0.000162237C10.4167 -2.30102 12.2821 -4.1665 14.5833 -4.1665C16.8845 -4.1665 18.75 -2.30102 18.75 0.000162601C18.75 2.30135 16.8845 4.16683 14.5833 4.16683Z" fill="#B3BEC9"/>
<path d="M64.5833 20.8333C62.2821 20.8333 60.4167 18.9679 60.4167 16.6667C60.4167 14.3655 62.2821 12.5 64.5833 12.5C66.8845 12.5 68.75 14.3655 68.75 16.6667C68.75 18.9679 66.8845 20.8333 64.5833 20.8333Z" fill="#B3BEC9"/>
<path d="M47.9167 20.8333C45.6155 20.8333 43.75 18.9679 43.75 16.6667C43.75 14.3655 45.6155 12.5 47.9167 12.5C50.2179 12.5 52.0834 14.3655 52.0834 16.6667C52.0834 18.9679 50.2179 20.8333 47.9167 20.8333Z" fill="#B3BEC9"/>
<path d="M31.25 20.8333C28.9488 20.8333 27.0833 18.9679 27.0833 16.6667C27.0833 14.3655 28.9488 12.5 31.25 12.5C33.5511 12.5 35.4166 14.3655 35.4166 16.6667C35.4166 18.9679 33.5511 20.8333 31.25 20.8333Z" fill="#B3BEC9"/>
<path d="M14.5833 20.8333C12.2821 20.8333 10.4167 18.9679 10.4167 16.6667C10.4167 14.3655 12.2821 12.5 14.5833 12.5C16.8845 12.5 18.75 14.3655 18.75 16.6667C18.75 18.9679 16.8845 20.8333 14.5833 20.8333Z" fill="#B3BEC9"/>
<path d="M64.5833 37.4998C62.2821 37.4998 60.4167 35.6344 60.4167 33.3332C60.4167 31.032 62.2821 29.1665 64.5833 29.1665C66.8845 29.1665 68.75 31.032 68.75 33.3332C68.75 35.6344 66.8845 37.4998 64.5833 37.4998Z" fill="#B3BEC9"/>
<path d="M47.9167 37.4998C45.6155 37.4998 43.75 35.6344 43.75 33.3332C43.75 31.032 45.6155 29.1665 47.9167 29.1665C50.2179 29.1665 52.0834 31.032 52.0834 33.3332C52.0834 35.6344 50.2179 37.4998 47.9167 37.4998Z" fill="#B3BEC9"/>
<path d="M31.25 37.4998C28.9488 37.4998 27.0833 35.6344 27.0833 33.3332C27.0833 31.032 28.9488 29.1665 31.25 29.1665C33.5511 29.1665 35.4166 31.032 35.4166 33.3332C35.4166 35.6344 33.5511 37.4998 31.25 37.4998Z" fill="#B3BEC9"/>
<path d="M14.5833 37.4998C12.2821 37.4998 10.4167 35.6344 10.4167 33.3332C10.4167 31.032 12.2821 29.1665 14.5833 29.1665C16.8845 29.1665 18.75 31.032 18.75 33.3332C18.75 35.6344 16.8845 37.4998 14.5833 37.4998Z" fill="#B3BEC9"/>
<path d="M64.5833 54.1668C62.2821 54.1668 60.4167 52.3013 60.4167 50.0002C60.4167 47.699 62.2821 45.8335 64.5833 45.8335C66.8845 45.8335 68.75 47.699 68.75 50.0002C68.75 52.3013 66.8845 54.1668 64.5833 54.1668Z" fill="#FA7472"/>
<path d="M47.9167 54.1668C45.6155 54.1668 43.75 52.3013 43.75 50.0002C43.75 47.699 45.6155 45.8335 47.9167 45.8335C50.2179 45.8335 52.0834 47.699 52.0834 50.0002C52.0834 52.3013 50.2179 54.1668 47.9167 54.1668Z" fill="#B3BEC9"/>
<path d="M31.25 54.1668C28.9488 54.1668 27.0833 52.3013 27.0833 50.0002C27.0833 47.699 28.9488 45.8335 31.25 45.8335C33.5511 45.8335 35.4166 47.699 35.4166 50.0002C35.4166 52.3013 33.5511 54.1668 31.25 54.1668Z" fill="#B3BEC9"/>
<path d="M14.5833 54.1668C12.2821 54.1668 10.4167 52.3013 10.4167 50.0002C10.4167 47.699 12.2821 45.8335 14.5833 45.8335C16.8845 45.8335 18.75 47.699 18.75 50.0002C18.75 52.3013 16.8845 54.1668 14.5833 54.1668Z" fill="#B3BEC9"/>
<path d="M68.75 212.5C107.87 212.5 139.583 180.787 139.583 141.667C139.583 102.547 107.87 70.8335 68.75 70.8335C29.6298 70.8335 -2.08337 102.547 -2.08337 141.667C-2.08337 180.787 29.6298 212.5 68.75 212.5Z" fill="#0048AF"/>
<path d="M90.0314 185.118C124.797 185.118 152.979 157.203 152.979 122.767C152.979 88.3319 124.797 60.4165 90.0314 60.4165C55.2662 60.4165 27.0834 88.3319 27.0834 122.767C27.0834 157.203 55.2662 185.118 90.0314 185.118Z" fill="#2F80ED"/>
<path fill-rule="evenodd" clip-rule="evenodd" d="M89.5834 76.0415C84.8222 76.0415 80.2322 76.7504 75.9102 78.0662C74.2591 78.5688 72.5132 77.6379 72.0105 75.9868C71.5079 74.3357 72.4388 72.5898 74.0899 72.0871C78.9954 70.5937 84.1986 69.7915 89.5834 69.7915C106.362 69.7915 121.324 77.5731 131.055 89.7119C132.135 91.0585 131.918 93.0253 130.572 94.1048C129.225 95.1843 127.258 94.9677 126.179 93.6211C117.583 82.8984 104.385 76.0415 89.5834 76.0415ZM65.1254 79.1847C66.0615 80.6347 65.645 82.569 64.195 83.5051C61.7505 85.0833 59.4617 86.8831 57.3572 88.8761C56.1041 90.0629 54.1262 90.0091 52.9394 88.7559C51.7527 87.5028 51.8064 85.5249 53.0596 84.3382C55.4427 82.0813 58.0351 80.0426 60.8051 78.2543C62.255 77.3182 64.1893 77.7347 65.1254 79.1847Z" fill="white"/>
<path fill-rule="evenodd" clip-rule="evenodd" d="M89.5833 169.792C101.126 169.792 111.687 165.624 119.856 158.707C121.173 157.592 123.145 157.755 124.26 159.072C125.375 160.39 125.211 162.361 123.894 163.477C114.639 171.313 102.659 176.042 89.5833 176.042C60.2431 176.041 36.4583 152.257 36.4583 122.917C36.4583 121.191 37.8574 119.792 39.5833 119.792C41.3092 119.792 42.7083 121.191 42.7083 122.917C42.7083 148.805 63.6949 169.791 89.5833 169.792Z" fill="#0048AF"/>
<path fill-rule="evenodd" clip-rule="evenodd" d="M108.36 110.194C109.633 111.36 109.721 113.336 108.556 114.61L90.4567 134.39C87.9333 137.148 83.7171 137.148 81.1936 134.39L72.6945 125.101C71.5294 123.828 71.6172 121.851 72.8905 120.686C74.1638 119.521 76.1405 119.609 77.3055 120.882L85.8047 130.171C85.8124 130.179 85.8193 130.186 85.8252 130.191C85.8311 130.186 85.838 130.179 85.8457 130.171L103.944 110.39C105.11 109.117 107.086 109.029 108.36 110.194Z" fill="white"/>
<path d="M175 47.9168C160.937 47.9168 146.875 63.1512 146.875 75.0002C146.875 63.1512 132.812 47.9168 118.75 47.9168C132.812 47.9168 146.875 34.3752 146.875 20.8335C146.875 34.3752 160.937 47.9168 175 47.9168Z" fill="#FFAE41"/>
</g>
<defs>
<clipPath id="clip0_13666_7573">
<rect width="200" height="200" rx="100" fill="white"/>
</clipPath>
</defs>
</svg>
