<svg width="350" height="350" viewBox="0 0 350 350" fill="none" xmlns="http://www.w3.org/2000/svg">
<path d="M79.9749 114.182C89.6348 114.182 97.4657 106.351 97.4657 96.691C97.4657 87.0311 89.6348 79.2003 79.9749 79.2003C70.315 79.2003 62.4841 87.0311 62.4841 96.691C62.4841 106.351 70.315 114.182 79.9749 114.182Z" fill="#FF6584"/>
<path d="M165.075 162.315C165.075 203.585 140.54 217.995 110.275 217.995C80.0102 217.995 55.4756 203.585 55.4756 162.315C55.4756 121.044 110.275 68.5417 110.275 68.5417C110.275 68.5417 165.075 121.044 165.075 162.315Z" fill="#F2F2F2"/>
<path d="M108.278 211.682L108.839 177.142L132.196 134.412L108.928 171.724L109.18 156.194L125.277 125.279L109.246 152.084L109.7 124.152L126.938 99.5394L109.772 119.759L110.055 68.5417L108.273 136.345L108.42 133.547L90.8942 106.722L108.139 138.917L106.506 170.112L106.457 169.284L86.2532 141.054L106.396 172.209L106.192 176.111L106.155 176.169L106.172 176.49L102.029 255.635H107.564L108.228 214.755L128.321 183.676L108.278 211.682Z" fill="#3F3D56"/>
<path d="M328.125 179.218C328.125 212.999 308.042 224.795 283.269 224.795C258.496 224.795 238.413 212.999 238.413 179.218C238.413 145.436 283.269 102.46 283.269 102.46C283.269 102.46 328.125 145.436 328.125 179.218Z" fill="#F2F2F2"/>
<path d="M281.635 219.627L282.094 191.355L301.212 156.378L282.166 186.92L282.372 174.207L295.549 148.902L282.427 170.843L282.799 147.98L296.908 127.833L282.857 144.384L283.089 102.46L281.63 157.96L281.75 155.671L267.405 133.712L281.52 160.066L280.184 185.601L280.144 184.923L263.606 161.815L280.094 187.317L279.926 190.511L279.897 190.559L279.91 190.821L276.519 255.605H281.05L281.594 222.143L298.041 196.703L281.635 219.627Z" fill="#3F3D56"/>
<path d="M173.441 262.174C257.149 262.174 325.008 258.743 325.008 254.512C325.008 250.281 257.149 246.85 173.441 246.85C89.7336 246.85 21.875 250.281 21.875 254.512C21.875 258.743 89.7336 262.174 173.441 262.174Z" fill="#3F3D56"/>
<path d="M265.773 268.482C280.111 268.482 291.733 267.895 291.733 267.17C291.733 266.445 280.111 265.858 265.773 265.858C251.436 265.858 239.814 266.445 239.814 267.17C239.814 267.895 251.436 268.482 265.773 268.482Z" fill="#3F3D56"/>
<path d="M171.836 281.141C186.173 281.141 197.796 280.553 197.796 279.828C197.796 279.104 186.173 278.516 171.836 278.516C157.499 278.516 145.876 279.104 145.876 279.828C145.876 280.553 157.499 281.141 171.836 281.141Z" fill="#3F3D56"/>
<path d="M100.568 272.213C133.323 272.213 159.876 270.871 159.876 269.215C159.876 267.56 133.323 266.217 100.568 266.217C67.8126 266.217 41.2593 267.56 41.2593 269.215C41.2593 270.871 67.8126 272.213 100.568 272.213Z" fill="#3F3D56"/>
<path d="M48.4073 244.889C60.3312 244.889 69.9975 235.223 69.9975 223.299C69.9975 211.375 60.3312 201.709 48.4073 201.709C36.4834 201.709 26.8171 211.375 26.8171 223.299C26.8171 235.223 36.4834 244.889 48.4073 244.889Z" fill="#2F2E41"/>
<path d="M44.9282 240.204L38.3696 240.126L38.2312 251.877L44.7897 251.954L44.9282 240.204Z" fill="#2F2E41"/>
<path d="M58.0456 240.358L51.4871 240.281L51.3486 252.032L57.9072 252.109L58.0456 240.358Z" fill="#2F2E41"/>
<path d="M49.1612 252.143C49.1745 251.011 46.7383 250.065 43.7198 250.029C40.7013 249.994 38.2435 250.882 38.2302 252.014C38.2169 253.146 40.653 254.093 43.6715 254.128C46.69 254.164 49.1478 253.275 49.1612 252.143Z" fill="#2F2E41"/>
<path d="M62.2815 252.024C62.2949 250.892 59.8587 249.945 56.8402 249.91C53.8217 249.874 51.3639 250.763 51.3506 251.895C51.3372 253.027 53.7734 253.973 56.7919 254.009C59.8104 254.044 62.2682 253.156 62.2815 252.024Z" fill="#2F2E41"/>
<path d="M49.0193 225.219C53.0946 225.219 56.3982 221.915 56.3982 217.84C56.3982 213.765 53.0946 210.461 49.0193 210.461C44.944 210.461 41.6404 213.765 41.6404 217.84C41.6404 221.915 44.944 225.219 49.0193 225.219Z" fill="white"/>
<path d="M49.0192 220.3C50.3776 220.3 51.4789 219.199 51.4789 217.84C51.4789 216.482 50.3776 215.381 49.0192 215.381C47.6608 215.381 46.5596 216.482 46.5596 217.84C46.5596 219.199 47.6608 220.3 49.0192 220.3Z" fill="#3F3D56"/>
<path d="M27.7023 202.976C26.0511 195.149 31.7163 187.326 40.3559 185.503C48.9955 183.681 57.3379 188.549 58.9891 196.376C60.6403 204.203 54.8956 207.015 46.256 208.838C37.6164 210.66 29.3535 210.803 27.7023 202.976Z" fill="#6C63FF"/>
<path d="M81.3405 235.344C81.3405 250.396 72.3929 255.651 61.3546 255.651C61.0989 255.651 60.8436 255.648 60.5887 255.643C60.0772 255.632 59.5707 255.607 59.0702 255.573C49.1083 254.868 41.3687 249.342 41.3687 235.344C41.3687 220.857 59.8812 202.577 61.2718 201.224L61.2742 201.222C61.3278 201.169 61.3546 201.144 61.3546 201.144C61.3546 201.144 81.3405 220.292 81.3405 235.344Z" fill="#6C63FF"/>
<path d="M60.6276 253.348L67.9374 243.134L60.6093 254.47L60.5899 255.643C60.0784 255.632 59.5719 255.607 59.0714 255.573L59.8592 240.514L59.8531 240.397L59.8665 240.375L59.9408 238.953L52.5945 227.589L59.9639 237.886L59.981 238.188L60.5764 226.81L54.2871 215.068L60.6532 224.813L61.273 201.224L61.2754 201.144V201.222L61.1719 219.823L67.4333 212.449L61.1463 221.425L60.9807 231.613L66.8269 221.836L60.9564 233.112L60.8638 238.775L69.3511 225.167L60.8322 240.751L60.6276 253.348Z" fill="#3F3D56"/>
<path d="M216.592 244.656C228.516 244.656 238.182 234.989 238.182 223.066C238.182 211.142 228.516 201.475 216.592 201.475C204.668 201.475 195.002 211.142 195.002 223.066C195.002 234.989 204.668 244.656 216.592 244.656Z" fill="#2F2E41"/>
<path d="M218.434 240.226L212.165 242.153L215.617 253.386L221.887 251.459L218.434 240.226Z" fill="#2F2E41"/>
<path d="M230.975 236.373L224.705 238.3L228.157 249.533L234.427 247.606L230.975 236.373Z" fill="#2F2E41"/>
<path d="M221.484 253.87C224.37 252.983 226.439 251.387 226.107 250.305C225.774 249.223 223.166 249.064 220.28 249.951C217.395 250.838 215.325 252.434 215.658 253.516C215.99 254.598 218.599 254.756 221.484 253.87Z" fill="#2F2E41"/>
<path d="M233.944 249.755C236.83 248.868 238.899 247.272 238.567 246.19C238.234 245.108 235.625 244.949 232.74 245.836C229.854 246.723 227.785 248.319 228.117 249.401C228.45 250.483 231.059 250.642 233.944 249.755Z" fill="#2F2E41"/>
<path d="M215.51 225.059C219.585 225.059 222.888 221.756 222.888 217.68C222.888 213.605 219.585 210.302 215.51 210.302C211.434 210.302 208.131 213.605 208.131 217.68C208.131 221.756 211.434 225.059 215.51 225.059Z" fill="white"/>
<path d="M215.509 220.14C216.868 220.14 217.969 219.039 217.969 217.68C217.969 216.322 216.868 215.221 215.509 215.221C214.151 215.221 213.05 216.322 213.05 217.68C213.05 219.039 214.151 220.14 215.509 220.14Z" fill="#3F3D56"/>
<path d="M190.675 210.026C186.715 203.075 189.725 193.897 197.397 189.526C205.069 185.156 214.498 187.247 218.458 194.198C222.418 201.148 217.805 205.579 210.133 209.949C202.461 214.32 194.635 216.977 190.675 210.026Z" fill="#6C63FF"/>
<path d="M178.088 232.587C178.088 246.404 169.874 251.229 159.742 251.229C159.507 251.229 159.273 251.226 159.039 251.221C158.569 251.211 158.104 251.188 157.645 251.157C148.5 250.51 141.396 245.437 141.396 232.587C141.396 219.289 158.389 202.509 159.666 201.267L159.668 201.265C159.717 201.217 159.742 201.193 159.742 201.193C159.742 201.193 178.088 218.77 178.088 232.587Z" fill="#6C63FF"/>
<path d="M159.072 249.115L165.782 239.739L159.055 250.144L159.037 251.221C158.568 251.211 158.103 251.188 157.643 251.157L158.367 237.333L158.361 237.226L158.373 237.206L158.442 235.9L151.698 225.469L158.463 234.921L158.478 235.198L159.025 224.754L153.252 213.975L159.095 222.921L159.664 201.267L159.667 201.193V201.265L159.572 218.34L165.319 211.571L159.548 219.811L159.396 229.162L164.763 220.188L159.374 230.538L159.289 235.737L167.08 223.246L159.26 237.551L159.072 249.115Z" fill="#3F3D56"/>
<path d="M250.237 238.35C250.237 253.402 241.289 258.658 230.251 258.658C229.995 258.658 229.74 258.655 229.485 258.649C228.974 258.638 228.467 258.614 227.967 258.58C218.005 257.875 210.265 252.349 210.265 238.35C210.265 223.863 228.778 205.583 230.168 204.231L230.171 204.228C230.224 204.176 230.251 204.15 230.251 204.15C230.251 204.15 250.237 223.298 250.237 238.35Z" fill="#6C63FF"/>
<path d="M229.523 256.355L236.833 246.141L229.505 257.477L229.486 258.649C228.974 258.638 228.468 258.614 227.967 258.58L228.755 243.521L228.749 243.404L228.762 243.382L228.837 241.959L221.49 230.596L228.86 240.893L228.877 241.195L229.472 229.817L223.183 218.075L229.549 227.82L230.169 204.231L230.171 204.15V204.228L230.068 222.83L236.329 215.455L230.042 224.432L229.876 234.619L235.723 224.842L229.852 236.118L229.76 241.782L238.247 228.174L229.728 243.758L229.523 256.355Z" fill="#3F3D56"/>
<path d="M217.964 235.991C218.766 234.299 215.049 230.857 209.662 228.303C204.276 225.748 199.258 225.047 198.456 226.739C197.654 228.43 201.371 231.872 206.758 234.427C212.145 236.981 217.162 237.682 217.964 235.991Z" fill="#2F2E41"/>
<path d="M51.7941 234.014C52.4904 232.277 48.5687 229.07 43.0347 226.852C37.5007 224.634 32.4501 224.244 31.7537 225.982C31.0574 227.719 34.9791 230.925 40.5131 233.143C46.0471 235.362 51.0977 235.751 51.7941 234.014Z" fill="#2F2E41"/>
</svg>
