<svg width="322" height="194" viewBox="0 0 322 194" fill="none" xmlns="http://www.w3.org/2000/svg">
<g clip-path="url(#clip0)">
<path d="M218.883 110.678L221.636 110.203C221.9 110.157 222.162 110.101 222.426 110.053C218.069 107.353 214.762 103.254 213.047 98.4285C211.333 93.6034 211.313 88.3396 212.991 83.5019C214.67 78.6641 217.946 74.5402 222.282 71.8077C226.618 69.0751 231.757 67.8965 236.853 68.4654L233.245 77.0367L241.792 69.585C241.812 69.5899 241.832 69.5965 241.851 69.6045C244.65 70.5887 247.227 72.1138 249.436 74.0926C251.644 76.0714 253.441 78.4652 254.723 81.1373C256.005 83.8094 256.747 86.7074 256.908 89.666C257.068 92.6245 256.643 95.5856 255.657 98.3801C255.514 98.7865 255.344 99.1745 255.18 99.5673C257.593 98.3568 259.908 96.9476 261.796 95.1432C265.617 91.4868 267.711 86.4411 270.051 80.2248C274.687 67.9061 279.15 55.4092 283.436 42.885C278.709 40.3314 275.05 36.1789 273.114 31.1734C271.179 26.1679 271.094 20.6374 272.876 15.5753C273.106 14.924 273.372 14.2969 273.654 13.681C273.724 13.5269 273.795 13.3737 273.869 13.2218C274.155 12.6313 274.458 12.0527 274.79 11.4975C274.844 11.4064 274.905 11.3213 274.96 11.2312C275.249 10.7631 275.554 10.3088 275.874 9.86834C275.994 9.70298 276.113 9.53807 276.236 9.37663C276.599 8.90239 276.975 8.44093 277.372 8.00039C277.505 7.85298 277.645 7.71525 277.781 7.57165C278.086 7.25061 278.399 6.93925 278.721 6.63759C278.89 6.47877 279.058 6.31881 279.232 6.16563C279.276 6.12633 279.318 6.08343 279.363 6.04445C279.365 6.04733 279.367 6.05042 279.369 6.05326C283.349 2.59014 288.419 0.62896 293.697 0.510574C298.975 0.392188 304.128 2.12408 308.26 5.40524L303.565 16.5593L312.016 9.1962C314.973 12.9581 316.649 17.565 316.799 22.3449C316.949 27.1249 315.566 31.8277 312.851 35.7673C312.859 35.7701 312.867 35.7722 312.874 35.7749C312.782 35.9103 312.677 36.0342 312.583 36.1672C312.404 36.4168 312.222 36.6619 312.035 36.9026C311.795 37.2112 311.546 37.5096 311.291 37.8038C311.099 38.0259 310.91 38.2498 310.71 38.4635C310.417 38.776 310.111 39.0719 309.802 39.3662C309.622 39.5378 309.45 39.7182 309.264 39.8835C308.779 40.3167 308.276 40.7278 307.757 41.1167C307.575 41.2529 307.382 41.3731 307.196 41.5035C306.832 41.7596 306.465 42.0119 306.087 42.2456C305.852 42.3905 305.611 42.523 305.371 42.6593C305.024 42.8567 304.674 43.0479 304.317 43.2266C304.064 43.3532 303.81 43.4735 303.552 43.5906C303.186 43.7574 302.815 43.912 302.44 44.0592C302.188 44.1578 301.938 44.2578 301.683 44.3475C301.262 44.4955 300.835 44.6241 300.405 44.7472C300.188 44.8094 299.975 44.8806 299.756 44.9363C299.112 45.1004 298.46 45.2401 297.801 45.3471C297.677 45.3673 297.551 45.3749 297.426 45.393C296.88 45.4724 296.331 45.5364 295.777 45.5756C295.539 45.5923 295.299 45.5947 295.06 45.604C294.613 45.6214 294.165 45.6303 293.715 45.6206C293.452 45.6151 293.189 45.6015 292.926 45.5867C292.487 45.5619 292.048 45.5238 291.609 45.4723C291.349 45.4422 291.09 45.4124 290.83 45.3731C290.359 45.3018 289.889 45.2085 289.419 45.1064C289.388 45.0997 289.357 45.0957 289.326 45.0888C287.518 50.3726 285.675 55.6451 283.8 60.9062C286.087 58.8523 288.771 57.2869 291.687 56.3058C294.602 55.3248 297.687 54.9489 300.753 55.2013C303.819 55.4536 306.802 56.3289 309.517 57.7733C312.232 59.2177 314.623 61.2009 316.542 63.601L308.73 72.2272L319.308 68.0113C321.877 73.3905 322.202 79.568 320.212 85.1864C319.522 87.1607 318.556 89.0274 317.341 90.7309C314.728 94.4217 311.064 97.2432 306.825 98.8296C302.586 100.416 297.967 100.694 293.568 99.6274C289.169 98.5609 285.192 96.1991 282.154 92.8484C279.116 89.4978 277.156 85.3129 276.528 80.8365C276.33 81.3666 276.138 81.9033 275.938 82.4329C273.873 87.917 271.305 94.742 266.146 99.6764C262.648 103.021 258.346 105.143 254.218 106.937C251.53 108.105 248.806 109.185 246.046 110.176C242.979 112.034 239.513 113.137 235.934 113.394C231.58 114.602 227.171 115.61 222.72 116.388L219.945 116.866C217.451 117.293 214.894 117.732 212.356 118.238C212.722 118.346 213.087 118.449 213.451 118.577C217.973 120.166 221.872 123.15 224.585 127.097C227.297 131.043 228.682 135.749 228.54 140.534L211.143 145.865L226.885 148.361C225.445 151.895 223.132 155.006 220.161 157.405C217.19 159.804 213.658 161.412 209.896 162.078C206.134 162.745 202.264 162.449 198.648 161.217C195.032 159.985 191.787 157.859 189.217 155.036C189.377 155.57 189.537 156.104 189.698 156.637C190.018 157.696 190.335 158.749 190.639 159.792C194.782 174.003 192.999 185.183 185.619 191.269L181.614 186.428C188.797 180.504 186.568 168.296 184.602 161.545C184.303 160.521 183.991 159.487 183.677 158.447C180.979 149.498 177.92 139.354 181.882 130.033C187.852 115.984 205.058 113.042 218.883 110.678Z" fill="#F2F2F2"/>
<path d="M213.784 193.092H91.8918C87.8946 193.092 84.0611 191.507 81.2346 188.685C78.4082 185.863 76.8203 182.035 76.8203 178.044V122.286C76.8203 121.476 76.9855 120.675 77.3059 119.931C77.6262 119.187 78.0949 118.517 78.6835 117.96L143.274 56.828C145.857 54.3838 149.28 53.0215 152.838 53.0215C156.396 53.0215 159.819 54.3838 162.402 56.828L223.985 115.114C225.524 116.57 226.749 118.323 227.586 120.268C228.424 122.212 228.856 124.306 228.856 126.423V178.044C228.856 180.02 228.466 181.977 227.708 183.803C226.951 185.629 225.841 187.288 224.441 188.685C223.042 190.082 221.38 191.191 219.552 191.947C217.723 192.703 215.763 193.092 213.784 193.092Z" fill="#3F3D56"/>
<path opacity="0.1" d="M76.8203 123.202H227.589V184.006C227.589 186.416 226.63 188.727 224.923 190.432C223.216 192.136 220.902 193.093 218.488 193.093H85.921C83.5073 193.093 81.1925 192.136 79.4858 190.432C77.7791 188.727 76.8203 186.416 76.8203 184.006V123.202Z" fill="black"/>
<path d="M200.45 75.29H104.909C100.329 75.29 96.6162 78.997 96.6162 83.5698V178.962C96.6162 183.535 100.329 187.242 104.909 187.242H200.45C205.029 187.242 208.742 183.535 208.742 178.962V83.5698C208.742 78.997 205.029 75.29 200.45 75.29Z" fill="#6C63FF"/>
<path opacity="0.1" d="M208.742 125.715V187.241H96.6162V125.715L152.679 152.77L208.742 125.715Z" fill="black"/>
<path d="M152.679 156.249L80.8441 121.583C80.3997 121.369 79.9082 121.27 79.4154 121.297C78.9227 121.324 78.4449 121.476 78.0268 121.738C77.6088 122 77.2642 122.363 77.0253 122.794C76.7864 123.226 76.6611 123.71 76.6611 124.203V183.847C76.6611 185.041 76.8965 186.222 77.3539 187.325C77.8112 188.427 78.4816 189.429 79.3267 190.272C80.1717 191.116 81.175 191.785 82.2791 192.242C83.3833 192.699 84.5667 192.934 85.7618 192.934H219.596C220.791 192.934 221.974 192.699 223.078 192.242C224.183 191.785 225.186 191.116 226.031 190.272C226.876 189.429 227.546 188.427 228.004 187.325C228.461 186.222 228.696 185.041 228.696 183.847V125.225C228.696 124.624 228.543 124.032 228.252 123.506C227.96 122.98 227.54 122.536 227.03 122.217C226.52 121.897 225.937 121.712 225.335 121.679C224.734 121.646 224.134 121.766 223.592 122.028L152.679 156.249Z" fill="#3F3D56"/>
<path d="M137.634 85.5684H106.276V89.9958H137.634V85.5684Z" fill="#F2F2F2"/>
<path d="M196.865 101.697H103.743V104.227H196.865V101.697Z" fill="#F2F2F2"/>
<path d="M196.865 110.235H103.743V112.765H196.865V110.235Z" fill="#F2F2F2"/>
<path d="M196.865 118.774H103.743V121.304H196.865V118.774Z" fill="#F2F2F2"/>
<path d="M19.8066 192.935H280.8" stroke="#3F3D56" stroke-miterlimit="10"/>
<path d="M0.5 153.991C0.5 172.637 12.2158 187.725 26.6942 187.725L0.5 153.991Z" fill="#46455B"/>
<path d="M26.6943 187.726C26.6943 168.871 39.7684 153.613 55.9255 153.613L26.6943 187.726Z" fill="#6C63FF"/>
<path d="M9.99023 155.682C9.99023 173.393 17.4612 187.726 26.6938 187.726L9.99023 155.682Z" fill="#6C63FF"/>
<path d="M26.6943 187.726C26.6943 163.633 41.806 144.137 60.481 144.137L26.6943 187.726Z" fill="#46455B"/>
<path d="M21.1836 187.964C21.1836 187.964 24.8984 187.85 26.0179 187.054C27.1374 186.258 31.7321 185.308 32.0099 186.584C32.2876 187.861 37.5925 192.933 33.3985 192.967C29.2046 193.001 23.6536 192.315 22.5363 191.635C21.4189 190.955 21.1836 187.964 21.1836 187.964Z" fill="#A8A8A8"/>
<path opacity="0.2" d="M33.4734 192.522C29.2794 192.556 23.7285 191.87 22.6111 191.19C21.7602 190.673 21.4211 188.816 21.3076 187.959C21.229 187.962 21.1836 187.964 21.1836 187.964C21.1836 187.964 21.4189 190.955 22.5363 191.635C23.6536 192.314 29.2046 193 33.3985 192.967C34.6092 192.957 35.0273 192.527 35.0044 191.89C34.8362 192.275 34.3745 192.515 33.4734 192.522Z" fill="black"/>
<path d="M228.462 51.9755C228.272 53.6689 226.978 55.0329 226.499 56.6683C225.777 59.1298 227.025 61.7713 228.731 63.6883C230.108 65.2189 231.775 66.4613 233.637 67.3437C235.498 68.2261 237.516 68.7309 239.574 68.8288C240.179 68.8819 240.788 68.8156 241.367 68.6337C241.884 68.426 242.349 68.1084 242.731 67.703C244.016 66.4147 244.706 64.6296 244.981 62.8321C245.256 61.0346 245.149 59.2034 245.041 57.3883C245.042 57.0131 244.974 56.641 244.84 56.2903C244.665 55.9563 244.424 55.6608 244.132 55.4215C243.207 54.5741 242.188 53.8349 241.095 53.2184C240.601 52.9973 240.165 52.6643 239.822 52.2459C239.615 51.8875 239.482 51.4919 239.429 51.0817L239.093 49.3743C239.033 48.8823 238.865 48.4096 238.6 47.9903C238.007 47.1918 236.873 47.0832 235.879 47.0442L232.235 46.9015C231.101 46.8571 229.607 46.5326 228.501 46.7548C227.468 46.9624 227.811 47.9131 227.998 48.7788C228.271 49.824 228.426 50.8961 228.462 51.9755Z" fill="#A0616A"/>
<path opacity="0.1" d="M228.462 51.9755C228.272 53.6689 226.978 55.0329 226.499 56.6683C225.777 59.1298 227.025 61.7713 228.731 63.6883C230.108 65.2189 231.775 66.4613 233.637 67.3437C235.498 68.2261 237.516 68.7309 239.574 68.8288C240.179 68.8819 240.788 68.8156 241.367 68.6337C241.884 68.426 242.349 68.1084 242.731 67.703C244.016 66.4147 244.706 64.6296 244.981 62.8321C245.256 61.0346 245.149 59.2034 245.041 57.3883C245.042 57.0131 244.974 56.641 244.84 56.2903C244.665 55.9563 244.424 55.6608 244.132 55.4215C243.207 54.5741 242.188 53.8349 241.095 53.2184C240.601 52.9973 240.165 52.6643 239.822 52.2459C239.615 51.8875 239.482 51.4919 239.429 51.0817L239.093 49.3743C239.033 48.8823 238.865 48.4096 238.6 47.9903C238.007 47.1918 236.873 47.0832 235.879 47.0442L232.235 46.9015C231.101 46.8571 229.607 46.5326 228.501 46.7548C227.468 46.9624 227.811 47.9131 227.998 48.7788C228.271 49.824 228.426 50.8961 228.462 51.9755Z" fill="black"/>
<path d="M251.644 128.195C251.128 133.847 250.611 139.498 250.095 145.148C249.691 149.595 249.279 154.06 248.486 158.449C248.213 159.962 247.892 161.466 247.511 162.958C246.452 167.1 244.917 171.149 244.421 175.395C244.406 175.517 244.393 175.642 244.38 175.767C244.324 176.706 244.146 177.634 243.85 178.527C243.603 179.175 243.222 179.766 242.953 180.406C242.419 181.687 242.348 183.103 242.283 184.491C240.403 183.435 238.344 182.733 236.21 182.419C235.18 182.265 234.033 182.156 233.332 181.388C232.555 180.539 232.641 179.24 232.771 178.1C233.18 174.559 233.589 171.02 233.997 167.483C234.13 165.961 234.389 164.453 234.771 162.974C234.912 162.482 235.081 161.997 235.253 161.513C235.491 160.847 235.731 160.18 235.91 159.496C236.17 158.389 236.351 157.266 236.453 156.135C236.873 152.573 237.378 149.019 237.822 145.461L237.845 145.273C238.51 139.879 239.016 134.458 238.87 129.025C238.849 128.221 238.815 127.416 238.763 126.609C238.69 125.44 238.583 124.821 239.553 124.089C240.625 123.282 242.035 122.717 243.261 122.188C243.921 121.902 251.185 119.327 251.355 119.892C251.695 121.097 251.874 122.342 251.886 123.594C251.892 125.131 251.811 126.667 251.644 128.195Z" fill="#605D82"/>
<path opacity="0.1" d="M248.486 158.449C248.212 159.962 247.891 161.467 247.511 162.959C246.452 167.101 244.916 171.149 244.421 175.395C244.405 175.517 244.392 175.642 244.379 175.767C241.141 171.149 238.413 166.182 235.253 161.514C235.49 160.847 235.73 160.181 235.91 159.496C236.169 158.39 236.351 157.267 236.452 156.135C236.872 152.573 237.378 149.02 237.821 145.461L237.845 145.273C238.03 146.029 238.295 146.763 238.635 147.463C240.757 151.769 245.8 153.945 248.267 158.067C248.342 158.194 248.415 158.322 248.486 158.449Z" fill="black"/>
<path d="M222.207 120.586C222.314 124.039 222.868 127.462 223.421 130.873L224.561 137.911C225.185 141.762 225.834 145.693 227.66 149.143C229.026 151.723 230.993 153.925 232.773 156.241C237.149 161.933 240.436 168.38 244.586 174.239C245.792 175.942 247.516 177.784 249.574 177.428C250.925 177.195 251.906 176.072 252.968 175.206C254.22 174.185 255.729 173.438 256.714 172.159C257.699 170.879 257.892 168.752 256.557 167.842C256.074 167.575 255.562 167.365 255.03 167.218C252.961 166.432 251.622 164.415 250.77 162.376C249.918 160.336 249.402 158.143 248.266 156.246C245.8 152.125 240.756 149.948 238.633 145.641C237.444 143.228 237.331 140.447 237.24 137.76L237.008 130.909C236.983 130.16 236.963 129.381 237.268 128.696C238.08 126.872 240.532 126.703 242.518 126.471C244.771 126.208 246.954 125.52 248.951 124.445C250.094 123.828 251.211 123.042 251.823 121.898C252.381 120.853 252.458 119.628 252.524 118.446L253.211 106.031C253.27 104.963 253.324 103.858 252.947 102.857C252 100.343 248.82 99.5212 246.133 99.6412C241.131 99.8644 236.514 102.012 231.799 103.463C230.631 103.831 229.445 104.14 228.246 104.388C227.188 104.6 225.907 104.512 224.897 104.852C223.102 105.456 223.148 109.376 222.893 111.002C222.368 114.168 222.138 117.377 222.207 120.586Z" fill="#605D82"/>
<path d="M248.895 177.948C249.336 178.392 249.48 179.043 249.595 179.657C250.232 183.067 250.563 186.527 250.585 189.996C250.555 190.32 250.62 190.645 250.771 190.933C250.895 191.105 251.064 191.24 251.258 191.324C252.533 191.93 254.012 191.085 255.074 190.156C257.043 188.434 258.709 186.122 258.821 183.511C258.801 182.839 258.824 182.166 258.892 181.496C259.065 180.513 259.64 179.657 260.146 178.796C261.008 177.332 261.704 175.775 262.219 174.156C262.413 173.548 262.542 172.782 262.065 172.358C261.895 172.225 261.703 172.125 261.497 172.063L255.739 169.929C255.24 169.744 253.999 172.928 253.802 173.276C253.32 174.128 252.84 174.611 251.873 174.808C250.886 175.008 249.711 174.72 248.79 175.212C247.232 176.044 248.012 177.06 248.895 177.948Z" fill="#535070"/>
<path d="M240.01 179.913C239.903 179.701 239.754 179.512 239.572 179.358C239.306 179.19 239.003 179.087 238.688 179.059C237.592 178.873 236.293 178.75 235.536 179.564C234.827 180.327 234.949 181.569 234.356 182.425C234.168 182.696 233.914 182.919 233.751 183.206C233.549 183.644 233.458 184.125 233.486 184.607C233.455 185.933 233.424 187.262 233.516 188.586C233.593 189.696 233.781 190.858 234.475 191.727C235.591 193.122 237.602 193.323 239.387 193.413L240.833 193.487C241.232 193.535 241.636 193.498 242.018 193.378C242.255 193.269 242.468 193.113 242.644 192.92C242.819 192.727 242.954 192.501 243.041 192.255C243.793 190.387 242.601 188.375 241.867 186.5C241.023 184.344 241.175 181.951 240.01 179.913Z" fill="#535070"/>
<path d="M228.044 42.4347C228.026 42.2453 228.054 42.0545 228.125 41.878C228.337 41.5041 228.89 41.6059 229.307 41.7109C230.985 42.1332 232.752 41.7509 234.48 41.8496C236.207 41.9483 238.153 42.8105 238.5 44.5028C239.754 43.6153 240.835 42.5065 241.689 41.2311C242.169 40.5148 242.587 39.6943 242.521 38.8353C242.427 37.5962 241.386 36.6696 240.422 35.8838L237.548 33.5413C237.171 33.1952 236.735 32.9187 236.261 32.7245C235.598 32.4981 234.874 32.606 234.173 32.6064C232.081 32.6078 229.85 31.6572 227.99 32.6121C227.213 33.011 226.628 33.6945 226.064 34.3611L223.499 37.3926C223.306 37.5858 223.165 37.8246 223.089 38.0868C223.016 38.4568 223.206 38.822 223.272 39.1933C223.394 39.8705 223.101 40.5933 223.326 41.2437C223.699 42.3234 225.012 42.4762 225.815 43.0952C226.114 43.3259 226.583 44.1077 226.939 44.0982C227.582 44.081 228.027 42.9336 228.044 42.4347Z" fill="#3F3D56"/>
<path d="M232.395 51.3703C236.931 51.3703 240.609 47.6987 240.609 43.1695C240.609 38.6404 236.931 34.9688 232.395 34.9688C227.859 34.9688 224.182 38.6404 224.182 43.1695C224.182 47.6987 227.859 51.3703 232.395 51.3703Z" fill="#A0616A"/>
<path d="M234.318 61.1173C234.04 60.3203 233.514 59.6327 232.818 59.1541C232.121 58.6756 231.29 58.431 230.445 58.4558C230.203 58.5007 229.953 58.4692 229.73 58.3656C229.604 58.2689 229.504 58.1431 229.437 57.999C228.937 57.1023 228.536 56.1546 228.239 55.1723C228.108 54.7382 227.929 54.2265 227.489 54.1136C227.307 54.0898 227.122 54.1159 226.954 54.189C226.785 54.2622 226.64 54.3796 226.533 54.5288C226.324 54.8292 226.096 55.1156 225.85 55.3863C224.817 56.3085 222.986 55.468 221.889 56.3141C221.71 56.4523 221.562 56.6293 221.374 56.755C221.186 56.8682 220.983 56.955 220.771 57.0132C218.654 57.7033 216.578 58.515 214.555 59.4441C215.284 63.8295 216.031 68.2913 217.741 72.3959C218.554 74.3493 219.476 76.2623 220.128 78.2754C221.571 82.7356 221.635 87.5079 221.651 92.1952C221.663 95.4032 221.647 98.6797 220.607 101.715C220.327 102.386 220.13 103.088 220.02 103.807C219.957 104.53 220.168 105.327 220.755 105.756C221.095 105.978 221.485 106.115 221.889 106.154C223.691 106.418 225.507 105.939 227.28 105.529C232.034 104.43 236.882 103.801 241.721 103.173L249.829 102.122C250.411 102.083 250.98 101.936 251.507 101.689C252.991 100.878 253.132 98.6498 252.21 97.2333C251.769 96.5543 251.145 95.9972 250.774 95.2773C250.403 94.5573 250.371 93.5506 251.01 93.052C252.31 92.0377 251.922 90.1558 251.984 88.5099C252.158 83.9077 252.134 79.3037 251.914 74.6979C251.849 73.7445 251.834 72.7884 251.868 71.8334C252.012 70.2151 252.312 68.6144 252.762 67.0533L255.226 57.3673C254.583 56.3518 253.35 55.7075 252.183 55.415C251.015 55.1224 249.799 55.0364 248.65 54.6806C246.294 53.9519 244.197 52.1026 241.738 52.2749C241.552 52.2783 241.369 52.3229 241.202 52.4056C240.647 52.7194 240.735 53.5176 240.7 54.1532C240.621 55.5595 239.585 56.7349 238.441 57.559C237.297 58.383 235.99 58.9839 234.94 59.9237C234.754 60.0638 234.601 60.2437 234.494 60.4502C234.386 60.6567 234.326 60.8847 234.318 61.1173Z" fill="#3F3D56"/>
<path d="M201.774 70.3047C201.229 70.6575 200.651 70.9549 200.046 71.1923C199.455 71.368 198.896 71.6388 198.391 71.9942C198.159 72.1949 197.964 72.4353 197.816 72.7041C197.538 73.1964 197.397 73.7541 197.409 74.3192C197.42 74.8842 197.584 75.4359 197.881 75.9164C198.179 76.397 198.601 76.7889 199.102 77.0513C199.604 77.3136 200.166 77.4368 200.732 77.408C201.483 77.3239 202.213 77.1065 202.888 76.7661L208.681 74.2596C209.662 73.8354 210.721 73.3382 211.184 72.3768C211.238 72.2871 211.258 72.1811 211.241 72.078C211.194 71.9689 211.109 71.8802 211.003 71.8282C209.696 70.9809 208.553 69.905 207.629 68.6523C207.392 68.3301 207.101 67.5694 206.765 67.3762C205.539 66.6711 202.756 69.6687 201.774 70.3047Z" fill="#A0616A"/>
<path d="M263.706 68.248L265.842 70.6841C266.3 71.207 266.759 71.7306 267.177 72.2864C268.203 73.6987 269.027 75.2475 269.623 76.8876C270.087 78.104 270.473 79.3996 270.311 80.6912C270.203 81.3533 270.024 82.0019 269.776 82.6255C269.385 83.825 268.9 84.9919 268.325 86.1155C267.842 86.9691 267.296 87.7859 266.692 88.5591C265.038 90.7474 263.229 92.8139 261.278 94.7425C260.548 95.4642 260.241 96.6311 259.923 97.6066C259.337 99.406 257.942 100.807 256.593 102.136C256.16 102.593 255.68 103.005 255.163 103.365C254.388 103.863 253.482 104.121 252.561 104.105C252.157 104.108 251.758 104.025 251.389 103.863C250.465 103.425 249.996 102.359 249.9 101.343C249.814 100.421 249.969 99.4931 250.349 98.6487C251.575 95.9379 254.722 94.7632 256.947 92.7854C258.251 91.6256 259.249 90.1688 260.233 88.7278C260.901 87.828 261.459 86.8516 261.894 85.8194C262.391 84.4958 262.198 82.9289 262.632 81.5834C262.815 81.0147 263.142 80.5012 263.339 79.9371C263.536 79.373 263.586 78.7034 263.241 78.2153C262.98 77.9051 262.649 77.6625 262.274 77.5085C260.853 76.7883 259.261 75.8614 258.989 74.2935C258.88 73.424 259.108 72.546 259.625 71.8381C260.141 71.1396 260.743 70.5095 261.417 69.9628C262.039 69.414 263.084 68.7968 263.706 68.248Z" fill="#A0616A"/>
<path d="M200.402 73.7058C200.025 72.9451 199.554 72.1691 198.793 71.7909C198.424 71.631 198.026 71.5476 197.624 71.5459C197.222 71.5442 196.823 71.6242 196.453 71.7811C195.715 72.0987 195.024 72.5159 194.4 73.0208L192.559 74.3757C192.141 74.6491 191.772 74.9895 191.466 75.3831C191.175 75.8605 190.982 76.3904 190.897 76.9424C190.576 78.2015 190.478 79.5069 190.607 80.7996C190.899 82.8724 192.151 84.682 193.529 86.2598C194.389 87.2458 195.452 88.2407 196.762 88.2828C197.327 88.301 197.955 88.0785 198.19 87.565C198.272 87.3614 198.315 87.1446 198.318 86.9254C198.46 84.6134 197.631 82.3551 196.665 80.2492C196.357 79.6977 196.175 79.0851 196.132 78.4552C196.125 78.3492 196.153 78.2438 196.211 78.1547C196.294 78.0681 196.406 78.0138 196.525 78.0015C197.847 77.7404 200.125 78.7659 201.052 77.2999C201.653 76.3496 200.83 74.5676 200.402 73.7058Z" fill="#A0616A"/>
<path d="M227.612 39.8536C227.594 39.6643 227.622 39.4734 227.693 39.297C227.905 38.9231 228.458 39.0248 228.875 39.1298C230.553 39.5522 232.321 39.1699 234.048 39.2686C235.775 39.3672 237.721 40.2294 238.069 41.9218C239.322 41.0343 240.403 39.9255 241.258 38.6501C241.737 37.9338 242.155 37.1133 242.09 36.2542C241.996 35.0152 240.954 34.0885 239.99 33.3027L237.116 30.9603C236.739 30.6142 236.304 30.3376 235.83 30.1435C235.166 29.917 234.442 30.0249 233.741 30.0254C231.649 30.0267 229.419 29.0761 227.558 30.031C226.781 30.4299 226.196 31.1135 225.632 31.78L223.067 34.8115C222.874 35.0047 222.733 35.2435 222.657 35.5057C222.584 35.8758 222.774 36.241 222.841 36.6122C222.962 37.2895 222.67 38.0123 222.894 38.6626C223.267 39.7423 224.58 39.8952 225.383 40.5142C225.682 40.7449 226.151 41.5267 226.507 41.5172C227.151 41.4999 227.595 40.3525 227.612 39.8536Z" fill="#3F3D56"/>
<path d="M210.167 62.3284C209.836 62.542 209.545 62.8125 209.308 63.1275C209.007 63.5821 208.945 64.156 208.687 64.636C208.133 65.663 206.838 66.0284 206.031 66.8709C205.902 66.9868 205.813 67.1395 205.776 67.3081C205.772 67.5368 205.848 67.7595 205.992 67.9373L209.887 74.0509C211.184 74.1649 212.428 73.3537 213.726 73.4614C214.21 73.5016 214.706 73.6686 215.17 73.5257C215.503 73.3785 215.814 73.1882 216.097 72.9596C216.871 72.471 217.902 72.4141 218.551 71.7694C219.175 71.1507 219.254 70.1827 219.247 69.3052C219.257 68.5433 219.179 67.7826 219.015 67.0384C218.442 64.6918 216.644 62.891 215.517 60.8124C214.969 59.8004 214.67 59.2079 213.509 59.9028C212.342 60.6012 211.266 61.5264 210.167 62.3284Z" fill="#3F3D56"/>
<path d="M257.47 59.2363C258.202 59.7109 258.861 60.288 259.429 60.9499C260.022 61.7138 260.358 62.6487 260.928 63.4301C261.481 64.1876 262.233 64.7742 262.86 65.4716C263.81 66.5294 264.454 67.8198 265.086 69.093C263.542 71.1035 261.858 73.0033 260.048 74.7782C259.846 75.0153 259.581 75.1896 259.283 75.2803C259.08 75.3018 258.875 75.2728 258.686 75.196C258.498 75.1192 258.331 74.9969 258.201 74.8401C257.921 74.5463 257.722 74.184 257.454 73.8789C256.821 73.227 255.977 72.8197 255.072 72.729C254.176 72.6425 253.273 72.6301 252.375 72.6919C252.177 72.7139 251.978 72.6804 251.798 72.5953C251.665 72.5034 251.557 72.3796 251.484 72.2352C250.429 70.4436 250.769 68.1942 251.141 66.1496L251.994 61.4579C252.118 60.5619 252.357 59.6855 252.705 58.8504C253.028 58.1604 253.751 56.9904 254.64 57.1969C255.537 57.4052 256.716 58.6948 257.47 59.2363Z" fill="#3F3D56"/>
<path d="M101.209 90.0429C108.381 90.0429 114.195 84.2272 114.195 77.0532C114.195 69.8792 108.381 64.0635 101.209 64.0635C94.0368 64.0635 88.2227 69.8792 88.2227 77.0532C88.2227 84.2272 94.0368 90.0429 101.209 90.0429Z" fill="white"/>
<path d="M101.209 61.8496C98.1391 61.8496 95.1384 62.7584 92.5862 64.4612C90.0339 66.1639 88.0446 68.5841 86.8699 71.4156C85.6952 74.2472 85.3878 77.3629 85.9867 80.3689C86.5856 83.3749 88.0637 86.136 90.2343 88.3032C92.4048 90.4704 95.1703 91.9462 98.1809 92.5441C101.192 93.1421 104.312 92.8352 107.148 91.6623C109.984 90.4894 112.408 88.5033 114.113 85.9549C115.819 83.4066 116.729 80.4106 116.729 77.3457C116.717 73.2396 115.078 69.3051 112.17 66.4016C109.262 63.4981 105.321 61.8616 101.209 61.8496ZM98.0226 85.6079L90.0685 77.6661L92.2995 75.4385L98.0301 81.1602L110.125 69.0836L112.356 71.3112L98.0226 85.6079L98.0226 85.6079Z" fill="#57B894"/>
</g>
<defs>
<clipPath id="clip0">
<rect width="321" height="193" fill="white" transform="translate(0.5 0.5)"/>
</clipPath>
</defs>
</svg>
