<svg width="399" height="234" viewBox="0 0 399 234" fill="none" xmlns="http://www.w3.org/2000/svg">
<g clip-path="url(#clip0)">
<g opacity="0.5">
<path opacity="0.5" d="M0.817383 0.5V12.2561V233.5H335.533V12.2561V0.5H0.817383Z" fill="url(#paint0_linear)"/>
</g>
<path d="M331.984 15H5.78223V229.358H331.984V15Z" fill="white"/>
<path d="M331.984 4.80273H5.78223V20.5735H331.984V4.80273Z" fill="#F5F5F5"/>
<path d="M18.1948 16.2703C20.298 16.2703 22.0029 14.5589 22.0029 12.4477C22.0029 10.3365 20.298 8.625 18.1948 8.625C16.0917 8.625 14.3867 10.3365 14.3867 12.4477C14.3867 14.5589 16.0917 16.2703 18.1948 16.2703Z" fill="#FF5252"/>
<path d="M28.6723 16.2703C30.7755 16.2703 32.4804 14.5589 32.4804 12.4477C32.4804 10.3365 30.7755 8.625 28.6723 8.625C26.5692 8.625 24.8643 10.3365 24.8643 12.4477C24.8643 14.5589 26.5692 16.2703 28.6723 16.2703Z" fill="#FFFF00"/>
<path d="M39.144 16.2703C41.2472 16.2703 42.9521 14.5589 42.9521 12.4477C42.9521 10.3365 41.2472 8.625 39.144 8.625C37.0409 8.625 35.3359 10.3365 35.3359 12.4477C35.3359 14.5589 37.0409 16.2703 39.144 16.2703Z" fill="#69F0AE"/>
<path opacity="0.5" d="M198.287 72.3125H138.296V78.7644H198.287V72.3125Z" fill="#2F80ED"/>
<path d="M160.675 100.031H94.9717V106.483H160.675V100.031Z" fill="#E0E0E0"/>
<path d="M175.912 106.487L241.615 106.487V100.035L175.912 100.035V106.487Z" fill="#3AD29F"/>
<path d="M241.374 113.891H94.7305V120.343H241.374V113.891Z" fill="#E0E0E0"/>
<path d="M241.374 127.755H94.7305V134.207H241.374V127.755Z" fill="#E0E0E0"/>
<path d="M198.528 157.385H137.585V169.333H198.528V157.385Z" fill="url(#paint1_linear)"/>
<path d="M198.05 158.474H138.059V168.25H198.05V158.474Z" fill="#2F80ED"/>
<g opacity="0.5">
<path opacity="0.5" d="M331.401 183.412C362.848 183.412 388.34 157.822 388.34 126.255C388.34 94.6878 362.848 69.0977 331.401 69.0977C299.954 69.0977 274.462 94.6878 274.462 126.255C274.462 157.822 299.954 183.412 331.401 183.412Z" fill="url(#paint2_linear)"/>
</g>
<path d="M331.401 179.754C360.836 179.754 384.697 155.802 384.697 126.255C384.697 96.7082 360.836 72.7559 331.401 72.7559C301.967 72.7559 278.106 96.7082 278.106 126.255C278.106 155.802 301.967 179.754 331.401 179.754Z" fill="#F5F5F5"/>
<g opacity="0.5">
<path opacity="0.5" d="M338.831 113.42L337.806 113.054L337.752 113.145H337.692V110.356C337.693 110.019 337.667 109.683 337.615 109.35C339.269 108.128 340.535 106.451 341.259 104.521C342.689 102.66 343.571 100.434 343.804 98.0953C344.038 95.7567 343.614 93.399 342.581 91.2898C341.548 89.1805 339.947 87.404 337.959 86.1616C335.972 84.9193 333.677 84.2607 331.336 84.2607C328.994 84.2607 326.7 84.9193 324.712 86.1616C322.724 87.404 321.123 89.1805 320.09 91.2898C319.057 93.399 318.633 95.7567 318.867 98.0953C319.101 100.434 319.982 102.66 321.412 104.521C322.137 106.451 323.402 108.128 325.056 109.35C325.004 109.683 324.978 110.019 324.979 110.356V113.411C319.495 114.927 314.659 118.209 311.215 122.753C307.77 127.296 305.906 132.85 305.911 138.56V161.423H357.84V138.56C357.846 132.859 355.99 127.314 352.557 122.773C349.124 118.232 344.302 114.947 338.831 113.42Z" fill="url(#paint3_linear)"/>
</g>
<path d="M331.857 112.853C335.14 112.853 338.391 113.502 341.423 114.763C344.456 116.024 347.212 117.872 349.534 120.202C351.855 122.533 353.696 125.299 354.953 128.344C356.209 131.388 356.855 134.651 356.855 137.947V159.968H306.858V137.947C306.858 131.291 309.492 124.909 314.18 120.202C318.868 115.496 325.227 112.853 331.857 112.853Z" fill="#2F80ED"/>
<path d="M337.469 110.809C337.469 107.415 334.728 104.663 331.347 104.663C327.966 104.663 325.225 107.415 325.225 110.809V113.881C325.225 117.275 327.966 120.027 331.347 120.027C334.728 120.027 337.469 117.275 337.469 113.881V110.809Z" fill="#FDA57D"/>
<path opacity="0.05" d="M320.979 115.573L325.084 124.408L329.165 120.311L325.084 114.037L320.979 115.573Z" fill="black"/>
<path d="M321.12 115.144L325.22 123.978L329.319 119.862L325.22 113.589L323.343 114.165C323.16 114.221 322.98 114.288 322.806 114.366L321.12 115.144Z" fill="white"/>
<path opacity="0.05" d="M341.732 115.143L337.61 124.408L333.528 120.31L337.724 113.703L341.732 115.143Z" fill="black"/>
<path d="M341.591 114.714L337.491 123.982L333.392 119.867L337.587 113.26L338.357 113.479C339.187 113.718 340.001 114.01 340.794 114.353L341.591 114.714Z" fill="white"/>
<path d="M329.001 119.556L331.283 122.898L333.693 119.556H329.001Z" fill="#FDA57D"/>
<path opacity="0.1" d="M316.256 131.664C316.256 131.664 313.823 155.944 315.395 157.527L316.256 131.664Z" fill="black"/>
<path opacity="0.1" d="M346.311 131.664C346.311 131.664 348.743 155.944 347.171 157.527L346.311 131.664Z" fill="black"/>
<path opacity="0.05" d="M331.347 112.116C333.518 112.122 335.633 111.43 337.383 110.141C337.153 108.698 336.419 107.384 335.311 106.435C334.203 105.486 332.794 104.965 331.338 104.965C329.884 104.967 328.477 105.489 327.372 106.438C326.266 107.386 325.532 108.699 325.303 110.141C327.055 111.432 329.174 112.124 331.347 112.116Z" fill="black"/>
<path d="M331.347 109.904C338.009 109.904 343.409 104.483 343.409 97.7957C343.409 91.1085 338.009 85.6875 331.347 85.6875C324.685 85.6875 319.285 91.1085 319.285 97.7957C319.285 104.483 324.685 109.904 331.347 109.904Z" fill="black"/>
<path d="M331.347 111.833C336.982 111.833 341.551 107.247 341.551 101.59C341.551 95.9334 336.982 91.3477 331.347 91.3477C325.712 91.3477 321.144 95.9334 321.144 101.59C321.144 107.247 325.712 111.833 331.347 111.833Z" fill="#FDA57D"/>
<path opacity="0.05" d="M323.125 91.4347L325.703 94.5944C325.703 94.5944 337.009 95.6004 338.298 93.0123C339.587 90.4242 330.855 88.5586 330.855 88.5586L323.125 91.4347Z" fill="black"/>
<path d="M323.125 91.1466L325.703 94.3063C325.703 94.3063 337.009 95.3123 338.298 92.7242C339.587 90.1361 330.855 88.2705 330.855 88.2705L323.125 91.1466Z" fill="black"/>
<path d="M321.12 102.212C321.515 102.212 321.836 101.633 321.836 100.918C321.836 100.203 321.515 99.624 321.12 99.624C320.725 99.624 320.405 100.203 320.405 100.918C320.405 101.633 320.725 102.212 321.12 102.212Z" fill="#FDA57D"/>
<path d="M341.586 102.212C341.981 102.212 342.301 101.633 342.301 100.918C342.301 100.203 341.981 99.624 341.586 99.624C341.191 99.624 340.871 100.203 340.871 100.918C340.871 101.633 341.191 102.212 341.586 102.212Z" fill="#FDA57D"/>
<g opacity="0.5">
<path opacity="0.5" d="M398.817 95.6506H384.664V81.4482H376.529V95.6506H362.376V103.822H376.529V118.024H384.664V103.822H398.817V95.6506Z" fill="url(#paint4_linear)"/>
</g>
<path d="M384.054 84.1875H377.14V115.281H384.054V84.1875Z" fill="#3AD29F"/>
<path d="M396.084 103.209V96.2676H365.109V103.209H396.084Z" fill="#3AD29F"/>
</g>
<defs>
<linearGradient id="paint0_linear" x1="168.173" y1="233.5" x2="168.173" y2="0.5" gradientUnits="userSpaceOnUse">
<stop stop-color="#808080" stop-opacity="0.25"/>
<stop offset="0.54" stop-color="#808080" stop-opacity="0.12"/>
<stop offset="1" stop-color="#808080" stop-opacity="0.1"/>
</linearGradient>
<linearGradient id="paint1_linear" x1="22512.2" y1="4569" x2="22512.2" y2="4256.8" gradientUnits="userSpaceOnUse">
<stop stop-color="#808080" stop-opacity="0.25"/>
<stop offset="0.54" stop-color="#808080" stop-opacity="0.12"/>
<stop offset="1" stop-color="#808080" stop-opacity="0.1"/>
</linearGradient>
<linearGradient id="paint2_linear" x1="82920.5" y1="45797.1" x2="82920.5" y2="17218.5" gradientUnits="userSpaceOnUse">
<stop stop-color="#808080" stop-opacity="0.25"/>
<stop offset="0.54" stop-color="#808080" stop-opacity="0.12"/>
<stop offset="1" stop-color="#808080" stop-opacity="0.1"/>
</linearGradient>
<linearGradient id="paint3_linear" x1="43555.6" y1="35790.9" x2="49475.5" y2="35790.9" gradientUnits="userSpaceOnUse">
<stop stop-color="#808080" stop-opacity="0.25"/>
<stop offset="0.54" stop-color="#808080" stop-opacity="0.12"/>
<stop offset="1" stop-color="#808080" stop-opacity="0.1"/>
</linearGradient>
<linearGradient id="paint4_linear" x1="30744.8" y1="9482.21" x2="30744.8" y2="6556.13" gradientUnits="userSpaceOnUse">
<stop stop-color="#808080" stop-opacity="0.25"/>
<stop offset="0.54" stop-color="#808080" stop-opacity="0.12"/>
<stop offset="1" stop-color="#808080" stop-opacity="0.1"/>
</linearGradient>
<clipPath id="clip0">
<rect width="398" height="233" fill="white" transform="translate(0.817383 0.5)"/>
</clipPath>
</defs>
</svg>
