<svg width="260" height="181" viewBox="0 0 260 181" fill="none" xmlns="http://www.w3.org/2000/svg">
<path d="M49.5831 39.1238C57.758 39.1238 64.385 32.4967 64.385 24.3219C64.385 16.147 57.758 9.52002 49.5831 9.52002C41.4083 9.52002 34.7812 16.147 34.7812 24.3219C34.7812 32.4967 41.4083 39.1238 49.5831 39.1238Z" fill="#FF6584"/>
<path d="M121.6 79.857C121.6 114.783 100.837 126.978 75.2247 126.978C49.6124 126.978 28.8496 114.783 28.8496 79.857C28.8496 44.9311 75.2247 0.5 75.2247 0.5C75.2247 0.5 121.6 44.9311 121.6 79.857Z" fill="#F2F2F2"/>
<path d="M73.5355 121.635L74.0106 92.4053L93.7766 56.2439L74.085 87.82L74.2985 74.677L87.9213 48.5147L74.3549 71.1991L74.7389 47.5609L89.3266 26.7324L74.7995 43.8438L75.0393 0.5L73.5314 57.8795L73.6553 55.5123L58.8241 32.8106L73.4176 60.0563L72.0357 86.4559L71.9945 85.7553L54.8965 61.8651L71.9427 88.2307L71.7699 91.5322L71.7389 91.5819L71.753 91.853L68.2471 158.831H72.9314L73.4934 124.236L90.4975 97.9345L73.5355 121.635Z" fill="#3F3D56"/>
<path d="M259.585 94.1616C259.585 122.75 242.589 132.732 221.624 132.732C200.659 132.732 183.664 122.75 183.664 94.1616C183.664 65.5731 221.624 29.2041 221.624 29.2041C221.624 29.2041 259.585 65.5731 259.585 94.1616Z" fill="#F2F2F2"/>
<path d="M220.241 128.359L220.63 104.433L236.81 74.8332L220.691 100.68L220.866 89.9216L232.017 68.5063L220.912 87.0746L221.226 67.7258L233.167 50.6765L221.276 64.6833L221.472 29.2041L220.238 76.1718L220.339 74.2344L208.199 55.6518L220.145 77.9538L219.014 99.5632L218.98 98.9896L204.984 79.4343L218.937 101.016L218.796 103.718L218.771 103.759L218.782 103.981L215.912 158.806H219.747L220.207 130.488L234.126 108.959L220.241 128.359Z" fill="#3F3D56"/>
<path d="M128.681 164.364C199.52 164.364 256.946 161.462 256.946 157.881C256.946 154.3 199.52 151.397 128.681 151.397C57.8416 151.397 0.415039 154.3 0.415039 157.881C0.415039 161.462 57.8416 164.364 128.681 164.364Z" fill="#3F3D56"/>
<path d="M206.818 169.703C218.952 169.703 228.787 169.206 228.787 168.593C228.787 167.98 218.952 167.482 206.818 167.482C194.685 167.482 184.85 167.98 184.85 168.593C184.85 169.206 194.685 169.703 206.818 169.703Z" fill="#3F3D56"/>
<path d="M127.322 180.416C139.455 180.416 149.291 179.919 149.291 179.305C149.291 178.692 139.455 178.195 127.322 178.195C115.189 178.195 105.354 178.692 105.354 179.305C105.354 179.919 115.189 180.416 127.322 180.416Z" fill="#3F3D56"/>
<path d="M67.0103 172.861C94.7299 172.861 117.201 171.725 117.201 170.324C117.201 168.923 94.7299 167.787 67.0103 167.787C39.2906 167.787 16.8193 168.923 16.8193 170.324C16.8193 171.725 39.2906 172.861 67.0103 172.861Z" fill="#3F3D56"/>
<path d="M22.8687 149.737C32.9596 149.737 41.1398 141.557 41.1398 131.466C41.1398 121.376 32.9596 113.195 22.8687 113.195C12.7779 113.195 4.59766 121.376 4.59766 131.466C4.59766 141.557 12.7779 149.737 22.8687 149.737Z" fill="#2F2E41"/>
<path d="M19.9243 145.772L14.374 145.707L14.2568 155.651L19.8072 155.716L19.9243 145.772Z" fill="#2F2E41"/>
<path d="M31.0249 145.903L25.4746 145.837L25.3574 155.782L30.9078 155.847L31.0249 145.903Z" fill="#2F2E41"/>
<path d="M23.5063 155.876C23.5176 154.918 21.456 154.117 18.9015 154.087C16.347 154.057 14.2671 154.809 14.2558 155.767C14.2445 156.725 16.3062 157.526 18.8606 157.556C21.4151 157.586 23.495 156.834 23.5063 155.876Z" fill="#2F2E41"/>
<path d="M34.6098 155.775C34.6211 154.817 32.5595 154.016 30.005 153.986C27.4505 153.956 25.3706 154.708 25.3593 155.666C25.348 156.624 27.4097 157.425 29.9641 157.455C32.5186 157.485 34.5985 156.733 34.6098 155.775Z" fill="#2F2E41"/>
<path d="M23.3861 133.091C26.8349 133.091 29.6307 130.295 29.6307 126.847C29.6307 123.398 26.8349 120.602 23.3861 120.602C19.9374 120.602 17.1416 123.398 17.1416 126.847C17.1416 130.295 19.9374 133.091 23.3861 133.091Z" fill="white"/>
<path d="M23.3862 128.928C24.5358 128.928 25.4677 127.996 25.4677 126.847C25.4677 125.697 24.5358 124.765 23.3862 124.765C22.2366 124.765 21.3047 125.697 21.3047 126.847C21.3047 127.996 22.2366 128.928 23.3862 128.928Z" fill="#3F3D56"/>
<path d="M5.34658 114.267C3.94922 107.643 8.74351 101.023 16.0549 99.4808C23.3663 97.9385 30.4262 102.058 31.8235 108.682C33.2209 115.306 28.3594 117.686 21.048 119.228C13.7365 120.77 6.74393 120.891 5.34658 114.267Z" fill="#6C63FF"/>
<path d="M50.739 141.659C50.739 154.397 43.167 158.845 33.8256 158.845C33.6092 158.845 33.3931 158.842 33.1774 158.837C32.7446 158.828 32.3159 158.808 31.8924 158.779C23.4619 158.182 16.9121 153.506 16.9121 141.659C16.9121 129.399 32.5787 113.93 33.7555 112.785L33.7576 112.783C33.8029 112.738 33.8256 112.717 33.8256 112.717C33.8256 112.717 50.739 128.921 50.739 141.659Z" fill="#6C63FF"/>
<path d="M33.2103 156.896L39.3963 148.252L33.1948 157.845L33.1783 158.837C32.7455 158.828 32.3168 158.808 31.8933 158.779L32.56 146.035L32.5549 145.936L32.5662 145.917L32.6291 144.714L26.4121 135.097L32.6486 143.811L32.6631 144.066L33.167 134.437L27.8445 124.5L33.2319 132.747L33.7564 112.785L33.7585 112.717V112.783L33.6709 128.525L38.9697 122.284L33.6493 129.881L33.5091 138.502L38.4565 130.228L33.4885 139.77L33.4102 144.563L40.5927 133.047L33.3834 146.236L33.2103 156.896Z" fill="#3F3D56"/>
<path d="M165.198 149.54C175.289 149.54 183.469 141.359 183.469 131.269C183.469 121.178 175.289 112.998 165.198 112.998C155.107 112.998 146.927 121.178 146.927 131.269C146.927 141.359 155.107 149.54 165.198 149.54Z" fill="#2F2E41"/>
<path d="M166.757 145.791L161.451 147.421L164.373 156.928L169.678 155.297L166.757 145.791Z" fill="#2F2E41"/>
<path d="M177.369 142.531L172.063 144.161L174.985 153.667L180.291 152.037L177.369 142.531Z" fill="#2F2E41"/>
<path d="M169.338 157.337C171.78 156.587 173.531 155.236 173.25 154.32C172.969 153.405 170.761 153.271 168.319 154.021C165.877 154.772 164.126 156.122 164.407 157.038C164.688 157.954 166.896 158.088 169.338 157.337Z" fill="#2F2E41"/>
<path d="M179.882 153.855C182.324 153.104 184.075 151.754 183.794 150.838C183.513 149.922 181.305 149.788 178.863 150.539C176.421 151.289 174.67 152.64 174.951 153.556C175.232 154.471 177.44 154.605 179.882 153.855Z" fill="#2F2E41"/>
<path d="M164.282 132.956C167.73 132.956 170.526 130.16 170.526 126.711C170.526 123.263 167.73 120.467 164.282 120.467C160.833 120.467 158.037 123.263 158.037 126.711C158.037 130.16 160.833 132.956 164.282 132.956Z" fill="white"/>
<path d="M164.282 128.793C165.431 128.793 166.363 127.861 166.363 126.711C166.363 125.562 165.431 124.63 164.282 124.63C163.132 124.63 162.2 125.562 162.2 126.711C162.2 127.861 163.132 128.793 164.282 128.793Z" fill="#3F3D56"/>
<path d="M143.265 120.234C139.914 114.351 142.461 106.584 148.954 102.886C155.446 99.1867 163.426 100.957 166.777 106.839C170.128 112.721 166.224 116.47 159.732 120.169C153.239 123.868 146.617 126.116 143.265 120.234Z" fill="#6C63FF"/>
<path d="M132.613 139.327C132.613 151.019 125.662 155.102 117.087 155.102C116.889 155.102 116.69 155.1 116.492 155.095C116.095 155.087 115.701 155.068 115.313 155.042C107.574 154.494 101.562 150.201 101.562 139.327C101.562 128.073 115.943 113.872 117.023 112.821L117.025 112.819C117.066 112.779 117.087 112.759 117.087 112.759C117.087 112.759 132.613 127.634 132.613 139.327Z" fill="#6C63FF"/>
<path d="M116.521 153.313L122.199 145.379L116.506 154.185L116.491 155.095C116.094 155.087 115.701 155.068 115.312 155.042L115.924 143.343L115.919 143.252L115.929 143.235L115.987 142.13L110.28 133.303L116.005 141.302L116.018 141.536L116.481 132.697L111.595 123.576L116.541 131.146L117.022 112.821L117.024 112.759V112.819L116.944 127.27L121.808 121.541L116.924 128.514L116.795 136.428L121.336 128.833L116.776 137.593L116.704 141.992L123.297 131.421L116.68 143.528L116.521 153.313Z" fill="#3F3D56"/>
<path d="M193.671 144.204C193.671 156.942 186.099 161.389 176.757 161.389C176.541 161.389 176.325 161.387 176.109 161.382C175.676 161.373 175.248 161.352 174.824 161.323C166.394 160.727 159.844 156.05 159.844 144.204C159.844 131.944 175.51 116.474 176.687 115.329L176.689 115.327C176.735 115.283 176.757 115.261 176.757 115.261C176.757 115.261 193.671 131.466 193.671 144.204Z" fill="#6C63FF"/>
<path d="M176.141 159.44L182.327 150.797L176.125 160.39L176.109 161.382C175.676 161.373 175.247 161.352 174.824 161.323L175.491 148.579L175.486 148.48L175.497 148.462L175.56 147.258L169.343 137.641L175.579 146.355L175.594 146.611L176.098 136.982L170.775 127.045L176.163 135.292L176.687 115.329L176.689 115.261V115.327L176.602 131.069L181.9 124.828L176.58 132.425L176.44 141.046L181.387 132.772L176.419 142.315L176.341 147.108L183.523 135.592L176.314 148.78L176.141 159.44Z" fill="#3F3D56"/>
<path d="M166.359 142.207C167.037 140.776 163.892 137.863 159.333 135.701C154.775 133.538 150.529 132.946 149.85 134.377C149.171 135.808 152.317 138.721 156.875 140.883C161.434 143.045 165.68 143.638 166.359 142.207Z" fill="#2F2E41"/>
<path d="M25.7345 140.534C26.3238 139.064 23.005 136.35 18.3217 134.473C13.6385 132.596 9.36429 132.266 8.775 133.736C8.18572 135.207 11.5045 137.92 16.1877 139.797C20.871 141.674 25.1452 142.004 25.7345 140.534Z" fill="#2F2E41"/>
</svg>
