<svg width="108" height="108" viewBox="0 0 108 108" fill="none" xmlns="http://www.w3.org/2000/svg">
<rect x="0.333374" width="107" height="104" rx="5" fill="white"/>
<g style="mix-blend-mode:luminosity" opacity="0.5" filter="url(#filter0_d_13642_31323)">
<g clip-path="url(#clip0_13642_31323)">
<rect x="5.83337" y="4" width="96" height="96" rx="48" fill="#E4EBF0"/>
<path d="M16.1553 26.1423C16.1553 24.4855 17.4984 23.1423 19.1553 23.1423H49.8556L64.8335 38.1202V82.3007C64.8335 83.9575 63.4903 85.3007 61.8335 85.3007H19.1553C17.4984 85.3007 16.1553 83.9575 16.1553 82.3007V26.1423Z" fill="#1C9E59"/>
<mask id="mask0_13642_31323" style="mask-type:alpha" maskUnits="userSpaceOnUse" x="16" y="23" width="49" height="63">
<path d="M16.1553 26.1423C16.1553 24.4855 17.4984 23.1423 19.1553 23.1423H49.8556L64.8335 38.1202V82.3007C64.8335 83.9575 63.4903 85.3007 61.8335 85.3007H19.1553C17.4984 85.3007 16.1553 83.9575 16.1553 82.3007V26.1423Z" fill="#0085FF"/>
</mask>
<g mask="url(#mask0_13642_31323)">
<path fill-rule="evenodd" clip-rule="evenodd" d="M37.0514 55.5879C37.0514 54.7595 37.723 54.0879 38.5514 54.0879H51.5514C52.3798 54.0879 53.0514 54.7595 53.0514 55.5879C53.0514 56.4163 52.3798 57.0879 51.5514 57.0879H38.5514C37.723 57.0879 37.0514 56.4163 37.0514 55.5879Z" fill="#196036"/>
<path fill-rule="evenodd" clip-rule="evenodd" d="M43.0514 63.5879C43.0514 62.7594 43.723 62.0879 44.5514 62.0879H51.5514C52.3798 62.0879 53.0514 62.7594 53.0514 63.5879C53.0514 64.4163 52.3798 65.0879 51.5514 65.0879H44.5514C43.723 65.0879 43.0514 64.4163 43.0514 63.5879Z" fill="#196036"/>
<path fill-rule="evenodd" clip-rule="evenodd" d="M25.0514 71.5879C25.0514 70.7595 25.723 70.0879 26.5514 70.0879H32.5514C33.3798 70.0879 34.0514 70.7595 34.0514 71.5879C34.0514 72.4163 33.3798 73.0879 32.5514 73.0879H26.5514C25.723 73.0879 25.0514 72.4163 25.0514 71.5879Z" fill="#196036"/>
<path fill-rule="evenodd" clip-rule="evenodd" d="M36.0514 71.5879C36.0514 70.7595 36.723 70.0879 37.5514 70.0879L51.5514 70.0879C52.3798 70.0879 53.0514 70.7595 53.0514 71.5879C53.0514 72.4163 52.3798 73.0879 51.5514 73.0879L37.5514 73.0879C36.723 73.0879 36.0514 72.4163 36.0514 71.5879Z" fill="#196036"/>
<path fill-rule="evenodd" clip-rule="evenodd" d="M25.0514 55.5879C25.0514 54.7595 25.723 54.0879 26.5514 54.0879H32.5514C33.3798 54.0879 34.0514 54.7595 34.0514 55.5879C34.0514 56.4163 33.3798 57.0879 32.5514 57.0879H26.5514C25.723 57.0879 25.0514 56.4163 25.0514 55.5879Z" fill="white"/>
<path fill-rule="evenodd" clip-rule="evenodd" d="M25.0514 63.5879C25.0514 62.7594 25.723 62.0879 26.5514 62.0879H39.5514C40.3798 62.0879 41.0514 62.7594 41.0514 63.5879C41.0514 64.4163 40.3798 65.0879 39.5514 65.0879H26.5514C25.723 65.0879 25.0514 64.4163 25.0514 63.5879Z" fill="white"/>
</g>
<path d="M49.8555 23.1423L64.8334 38.1202H52.8555C51.1986 38.1202 49.8555 36.7771 49.8555 35.1202V23.1423Z" fill="#196036"/>
<path fill-rule="evenodd" clip-rule="evenodd" d="M17.1519 24.1391C16.4907 24.8003 16.4907 25.8723 17.1519 26.5335L23.9254 33.307C24.5866 33.9682 25.6585 33.9682 26.3197 33.307C26.9809 32.6458 26.9809 31.5738 26.3197 30.9126L19.5462 24.1391C18.885 23.4779 17.813 23.4779 17.1519 24.1391ZM15.0305 28.6548C13.1978 26.822 13.1978 23.8506 15.0305 22.0178C16.8633 20.1851 19.8348 20.185 21.6675 22.0178L28.441 28.7913C30.2738 30.6241 30.2738 33.5956 28.441 35.4283C26.6083 37.2611 23.6368 37.2611 21.8041 35.4283L15.0305 28.6548Z" fill="#196036"/>
<path d="M74.8551 9.29968C75.9597 9.29968 76.8551 8.40425 76.8551 7.29968C76.8551 6.19511 75.9597 5.29968 74.8551 5.29968C73.7505 5.29968 72.8551 6.19511 72.8551 7.29968C72.8551 8.40425 73.7505 9.29968 74.8551 9.29968Z" fill="#B3BEC9"/>
<path d="M74.8551 17.2997C75.9597 17.2997 76.8551 16.4043 76.8551 15.2997C76.8551 14.1951 75.9597 13.2997 74.8551 13.2997C73.7505 13.2997 72.8551 14.1951 72.8551 15.2997C72.8551 16.4043 73.7505 17.2997 74.8551 17.2997Z" fill="#9C1EFF"/>
<path d="M74.8551 25.2997C75.9597 25.2997 76.8551 24.4043 76.8551 23.2997C76.8551 22.1951 75.9597 21.2997 74.8551 21.2997C73.7505 21.2997 72.8551 22.1951 72.8551 23.2997C72.8551 24.4043 73.7505 25.2997 74.8551 25.2997Z" fill="#B3BEC9"/>
<path d="M74.8551 33.2997C75.9597 33.2997 76.8551 32.4043 76.8551 31.2997C76.8551 30.1951 75.9597 29.2997 74.8551 29.2997C73.7505 29.2997 72.8551 30.1951 72.8551 31.2997C72.8551 32.4043 73.7505 33.2997 74.8551 33.2997Z" fill="#B3BEC9"/>
<path d="M74.8551 41.2997C75.9597 41.2997 76.8551 40.4043 76.8551 39.2997C76.8551 38.1951 75.9597 37.2997 74.8551 37.2997C73.7505 37.2997 72.8551 38.1951 72.8551 39.2997C72.8551 40.4043 73.7505 41.2997 74.8551 41.2997Z" fill="#B3BEC9"/>
<path d="M82.8551 9.29968C83.9597 9.29968 84.8551 8.40425 84.8551 7.29968C84.8551 6.19511 83.9597 5.29968 82.8551 5.29968C81.7505 5.29968 80.8551 6.19511 80.8551 7.29968C80.8551 8.40425 81.7505 9.29968 82.8551 9.29968Z" fill="#B3BEC9"/>
<path d="M82.8551 17.2997C83.9597 17.2997 84.8551 16.4043 84.8551 15.2997C84.8551 14.1951 83.9597 13.2997 82.8551 13.2997C81.7505 13.2997 80.8551 14.1951 80.8551 15.2997C80.8551 16.4043 81.7505 17.2997 82.8551 17.2997Z" fill="#B3BEC9"/>
<path d="M82.8551 25.2997C83.9597 25.2997 84.8551 24.4043 84.8551 23.2997C84.8551 22.1951 83.9597 21.2997 82.8551 21.2997C81.7505 21.2997 80.8551 22.1951 80.8551 23.2997C80.8551 24.4043 81.7505 25.2997 82.8551 25.2997Z" fill="#B3BEC9"/>
<path d="M82.8551 33.2997C83.9597 33.2997 84.8551 32.4043 84.8551 31.2997C84.8551 30.1951 83.9597 29.2997 82.8551 29.2997C81.7505 29.2997 80.8551 30.1951 80.8551 31.2997C80.8551 32.4043 81.7505 33.2997 82.8551 33.2997Z" fill="#B3BEC9"/>
<path d="M82.8551 41.2997C83.9597 41.2997 84.8551 40.4043 84.8551 39.2997C84.8551 38.1951 83.9597 37.2997 82.8551 37.2997C81.7505 37.2997 80.8551 38.1951 80.8551 39.2997C80.8551 40.4043 81.7505 41.2997 82.8551 41.2997Z" fill="#F84747"/>
<path d="M90.8551 9.29968C91.9597 9.29968 92.8551 8.40425 92.8551 7.29968C92.8551 6.19511 91.9597 5.29968 90.8551 5.29968C89.7505 5.29968 88.8551 6.19511 88.8551 7.29968C88.8551 8.40425 89.7505 9.29968 90.8551 9.29968Z" fill="#B3BEC9"/>
<path d="M98.8551 9.29968C99.9597 9.29968 100.855 8.40425 100.855 7.29968C100.855 6.19511 99.9597 5.29968 98.8551 5.29968C97.7505 5.29968 96.8551 6.19511 96.8551 7.29968C96.8551 8.40425 97.7505 9.29968 98.8551 9.29968Z" fill="#B3BEC9"/>
<path d="M90.8551 17.2997C91.9597 17.2997 92.8551 16.4043 92.8551 15.2997C92.8551 14.1951 91.9597 13.2997 90.8551 13.2997C89.7505 13.2997 88.8551 14.1951 88.8551 15.2997C88.8551 16.4043 89.7505 17.2997 90.8551 17.2997Z" fill="#B3BEC9"/>
<path d="M98.8551 17.2997C99.9597 17.2997 100.855 16.4043 100.855 15.2997C100.855 14.1951 99.9597 13.2997 98.8551 13.2997C97.7505 13.2997 96.8551 14.1951 96.8551 15.2997C96.8551 16.4043 97.7505 17.2997 98.8551 17.2997Z" fill="#B3BEC9"/>
<path d="M90.8551 25.2997C91.9597 25.2997 92.8551 24.4043 92.8551 23.2997C92.8551 22.1951 91.9597 21.2997 90.8551 21.2997C89.7505 21.2997 88.8551 22.1951 88.8551 23.2997C88.8551 24.4043 89.7505 25.2997 90.8551 25.2997Z" fill="#B3BEC9"/>
<path d="M98.8551 25.2997C99.9597 25.2997 100.855 24.4043 100.855 23.2997C100.855 22.1951 99.9597 21.2997 98.8551 21.2997C97.7505 21.2997 96.8551 22.1951 96.8551 23.2997C96.8551 24.4043 97.7505 25.2997 98.8551 25.2997Z" fill="#B3BEC9"/>
<path d="M90.8551 33.2997C91.9597 33.2997 92.8551 32.4043 92.8551 31.2997C92.8551 30.1951 91.9597 29.2997 90.8551 29.2997C89.7505 29.2997 88.8551 30.1951 88.8551 31.2997C88.8551 32.4043 89.7505 33.2997 90.8551 33.2997Z" fill="#B3BEC9"/>
<path d="M98.8551 33.2997C99.9597 33.2997 100.855 32.4043 100.855 31.2997C100.855 30.1951 99.9597 29.2997 98.8551 29.2997C97.7505 29.2997 96.8551 30.1951 96.8551 31.2997C96.8551 32.4043 97.7505 33.2997 98.8551 33.2997Z" fill="#B3BEC9"/>
<path d="M90.8551 41.2997C91.9597 41.2997 92.8551 40.4043 92.8551 39.2997C92.8551 38.1951 91.9597 37.2997 90.8551 37.2997C89.7505 37.2997 88.8551 38.1951 88.8551 39.2997C88.8551 40.4043 89.7505 41.2997 90.8551 41.2997Z" fill="#B3BEC9"/>
<path d="M98.8551 41.2997C99.9597 41.2997 100.855 40.4043 100.855 39.2997C100.855 38.1951 99.9597 37.2997 98.8551 37.2997C97.7505 37.2997 96.8551 38.1951 96.8551 39.2997C96.8551 40.4043 97.7505 41.2997 98.8551 41.2997Z" fill="#B3BEC9"/>
<rect x="67.9734" y="57.6216" width="17.8871" height="16.5643" fill="white"/>
<g clip-path="url(#clip1_13642_31323)">
<path d="M67.2926 74.1852C63.185 74.1852 59.8551 70.8964 59.8551 66.8395C59.8551 63.0442 62.7695 59.9211 66.5085 59.5342C66.3268 58.8512 66.2301 58.1343 66.2301 57.3951C66.2301 52.7586 70.0357 49 74.7301 49C78.7226 49 82.0723 51.7187 82.9846 55.3839C83.4123 55.3261 83.8489 55.2963 84.2926 55.2963C89.5738 55.2963 93.8551 59.5247 93.8551 64.7407C93.8551 69.9568 89.5738 74.1852 84.2926 74.1852H78.9801V66.6595L81.7275 69.3729C82.5574 70.1926 83.9028 70.1926 84.7327 69.3729C85.5626 68.5533 85.5626 67.2245 84.7327 66.4048L78.3577 60.1085C77.5278 59.2889 76.1824 59.2889 75.3525 60.1085L68.9775 66.4048C68.1476 67.2245 68.1476 68.5533 68.9775 69.3729C69.8074 70.1926 71.1528 70.1926 71.9827 69.3729L74.7301 66.6595L74.7301 74.1852H67.2926Z" fill="#FFAE41"/>
<path d="M74.7301 74.1852H78.9801L78.9801 80.9012C78.9801 82.0604 78.0287 83 76.8551 83C75.6815 83 74.7301 82.0604 74.7301 80.9012L74.7301 74.1852Z" fill="#FFAE41"/>
</g>
</g>
</g>
<defs>
<filter id="filter0_d_13642_31323" x="1.83337" y="4" width="104" height="104" filterUnits="userSpaceOnUse" color-interpolation-filters="sRGB">
<feFlood flood-opacity="0" result="BackgroundImageFix"/>
<feColorMatrix in="SourceAlpha" type="matrix" values="0 0 0 0 0 0 0 0 0 0 0 0 0 0 0 0 0 0 127 0" result="hardAlpha"/>
<feOffset dy="4"/>
<feGaussianBlur stdDeviation="2"/>
<feComposite in2="hardAlpha" operator="out"/>
<feColorMatrix type="matrix" values="0 0 0 0 0 0 0 0 0 0 0 0 0 0 0 0 0 0 0.25 0"/>
<feBlend mode="normal" in2="BackgroundImageFix" result="effect1_dropShadow_13642_31323"/>
<feBlend mode="normal" in="SourceGraphic" in2="effect1_dropShadow_13642_31323" result="shape"/>
</filter>
<clipPath id="clip0_13642_31323">
<rect x="5.83337" y="4" width="96" height="96" rx="48" fill="white"/>
</clipPath>
<clipPath id="clip1_13642_31323">
<rect width="34" height="34" fill="white" transform="translate(59.8551 49)"/>
</clipPath>
</defs>
</svg>
