<svg width="97" height="96" viewBox="0 0 97 96" fill="none" xmlns="http://www.w3.org/2000/svg">
<g clip-path="url(#clip0_13777_3829)">
<rect x="0.25" width="96" height="96" rx="48" fill="#E4EBF0"/>
<path d="M10.5719 22.1423C10.5719 20.4855 11.915 19.1423 13.5719 19.1423H44.2722L59.2501 34.1202V78.3007C59.2501 79.9575 57.907 81.3007 56.2501 81.3007H13.5719C11.915 81.3007 10.5719 79.9575 10.5719 78.3007V22.1423Z" fill="#1C9E59"/>
<mask id="mask0_13777_3829" style="mask-type:alpha" maskUnits="userSpaceOnUse" x="10" y="19" width="50" height="63">
<path d="M10.5719 22.1423C10.5719 20.4855 11.915 19.1423 13.5719 19.1423H44.2722L59.2501 34.1202V78.3007C59.2501 79.9575 57.907 81.3007 56.2501 81.3007H13.5719C11.915 81.3007 10.5719 79.9575 10.5719 78.3007V22.1423Z" fill="#0085FF"/>
</mask>
<g mask="url(#mask0_13777_3829)">
<path fill-rule="evenodd" clip-rule="evenodd" d="M31.468 51.5879C31.468 50.7595 32.1396 50.0879 32.968 50.0879H45.968C46.7964 50.0879 47.468 50.7595 47.468 51.5879C47.468 52.4163 46.7964 53.0879 45.968 53.0879H32.968C32.1396 53.0879 31.468 52.4163 31.468 51.5879Z" fill="#196036"/>
<path fill-rule="evenodd" clip-rule="evenodd" d="M37.468 59.5879C37.468 58.7595 38.1396 58.0879 38.968 58.0879H45.968C46.7964 58.0879 47.468 58.7595 47.468 59.5879C47.468 60.4163 46.7964 61.0879 45.968 61.0879H38.968C38.1396 61.0879 37.468 60.4163 37.468 59.5879Z" fill="#196036"/>
<path fill-rule="evenodd" clip-rule="evenodd" d="M19.468 67.5879C19.468 66.7595 20.1396 66.0879 20.968 66.0879H26.968C27.7964 66.0879 28.468 66.7595 28.468 67.5879C28.468 68.4163 27.7964 69.0879 26.968 69.0879H20.968C20.1396 69.0879 19.468 68.4163 19.468 67.5879Z" fill="#196036"/>
<path fill-rule="evenodd" clip-rule="evenodd" d="M30.468 67.5879C30.468 66.7595 31.1396 66.0879 31.968 66.0879L45.968 66.0879C46.7964 66.0879 47.468 66.7595 47.468 67.5879C47.468 68.4163 46.7964 69.0879 45.968 69.0879L31.968 69.0879C31.1396 69.0879 30.468 68.4163 30.468 67.5879Z" fill="#196036"/>
<path fill-rule="evenodd" clip-rule="evenodd" d="M19.468 51.5879C19.468 50.7595 20.1396 50.0879 20.968 50.0879H26.968C27.7964 50.0879 28.468 50.7595 28.468 51.5879C28.468 52.4163 27.7964 53.0879 26.968 53.0879H20.968C20.1396 53.0879 19.468 52.4163 19.468 51.5879Z" fill="white"/>
<path fill-rule="evenodd" clip-rule="evenodd" d="M19.468 59.5879C19.468 58.7595 20.1396 58.0879 20.968 58.0879H33.968C34.7964 58.0879 35.468 58.7595 35.468 59.5879C35.468 60.4163 34.7964 61.0879 33.968 61.0879H20.968C20.1396 61.0879 19.468 60.4163 19.468 59.5879Z" fill="white"/>
</g>
<path d="M44.2721 19.1423L59.25 34.1202H47.2721C45.6152 34.1202 44.2721 32.7771 44.2721 31.1202V19.1423Z" fill="#196036"/>
<path fill-rule="evenodd" clip-rule="evenodd" d="M11.5685 20.139C10.9073 20.8002 10.9073 21.8722 11.5685 22.5334L18.342 29.3069C19.0032 29.9681 20.0752 29.9681 20.7364 29.3069C21.3975 28.6457 21.3975 27.5737 20.7364 26.9125L13.9628 20.139C13.3017 19.4778 12.2297 19.4778 11.5685 20.139ZM9.44716 24.6547C7.6144 22.8219 7.61441 19.8504 9.44716 18.0177C11.2799 16.1849 14.2514 16.1849 16.0842 18.0177L22.8577 24.7912C24.6904 26.624 24.6904 29.5954 22.8577 31.4282C21.0249 33.2609 18.0534 33.261 16.2207 31.4282L9.44716 24.6547Z" fill="#196036"/>
<path d="M69.2717 5.2998C70.3763 5.2998 71.2717 4.40437 71.2717 3.2998C71.2717 2.19524 70.3763 1.2998 69.2717 1.2998C68.1672 1.2998 67.2717 2.19524 67.2717 3.2998C67.2717 4.40437 68.1672 5.2998 69.2717 5.2998Z" fill="#B3BEC9"/>
<path d="M69.2717 13.2998C70.3763 13.2998 71.2717 12.4044 71.2717 11.2998C71.2717 10.1952 70.3763 9.2998 69.2717 9.2998C68.1672 9.2998 67.2717 10.1952 67.2717 11.2998C67.2717 12.4044 68.1672 13.2998 69.2717 13.2998Z" fill="#9C1EFF"/>
<path d="M69.2717 21.2998C70.3763 21.2998 71.2717 20.4044 71.2717 19.2998C71.2717 18.1952 70.3763 17.2998 69.2717 17.2998C68.1672 17.2998 67.2717 18.1952 67.2717 19.2998C67.2717 20.4044 68.1672 21.2998 69.2717 21.2998Z" fill="#B3BEC9"/>
<path d="M69.2717 29.2998C70.3763 29.2998 71.2717 28.4044 71.2717 27.2998C71.2717 26.1952 70.3763 25.2998 69.2717 25.2998C68.1672 25.2998 67.2717 26.1952 67.2717 27.2998C67.2717 28.4044 68.1672 29.2998 69.2717 29.2998Z" fill="#B3BEC9"/>
<path d="M69.2717 37.2998C70.3763 37.2998 71.2717 36.4044 71.2717 35.2998C71.2717 34.1952 70.3763 33.2998 69.2717 33.2998C68.1672 33.2998 67.2717 34.1952 67.2717 35.2998C67.2717 36.4044 68.1672 37.2998 69.2717 37.2998Z" fill="#B3BEC9"/>
<path d="M77.2717 5.2998C78.3763 5.2998 79.2717 4.40437 79.2717 3.2998C79.2717 2.19524 78.3763 1.2998 77.2717 1.2998C76.1672 1.2998 75.2717 2.19524 75.2717 3.2998C75.2717 4.40437 76.1672 5.2998 77.2717 5.2998Z" fill="#B3BEC9"/>
<path d="M77.2717 13.2998C78.3763 13.2998 79.2717 12.4044 79.2717 11.2998C79.2717 10.1952 78.3763 9.2998 77.2717 9.2998C76.1672 9.2998 75.2717 10.1952 75.2717 11.2998C75.2717 12.4044 76.1672 13.2998 77.2717 13.2998Z" fill="#B3BEC9"/>
<path d="M77.2717 21.2998C78.3763 21.2998 79.2717 20.4044 79.2717 19.2998C79.2717 18.1952 78.3763 17.2998 77.2717 17.2998C76.1672 17.2998 75.2717 18.1952 75.2717 19.2998C75.2717 20.4044 76.1672 21.2998 77.2717 21.2998Z" fill="#B3BEC9"/>
<path d="M77.2717 29.2998C78.3763 29.2998 79.2717 28.4044 79.2717 27.2998C79.2717 26.1952 78.3763 25.2998 77.2717 25.2998C76.1672 25.2998 75.2717 26.1952 75.2717 27.2998C75.2717 28.4044 76.1672 29.2998 77.2717 29.2998Z" fill="#B3BEC9"/>
<path d="M77.2717 37.2998C78.3763 37.2998 79.2717 36.4044 79.2717 35.2998C79.2717 34.1952 78.3763 33.2998 77.2717 33.2998C76.1672 33.2998 75.2717 34.1952 75.2717 35.2998C75.2717 36.4044 76.1672 37.2998 77.2717 37.2998Z" fill="#F84747"/>
<path d="M85.2717 5.2998C86.3763 5.2998 87.2717 4.40437 87.2717 3.2998C87.2717 2.19524 86.3763 1.2998 85.2717 1.2998C84.1672 1.2998 83.2717 2.19524 83.2717 3.2998C83.2717 4.40437 84.1672 5.2998 85.2717 5.2998Z" fill="#B3BEC9"/>
<path d="M93.2717 5.2998C94.3763 5.2998 95.2717 4.40437 95.2717 3.2998C95.2717 2.19524 94.3763 1.2998 93.2717 1.2998C92.1672 1.2998 91.2717 2.19524 91.2717 3.2998C91.2717 4.40437 92.1672 5.2998 93.2717 5.2998Z" fill="#B3BEC9"/>
<path d="M85.2717 13.2998C86.3763 13.2998 87.2717 12.4044 87.2717 11.2998C87.2717 10.1952 86.3763 9.2998 85.2717 9.2998C84.1672 9.2998 83.2717 10.1952 83.2717 11.2998C83.2717 12.4044 84.1672 13.2998 85.2717 13.2998Z" fill="#B3BEC9"/>
<path d="M93.2717 13.2998C94.3763 13.2998 95.2717 12.4044 95.2717 11.2998C95.2717 10.1952 94.3763 9.2998 93.2717 9.2998C92.1672 9.2998 91.2717 10.1952 91.2717 11.2998C91.2717 12.4044 92.1672 13.2998 93.2717 13.2998Z" fill="#B3BEC9"/>
<path d="M85.2717 21.2998C86.3763 21.2998 87.2717 20.4044 87.2717 19.2998C87.2717 18.1952 86.3763 17.2998 85.2717 17.2998C84.1672 17.2998 83.2717 18.1952 83.2717 19.2998C83.2717 20.4044 84.1672 21.2998 85.2717 21.2998Z" fill="#B3BEC9"/>
<path d="M93.2717 21.2998C94.3763 21.2998 95.2717 20.4044 95.2717 19.2998C95.2717 18.1952 94.3763 17.2998 93.2717 17.2998C92.1672 17.2998 91.2717 18.1952 91.2717 19.2998C91.2717 20.4044 92.1672 21.2998 93.2717 21.2998Z" fill="#B3BEC9"/>
<path d="M85.2717 29.2998C86.3763 29.2998 87.2717 28.4044 87.2717 27.2998C87.2717 26.1952 86.3763 25.2998 85.2717 25.2998C84.1672 25.2998 83.2717 26.1952 83.2717 27.2998C83.2717 28.4044 84.1672 29.2998 85.2717 29.2998Z" fill="#B3BEC9"/>
<path d="M93.2717 29.2998C94.3763 29.2998 95.2717 28.4044 95.2717 27.2998C95.2717 26.1952 94.3763 25.2998 93.2717 25.2998C92.1672 25.2998 91.2717 26.1952 91.2717 27.2998C91.2717 28.4044 92.1672 29.2998 93.2717 29.2998Z" fill="#B3BEC9"/>
<path d="M85.2717 37.2998C86.3763 37.2998 87.2717 36.4044 87.2717 35.2998C87.2717 34.1952 86.3763 33.2998 85.2717 33.2998C84.1672 33.2998 83.2717 34.1952 83.2717 35.2998C83.2717 36.4044 84.1672 37.2998 85.2717 37.2998Z" fill="#B3BEC9"/>
<path d="M93.2717 37.2998C94.3763 37.2998 95.2717 36.4044 95.2717 35.2998C95.2717 34.1952 94.3763 33.2998 93.2717 33.2998C92.1672 33.2998 91.2717 34.1952 91.2717 35.2998C91.2717 36.4044 92.1672 37.2998 93.2717 37.2998Z" fill="#B3BEC9"/>
<rect x="62.39" y="53.6216" width="17.8871" height="16.5643" fill="white"/>
<g clip-path="url(#clip1_13777_3829)">
<path d="M61.7092 70.1852C57.6016 70.1852 54.2717 66.8964 54.2717 62.8395C54.2717 59.0442 57.1861 55.9211 60.9251 55.5342C60.7435 54.8512 60.6467 54.1343 60.6467 53.3951C60.6467 48.7586 64.4523 45 69.1467 45C73.1393 45 76.4889 47.7187 77.4013 51.3839C77.8289 51.3261 78.2655 51.2963 78.7092 51.2963C83.9904 51.2963 88.2717 55.5247 88.2717 60.7407C88.2717 65.9568 83.9904 70.1852 78.7092 70.1852H73.3967V62.6595L76.1441 65.3729C76.974 66.1926 78.3195 66.1926 79.1493 65.3729C79.9792 64.5533 79.9792 63.2245 79.1493 62.4048L72.7743 56.1085C71.9445 55.2889 70.599 55.2889 69.7691 56.1085L63.3941 62.4048C62.5643 63.2245 62.5643 64.5533 63.3941 65.3729C64.224 66.1926 65.5695 66.1926 66.3993 65.3729L69.1467 62.6595L69.1467 70.1852H61.7092Z" fill="#FFAE41"/>
<path d="M69.1467 70.1852H73.3967L73.3967 76.9012C73.3967 78.0604 72.4453 79 71.2717 79C70.0981 79 69.1467 78.0604 69.1467 76.9012L69.1467 70.1852Z" fill="#FFAE41"/>
</g>
</g>
<defs>
<clipPath id="clip0_13777_3829">
<rect x="0.25" width="96" height="96" rx="48" fill="white"/>
</clipPath>
<clipPath id="clip1_13777_3829">
<rect width="34" height="34" fill="white" transform="translate(54.2717 45)"/>
</clipPath>
</defs>
</svg>
