<svg width="96" height="96" viewBox="0 0 96 96" fill="none" xmlns="http://www.w3.org/2000/svg">
<g clip-path="url(#clip0_15795_9775)">
<rect width="96" height="96" rx="48" fill="#E4EBF0"/>
<path d="M65.6543 53.2249C68.2865 53.2249 70.4204 51.0911 70.4204 48.4588C70.4204 45.8266 68.2865 43.6927 65.6543 43.6927C63.022 43.6927 60.8882 45.8266 60.8882 48.4588C60.8882 51.0911 63.022 53.2249 65.6543 53.2249Z" fill="#9C1EFF"/>
<path d="M59.9355 57.1313C59.9355 56.0268 60.831 55.1313 61.9355 55.1313H69.3741C70.4787 55.1313 71.3741 56.0268 71.3741 57.1313V71.2425C71.3741 72.347 70.4787 73.2425 69.3741 73.2425H61.9355C60.831 73.2425 59.9355 72.347 59.9355 71.2425V57.1313Z" fill="#9C1EFF"/>
<path d="M59.9355 71.8126C59.9355 70.4965 61.0025 69.4296 62.3186 69.4296C63.6347 69.4296 64.7016 70.4965 64.7016 71.8126V85.1576C64.7016 86.4738 63.6347 87.5407 62.3186 87.5407C61.0025 87.5407 59.9355 86.4738 59.9355 85.1576V71.8126Z" fill="#9C1EFF"/>
<path d="M66.6079 71.8126C66.6079 70.4965 67.6748 69.4296 68.991 69.4296C70.3071 69.4296 71.374 70.4965 71.374 71.8126V85.1576C71.374 86.4738 70.3071 87.5407 68.991 87.5407C67.6748 87.5407 66.6079 86.4738 66.6079 85.1576V71.8126Z" fill="#9C1EFF"/>
<path d="M67.8684 58.7081C67.2367 57.5677 67.6116 56.1095 68.7057 55.4512C69.7998 54.7928 71.1989 55.1835 71.8306 56.3238L78.6933 68.7125C79.325 69.8529 78.9501 71.3111 77.856 71.9694C76.7618 72.6278 75.3628 72.2371 74.7311 71.0968L67.8684 58.7081Z" fill="#9C1EFF"/>
<path d="M47.9247 49.9204C51.2589 49.9204 53.9618 47.2175 53.9618 43.8834C53.9618 40.5492 51.2589 37.8463 47.9247 37.8463C44.5906 37.8463 41.8877 40.5492 41.8877 43.8834C41.8877 47.2175 44.5906 49.9204 47.9247 49.9204Z" fill="#59059B"/>
<path d="M40.6802 54.3352C40.6802 53.2306 41.5756 52.3352 42.6802 52.3352H53.1691C54.2736 52.3352 55.1691 53.2306 55.1691 54.3352V73.276C55.1691 74.3805 54.2736 75.276 53.1691 75.276H42.6802C41.5756 75.276 40.6802 74.3805 40.6802 73.276V54.3352Z" fill="#59059B"/>
<path d="M40.6802 73.4648C40.6802 71.7977 42.0316 70.4463 43.6987 70.4463C45.3658 70.4463 46.7172 71.7977 46.7172 73.4648V90.3685C46.7172 92.0356 45.3658 93.387 43.6987 93.387C42.0316 93.387 40.6802 92.0356 40.6802 90.3685V73.4648Z" fill="#59059B"/>
<path d="M49.1323 73.4648C49.1323 71.7977 50.4838 70.4463 52.1508 70.4463C53.8179 70.4463 55.1694 71.7977 55.1694 73.4648V90.3685C55.1694 92.0356 53.8179 93.387 52.1508 93.387C50.4838 93.387 49.1323 92.0356 49.1323 90.3685V73.4648Z" fill="#59059B"/>
<path d="M50.7285 56.8657C49.9284 55.4213 50.4032 53.5743 51.7891 52.7403C53.175 51.9064 54.9471 52.4013 55.7473 53.8457L64.4401 69.5381C65.2402 70.9825 64.7654 72.8295 63.3795 73.6634C61.9936 74.4974 60.2214 74.0025 59.4213 72.558L50.7285 56.8657Z" fill="#59059B"/>
<path d="M27.4623 46.6159C31.4984 46.6159 34.7703 43.344 34.7703 39.3079C34.7703 35.2718 31.4984 31.9999 27.4623 31.9999C23.4262 31.9999 20.1543 35.2718 20.1543 39.3079C20.1543 43.344 23.4262 46.6159 27.4623 46.6159Z" fill="#9C1EFF"/>
<path d="M18.6929 51.5391C18.6929 50.4345 19.5883 49.5391 20.6929 49.5391H34.2321C35.3366 49.5391 36.2321 50.4345 36.2321 51.5391V75.3094C36.2321 76.414 35.3366 77.3094 34.2321 77.3094H20.6929C19.5883 77.3094 18.6929 76.414 18.6929 75.3094V51.5391Z" fill="#9C1EFF"/>
<path d="M18.6929 75.117C18.6929 73.099 20.3288 71.463 22.3469 71.463C24.3649 71.463 26.0009 73.099 26.0009 75.117V95.5794C26.0009 97.5974 24.3649 99.2334 22.3469 99.2334C20.3288 99.2334 18.6929 97.5974 18.6929 95.5794V75.117Z" fill="#9C1EFF"/>
<path d="M28.9238 75.117C28.9238 73.099 30.5598 71.463 32.5778 71.463C34.5959 71.463 36.2318 73.099 36.2318 75.117V95.5794C36.2318 97.5974 34.5959 99.2334 32.5778 99.2334C30.5598 99.2334 28.9238 97.5974 28.9238 95.5794V75.117Z" fill="#9C1EFF"/>
<path d="M30.8563 55.0233C29.8877 53.2748 30.4625 51.039 32.1401 50.0295C33.8178 49.0199 35.963 49.619 36.9316 51.3676L47.4544 70.3636C48.423 72.1121 47.8482 74.3479 46.1705 75.3575C44.4929 76.367 42.3477 75.7679 41.3791 74.0193L30.8563 55.0233Z" fill="#9C1EFF"/>
<path d="M24.0685 55.0233C25.0371 53.2748 24.4623 51.039 22.7847 50.0295C21.107 49.0199 18.9618 49.619 17.9932 51.3676L7.47039 70.3636C6.50179 72.1121 7.0766 74.3479 8.75426 75.3575C10.4319 76.367 12.5771 75.7679 13.5457 74.0193L24.0685 55.0233Z" fill="#9C1EFF"/>
<path fill-rule="evenodd" clip-rule="evenodd" d="M28.687 58.3491C28.687 57.5207 29.3586 56.8491 30.187 56.8491L32.2949 56.8491C33.1234 56.8491 33.7949 57.5207 33.7949 58.3491C33.7949 59.1775 33.1234 59.8491 32.2949 59.8491L30.187 59.8491C29.3586 59.8491 28.687 59.1775 28.687 58.3491Z" fill="white"/>
<path fill-rule="evenodd" clip-rule="evenodd" d="M47.6582 60.4569C47.6582 59.6285 48.3298 58.9569 49.1582 58.9569L51.2661 58.9569C52.0946 58.9569 52.7661 59.6285 52.7661 60.4569C52.7661 61.2853 52.0946 61.9569 51.2661 61.9569L49.1582 61.9569C48.3298 61.9569 47.6582 61.2853 47.6582 60.4569Z" fill="white"/>
<path fill-rule="evenodd" clip-rule="evenodd" d="M64.5 62C64.5 61.1716 65.1716 60.5 66 60.5L68.1079 60.5C68.9364 60.5 69.6079 61.1716 69.6079 62C69.6079 62.8284 68.9364 63.5 68.1079 63.5L66 63.5C65.1716 63.5 64.5 62.8284 64.5 62Z" fill="white"/>
<path d="M45 2C43.8954 2 43 1.10457 43 -1.74846e-07C43 -1.10457 43.8954 -2 45 -2C46.1046 -2 47 -1.10457 47 0C47 1.10457 46.1046 2 45 2Z" fill="#B3BEC9"/>
<path d="M45 10C43.8954 10 43 9.10457 43 8C43 6.89543 43.8954 6 45 6C46.1046 6 47 6.89543 47 8C47 9.10457 46.1046 10 45 10Z" fill="#0085FF"/>
<path d="M45 18C43.8954 18 43 17.1046 43 16C43 14.8954 43.8954 14 45 14C46.1046 14 47 14.8954 47 16C47 17.1046 46.1046 18 45 18Z" fill="#B3BEC9"/>
<path d="M45 26C43.8954 26 43 25.1046 43 24C43 22.8954 43.8954 22 45 22C46.1046 22 47 22.8954 47 24C47 25.1046 46.1046 26 45 26Z" fill="#B3BEC9"/>
<path d="M37 2C35.8954 2 35 1.10457 35 -1.74846e-07C35 -1.10457 35.8954 -2 37 -2C38.1046 -2 39 -1.10457 39 0C39 1.10457 38.1046 2 37 2Z" fill="#B3BEC9"/>
<path d="M37 10C35.8954 10 35 9.10457 35 8C35 6.89543 35.8954 6 37 6C38.1046 6 39 6.89543 39 8C39 9.10457 38.1046 10 37 10Z" fill="#B3BEC9"/>
<path d="M37 18C35.8954 18 35 17.1046 35 16C35 14.8954 35.8954 14 37 14C38.1046 14 39 14.8954 39 16C39 17.1046 38.1046 18 37 18Z" fill="#B3BEC9"/>
<path d="M37 26C35.8954 26 35 25.1046 35 24C35 22.8954 35.8954 22 37 22C38.1046 22 39 22.8954 39 24C39 25.1046 38.1046 26 37 26Z" fill="#B3BEC9"/>
<path d="M29 2C27.8954 2 27 1.10457 27 -1.74846e-07C27 -1.10457 27.8954 -2 29 -2C30.1046 -2 31 -1.10457 31 0C31 1.10457 30.1046 2 29 2Z" fill="#B3BEC9"/>
<path d="M21 2C19.8954 2 19 1.10457 19 -1.74846e-07C19 -1.10457 19.8954 -2 21 -2C22.1046 -2 23 -1.10457 23 0C23 1.10457 22.1046 2 21 2Z" fill="#B3BEC9"/>
<path d="M13 2C11.8954 2 11 1.10457 11 -1.74846e-07C11 -1.10457 11.8954 -2 13 -2C14.1046 -2 15 -1.10457 15 0C15 1.10457 14.1046 2 13 2Z" fill="#B3BEC9"/>
<path d="M5 2C3.89543 2 3 1.10457 3 -1.74846e-07C3 -1.10457 3.89543 -2 5 -2C6.10457 -2 7 -1.10457 7 0C7 1.10457 6.10457 2 5 2Z" fill="#B3BEC9"/>
<path d="M29 10C27.8954 10 27 9.10457 27 8C27 6.89543 27.8954 6 29 6C30.1046 6 31 6.89543 31 8C31 9.10457 30.1046 10 29 10Z" fill="#B3BEC9"/>
<path d="M21 10C19.8954 10 19 9.10457 19 8C19 6.89543 19.8954 6 21 6C22.1046 6 23 6.89543 23 8C23 9.10457 22.1046 10 21 10Z" fill="#B3BEC9"/>
<path d="M13 10C11.8954 10 11 9.10457 11 8C11 6.89543 11.8954 6 13 6C14.1046 6 15 6.89543 15 8C15 9.10457 14.1046 10 13 10Z" fill="#B3BEC9"/>
<path d="M5 10C3.89543 10 3 9.10457 3 8C3 6.89543 3.89543 6 5 6C6.10457 6 7 6.89543 7 8C7 9.10457 6.10457 10 5 10Z" fill="#B3BEC9"/>
<path d="M29 18C27.8954 18 27 17.1046 27 16C27 14.8954 27.8954 14 29 14C30.1046 14 31 14.8954 31 16C31 17.1046 30.1046 18 29 18Z" fill="#B3BEC9"/>
<path d="M21 18C19.8954 18 19 17.1046 19 16C19 14.8954 19.8954 14 21 14C22.1046 14 23 14.8954 23 16C23 17.1046 22.1046 18 21 18Z" fill="#B3BEC9"/>
<path d="M13 18C11.8954 18 11 17.1046 11 16C11 14.8954 11.8954 14 13 14C14.1046 14 15 14.8954 15 16C15 17.1046 14.1046 18 13 18Z" fill="#B3BEC9"/>
<path d="M5 18C3.89543 18 3 17.1046 3 16C3 14.8954 3.89543 14 5 14C6.10457 14 7 14.8954 7 16C7 17.1046 6.10457 18 5 18Z" fill="#B3BEC9"/>
<path d="M29 26C27.8954 26 27 25.1046 27 24C27 22.8954 27.8954 22 29 22C30.1046 22 31 22.8954 31 24C31 25.1046 30.1046 26 29 26Z" fill="#1C9E59"/>
<path d="M21 26C19.8954 26 19 25.1046 19 24C19 22.8954 19.8954 22 21 22C22.1046 22 23 22.8954 23 24C23 25.1046 22.1046 26 21 26Z" fill="#B3BEC9"/>
<path d="M13 26C11.8954 26 11 25.1046 11 24C11 22.8954 11.8954 22 13 22C14.1046 22 15 22.8954 15 24C15 25.1046 14.1046 26 13 26Z" fill="#B3BEC9"/>
<path d="M5 26C3.89543 26 3 25.1046 3 24C3 22.8954 3.89543 22 5 22C6.10457 22 7 22.8954 7 24C7 25.1046 6.10457 26 5 26Z" fill="#B3BEC9"/>
<path d="M79 24C73.4382 24 67.8765 30.0253 67.8765 34.7116C67.8765 30.0253 62.3147 24 56.7529 24C62.3147 24 67.8765 18.6442 67.8765 13.2885C67.8765 18.6442 73.4382 24 79 24Z" fill="#FFAE41"/>
</g>
<defs>
<clipPath id="clip0_15795_9775">
<rect width="96" height="96" rx="48" fill="white"/>
</clipPath>
</defs>
</svg>
